<svg width="1500" height="2083" viewBox="0 0 1500 2083" fill="none" xmlns="http://www.w3.org/2000/svg">
<g opacity="0.26">
<mask id="mask0_714_4792" style="mask-type:alpha" maskUnits="userSpaceOnUse" x="1119" y="233" width="11" height="11">
<path d="M1124.23 243.425C1127.12 243.425 1129.46 241.091 1129.46 238.212C1129.46 235.334 1127.12 233 1124.23 233C1121.34 233 1119 235.334 1119 238.212C1119 241.091 1121.34 243.425 1124.23 243.425Z" fill="url(#paint0_linear_714_4792)"/>
</mask>
<g mask="url(#mask0_714_4792)">
<path d="M1124.23 243.425C1127.12 243.425 1129.46 241.091 1129.46 238.212C1129.46 235.334 1127.12 233 1124.23 233C1121.34 233 1119 235.334 1119 238.212C1119 241.091 1121.34 243.425 1124.23 243.425Z" fill="url(#paint1_linear_714_4792)"/>
</g>
<mask id="mask1_714_4792" style="mask-type:alpha" maskUnits="userSpaceOnUse" x="1149" y="233" width="11" height="11">
<path d="M1154.51 243.425C1157.4 243.425 1159.74 241.091 1159.74 238.212C1159.74 235.334 1157.4 233 1154.51 233C1151.62 233 1149.28 235.334 1149.28 238.212C1149.28 241.091 1151.62 243.425 1154.51 243.425Z" fill="url(#paint2_linear_714_4792)"/>
</mask>
<g mask="url(#mask1_714_4792)">
<path d="M1154.51 243.425C1157.4 243.425 1159.74 241.091 1159.74 238.212C1159.74 235.334 1157.4 233 1154.51 233C1151.62 233 1149.28 235.334 1149.28 238.212C1149.28 241.091 1151.62 243.425 1154.51 243.425Z" fill="url(#paint3_linear_714_4792)"/>
</g>
<mask id="mask2_714_4792" style="mask-type:alpha" maskUnits="userSpaceOnUse" x="1179" y="233" width="12" height="11">
<path d="M1184.79 243.425C1187.68 243.425 1190.02 241.091 1190.02 238.212C1190.02 235.334 1187.68 233 1184.79 233C1181.9 233 1179.56 235.334 1179.56 238.212C1179.56 241.091 1181.9 243.425 1184.79 243.425Z" fill="url(#paint4_linear_714_4792)"/>
</mask>
<g mask="url(#mask2_714_4792)">
<path d="M1184.79 243.425C1187.68 243.425 1190.02 241.091 1190.02 238.212C1190.02 235.334 1187.68 233 1184.79 233C1181.9 233 1179.56 235.334 1179.56 238.212C1179.56 241.091 1181.9 243.425 1184.79 243.425Z" fill="url(#paint5_linear_714_4792)"/>
</g>
<mask id="mask3_714_4792" style="mask-type:alpha" maskUnits="userSpaceOnUse" x="1209" y="233" width="12" height="11">
<path d="M1215.07 243.425C1217.96 243.425 1220.3 241.091 1220.3 238.212C1220.3 235.334 1217.96 233 1215.07 233C1212.18 233 1209.84 235.334 1209.84 238.212C1209.84 241.091 1212.18 243.425 1215.07 243.425Z" fill="url(#paint6_linear_714_4792)"/>
</mask>
<g mask="url(#mask3_714_4792)">
<path d="M1215.07 243.425C1217.96 243.425 1220.3 241.091 1220.3 238.212C1220.3 235.334 1217.96 233 1215.07 233C1212.18 233 1209.84 235.334 1209.84 238.212C1209.84 241.091 1212.18 243.425 1215.07 243.425Z" fill="url(#paint7_linear_714_4792)"/>
</g>
<mask id="mask4_714_4792" style="mask-type:alpha" maskUnits="userSpaceOnUse" x="1240" y="233" width="11" height="11">
<path d="M1245.35 243.425C1248.24 243.425 1250.58 241.091 1250.58 238.212C1250.58 235.334 1248.24 233 1245.35 233C1242.47 233 1240.12 235.334 1240.12 238.212C1240.12 241.091 1242.47 243.425 1245.35 243.425Z" fill="url(#paint8_linear_714_4792)"/>
</mask>
<g mask="url(#mask4_714_4792)">
<path d="M1245.35 243.425C1248.24 243.425 1250.58 241.091 1250.58 238.212C1250.58 235.334 1248.24 233 1245.35 233C1242.47 233 1240.12 235.334 1240.12 238.212C1240.12 241.091 1242.47 243.425 1245.35 243.425Z" fill="url(#paint9_linear_714_4792)"/>
</g>
<mask id="mask5_714_4792" style="mask-type:alpha" maskUnits="userSpaceOnUse" x="1119" y="259" width="11" height="11">
<path d="M1124.23 269.596C1127.12 269.596 1129.46 267.262 1129.46 264.383C1129.46 261.505 1127.12 259.171 1124.23 259.171C1121.34 259.171 1119 261.505 1119 264.383C1119 267.262 1121.34 269.596 1124.23 269.596Z" fill="url(#paint10_linear_714_4792)"/>
</mask>
<g mask="url(#mask5_714_4792)">
<path d="M1124.23 269.596C1127.12 269.596 1129.46 267.262 1129.46 264.383C1129.46 261.505 1127.12 259.171 1124.23 259.171C1121.34 259.171 1119 261.505 1119 264.383C1119 267.262 1121.34 269.596 1124.23 269.596Z" fill="url(#paint11_linear_714_4792)"/>
</g>
<mask id="mask6_714_4792" style="mask-type:alpha" maskUnits="userSpaceOnUse" x="1149" y="259" width="11" height="11">
<path d="M1154.51 269.596C1157.4 269.596 1159.74 267.262 1159.74 264.383C1159.74 261.505 1157.4 259.171 1154.51 259.171C1151.62 259.171 1149.28 261.505 1149.28 264.383C1149.28 267.262 1151.62 269.596 1154.51 269.596Z" fill="url(#paint12_linear_714_4792)"/>
</mask>
<g mask="url(#mask6_714_4792)">
<path d="M1154.51 269.596C1157.4 269.596 1159.74 267.262 1159.74 264.383C1159.74 261.505 1157.4 259.171 1154.51 259.171C1151.62 259.171 1149.28 261.505 1149.28 264.383C1149.28 267.262 1151.62 269.596 1154.51 269.596Z" fill="url(#paint13_linear_714_4792)"/>
</g>
<mask id="mask7_714_4792" style="mask-type:alpha" maskUnits="userSpaceOnUse" x="1179" y="259" width="12" height="11">
<path d="M1184.79 269.596C1187.68 269.596 1190.02 267.262 1190.02 264.383C1190.02 261.505 1187.68 259.171 1184.79 259.171C1181.9 259.171 1179.56 261.505 1179.56 264.383C1179.56 267.262 1181.9 269.596 1184.79 269.596Z" fill="url(#paint14_linear_714_4792)"/>
</mask>
<g mask="url(#mask7_714_4792)">
<path d="M1184.79 269.596C1187.68 269.596 1190.02 267.262 1190.02 264.383C1190.02 261.505 1187.68 259.171 1184.79 259.171C1181.9 259.171 1179.56 261.505 1179.56 264.383C1179.56 267.262 1181.9 269.596 1184.79 269.596Z" fill="url(#paint15_linear_714_4792)"/>
</g>
<mask id="mask8_714_4792" style="mask-type:alpha" maskUnits="userSpaceOnUse" x="1209" y="259" width="12" height="11">
<path d="M1215.07 269.596C1217.96 269.596 1220.3 267.262 1220.3 264.383C1220.3 261.505 1217.96 259.171 1215.07 259.171C1212.18 259.171 1209.84 261.505 1209.84 264.383C1209.84 267.262 1212.18 269.596 1215.07 269.596Z" fill="url(#paint16_linear_714_4792)"/>
</mask>
<g mask="url(#mask8_714_4792)">
<path d="M1215.07 269.596C1217.96 269.596 1220.3 267.262 1220.3 264.383C1220.3 261.505 1217.96 259.171 1215.07 259.171C1212.18 259.171 1209.84 261.505 1209.84 264.383C1209.84 267.262 1212.18 269.596 1215.07 269.596Z" fill="url(#paint17_linear_714_4792)"/>
</g>
<mask id="mask9_714_4792" style="mask-type:alpha" maskUnits="userSpaceOnUse" x="1240" y="259" width="11" height="11">
<path d="M1245.35 269.596C1248.24 269.596 1250.58 267.262 1250.58 264.383C1250.58 261.505 1248.24 259.171 1245.35 259.171C1242.47 259.171 1240.12 261.505 1240.12 264.383C1240.12 267.262 1242.47 269.596 1245.35 269.596Z" fill="url(#paint18_linear_714_4792)"/>
</mask>
<g mask="url(#mask9_714_4792)">
<path d="M1245.35 269.596C1248.24 269.596 1250.58 267.262 1250.58 264.383C1250.58 261.505 1248.24 259.171 1245.35 259.171C1242.47 259.171 1240.12 261.505 1240.12 264.383C1240.12 267.262 1242.47 269.596 1245.35 269.596Z" fill="url(#paint19_linear_714_4792)"/>
</g>
<mask id="mask10_714_4792" style="mask-type:alpha" maskUnits="userSpaceOnUse" x="1119" y="285" width="11" height="11">
<path d="M1124.23 295.712C1127.12 295.712 1129.46 293.379 1129.46 290.5C1129.46 287.621 1127.12 285.287 1124.23 285.287C1121.34 285.287 1119 287.621 1119 290.5C1119 293.379 1121.34 295.712 1124.23 295.712Z" fill="url(#paint20_linear_714_4792)"/>
</mask>
<g mask="url(#mask10_714_4792)">
<path d="M1124.23 295.712C1127.12 295.712 1129.46 293.379 1129.46 290.5C1129.46 287.621 1127.12 285.287 1124.23 285.287C1121.34 285.287 1119 287.621 1119 290.5C1119 293.379 1121.34 295.712 1124.23 295.712Z" fill="url(#paint21_linear_714_4792)"/>
</g>
<mask id="mask11_714_4792" style="mask-type:alpha" maskUnits="userSpaceOnUse" x="1149" y="285" width="11" height="11">
<path d="M1154.51 295.712C1157.4 295.712 1159.74 293.379 1159.74 290.5C1159.74 287.621 1157.4 285.287 1154.51 285.287C1151.62 285.287 1149.28 287.621 1149.28 290.5C1149.28 293.379 1151.62 295.712 1154.51 295.712Z" fill="url(#paint22_linear_714_4792)"/>
</mask>
<g mask="url(#mask11_714_4792)">
<path d="M1154.51 295.712C1157.4 295.712 1159.74 293.379 1159.74 290.5C1159.74 287.621 1157.4 285.287 1154.51 285.287C1151.62 285.287 1149.28 287.621 1149.28 290.5C1149.28 293.379 1151.62 295.712 1154.51 295.712Z" fill="url(#paint23_linear_714_4792)"/>
</g>
<mask id="mask12_714_4792" style="mask-type:alpha" maskUnits="userSpaceOnUse" x="1179" y="285" width="12" height="11">
<path d="M1184.79 295.712C1187.68 295.712 1190.02 293.379 1190.02 290.5C1190.02 287.621 1187.68 285.287 1184.79 285.287C1181.9 285.287 1179.56 287.621 1179.56 290.5C1179.56 293.379 1181.9 295.712 1184.79 295.712Z" fill="url(#paint24_linear_714_4792)"/>
</mask>
<g mask="url(#mask12_714_4792)">
<path d="M1184.79 295.712C1187.68 295.712 1190.02 293.379 1190.02 290.5C1190.02 287.621 1187.68 285.287 1184.79 285.287C1181.9 285.287 1179.56 287.621 1179.56 290.5C1179.56 293.379 1181.9 295.712 1184.79 295.712Z" fill="url(#paint25_linear_714_4792)"/>
</g>
<mask id="mask13_714_4792" style="mask-type:alpha" maskUnits="userSpaceOnUse" x="1209" y="285" width="12" height="11">
<path d="M1215.07 295.712C1217.96 295.712 1220.3 293.379 1220.3 290.5C1220.3 287.621 1217.96 285.287 1215.07 285.287C1212.18 285.287 1209.84 287.621 1209.84 290.5C1209.84 293.379 1212.18 295.712 1215.07 295.712Z" fill="url(#paint26_linear_714_4792)"/>
</mask>
<g mask="url(#mask13_714_4792)">
<path d="M1215.07 295.712C1217.96 295.712 1220.3 293.379 1220.3 290.5C1220.3 287.621 1217.96 285.287 1215.07 285.287C1212.18 285.287 1209.84 287.621 1209.84 290.5C1209.84 293.379 1212.18 295.712 1215.07 295.712Z" fill="url(#paint27_linear_714_4792)"/>
</g>
<mask id="mask14_714_4792" style="mask-type:alpha" maskUnits="userSpaceOnUse" x="1240" y="285" width="11" height="11">
<path d="M1245.35 295.712C1248.24 295.712 1250.58 293.379 1250.58 290.5C1250.58 287.621 1248.24 285.287 1245.35 285.287C1242.47 285.287 1240.12 287.621 1240.12 290.5C1240.12 293.379 1242.47 295.712 1245.35 295.712Z" fill="url(#paint28_linear_714_4792)"/>
</mask>
<g mask="url(#mask14_714_4792)">
<path d="M1245.35 295.712C1248.24 295.712 1250.58 293.379 1250.58 290.5C1250.58 287.621 1248.24 285.287 1245.35 285.287C1242.47 285.287 1240.12 287.621 1240.12 290.5C1240.12 293.379 1242.47 295.712 1245.35 295.712Z" fill="url(#paint29_linear_714_4792)"/>
</g>
<mask id="mask15_714_4792" style="mask-type:alpha" maskUnits="userSpaceOnUse" x="1119" y="311" width="11" height="11">
<path d="M1124.23 321.883C1127.12 321.883 1129.46 319.55 1129.46 316.671C1129.46 313.792 1127.12 311.458 1124.23 311.458C1121.34 311.458 1119 313.792 1119 316.671C1119 319.55 1121.34 321.883 1124.23 321.883Z" fill="url(#paint30_linear_714_4792)"/>
</mask>
<g mask="url(#mask15_714_4792)">
<path d="M1124.23 321.883C1127.12 321.883 1129.46 319.55 1129.46 316.671C1129.46 313.792 1127.12 311.458 1124.23 311.458C1121.34 311.458 1119 313.792 1119 316.671C1119 319.55 1121.34 321.883 1124.23 321.883Z" fill="url(#paint31_linear_714_4792)"/>
</g>
<mask id="mask16_714_4792" style="mask-type:alpha" maskUnits="userSpaceOnUse" x="1149" y="311" width="11" height="11">
<path d="M1154.51 321.883C1157.4 321.883 1159.74 319.55 1159.74 316.671C1159.74 313.792 1157.4 311.458 1154.51 311.458C1151.62 311.458 1149.28 313.792 1149.28 316.671C1149.28 319.55 1151.62 321.883 1154.51 321.883Z" fill="url(#paint32_linear_714_4792)"/>
</mask>
<g mask="url(#mask16_714_4792)">
<path d="M1154.51 321.883C1157.4 321.883 1159.74 319.55 1159.74 316.671C1159.74 313.792 1157.4 311.458 1154.51 311.458C1151.62 311.458 1149.28 313.792 1149.28 316.671C1149.28 319.55 1151.62 321.883 1154.51 321.883Z" fill="url(#paint33_linear_714_4792)"/>
</g>
<mask id="mask17_714_4792" style="mask-type:alpha" maskUnits="userSpaceOnUse" x="1179" y="311" width="12" height="11">
<path d="M1184.79 321.883C1187.68 321.883 1190.02 319.55 1190.02 316.671C1190.02 313.792 1187.68 311.458 1184.79 311.458C1181.9 311.458 1179.56 313.792 1179.56 316.671C1179.56 319.55 1181.9 321.883 1184.79 321.883Z" fill="url(#paint34_linear_714_4792)"/>
</mask>
<g mask="url(#mask17_714_4792)">
<path d="M1184.79 321.883C1187.68 321.883 1190.02 319.55 1190.02 316.671C1190.02 313.792 1187.68 311.458 1184.79 311.458C1181.9 311.458 1179.56 313.792 1179.56 316.671C1179.56 319.55 1181.9 321.883 1184.79 321.883Z" fill="url(#paint35_linear_714_4792)"/>
</g>
<mask id="mask18_714_4792" style="mask-type:alpha" maskUnits="userSpaceOnUse" x="1209" y="311" width="12" height="11">
<path d="M1215.07 321.883C1217.96 321.883 1220.3 319.55 1220.3 316.671C1220.3 313.792 1217.96 311.458 1215.07 311.458C1212.18 311.458 1209.84 313.792 1209.84 316.671C1209.84 319.55 1212.18 321.883 1215.07 321.883Z" fill="url(#paint36_linear_714_4792)"/>
</mask>
<g mask="url(#mask18_714_4792)">
<path d="M1215.07 321.883C1217.96 321.883 1220.3 319.55 1220.3 316.671C1220.3 313.792 1217.96 311.458 1215.07 311.458C1212.18 311.458 1209.84 313.792 1209.84 316.671C1209.84 319.55 1212.18 321.883 1215.07 321.883Z" fill="url(#paint37_linear_714_4792)"/>
</g>
<mask id="mask19_714_4792" style="mask-type:alpha" maskUnits="userSpaceOnUse" x="1240" y="311" width="11" height="11">
<path d="M1245.35 321.883C1248.24 321.883 1250.58 319.55 1250.58 316.671C1250.58 313.792 1248.24 311.458 1245.35 311.458C1242.47 311.458 1240.12 313.792 1240.12 316.671C1240.12 319.55 1242.47 321.883 1245.35 321.883Z" fill="url(#paint38_linear_714_4792)"/>
</mask>
<g mask="url(#mask19_714_4792)">
<path d="M1245.35 321.883C1248.24 321.883 1250.58 319.55 1250.58 316.671C1250.58 313.792 1248.24 311.458 1245.35 311.458C1242.47 311.458 1240.12 313.792 1240.12 316.671C1240.12 319.55 1242.47 321.883 1245.35 321.883Z" fill="url(#paint39_linear_714_4792)"/>
</g>
<mask id="mask20_714_4792" style="mask-type:alpha" maskUnits="userSpaceOnUse" x="1119" y="337" width="11" height="11">
<path d="M1124.23 348C1127.12 348 1129.46 345.666 1129.46 342.788C1129.46 339.909 1127.12 337.575 1124.23 337.575C1121.34 337.575 1119 339.909 1119 342.788C1119 345.666 1121.34 348 1124.23 348Z" fill="url(#paint40_linear_714_4792)"/>
</mask>
<g mask="url(#mask20_714_4792)">
<path d="M1124.23 348C1127.12 348 1129.46 345.666 1129.46 342.788C1129.46 339.909 1127.12 337.575 1124.23 337.575C1121.34 337.575 1119 339.909 1119 342.788C1119 345.666 1121.34 348 1124.23 348Z" fill="url(#paint41_linear_714_4792)"/>
</g>
<mask id="mask21_714_4792" style="mask-type:alpha" maskUnits="userSpaceOnUse" x="1149" y="337" width="11" height="11">
<path d="M1154.51 348C1157.4 348 1159.74 345.666 1159.74 342.788C1159.74 339.909 1157.4 337.575 1154.51 337.575C1151.62 337.575 1149.28 339.909 1149.28 342.788C1149.28 345.666 1151.62 348 1154.51 348Z" fill="url(#paint42_linear_714_4792)"/>
</mask>
<g mask="url(#mask21_714_4792)">
<path d="M1154.51 348C1157.4 348 1159.74 345.666 1159.74 342.788C1159.74 339.909 1157.4 337.575 1154.51 337.575C1151.62 337.575 1149.28 339.909 1149.28 342.788C1149.28 345.666 1151.62 348 1154.51 348Z" fill="url(#paint43_linear_714_4792)"/>
</g>
<mask id="mask22_714_4792" style="mask-type:alpha" maskUnits="userSpaceOnUse" x="1179" y="337" width="12" height="11">
<path d="M1184.79 348C1187.68 348 1190.02 345.666 1190.02 342.788C1190.02 339.909 1187.68 337.575 1184.79 337.575C1181.9 337.575 1179.56 339.909 1179.56 342.788C1179.56 345.666 1181.9 348 1184.79 348Z" fill="url(#paint44_linear_714_4792)"/>
</mask>
<g mask="url(#mask22_714_4792)">
<path d="M1184.79 348C1187.68 348 1190.02 345.666 1190.02 342.788C1190.02 339.909 1187.68 337.575 1184.79 337.575C1181.9 337.575 1179.56 339.909 1179.56 342.788C1179.56 345.666 1181.9 348 1184.79 348Z" fill="url(#paint45_linear_714_4792)"/>
</g>
<mask id="mask23_714_4792" style="mask-type:alpha" maskUnits="userSpaceOnUse" x="1209" y="337" width="12" height="11">
<path d="M1215.07 348C1217.96 348 1220.3 345.666 1220.3 342.788C1220.3 339.909 1217.96 337.575 1215.07 337.575C1212.18 337.575 1209.84 339.909 1209.84 342.788C1209.84 345.666 1212.18 348 1215.07 348Z" fill="url(#paint46_linear_714_4792)"/>
</mask>
<g mask="url(#mask23_714_4792)">
<path d="M1215.07 348C1217.96 348 1220.3 345.666 1220.3 342.788C1220.3 339.909 1217.96 337.575 1215.07 337.575C1212.18 337.575 1209.84 339.909 1209.84 342.788C1209.84 345.666 1212.18 348 1215.07 348Z" fill="url(#paint47_linear_714_4792)"/>
</g>
<mask id="mask24_714_4792" style="mask-type:alpha" maskUnits="userSpaceOnUse" x="1240" y="337" width="11" height="11">
<path d="M1245.35 348C1248.24 348 1250.58 345.666 1250.58 342.788C1250.58 339.909 1248.24 337.575 1245.35 337.575C1242.47 337.575 1240.12 339.909 1240.12 342.788C1240.12 345.666 1242.47 348 1245.35 348Z" fill="url(#paint48_linear_714_4792)"/>
</mask>
<g mask="url(#mask24_714_4792)">
<path d="M1245.35 348C1248.24 348 1250.58 345.666 1250.58 342.788C1250.58 339.909 1248.24 337.575 1245.35 337.575C1242.47 337.575 1240.12 339.909 1240.12 342.788C1240.12 345.666 1242.47 348 1245.35 348Z" fill="url(#paint49_linear_714_4792)"/>
</g>
</g>
<g opacity="0.26">
<mask id="mask25_714_4792" style="mask-type:alpha" maskUnits="userSpaceOnUse" x="331" y="1212" width="11" height="11">
<path d="M336.228 1222.42C339.116 1222.42 341.457 1220.09 341.457 1217.21C341.457 1214.33 339.116 1212 336.228 1212C333.341 1212 331 1214.33 331 1217.21C331 1220.09 333.341 1222.42 336.228 1222.42Z" fill="url(#paint50_linear_714_4792)"/>
</mask>
<g mask="url(#mask25_714_4792)">
<path d="M336.228 1222.42C339.116 1222.42 341.457 1220.09 341.457 1217.21C341.457 1214.33 339.116 1212 336.228 1212C333.341 1212 331 1214.33 331 1217.21C331 1220.09 333.341 1222.42 336.228 1222.42Z" fill="url(#paint51_linear_714_4792)"/>
</g>
<mask id="mask26_714_4792" style="mask-type:alpha" maskUnits="userSpaceOnUse" x="361" y="1212" width="11" height="11">
<path d="M366.509 1222.42C369.397 1222.42 371.738 1220.09 371.738 1217.21C371.738 1214.33 369.397 1212 366.509 1212C363.622 1212 361.281 1214.33 361.281 1217.21C361.281 1220.09 363.622 1222.42 366.509 1222.42Z" fill="url(#paint52_linear_714_4792)"/>
</mask>
<g mask="url(#mask26_714_4792)">
<path d="M366.509 1222.42C369.397 1222.42 371.738 1220.09 371.738 1217.21C371.738 1214.33 369.397 1212 366.509 1212C363.622 1212 361.281 1214.33 361.281 1217.21C361.281 1220.09 363.622 1222.42 366.509 1222.42Z" fill="url(#paint53_linear_714_4792)"/>
</g>
<mask id="mask27_714_4792" style="mask-type:alpha" maskUnits="userSpaceOnUse" x="391" y="1212" width="12" height="11">
<path d="M396.79 1222.42C399.678 1222.42 402.019 1220.09 402.019 1217.21C402.019 1214.33 399.678 1212 396.79 1212C393.903 1212 391.562 1214.33 391.562 1217.21C391.562 1220.09 393.903 1222.42 396.79 1222.42Z" fill="url(#paint54_linear_714_4792)"/>
</mask>
<g mask="url(#mask27_714_4792)">
<path d="M396.79 1222.42C399.678 1222.42 402.019 1220.09 402.019 1217.21C402.019 1214.33 399.678 1212 396.79 1212C393.903 1212 391.562 1214.33 391.562 1217.21C391.562 1220.09 393.903 1222.42 396.79 1222.42Z" fill="url(#paint55_linear_714_4792)"/>
</g>
<mask id="mask28_714_4792" style="mask-type:alpha" maskUnits="userSpaceOnUse" x="421" y="1212" width="12" height="11">
<path d="M427.072 1222.42C429.959 1222.42 432.3 1220.09 432.3 1217.21C432.3 1214.33 429.959 1212 427.072 1212C424.184 1212 421.843 1214.33 421.843 1217.21C421.843 1220.09 424.184 1222.42 427.072 1222.42Z" fill="url(#paint56_linear_714_4792)"/>
</mask>
<g mask="url(#mask28_714_4792)">
<path d="M427.072 1222.42C429.959 1222.42 432.3 1220.09 432.3 1217.21C432.3 1214.33 429.959 1212 427.072 1212C424.184 1212 421.843 1214.33 421.843 1217.21C421.843 1220.09 424.184 1222.42 427.072 1222.42Z" fill="url(#paint57_linear_714_4792)"/>
</g>
<mask id="mask29_714_4792" style="mask-type:alpha" maskUnits="userSpaceOnUse" x="452" y="1212" width="11" height="11">
<path d="M457.353 1222.42C460.24 1222.42 462.581 1220.09 462.581 1217.21C462.581 1214.33 460.24 1212 457.353 1212C454.465 1212 452.124 1214.33 452.124 1217.21C452.124 1220.09 454.465 1222.42 457.353 1222.42Z" fill="url(#paint58_linear_714_4792)"/>
</mask>
<g mask="url(#mask29_714_4792)">
<path d="M457.353 1222.42C460.24 1222.42 462.581 1220.09 462.581 1217.21C462.581 1214.33 460.24 1212 457.353 1212C454.465 1212 452.124 1214.33 452.124 1217.21C452.124 1220.09 454.465 1222.42 457.353 1222.42Z" fill="url(#paint59_linear_714_4792)"/>
</g>
<mask id="mask30_714_4792" style="mask-type:alpha" maskUnits="userSpaceOnUse" x="331" y="1238" width="11" height="11">
<path d="M336.228 1248.6C339.116 1248.6 341.457 1246.26 341.457 1243.38C341.457 1240.5 339.116 1238.17 336.228 1238.17C333.341 1238.17 331 1240.5 331 1243.38C331 1246.26 333.341 1248.6 336.228 1248.6Z" fill="url(#paint60_linear_714_4792)"/>
</mask>
<g mask="url(#mask30_714_4792)">
<path d="M336.228 1248.6C339.116 1248.6 341.457 1246.26 341.457 1243.38C341.457 1240.5 339.116 1238.17 336.228 1238.17C333.341 1238.17 331 1240.5 331 1243.38C331 1246.26 333.341 1248.6 336.228 1248.6Z" fill="url(#paint61_linear_714_4792)"/>
</g>
<mask id="mask31_714_4792" style="mask-type:alpha" maskUnits="userSpaceOnUse" x="361" y="1238" width="11" height="11">
<path d="M366.509 1248.6C369.397 1248.6 371.738 1246.26 371.738 1243.38C371.738 1240.5 369.397 1238.17 366.509 1238.17C363.622 1238.17 361.281 1240.5 361.281 1243.38C361.281 1246.26 363.622 1248.6 366.509 1248.6Z" fill="url(#paint62_linear_714_4792)"/>
</mask>
<g mask="url(#mask31_714_4792)">
<path d="M366.509 1248.6C369.397 1248.6 371.738 1246.26 371.738 1243.38C371.738 1240.5 369.397 1238.17 366.509 1238.17C363.622 1238.17 361.281 1240.5 361.281 1243.38C361.281 1246.26 363.622 1248.6 366.509 1248.6Z" fill="url(#paint63_linear_714_4792)"/>
</g>
<mask id="mask32_714_4792" style="mask-type:alpha" maskUnits="userSpaceOnUse" x="391" y="1238" width="12" height="11">
<path d="M396.79 1248.6C399.678 1248.6 402.019 1246.26 402.019 1243.38C402.019 1240.5 399.678 1238.17 396.79 1238.17C393.903 1238.17 391.562 1240.5 391.562 1243.38C391.562 1246.26 393.903 1248.6 396.79 1248.6Z" fill="url(#paint64_linear_714_4792)"/>
</mask>
<g mask="url(#mask32_714_4792)">
<path d="M396.79 1248.6C399.678 1248.6 402.019 1246.26 402.019 1243.38C402.019 1240.5 399.678 1238.17 396.79 1238.17C393.903 1238.17 391.562 1240.5 391.562 1243.38C391.562 1246.26 393.903 1248.6 396.79 1248.6Z" fill="url(#paint65_linear_714_4792)"/>
</g>
<mask id="mask33_714_4792" style="mask-type:alpha" maskUnits="userSpaceOnUse" x="421" y="1238" width="12" height="11">
<path d="M427.072 1248.6C429.959 1248.6 432.3 1246.26 432.3 1243.38C432.3 1240.5 429.959 1238.17 427.072 1238.17C424.184 1238.17 421.843 1240.5 421.843 1243.38C421.843 1246.26 424.184 1248.6 427.072 1248.6Z" fill="url(#paint66_linear_714_4792)"/>
</mask>
<g mask="url(#mask33_714_4792)">
<path d="M427.072 1248.6C429.959 1248.6 432.3 1246.26 432.3 1243.38C432.3 1240.5 429.959 1238.17 427.072 1238.17C424.184 1238.17 421.843 1240.5 421.843 1243.38C421.843 1246.26 424.184 1248.6 427.072 1248.6Z" fill="url(#paint67_linear_714_4792)"/>
</g>
<mask id="mask34_714_4792" style="mask-type:alpha" maskUnits="userSpaceOnUse" x="452" y="1238" width="11" height="11">
<path d="M457.353 1248.6C460.24 1248.6 462.581 1246.26 462.581 1243.38C462.581 1240.5 460.24 1238.17 457.353 1238.17C454.465 1238.17 452.124 1240.5 452.124 1243.38C452.124 1246.26 454.465 1248.6 457.353 1248.6Z" fill="url(#paint68_linear_714_4792)"/>
</mask>
<g mask="url(#mask34_714_4792)">
<path d="M457.353 1248.6C460.24 1248.6 462.581 1246.26 462.581 1243.38C462.581 1240.5 460.24 1238.17 457.353 1238.17C454.465 1238.17 452.124 1240.5 452.124 1243.38C452.124 1246.26 454.465 1248.6 457.353 1248.6Z" fill="url(#paint69_linear_714_4792)"/>
</g>
<mask id="mask35_714_4792" style="mask-type:alpha" maskUnits="userSpaceOnUse" x="331" y="1264" width="11" height="11">
<path d="M336.228 1274.71C339.116 1274.71 341.457 1272.38 341.457 1269.5C341.457 1266.62 339.116 1264.29 336.228 1264.29C333.341 1264.29 331 1266.62 331 1269.5C331 1272.38 333.341 1274.71 336.228 1274.71Z" fill="url(#paint70_linear_714_4792)"/>
</mask>
<g mask="url(#mask35_714_4792)">
<path d="M336.228 1274.71C339.116 1274.71 341.457 1272.38 341.457 1269.5C341.457 1266.62 339.116 1264.29 336.228 1264.29C333.341 1264.29 331 1266.62 331 1269.5C331 1272.38 333.341 1274.71 336.228 1274.71Z" fill="url(#paint71_linear_714_4792)"/>
</g>
<mask id="mask36_714_4792" style="mask-type:alpha" maskUnits="userSpaceOnUse" x="361" y="1264" width="11" height="11">
<path d="M366.509 1274.71C369.397 1274.71 371.738 1272.38 371.738 1269.5C371.738 1266.62 369.397 1264.29 366.509 1264.29C363.622 1264.29 361.281 1266.62 361.281 1269.5C361.281 1272.38 363.622 1274.71 366.509 1274.71Z" fill="url(#paint72_linear_714_4792)"/>
</mask>
<g mask="url(#mask36_714_4792)">
<path d="M366.509 1274.71C369.397 1274.71 371.738 1272.38 371.738 1269.5C371.738 1266.62 369.397 1264.29 366.509 1264.29C363.622 1264.29 361.281 1266.62 361.281 1269.5C361.281 1272.38 363.622 1274.71 366.509 1274.71Z" fill="url(#paint73_linear_714_4792)"/>
</g>
<mask id="mask37_714_4792" style="mask-type:alpha" maskUnits="userSpaceOnUse" x="391" y="1264" width="12" height="11">
<path d="M396.79 1274.71C399.678 1274.71 402.019 1272.38 402.019 1269.5C402.019 1266.62 399.678 1264.29 396.79 1264.29C393.903 1264.29 391.562 1266.62 391.562 1269.5C391.562 1272.38 393.903 1274.71 396.79 1274.71Z" fill="url(#paint74_linear_714_4792)"/>
</mask>
<g mask="url(#mask37_714_4792)">
<path d="M396.79 1274.71C399.678 1274.71 402.019 1272.38 402.019 1269.5C402.019 1266.62 399.678 1264.29 396.79 1264.29C393.903 1264.29 391.562 1266.62 391.562 1269.5C391.562 1272.38 393.903 1274.71 396.79 1274.71Z" fill="url(#paint75_linear_714_4792)"/>
</g>
<mask id="mask38_714_4792" style="mask-type:alpha" maskUnits="userSpaceOnUse" x="421" y="1264" width="12" height="11">
<path d="M427.072 1274.71C429.959 1274.71 432.3 1272.38 432.3 1269.5C432.3 1266.62 429.959 1264.29 427.072 1264.29C424.184 1264.29 421.843 1266.62 421.843 1269.5C421.843 1272.38 424.184 1274.71 427.072 1274.71Z" fill="url(#paint76_linear_714_4792)"/>
</mask>
<g mask="url(#mask38_714_4792)">
<path d="M427.072 1274.71C429.959 1274.71 432.3 1272.38 432.3 1269.5C432.3 1266.62 429.959 1264.29 427.072 1264.29C424.184 1264.29 421.843 1266.62 421.843 1269.5C421.843 1272.38 424.184 1274.71 427.072 1274.71Z" fill="url(#paint77_linear_714_4792)"/>
</g>
<mask id="mask39_714_4792" style="mask-type:alpha" maskUnits="userSpaceOnUse" x="452" y="1264" width="11" height="11">
<path d="M457.353 1274.71C460.24 1274.71 462.581 1272.38 462.581 1269.5C462.581 1266.62 460.24 1264.29 457.353 1264.29C454.465 1264.29 452.124 1266.62 452.124 1269.5C452.124 1272.38 454.465 1274.71 457.353 1274.71Z" fill="url(#paint78_linear_714_4792)"/>
</mask>
<g mask="url(#mask39_714_4792)">
<path d="M457.353 1274.71C460.24 1274.71 462.581 1272.38 462.581 1269.5C462.581 1266.62 460.24 1264.29 457.353 1264.29C454.465 1264.29 452.124 1266.62 452.124 1269.5C452.124 1272.38 454.465 1274.71 457.353 1274.71Z" fill="url(#paint79_linear_714_4792)"/>
</g>
<mask id="mask40_714_4792" style="mask-type:alpha" maskUnits="userSpaceOnUse" x="331" y="1290" width="11" height="11">
<path d="M336.228 1300.88C339.116 1300.88 341.457 1298.55 341.457 1295.67C341.457 1292.79 339.116 1290.46 336.228 1290.46C333.341 1290.46 331 1292.79 331 1295.67C331 1298.55 333.341 1300.88 336.228 1300.88Z" fill="url(#paint80_linear_714_4792)"/>
</mask>
<g mask="url(#mask40_714_4792)">
<path d="M336.228 1300.88C339.116 1300.88 341.457 1298.55 341.457 1295.67C341.457 1292.79 339.116 1290.46 336.228 1290.46C333.341 1290.46 331 1292.79 331 1295.67C331 1298.55 333.341 1300.88 336.228 1300.88Z" fill="url(#paint81_linear_714_4792)"/>
</g>
<mask id="mask41_714_4792" style="mask-type:alpha" maskUnits="userSpaceOnUse" x="361" y="1290" width="11" height="11">
<path d="M366.509 1300.88C369.397 1300.88 371.738 1298.55 371.738 1295.67C371.738 1292.79 369.397 1290.46 366.509 1290.46C363.622 1290.46 361.281 1292.79 361.281 1295.67C361.281 1298.55 363.622 1300.88 366.509 1300.88Z" fill="url(#paint82_linear_714_4792)"/>
</mask>
<g mask="url(#mask41_714_4792)">
<path d="M366.509 1300.88C369.397 1300.88 371.738 1298.55 371.738 1295.67C371.738 1292.79 369.397 1290.46 366.509 1290.46C363.622 1290.46 361.281 1292.79 361.281 1295.67C361.281 1298.55 363.622 1300.88 366.509 1300.88Z" fill="url(#paint83_linear_714_4792)"/>
</g>
<mask id="mask42_714_4792" style="mask-type:alpha" maskUnits="userSpaceOnUse" x="391" y="1290" width="12" height="11">
<path d="M396.79 1300.88C399.678 1300.88 402.019 1298.55 402.019 1295.67C402.019 1292.79 399.678 1290.46 396.79 1290.46C393.903 1290.46 391.562 1292.79 391.562 1295.67C391.562 1298.55 393.903 1300.88 396.79 1300.88Z" fill="url(#paint84_linear_714_4792)"/>
</mask>
<g mask="url(#mask42_714_4792)">
<path d="M396.79 1300.88C399.678 1300.88 402.019 1298.55 402.019 1295.67C402.019 1292.79 399.678 1290.46 396.79 1290.46C393.903 1290.46 391.562 1292.79 391.562 1295.67C391.562 1298.55 393.903 1300.88 396.79 1300.88Z" fill="url(#paint85_linear_714_4792)"/>
</g>
<mask id="mask43_714_4792" style="mask-type:alpha" maskUnits="userSpaceOnUse" x="421" y="1290" width="12" height="11">
<path d="M427.072 1300.88C429.959 1300.88 432.3 1298.55 432.3 1295.67C432.3 1292.79 429.959 1290.46 427.072 1290.46C424.184 1290.46 421.843 1292.79 421.843 1295.67C421.843 1298.55 424.184 1300.88 427.072 1300.88Z" fill="url(#paint86_linear_714_4792)"/>
</mask>
<g mask="url(#mask43_714_4792)">
<path d="M427.072 1300.88C429.959 1300.88 432.3 1298.55 432.3 1295.67C432.3 1292.79 429.959 1290.46 427.072 1290.46C424.184 1290.46 421.843 1292.79 421.843 1295.67C421.843 1298.55 424.184 1300.88 427.072 1300.88Z" fill="url(#paint87_linear_714_4792)"/>
</g>
<mask id="mask44_714_4792" style="mask-type:alpha" maskUnits="userSpaceOnUse" x="452" y="1290" width="11" height="11">
<path d="M457.353 1300.88C460.24 1300.88 462.581 1298.55 462.581 1295.67C462.581 1292.79 460.24 1290.46 457.353 1290.46C454.465 1290.46 452.124 1292.79 452.124 1295.67C452.124 1298.55 454.465 1300.88 457.353 1300.88Z" fill="url(#paint88_linear_714_4792)"/>
</mask>
<g mask="url(#mask44_714_4792)">
<path d="M457.353 1300.88C460.24 1300.88 462.581 1298.55 462.581 1295.67C462.581 1292.79 460.24 1290.46 457.353 1290.46C454.465 1290.46 452.124 1292.79 452.124 1295.67C452.124 1298.55 454.465 1300.88 457.353 1300.88Z" fill="url(#paint89_linear_714_4792)"/>
</g>
<mask id="mask45_714_4792" style="mask-type:alpha" maskUnits="userSpaceOnUse" x="331" y="1316" width="11" height="11">
<path d="M336.228 1327C339.116 1327 341.457 1324.67 341.457 1321.79C341.457 1318.91 339.116 1316.58 336.228 1316.58C333.341 1316.58 331 1318.91 331 1321.79C331 1324.67 333.341 1327 336.228 1327Z" fill="url(#paint90_linear_714_4792)"/>
</mask>
<g mask="url(#mask45_714_4792)">
<path d="M336.228 1327C339.116 1327 341.457 1324.67 341.457 1321.79C341.457 1318.91 339.116 1316.58 336.228 1316.58C333.341 1316.58 331 1318.91 331 1321.79C331 1324.67 333.341 1327 336.228 1327Z" fill="url(#paint91_linear_714_4792)"/>
</g>
<mask id="mask46_714_4792" style="mask-type:alpha" maskUnits="userSpaceOnUse" x="361" y="1316" width="11" height="11">
<path d="M366.509 1327C369.397 1327 371.738 1324.67 371.738 1321.79C371.738 1318.91 369.397 1316.58 366.509 1316.58C363.622 1316.58 361.281 1318.91 361.281 1321.79C361.281 1324.67 363.622 1327 366.509 1327Z" fill="url(#paint92_linear_714_4792)"/>
</mask>
<g mask="url(#mask46_714_4792)">
<path d="M366.509 1327C369.397 1327 371.738 1324.67 371.738 1321.79C371.738 1318.91 369.397 1316.58 366.509 1316.58C363.622 1316.58 361.281 1318.91 361.281 1321.79C361.281 1324.67 363.622 1327 366.509 1327Z" fill="url(#paint93_linear_714_4792)"/>
</g>
<mask id="mask47_714_4792" style="mask-type:alpha" maskUnits="userSpaceOnUse" x="391" y="1316" width="12" height="11">
<path d="M396.79 1327C399.678 1327 402.019 1324.67 402.019 1321.79C402.019 1318.91 399.678 1316.58 396.79 1316.58C393.903 1316.58 391.562 1318.91 391.562 1321.79C391.562 1324.67 393.903 1327 396.79 1327Z" fill="url(#paint94_linear_714_4792)"/>
</mask>
<g mask="url(#mask47_714_4792)">
<path d="M396.79 1327C399.678 1327 402.019 1324.67 402.019 1321.79C402.019 1318.91 399.678 1316.58 396.79 1316.58C393.903 1316.58 391.562 1318.91 391.562 1321.79C391.562 1324.67 393.903 1327 396.79 1327Z" fill="url(#paint95_linear_714_4792)"/>
</g>
<mask id="mask48_714_4792" style="mask-type:alpha" maskUnits="userSpaceOnUse" x="421" y="1316" width="12" height="11">
<path d="M427.072 1327C429.959 1327 432.3 1324.67 432.3 1321.79C432.3 1318.91 429.959 1316.58 427.072 1316.58C424.184 1316.58 421.843 1318.91 421.843 1321.79C421.843 1324.67 424.184 1327 427.072 1327Z" fill="url(#paint96_linear_714_4792)"/>
</mask>
<g mask="url(#mask48_714_4792)">
<path d="M427.072 1327C429.959 1327 432.3 1324.67 432.3 1321.79C432.3 1318.91 429.959 1316.58 427.072 1316.58C424.184 1316.58 421.843 1318.91 421.843 1321.79C421.843 1324.67 424.184 1327 427.072 1327Z" fill="url(#paint97_linear_714_4792)"/>
</g>
<mask id="mask49_714_4792" style="mask-type:alpha" maskUnits="userSpaceOnUse" x="452" y="1316" width="11" height="11">
<path d="M457.353 1327C460.24 1327 462.581 1324.67 462.581 1321.79C462.581 1318.91 460.24 1316.58 457.353 1316.58C454.465 1316.58 452.124 1318.91 452.124 1321.79C452.124 1324.67 454.465 1327 457.353 1327Z" fill="url(#paint98_linear_714_4792)"/>
</mask>
<g mask="url(#mask49_714_4792)">
<path d="M457.353 1327C460.24 1327 462.581 1324.67 462.581 1321.79C462.581 1318.91 460.24 1316.58 457.353 1316.58C454.465 1316.58 452.124 1318.91 452.124 1321.79C452.124 1324.67 454.465 1327 457.353 1327Z" fill="url(#paint99_linear_714_4792)"/>
</g>
</g>
<path d="M1388.46 1726.66C1327.09 1797.15 1205.88 1705.96 1030.26 1745.86C878.15 1780.45 869.399 1872.3 747.867 1867.75C659.078 1864.44 562.326 1813.17 509.153 1723.85C450.513 1625.37 471.83 1525.12 477.814 1500.79C504.526 1391.66 583.811 1334.1 611.782 1314.44C727.022 1233.49 856.336 1247.67 918.374 1254.45C1151.41 1279.97 1400.9 1446.34 1412 1627.22C1413.48 1650.91 1416.17 1694.83 1388.46 1726.66Z" fill="url(#paint100_linear_714_4792)"/>
<path d="M111.058 356.256C172.434 285.768 293.64 376.957 469.261 337.049C621.37 302.467 630.121 210.61 751.653 215.165C840.442 218.475 937.194 269.743 990.367 359.06C1049.01 457.539 1027.69 557.798 1021.71 582.127C994.994 691.251 915.709 748.814 887.739 768.475C772.499 849.428 643.184 835.242 581.146 828.467C348.111 802.945 98.6248 636.571 87.5162 455.689C86.0398 432.008 83.3529 388.086 111.058 356.256Z" fill="url(#paint101_linear_714_4792)"/>
<defs>
<linearGradient id="paint0_linear_714_4792" x1="1174" y1="364.134" x2="1102.59" y2="182.33" gradientUnits="userSpaceOnUse">
<stop stop-color="white"/>
<stop offset="1" stop-color="white"/>
</linearGradient>
<linearGradient id="paint1_linear_714_4792" x1="1174" y1="364.134" x2="1102.59" y2="182.33" gradientUnits="userSpaceOnUse">
<stop stop-color="white"/>
<stop offset="1" stop-color="white"/>
</linearGradient>
<linearGradient id="paint2_linear_714_4792" x1="1204.28" y1="364.134" x2="1132.88" y2="182.33" gradientUnits="userSpaceOnUse">
<stop stop-color="white"/>
<stop offset="1" stop-color="white"/>
</linearGradient>
<linearGradient id="paint3_linear_714_4792" x1="1204.28" y1="364.134" x2="1132.88" y2="182.33" gradientUnits="userSpaceOnUse">
<stop stop-color="white"/>
<stop offset="1" stop-color="white"/>
</linearGradient>
<linearGradient id="paint4_linear_714_4792" x1="1234.56" y1="364.134" x2="1163.16" y2="182.33" gradientUnits="userSpaceOnUse">
<stop stop-color="white"/>
<stop offset="1" stop-color="white"/>
</linearGradient>
<linearGradient id="paint5_linear_714_4792" x1="1234.56" y1="364.134" x2="1163.16" y2="182.33" gradientUnits="userSpaceOnUse">
<stop stop-color="white"/>
<stop offset="1" stop-color="white"/>
</linearGradient>
<linearGradient id="paint6_linear_714_4792" x1="1264.84" y1="364.134" x2="1193.44" y2="182.33" gradientUnits="userSpaceOnUse">
<stop stop-color="white"/>
<stop offset="1" stop-color="white"/>
</linearGradient>
<linearGradient id="paint7_linear_714_4792" x1="1264.84" y1="364.134" x2="1193.44" y2="182.33" gradientUnits="userSpaceOnUse">
<stop stop-color="white"/>
<stop offset="1" stop-color="white"/>
</linearGradient>
<linearGradient id="paint8_linear_714_4792" x1="1295.12" y1="364.134" x2="1223.72" y2="182.33" gradientUnits="userSpaceOnUse">
<stop stop-color="white"/>
<stop offset="1" stop-color="white"/>
</linearGradient>
<linearGradient id="paint9_linear_714_4792" x1="1295.12" y1="364.134" x2="1223.72" y2="182.33" gradientUnits="userSpaceOnUse">
<stop stop-color="white"/>
<stop offset="1" stop-color="white"/>
</linearGradient>
<linearGradient id="paint10_linear_714_4792" x1="1174" y1="390.303" x2="1102.6" y2="208.501" gradientUnits="userSpaceOnUse">
<stop stop-color="white"/>
<stop offset="1" stop-color="white"/>
</linearGradient>
<linearGradient id="paint11_linear_714_4792" x1="1174" y1="390.303" x2="1102.6" y2="208.501" gradientUnits="userSpaceOnUse">
<stop stop-color="white"/>
<stop offset="1" stop-color="white"/>
</linearGradient>
<linearGradient id="paint12_linear_714_4792" x1="1204.28" y1="390.303" x2="1132.88" y2="208.501" gradientUnits="userSpaceOnUse">
<stop stop-color="white"/>
<stop offset="1" stop-color="white"/>
</linearGradient>
<linearGradient id="paint13_linear_714_4792" x1="1204.28" y1="390.303" x2="1132.88" y2="208.501" gradientUnits="userSpaceOnUse">
<stop stop-color="white"/>
<stop offset="1" stop-color="white"/>
</linearGradient>
<linearGradient id="paint14_linear_714_4792" x1="1234.56" y1="390.303" x2="1163.16" y2="208.501" gradientUnits="userSpaceOnUse">
<stop stop-color="white"/>
<stop offset="1" stop-color="white"/>
</linearGradient>
<linearGradient id="paint15_linear_714_4792" x1="1234.56" y1="390.303" x2="1163.16" y2="208.501" gradientUnits="userSpaceOnUse">
<stop stop-color="white"/>
<stop offset="1" stop-color="white"/>
</linearGradient>
<linearGradient id="paint16_linear_714_4792" x1="1264.84" y1="390.303" x2="1193.44" y2="208.501" gradientUnits="userSpaceOnUse">
<stop stop-color="white"/>
<stop offset="1" stop-color="white"/>
</linearGradient>
<linearGradient id="paint17_linear_714_4792" x1="1264.84" y1="390.303" x2="1193.44" y2="208.501" gradientUnits="userSpaceOnUse">
<stop stop-color="white"/>
<stop offset="1" stop-color="white"/>
</linearGradient>
<linearGradient id="paint18_linear_714_4792" x1="1295.12" y1="390.303" x2="1223.72" y2="208.501" gradientUnits="userSpaceOnUse">
<stop stop-color="white"/>
<stop offset="1" stop-color="white"/>
</linearGradient>
<linearGradient id="paint19_linear_714_4792" x1="1295.12" y1="390.303" x2="1223.72" y2="208.501" gradientUnits="userSpaceOnUse">
<stop stop-color="white"/>
<stop offset="1" stop-color="white"/>
</linearGradient>
<linearGradient id="paint20_linear_714_4792" x1="1174" y1="416.421" x2="1102.59" y2="234.617" gradientUnits="userSpaceOnUse">
<stop stop-color="white"/>
<stop offset="1" stop-color="white"/>
</linearGradient>
<linearGradient id="paint21_linear_714_4792" x1="1174" y1="416.421" x2="1102.59" y2="234.617" gradientUnits="userSpaceOnUse">
<stop stop-color="white"/>
<stop offset="1" stop-color="white"/>
</linearGradient>
<linearGradient id="paint22_linear_714_4792" x1="1204.28" y1="416.421" x2="1132.88" y2="234.617" gradientUnits="userSpaceOnUse">
<stop stop-color="white"/>
<stop offset="1" stop-color="white"/>
</linearGradient>
<linearGradient id="paint23_linear_714_4792" x1="1204.28" y1="416.421" x2="1132.88" y2="234.617" gradientUnits="userSpaceOnUse">
<stop stop-color="white"/>
<stop offset="1" stop-color="white"/>
</linearGradient>
<linearGradient id="paint24_linear_714_4792" x1="1234.56" y1="416.421" x2="1163.16" y2="234.617" gradientUnits="userSpaceOnUse">
<stop stop-color="white"/>
<stop offset="1" stop-color="white"/>
</linearGradient>
<linearGradient id="paint25_linear_714_4792" x1="1234.56" y1="416.421" x2="1163.16" y2="234.617" gradientUnits="userSpaceOnUse">
<stop stop-color="white"/>
<stop offset="1" stop-color="white"/>
</linearGradient>
<linearGradient id="paint26_linear_714_4792" x1="1264.84" y1="416.421" x2="1193.44" y2="234.617" gradientUnits="userSpaceOnUse">
<stop stop-color="white"/>
<stop offset="1" stop-color="white"/>
</linearGradient>
<linearGradient id="paint27_linear_714_4792" x1="1264.84" y1="416.421" x2="1193.44" y2="234.617" gradientUnits="userSpaceOnUse">
<stop stop-color="white"/>
<stop offset="1" stop-color="white"/>
</linearGradient>
<linearGradient id="paint28_linear_714_4792" x1="1295.12" y1="416.421" x2="1223.72" y2="234.617" gradientUnits="userSpaceOnUse">
<stop stop-color="white"/>
<stop offset="1" stop-color="white"/>
</linearGradient>
<linearGradient id="paint29_linear_714_4792" x1="1295.12" y1="416.421" x2="1223.72" y2="234.617" gradientUnits="userSpaceOnUse">
<stop stop-color="white"/>
<stop offset="1" stop-color="white"/>
</linearGradient>
<linearGradient id="paint30_linear_714_4792" x1="1174" y1="442.592" x2="1102.59" y2="260.788" gradientUnits="userSpaceOnUse">
<stop stop-color="white"/>
<stop offset="1" stop-color="white"/>
</linearGradient>
<linearGradient id="paint31_linear_714_4792" x1="1174" y1="442.592" x2="1102.59" y2="260.788" gradientUnits="userSpaceOnUse">
<stop stop-color="white"/>
<stop offset="1" stop-color="white"/>
</linearGradient>
<linearGradient id="paint32_linear_714_4792" x1="1204.28" y1="442.592" x2="1132.88" y2="260.788" gradientUnits="userSpaceOnUse">
<stop stop-color="white"/>
<stop offset="1" stop-color="white"/>
</linearGradient>
<linearGradient id="paint33_linear_714_4792" x1="1204.28" y1="442.592" x2="1132.88" y2="260.788" gradientUnits="userSpaceOnUse">
<stop stop-color="white"/>
<stop offset="1" stop-color="white"/>
</linearGradient>
<linearGradient id="paint34_linear_714_4792" x1="1234.56" y1="442.592" x2="1163.16" y2="260.788" gradientUnits="userSpaceOnUse">
<stop stop-color="white"/>
<stop offset="1" stop-color="white"/>
</linearGradient>
<linearGradient id="paint35_linear_714_4792" x1="1234.56" y1="442.592" x2="1163.16" y2="260.788" gradientUnits="userSpaceOnUse">
<stop stop-color="white"/>
<stop offset="1" stop-color="white"/>
</linearGradient>
<linearGradient id="paint36_linear_714_4792" x1="1264.84" y1="442.592" x2="1193.44" y2="260.788" gradientUnits="userSpaceOnUse">
<stop stop-color="white"/>
<stop offset="1" stop-color="white"/>
</linearGradient>
<linearGradient id="paint37_linear_714_4792" x1="1264.84" y1="442.592" x2="1193.44" y2="260.788" gradientUnits="userSpaceOnUse">
<stop stop-color="white"/>
<stop offset="1" stop-color="white"/>
</linearGradient>
<linearGradient id="paint38_linear_714_4792" x1="1295.12" y1="442.592" x2="1223.72" y2="260.788" gradientUnits="userSpaceOnUse">
<stop stop-color="white"/>
<stop offset="1" stop-color="white"/>
</linearGradient>
<linearGradient id="paint39_linear_714_4792" x1="1295.12" y1="442.592" x2="1223.72" y2="260.788" gradientUnits="userSpaceOnUse">
<stop stop-color="white"/>
<stop offset="1" stop-color="white"/>
</linearGradient>
<linearGradient id="paint40_linear_714_4792" x1="1174" y1="468.709" x2="1102.59" y2="286.905" gradientUnits="userSpaceOnUse">
<stop stop-color="white"/>
<stop offset="1" stop-color="white"/>
</linearGradient>
<linearGradient id="paint41_linear_714_4792" x1="1174" y1="468.709" x2="1102.59" y2="286.905" gradientUnits="userSpaceOnUse">
<stop stop-color="white"/>
<stop offset="1" stop-color="white"/>
</linearGradient>
<linearGradient id="paint42_linear_714_4792" x1="1204.28" y1="468.709" x2="1132.88" y2="286.905" gradientUnits="userSpaceOnUse">
<stop stop-color="white"/>
<stop offset="1" stop-color="white"/>
</linearGradient>
<linearGradient id="paint43_linear_714_4792" x1="1204.28" y1="468.709" x2="1132.88" y2="286.905" gradientUnits="userSpaceOnUse">
<stop stop-color="white"/>
<stop offset="1" stop-color="white"/>
</linearGradient>
<linearGradient id="paint44_linear_714_4792" x1="1234.56" y1="468.709" x2="1163.16" y2="286.905" gradientUnits="userSpaceOnUse">
<stop stop-color="white"/>
<stop offset="1" stop-color="white"/>
</linearGradient>
<linearGradient id="paint45_linear_714_4792" x1="1234.56" y1="468.709" x2="1163.16" y2="286.905" gradientUnits="userSpaceOnUse">
<stop stop-color="white"/>
<stop offset="1" stop-color="white"/>
</linearGradient>
<linearGradient id="paint46_linear_714_4792" x1="1264.84" y1="468.709" x2="1193.44" y2="286.905" gradientUnits="userSpaceOnUse">
<stop stop-color="white"/>
<stop offset="1" stop-color="white"/>
</linearGradient>
<linearGradient id="paint47_linear_714_4792" x1="1264.84" y1="468.709" x2="1193.44" y2="286.905" gradientUnits="userSpaceOnUse">
<stop stop-color="white"/>
<stop offset="1" stop-color="white"/>
</linearGradient>
<linearGradient id="paint48_linear_714_4792" x1="1295.12" y1="468.709" x2="1223.72" y2="286.905" gradientUnits="userSpaceOnUse">
<stop stop-color="white"/>
<stop offset="1" stop-color="white"/>
</linearGradient>
<linearGradient id="paint49_linear_714_4792" x1="1295.12" y1="468.709" x2="1223.72" y2="286.905" gradientUnits="userSpaceOnUse">
<stop stop-color="white"/>
<stop offset="1" stop-color="white"/>
</linearGradient>
<linearGradient id="paint50_linear_714_4792" x1="385.996" y1="1343.13" x2="314.594" y2="1161.33" gradientUnits="userSpaceOnUse">
<stop stop-color="white"/>
<stop offset="1" stop-color="white"/>
</linearGradient>
<linearGradient id="paint51_linear_714_4792" x1="385.996" y1="1343.13" x2="314.594" y2="1161.33" gradientUnits="userSpaceOnUse">
<stop stop-color="white"/>
<stop offset="1" stop-color="white"/>
</linearGradient>
<linearGradient id="paint52_linear_714_4792" x1="416.277" y1="1343.13" x2="344.875" y2="1161.33" gradientUnits="userSpaceOnUse">
<stop stop-color="white"/>
<stop offset="1" stop-color="white"/>
</linearGradient>
<linearGradient id="paint53_linear_714_4792" x1="416.277" y1="1343.13" x2="344.875" y2="1161.33" gradientUnits="userSpaceOnUse">
<stop stop-color="white"/>
<stop offset="1" stop-color="white"/>
</linearGradient>
<linearGradient id="paint54_linear_714_4792" x1="446.558" y1="1343.13" x2="375.156" y2="1161.33" gradientUnits="userSpaceOnUse">
<stop stop-color="white"/>
<stop offset="1" stop-color="white"/>
</linearGradient>
<linearGradient id="paint55_linear_714_4792" x1="446.558" y1="1343.13" x2="375.156" y2="1161.33" gradientUnits="userSpaceOnUse">
<stop stop-color="white"/>
<stop offset="1" stop-color="white"/>
</linearGradient>
<linearGradient id="paint56_linear_714_4792" x1="476.839" y1="1343.13" x2="405.438" y2="1161.33" gradientUnits="userSpaceOnUse">
<stop stop-color="white"/>
<stop offset="1" stop-color="white"/>
</linearGradient>
<linearGradient id="paint57_linear_714_4792" x1="476.839" y1="1343.13" x2="405.438" y2="1161.33" gradientUnits="userSpaceOnUse">
<stop stop-color="white"/>
<stop offset="1" stop-color="white"/>
</linearGradient>
<linearGradient id="paint58_linear_714_4792" x1="507.12" y1="1343.13" x2="435.719" y2="1161.33" gradientUnits="userSpaceOnUse">
<stop stop-color="white"/>
<stop offset="1" stop-color="white"/>
</linearGradient>
<linearGradient id="paint59_linear_714_4792" x1="507.12" y1="1343.13" x2="435.719" y2="1161.33" gradientUnits="userSpaceOnUse">
<stop stop-color="white"/>
<stop offset="1" stop-color="white"/>
</linearGradient>
<linearGradient id="paint60_linear_714_4792" x1="385.996" y1="1369.3" x2="314.596" y2="1187.5" gradientUnits="userSpaceOnUse">
<stop stop-color="white"/>
<stop offset="1" stop-color="white"/>
</linearGradient>
<linearGradient id="paint61_linear_714_4792" x1="385.996" y1="1369.3" x2="314.596" y2="1187.5" gradientUnits="userSpaceOnUse">
<stop stop-color="white"/>
<stop offset="1" stop-color="white"/>
</linearGradient>
<linearGradient id="paint62_linear_714_4792" x1="416.277" y1="1369.3" x2="344.877" y2="1187.5" gradientUnits="userSpaceOnUse">
<stop stop-color="white"/>
<stop offset="1" stop-color="white"/>
</linearGradient>
<linearGradient id="paint63_linear_714_4792" x1="416.277" y1="1369.3" x2="344.877" y2="1187.5" gradientUnits="userSpaceOnUse">
<stop stop-color="white"/>
<stop offset="1" stop-color="white"/>
</linearGradient>
<linearGradient id="paint64_linear_714_4792" x1="446.558" y1="1369.3" x2="375.158" y2="1187.5" gradientUnits="userSpaceOnUse">
<stop stop-color="white"/>
<stop offset="1" stop-color="white"/>
</linearGradient>
<linearGradient id="paint65_linear_714_4792" x1="446.558" y1="1369.3" x2="375.158" y2="1187.5" gradientUnits="userSpaceOnUse">
<stop stop-color="white"/>
<stop offset="1" stop-color="white"/>
</linearGradient>
<linearGradient id="paint66_linear_714_4792" x1="476.839" y1="1369.3" x2="405.439" y2="1187.5" gradientUnits="userSpaceOnUse">
<stop stop-color="white"/>
<stop offset="1" stop-color="white"/>
</linearGradient>
<linearGradient id="paint67_linear_714_4792" x1="476.839" y1="1369.3" x2="405.439" y2="1187.5" gradientUnits="userSpaceOnUse">
<stop stop-color="white"/>
<stop offset="1" stop-color="white"/>
</linearGradient>
<linearGradient id="paint68_linear_714_4792" x1="507.12" y1="1369.3" x2="435.72" y2="1187.5" gradientUnits="userSpaceOnUse">
<stop stop-color="white"/>
<stop offset="1" stop-color="white"/>
</linearGradient>
<linearGradient id="paint69_linear_714_4792" x1="507.12" y1="1369.3" x2="435.72" y2="1187.5" gradientUnits="userSpaceOnUse">
<stop stop-color="white"/>
<stop offset="1" stop-color="white"/>
</linearGradient>
<linearGradient id="paint70_linear_714_4792" x1="385.996" y1="1395.42" x2="314.594" y2="1213.62" gradientUnits="userSpaceOnUse">
<stop stop-color="white"/>
<stop offset="1" stop-color="white"/>
</linearGradient>
<linearGradient id="paint71_linear_714_4792" x1="385.996" y1="1395.42" x2="314.594" y2="1213.62" gradientUnits="userSpaceOnUse">
<stop stop-color="white"/>
<stop offset="1" stop-color="white"/>
</linearGradient>
<linearGradient id="paint72_linear_714_4792" x1="416.277" y1="1395.42" x2="344.875" y2="1213.62" gradientUnits="userSpaceOnUse">
<stop stop-color="white"/>
<stop offset="1" stop-color="white"/>
</linearGradient>
<linearGradient id="paint73_linear_714_4792" x1="416.277" y1="1395.42" x2="344.875" y2="1213.62" gradientUnits="userSpaceOnUse">
<stop stop-color="white"/>
<stop offset="1" stop-color="white"/>
</linearGradient>
<linearGradient id="paint74_linear_714_4792" x1="446.558" y1="1395.42" x2="375.156" y2="1213.62" gradientUnits="userSpaceOnUse">
<stop stop-color="white"/>
<stop offset="1" stop-color="white"/>
</linearGradient>
<linearGradient id="paint75_linear_714_4792" x1="446.558" y1="1395.42" x2="375.156" y2="1213.62" gradientUnits="userSpaceOnUse">
<stop stop-color="white"/>
<stop offset="1" stop-color="white"/>
</linearGradient>
<linearGradient id="paint76_linear_714_4792" x1="476.839" y1="1395.42" x2="405.438" y2="1213.62" gradientUnits="userSpaceOnUse">
<stop stop-color="white"/>
<stop offset="1" stop-color="white"/>
</linearGradient>
<linearGradient id="paint77_linear_714_4792" x1="476.839" y1="1395.42" x2="405.438" y2="1213.62" gradientUnits="userSpaceOnUse">
<stop stop-color="white"/>
<stop offset="1" stop-color="white"/>
</linearGradient>
<linearGradient id="paint78_linear_714_4792" x1="507.12" y1="1395.42" x2="435.719" y2="1213.62" gradientUnits="userSpaceOnUse">
<stop stop-color="white"/>
<stop offset="1" stop-color="white"/>
</linearGradient>
<linearGradient id="paint79_linear_714_4792" x1="507.12" y1="1395.42" x2="435.719" y2="1213.62" gradientUnits="userSpaceOnUse">
<stop stop-color="white"/>
<stop offset="1" stop-color="white"/>
</linearGradient>
<linearGradient id="paint80_linear_714_4792" x1="385.996" y1="1421.59" x2="314.594" y2="1239.79" gradientUnits="userSpaceOnUse">
<stop stop-color="white"/>
<stop offset="1" stop-color="white"/>
</linearGradient>
<linearGradient id="paint81_linear_714_4792" x1="385.996" y1="1421.59" x2="314.594" y2="1239.79" gradientUnits="userSpaceOnUse">
<stop stop-color="white"/>
<stop offset="1" stop-color="white"/>
</linearGradient>
<linearGradient id="paint82_linear_714_4792" x1="416.277" y1="1421.59" x2="344.875" y2="1239.79" gradientUnits="userSpaceOnUse">
<stop stop-color="white"/>
<stop offset="1" stop-color="white"/>
</linearGradient>
<linearGradient id="paint83_linear_714_4792" x1="416.277" y1="1421.59" x2="344.875" y2="1239.79" gradientUnits="userSpaceOnUse">
<stop stop-color="white"/>
<stop offset="1" stop-color="white"/>
</linearGradient>
<linearGradient id="paint84_linear_714_4792" x1="446.558" y1="1421.59" x2="375.156" y2="1239.79" gradientUnits="userSpaceOnUse">
<stop stop-color="white"/>
<stop offset="1" stop-color="white"/>
</linearGradient>
<linearGradient id="paint85_linear_714_4792" x1="446.558" y1="1421.59" x2="375.156" y2="1239.79" gradientUnits="userSpaceOnUse">
<stop stop-color="white"/>
<stop offset="1" stop-color="white"/>
</linearGradient>
<linearGradient id="paint86_linear_714_4792" x1="476.839" y1="1421.59" x2="405.438" y2="1239.79" gradientUnits="userSpaceOnUse">
<stop stop-color="white"/>
<stop offset="1" stop-color="white"/>
</linearGradient>
<linearGradient id="paint87_linear_714_4792" x1="476.839" y1="1421.59" x2="405.438" y2="1239.79" gradientUnits="userSpaceOnUse">
<stop stop-color="white"/>
<stop offset="1" stop-color="white"/>
</linearGradient>
<linearGradient id="paint88_linear_714_4792" x1="507.12" y1="1421.59" x2="435.719" y2="1239.79" gradientUnits="userSpaceOnUse">
<stop stop-color="white"/>
<stop offset="1" stop-color="white"/>
</linearGradient>
<linearGradient id="paint89_linear_714_4792" x1="507.12" y1="1421.59" x2="435.719" y2="1239.79" gradientUnits="userSpaceOnUse">
<stop stop-color="white"/>
<stop offset="1" stop-color="white"/>
</linearGradient>
<linearGradient id="paint90_linear_714_4792" x1="385.996" y1="1447.71" x2="314.594" y2="1265.91" gradientUnits="userSpaceOnUse">
<stop stop-color="white"/>
<stop offset="1" stop-color="white"/>
</linearGradient>
<linearGradient id="paint91_linear_714_4792" x1="385.996" y1="1447.71" x2="314.594" y2="1265.91" gradientUnits="userSpaceOnUse">
<stop stop-color="white"/>
<stop offset="1" stop-color="white"/>
</linearGradient>
<linearGradient id="paint92_linear_714_4792" x1="416.277" y1="1447.71" x2="344.875" y2="1265.9" gradientUnits="userSpaceOnUse">
<stop stop-color="white"/>
<stop offset="1" stop-color="white"/>
</linearGradient>
<linearGradient id="paint93_linear_714_4792" x1="416.277" y1="1447.71" x2="344.875" y2="1265.9" gradientUnits="userSpaceOnUse">
<stop stop-color="white"/>
<stop offset="1" stop-color="white"/>
</linearGradient>
<linearGradient id="paint94_linear_714_4792" x1="446.558" y1="1447.71" x2="375.156" y2="1265.9" gradientUnits="userSpaceOnUse">
<stop stop-color="white"/>
<stop offset="1" stop-color="white"/>
</linearGradient>
<linearGradient id="paint95_linear_714_4792" x1="446.558" y1="1447.71" x2="375.156" y2="1265.9" gradientUnits="userSpaceOnUse">
<stop stop-color="white"/>
<stop offset="1" stop-color="white"/>
</linearGradient>
<linearGradient id="paint96_linear_714_4792" x1="476.839" y1="1447.71" x2="405.438" y2="1265.9" gradientUnits="userSpaceOnUse">
<stop stop-color="white"/>
<stop offset="1" stop-color="white"/>
</linearGradient>
<linearGradient id="paint97_linear_714_4792" x1="476.839" y1="1447.71" x2="405.438" y2="1265.9" gradientUnits="userSpaceOnUse">
<stop stop-color="white"/>
<stop offset="1" stop-color="white"/>
</linearGradient>
<linearGradient id="paint98_linear_714_4792" x1="507.12" y1="1447.71" x2="435.719" y2="1265.9" gradientUnits="userSpaceOnUse">
<stop stop-color="white"/>
<stop offset="1" stop-color="white"/>
</linearGradient>
<linearGradient id="paint99_linear_714_4792" x1="507.12" y1="1447.71" x2="435.719" y2="1265.9" gradientUnits="userSpaceOnUse">
<stop stop-color="white"/>
<stop offset="1" stop-color="white"/>
</linearGradient>
<linearGradient id="paint100_linear_714_4792" x1="803.686" y1="2013.1" x2="1037.93" y2="1307.29" gradientUnits="userSpaceOnUse">
<stop stop-color="#F3F7FF"/>
<stop offset="1" stop-color="#DEEEFE"/>
</linearGradient>
<linearGradient id="paint101_linear_714_4792" x1="695.834" y1="69.8146" x2="461.594" y2="775.623" gradientUnits="userSpaceOnUse">
<stop stop-color="#F3F7FF"/>
<stop offset="1" stop-color="#DEEEFE"/>
</linearGradient>
</defs>
</svg>
