<svg width="36" height="36" viewBox="0 0 36 36" fill="none" xmlns="http://www.w3.org/2000/svg">
<path d="M30.5 0C33.5376 0 36 2.46243 36 5.5V30.5C36 33.5376 33.5376 36 30.5 36H5.5C2.46243 36 0 33.5376 0 30.5V5.5C0 2.46243 2.46243 0 5.5 0H30.5ZM30.5 3H5.5C4.11929 3 3 4.11929 3 5.5V30.5C3 31.8807 4.11929 33 5.5 33H30.5C31.8807 33 33 31.8807 33 30.5V5.5C33 4.11929 31.8807 3 30.5 3ZM14 22.8787L26.9393 9.93934C27.5251 9.35355 28.4749 9.35355 29.0607 9.93934C29.5932 10.4719 29.6416 11.3052 29.2059 11.8924L29.0607 12.0607L15.0607 26.0607C14.5281 26.5932 13.6948 26.6416 13.1076 26.2059L12.9393 26.0607L6.93934 20.0607C6.35355 19.4749 6.35355 18.5251 6.93934 17.9393C7.47187 17.4068 8.3052 17.3584 8.89242 17.7941L9.06066 17.9393L14 22.8787L26.9393 9.93934L14 22.8787Z" fill="#458FF6"/>
</svg>
