<svg width="670" height="336" viewBox="0 0 670 336" fill="none" xmlns="http://www.w3.org/2000/svg">
<g clip-path="url(#clip0_703_5617)">
<path d="M220.644 336C200.428 336 180.241 335.638 160.085 334.914C131.284 333.879 101.502 332.809 73.8216 317.451C54.4576 306.708 37.3078 289.471 24.2268 267.604C15.4836 252.783 9.07269 236.703 5.21929 219.931C-1.96879 189.394 -1.72395 157.577 5.93321 127.155C8.61657 116.724 12.3158 106.582 16.9777 96.8735C37.1642 55.0548 73.983 26.983 117.994 19.8566C118.357 19.8094 118.725 19.8016 119.09 19.8332C119.288 19.8438 119.485 19.8551 119.686 19.8467L119.945 19.7644C120.609 19.5336 121.291 19.3585 121.983 19.241C189.859 9.13229 261.614 29.5858 329.485 78.3889C381.963 116.128 451.511 136.451 542.103 140.517L543.389 140.584C568.608 142.033 593.002 152.434 613.937 170.665C634.601 188.658 650.115 212.664 658.804 240.089C659.872 243.433 660.851 246.913 661.714 250.433C662.518 253.704 662.461 257.128 661.55 260.371C660.638 263.614 658.903 266.566 656.514 268.939V268.946L656.288 269.178C655.745 269.718 655.174 270.236 654.589 270.719L653.902 271.285C648.113 276.056 643.54 279.825 638.068 282.752C634.418 284.691 630.536 286.157 626.516 287.115C604.439 292.5 582.02 297.492 559.882 301.954C516.887 310.626 472.76 317.78 428.726 323.216C359.692 331.732 290.201 336.001 220.644 336V336ZM118.575 21.3143C118.44 21.313 118.305 21.3222 118.171 21.3418C74.5717 28.4015 38.1015 56.1977 18.1152 97.6026C13.4992 107.215 9.83663 117.256 7.17995 127.584C-0.407434 157.736 -0.649223 189.271 6.47492 219.536C10.2906 236.148 16.6393 252.074 25.2981 266.754C38.2512 288.406 55.2255 305.47 74.3865 316.099C101.819 331.321 131.46 332.386 160.126 333.415C249.781 336.619 339.549 332.711 428.587 321.726C472.593 316.293 516.691 309.144 559.658 300.476C581.781 296.018 604.184 291.03 626.246 285.648C630.169 284.715 633.958 283.284 637.52 281.392C642.882 278.524 647.411 274.791 653.145 270.066L653.832 269.5C654.334 269.085 654.827 268.641 655.299 268.18L655.434 268.038C660.147 263.287 661.979 257.019 660.462 250.841V250.84C659.608 247.357 658.639 243.914 657.582 240.605C639.833 184.581 593.917 144.988 543.327 142.082L542.048 142.014C500.666 140.157 464.454 135.011 431.348 126.282C391.826 115.861 357.322 100.175 328.796 79.6604C261.184 31.0443 189.729 10.6668 122.149 20.7276C121.518 20.8366 120.897 20.9977 120.292 21.2093L119.825 21.3399C119.56 21.3518 119.295 21.3486 119.03 21.3304C118.874 21.3224 118.723 21.3143 118.575 21.3143H118.575Z" fill="#E0EDFD"/>
<path d="M209.28 109.473C207.409 107.677 205.495 97.6592 203.105 96.6422C204.891 100.591 203.594 101.637 203.585 105.971C203.607 108.431 203.32 110.885 202.73 113.275H162.253V81.6731C162.253 78.8336 162.812 76.0219 163.898 73.3986C164.984 70.7752 166.577 68.3916 168.584 66.3838C170.591 64.376 172.973 62.7833 175.596 61.6967C178.218 60.6101 181.028 60.0509 183.867 60.051C184.95 60.0722 186.026 60.2298 187.07 60.5202C190.55 61.4599 193.72 63.2983 196.265 65.851C198.81 68.4037 200.639 71.5809 201.568 75.0639C204.654 86.347 209.562 105.129 209.28 109.473Z" fill="#2F2E41"/>
<path d="M164.628 148.349L164.648 123.717L150.175 125.011L155.283 140.546L152.892 179.594C151.733 179.854 150.674 180.446 149.845 181.298C149.016 182.15 148.453 183.224 148.224 184.391C147.996 185.557 148.111 186.765 148.556 187.867C149.002 188.969 149.758 189.918 150.733 190.597C151.708 191.277 152.86 191.658 154.048 191.694C155.235 191.73 156.408 191.419 157.422 190.8C158.437 190.181 159.249 189.28 159.76 188.207C160.272 187.134 160.46 185.935 160.302 184.757L164.628 148.349Z" fill="#FFB6B6"/>
<path d="M193.112 324.366L198.959 324.365L201.74 301.803H193.11L193.112 324.366Z" fill="#FFB6B6"/>
<path d="M191.131 321.48L200.374 320.928V324.89L209.162 330.961C209.596 331.261 209.923 331.692 210.095 332.191C210.267 332.69 210.275 333.231 210.118 333.734C209.962 334.238 209.648 334.678 209.223 334.991C208.798 335.304 208.284 335.473 207.757 335.473H196.752L194.855 331.554L194.115 335.473H189.966L191.131 321.48Z" fill="#2F2E41"/>
<path d="M159.302 324.366L165.149 324.365L167.931 301.803H159.301L159.302 324.366Z" fill="#FFB6B6"/>
<path d="M157.322 321.48L166.565 320.928V324.89L175.353 330.961C175.787 331.261 176.114 331.692 176.286 332.191C176.458 332.69 176.466 333.231 176.309 333.734C176.152 334.238 175.838 334.678 175.413 334.991C174.989 335.304 174.475 335.473 173.947 335.473H162.943L161.046 331.554L160.305 335.473H156.156L157.322 321.48Z" fill="#2F2E41"/>
<path d="M187.905 97.1173L175.791 97.3549L167.241 106.384L160.386 107.39C157.285 107.845 154.434 109.351 152.31 111.656C150.186 113.961 148.917 116.926 148.715 120.055L149.903 126.58H157.028L161.15 150.792C159.547 154.878 159.438 158.103 162.728 159.37L172.941 178.616L203.105 165.072C204.635 162.441 205.125 159.799 203.561 157.229L205.718 120.165H212.968C212.968 113.233 210.625 107.389 203.738 106.617C201.003 106.321 198.255 106.164 195.505 106.146L187.905 97.1173Z" fill="#E6E6E6"/>
<path d="M203.105 165.072C203.105 165.072 173.654 170.3 162.728 159.37C162.728 159.37 161.619 161.254 159.948 164.378C159.467 165.276 158.539 165.885 157.978 166.973C157.469 167.962 156.158 169.178 155.603 170.3C155.156 171.202 155.873 172.382 155.408 173.357C149.813 185.097 143.276 201.658 144.677 212.593C145.581 219.645 147.448 236.055 149.414 253.68C149.567 255.057 148.323 256.826 148.478 258.214C148.623 259.522 150.167 260.45 150.313 261.762C150.41 262.633 149.331 263.521 149.428 264.391C149.533 265.346 150.814 266.282 150.919 267.232C153.612 291.568 156.078 314.288 156.078 314.288H169.854L172.453 262.397L170.329 243.482L175.316 205.228L182.204 241.581L183.09 262.041L190.369 315.239H203.105V263.74L204.055 261.065L203.105 257.634L204.055 253.937L203.105 249.911V165.072Z" fill="#2F2E41"/>
<path d="M191.622 90.0902C189.746 92.5837 187.077 94.3636 184.054 95.1367C181.032 95.9099 177.836 95.6302 174.993 94.3437C172.151 93.0572 169.831 90.8406 168.416 88.059C167.001 85.2774 166.575 82.0966 167.208 79.0405C167.842 75.9844 169.497 73.2352 171.9 71.2456C174.304 69.2561 177.314 68.1448 180.433 68.0949C183.553 68.045 186.596 69.0593 189.062 70.9709C191.529 72.8824 193.271 75.5773 194.001 78.6116C194.041 78.7762 194.074 78.9399 194.107 79.1098C194.492 81.0117 194.471 82.9739 194.042 84.8667C193.614 86.7595 192.789 88.5399 191.622 90.0902V90.0902Z" fill="#FFB6B6"/>
<path d="M188.76 82.2527C188.468 80.7903 187.732 79.454 186.651 78.4273C186.757 79.8287 186.563 81.2368 186.08 82.5569C182.469 82.8768 178.842 82.158 175.625 80.485C173.203 78.8408 170.12 78.9833 166.529 80.485C166.528 78.7376 166.872 77.0072 167.541 75.3928C168.209 73.7783 169.189 72.3114 170.424 71.0758C171.659 69.8402 173.125 68.8601 174.739 68.1915C176.353 67.5229 178.082 67.1789 179.829 67.1791H182.204C185.732 67.1797 189.114 68.5818 191.609 71.077C194.103 73.5722 195.504 76.9562 195.505 80.485C193.313 81.2715 191.056 81.8631 188.76 82.2527V82.2527Z" fill="#2F2E41"/>
<path d="M84.8498 251.841C105.953 251.841 123.061 234.727 123.061 213.615C123.061 192.504 105.953 175.39 84.8498 175.39C63.7465 175.39 46.639 192.504 46.639 213.615C46.639 234.727 63.7465 251.841 84.8498 251.841Z" fill="#E0EDFD"/>
<path d="M328.35 76.4518C349.453 76.4518 366.561 59.3375 366.561 38.2259C366.561 17.1143 349.453 0 328.35 0C307.247 0 290.139 17.1143 290.139 38.2259C290.139 59.3375 307.247 76.4518 328.35 76.4518Z" fill="#E0EDFD"/>
<path d="M631.789 257.838C652.892 257.838 670 240.723 670 219.612C670 198.5 652.892 181.386 631.789 181.386C610.686 181.386 593.578 198.5 593.578 219.612C593.578 240.723 610.686 257.838 631.789 257.838Z" fill="#E0EDFD"/>
<path d="M397.28 42.3946V129.075C397.28 130.875 396.57 132.603 395.304 133.883C394.038 135.163 392.318 135.891 390.519 135.91C390.494 135.912 390.469 135.913 390.444 135.913H380.359C372.291 135.913 364.552 132.706 358.847 126.998C353.141 121.291 349.936 113.549 349.936 105.477V42.3946C349.936 40.581 350.656 38.8417 351.938 37.5593C353.22 36.2769 354.958 35.5564 356.771 35.5564H360.858C358.964 41.0809 384.657 43.4068 386.068 35.5564H390.444C392.257 35.5564 393.996 36.2769 395.277 37.5593C396.559 38.8417 397.28 40.581 397.28 42.3946V42.3946Z" fill="#458FF6"/>
<path d="M367.353 29.0748C367.353 28.8372 367.448 28.6094 367.616 28.4414C367.784 28.2734 368.011 28.1789 368.249 28.1786H374.34C374.578 28.1793 374.805 28.274 374.972 28.442C375.14 28.61 375.234 28.8375 375.234 29.0748C375.234 29.312 375.14 29.5395 374.972 29.7075C374.805 29.8755 374.578 29.9702 374.34 29.9709H368.249C368.011 29.9707 367.784 29.8762 367.616 29.7082C367.448 29.5402 367.353 29.3124 367.353 29.0748V29.0748Z" fill="#3F3D56"/>
<path d="M392.537 146.908H354.014C351.026 146.904 348.16 145.715 346.047 143.601C343.933 141.487 342.745 138.62 342.741 135.63V75.0374C342.53 74.8854 342.357 74.6852 342.239 74.4533C342.12 74.2215 342.058 73.9646 342.058 73.7041V67.6102C342.058 67.3497 342.12 67.0929 342.239 66.8611C342.357 66.6293 342.53 66.4292 342.741 66.2773V64.6417C342.53 64.4898 342.357 64.2897 342.239 64.0579C342.12 63.8261 342.058 63.5693 342.058 63.3088V57.2145C342.058 56.9541 342.12 56.6973 342.239 56.4654C342.357 56.2336 342.53 56.0335 342.741 55.8816V52.9256C342.48 52.7853 342.262 52.5765 342.11 52.3218C341.958 52.067 341.878 51.7758 341.879 51.4792V45.3853C341.878 45.0887 341.958 44.7974 342.11 44.5426C342.262 44.2877 342.48 44.079 342.741 43.9386V35.8387C342.745 32.8487 343.933 29.9823 346.047 27.8681C348.16 25.754 351.026 24.5648 354.014 24.5614H392.537C395.525 24.5648 398.391 25.754 400.504 27.8682C402.618 29.9823 403.806 32.8488 403.81 35.8387V53.4947C404.013 53.6217 404.18 53.7983 404.296 54.0078C404.412 54.2174 404.473 54.453 404.473 54.6925V66.3124C404.473 66.552 404.412 66.7877 404.296 66.9973C404.18 67.2069 404.013 67.3835 403.81 67.5106V135.63C403.806 138.62 402.618 141.487 400.504 143.601C398.391 145.715 395.525 146.904 392.537 146.908V146.908ZM354.014 26.0605C351.423 26.0634 348.938 27.0945 347.106 28.9276C345.273 30.7608 344.242 33.2462 344.239 35.8387V45.2137L343.519 45.2415C343.481 45.2428 343.446 45.2585 343.42 45.2852C343.393 45.312 343.378 45.3478 343.378 45.3853V51.4792C343.378 51.5167 343.393 51.5524 343.42 51.5792C343.446 51.6059 343.481 51.6216 343.519 51.623L344.239 51.6505V56.9341L343.67 57.0747C343.638 57.0823 343.61 57.1001 343.589 57.1254C343.569 57.1507 343.558 57.182 343.557 57.2145V63.3088C343.558 63.3413 343.569 63.3726 343.589 63.3979C343.61 63.4232 343.638 63.441 343.67 63.4486L344.239 63.5891V67.3298L343.67 67.4703C343.638 67.478 343.61 67.4958 343.589 67.5211C343.569 67.5464 343.558 67.5777 343.557 67.6102V73.7041C343.558 73.7366 343.569 73.768 343.589 73.7934C343.61 73.8187 343.638 73.8366 343.67 73.8443L344.239 73.9848V135.63C344.242 138.223 345.273 140.708 347.106 142.541C348.938 144.374 351.423 145.406 354.014 145.408H392.537C395.128 145.405 397.613 144.374 399.445 142.541C401.277 140.708 402.308 138.223 402.311 135.63V66.2271H402.975V54.7782H402.311V35.8387C402.308 33.2462 401.277 30.7608 399.445 28.9277C397.613 27.0946 395.128 26.0634 392.537 26.0604L354.014 26.0605Z" fill="#3F3D56"/>
<path d="M377.745 29.9709C378.239 29.9709 378.64 29.5697 378.64 29.0748C378.64 28.5798 378.239 28.1786 377.745 28.1786C377.25 28.1786 376.849 28.5798 376.849 29.0748C376.849 29.5697 377.25 29.9709 377.745 29.9709Z" fill="#3F3D56"/>
<path d="M182.873 202.675H82.6351C81.2116 202.671 79.8474 202.104 78.8408 201.097C77.8342 200.09 77.267 198.725 77.2631 197.301V148.44C77.2668 147.016 77.8338 145.652 78.8403 144.644C79.8468 143.637 81.2109 143.07 82.6343 143.066H182.872C184.295 143.07 185.659 143.637 186.666 144.644C187.673 145.651 188.24 147.015 188.244 148.44V197.3C188.24 198.725 187.673 200.089 186.667 201.096C185.66 202.103 184.296 202.671 182.873 202.675Z" fill="white"/>
<path d="M182.873 202.675H82.6351C81.2116 202.671 79.8474 202.104 78.8408 201.097C77.8342 200.09 77.267 198.725 77.2631 197.301V148.44C77.2668 147.016 77.8338 145.652 78.8403 144.644C79.8468 143.637 81.2109 143.07 82.6343 143.066H182.872C184.295 143.07 185.659 143.637 186.666 144.644C187.673 145.651 188.24 147.015 188.244 148.44V197.3C188.24 198.725 187.673 200.089 186.667 201.096C185.66 202.103 184.296 202.671 182.873 202.675ZM82.6351 144.565C81.6086 144.568 80.625 144.978 79.8992 145.704C79.1734 146.43 78.7644 147.414 78.7616 148.441V197.3C78.7646 198.327 79.1737 199.311 79.8996 200.037C80.6256 200.764 81.6093 201.173 82.6358 201.175H182.871C183.898 201.173 184.882 200.763 185.608 200.037C186.333 199.311 186.743 198.327 186.745 197.3V148.44C186.742 147.413 186.333 146.429 185.607 145.703C184.881 144.977 183.898 144.568 182.871 144.565L82.6351 144.565Z" fill="#3F3D56"/>
<path d="M138.126 195.454C118.357 195.454 97.7434 195.265 90.0522 195.142C89.0403 195.121 88.0766 194.705 87.3669 193.983C86.6572 193.262 86.2578 192.291 86.2539 191.278V150.832C86.2543 150.47 86.3982 150.122 86.6542 149.865C86.9101 149.609 87.2573 149.464 87.6198 149.463H177.884C178.246 149.463 178.594 149.607 178.85 149.863C179.107 150.119 179.252 150.466 179.253 150.829V178.27C179.236 182.75 177.465 187.044 174.32 190.232C171.174 193.421 166.905 195.248 162.428 195.324C155.259 195.417 146.771 195.454 138.126 195.454Z" fill="#458FF6"/>
<path d="M172.526 175.749H90.9651C90.2822 175.747 89.6164 175.535 89.0582 175.142C88.5 174.748 88.0765 174.192 87.8453 173.549L78.6138 147.641C78.4359 147.141 78.3804 146.606 78.4521 146.08C78.5238 145.555 78.7205 145.054 79.0257 144.62C79.3309 144.186 79.7357 143.832 80.206 143.587C80.6764 143.343 81.1986 143.214 81.7289 143.213L183.679 143.071C184.163 143.071 184.642 143.177 185.081 143.381C185.521 143.586 185.91 143.885 186.221 144.256C186.533 144.628 186.759 145.063 186.884 145.531C187.009 146 187.03 146.49 186.945 146.967L187.023 147L186.731 147.684L186.728 147.691L175.568 173.741C175.314 174.337 174.89 174.846 174.349 175.203C173.808 175.56 173.174 175.75 172.526 175.749V175.749ZM183.683 144.57L81.7318 144.712C81.4413 144.713 81.1552 144.783 80.8975 144.917C80.6398 145.051 80.4181 145.245 80.2509 145.483C80.0837 145.72 79.9759 145.995 79.9366 146.283C79.8973 146.57 79.9277 146.864 80.0252 147.137L89.2563 173.045C89.3832 173.397 89.6153 173.702 89.9212 173.917C90.2271 174.133 90.592 174.249 90.9662 174.25H172.526C172.881 174.251 173.228 174.146 173.524 173.951C173.82 173.755 174.052 173.477 174.191 173.151L185.351 147.1L185.9 147.335L185.351 147.1C185.469 146.824 185.517 146.523 185.49 146.224C185.464 145.925 185.363 145.637 185.198 145.386C185.033 145.135 184.808 144.93 184.543 144.787C184.279 144.645 183.983 144.57 183.683 144.57V144.57Z" fill="#3F3D56"/>
<path d="M132.601 181.389C136.129 181.389 138.988 178.528 138.988 175C138.988 171.471 136.129 168.611 132.601 168.611C129.074 168.611 126.215 171.471 126.215 175C126.215 178.528 129.074 181.389 132.601 181.389Z" fill="white"/>
<path d="M373.854 125.924C377.381 125.924 380.241 123.063 380.241 119.535C380.241 116.006 377.381 113.146 373.854 113.146C370.327 113.146 367.468 116.006 367.468 119.535C367.468 123.063 370.327 125.924 373.854 125.924Z" fill="white"/>
<path d="M615.403 212.206L598.343 195.357C597.513 194.53 596.528 193.876 595.444 193.431C594.36 192.986 593.199 192.759 592.027 192.764H591.967C590.787 192.767 589.619 193.005 588.531 193.463C587.443 193.921 586.457 194.59 585.629 195.432C581.814 199.294 579.645 204.485 579.576 209.914C579.508 215.343 581.546 220.587 585.262 224.544C585.442 224.738 585.629 224.926 585.816 225.113C586.854 226.145 587.999 227.062 589.233 227.849C592.605 230.029 596.538 231.182 600.554 231.169H600.681C603.437 231.16 606.164 230.604 608.704 229.534C611.244 228.463 613.546 226.9 615.478 224.933C617.153 223.234 618.085 220.94 618.071 218.554C618.057 216.169 617.097 213.886 615.403 212.206V212.206ZM614.414 223.877C611.247 227.069 607.076 229.071 602.606 229.546C598.135 230.021 593.637 228.94 589.87 226.485C588.792 225.772 587.786 224.956 586.865 224.049C583.189 220.417 581.106 215.473 581.074 210.305C581.041 205.136 583.063 200.166 586.693 196.489C587.383 195.785 588.206 195.226 589.114 194.844C590.022 194.462 590.997 194.264 591.982 194.263H592.027C593.003 194.259 593.969 194.448 594.872 194.819C595.774 195.189 596.595 195.734 597.287 196.421L614.347 213.278C615.759 214.675 616.56 216.576 616.572 218.563C616.585 220.55 615.809 222.461 614.414 223.877V223.877Z" fill="#3F3D56"/>
<path d="M559.428 156.906L542.368 140.049C540.689 138.382 538.418 137.45 536.052 137.456H536C534.818 137.461 533.648 137.699 532.559 138.159C531.47 138.618 530.483 139.289 529.654 140.132C526.5 143.336 524.456 147.466 523.819 151.917C523.183 156.368 523.988 160.906 526.117 164.866L526.125 164.874C527.003 166.493 528.094 167.988 529.369 169.318C529.511 169.483 529.676 169.648 529.841 169.813C533.759 173.703 539.058 175.881 544.579 175.869H544.713C547.47 175.858 550.197 175.3 552.736 174.228C555.276 173.157 557.579 171.592 559.511 169.626C560.34 168.785 560.996 167.789 561.441 166.695C561.886 165.601 562.111 164.43 562.103 163.249C562.095 162.068 561.855 160.9 561.396 159.811C560.937 158.723 560.269 157.736 559.428 156.906V156.906ZM558.439 168.576C556.646 170.401 554.509 171.853 552.152 172.847C549.795 173.842 547.264 174.359 544.706 174.37H544.579C540.737 174.369 536.981 173.231 533.784 171.1C530.587 168.968 528.091 165.939 526.611 162.393C525.13 158.846 524.731 154.941 525.463 151.168C526.195 147.395 528.026 143.923 530.725 141.188C532.122 139.776 534.022 138.975 536.008 138.963C537.995 138.95 539.905 139.726 541.319 141.121L558.379 157.97C559.791 159.37 560.59 161.273 560.601 163.261C560.612 165.249 559.835 167.161 558.439 168.576L558.439 168.576Z" fill="#3F3D56"/>
<path d="M616.494 217.504L597.686 198.92C596.452 197.704 594.787 197.028 593.056 197.038C591.324 197.049 589.668 197.746 588.45 198.978C586.926 200.518 585.72 202.343 584.902 204.35C584.084 206.356 583.669 208.504 583.681 210.671C583.694 212.838 584.133 214.981 584.973 216.978C585.814 218.976 587.04 220.787 588.581 222.31C590.123 223.833 591.949 225.037 593.955 225.853C595.962 226.669 598.11 227.082 600.276 227.067C602.442 227.053 604.584 226.611 606.579 225.768C608.574 224.924 610.384 223.696 611.904 222.152L616.494 217.504Z" fill="#458FF6"/>
<path d="M560.522 162.2L541.714 143.617C540.481 142.401 538.816 141.724 537.084 141.735C535.352 141.746 533.696 142.443 532.478 143.674C530.954 145.214 529.748 147.04 528.93 149.046C528.112 151.053 527.697 153.201 527.709 155.368C527.722 157.535 528.161 159.678 529.002 161.675C529.842 163.672 531.068 165.484 532.61 167.007C534.151 168.53 535.977 169.733 537.983 170.55C539.99 171.366 542.138 171.779 544.304 171.764C546.47 171.749 548.612 171.308 550.607 170.464C552.603 169.621 554.412 168.392 555.933 166.849L560.522 162.2Z" fill="#458FF6"/>
<path d="M595.826 229.078L595.376 230.262C593.264 229.461 591.216 228.656 589.233 227.849C554.109 213.511 537.341 196.729 526.125 164.874L526.117 164.866C525.585 163.367 525.069 161.833 524.567 160.264L525.75 159.882C526.146 161.391 526.725 162.846 527.474 164.214C528.088 165.961 528.72 167.662 529.369 169.318C539.911 196.204 555.457 211.569 585.262 224.544C586.76 225.196 588.296 225.843 589.87 226.485C591.697 227.676 593.71 228.552 595.826 229.078V229.078Z" fill="#3F3D56"/>
<path d="M542.056 174.505L541.002 175.572L579.916 214.021L580.969 212.954L542.056 174.505Z" fill="#3F3D56"/>
<path d="M212.606 142.646L212.626 118.015L198.152 119.308L203.26 134.843L184.719 162.961C183.559 163.222 182.501 163.814 181.672 164.666C180.843 165.517 180.28 166.592 180.051 167.759C179.822 168.925 179.937 170.133 180.383 171.235C180.828 172.337 181.585 173.286 182.56 173.965C183.535 174.644 184.686 175.025 185.874 175.061C187.062 175.097 188.234 174.787 189.249 174.168C190.263 173.549 191.076 172.647 191.587 171.574C192.098 170.501 192.286 169.303 192.129 168.125L212.606 142.646Z" fill="#FFB6B6"/>
</g>
<defs>
<clipPath id="clip0_703_5617">
<rect width="670" height="336" fill="white"/>
</clipPath>
</defs>
</svg>
