<svg width="413" height="308" viewBox="0 0 413 308" fill="none" xmlns="http://www.w3.org/2000/svg">
<g opacity="0.3">
<mask id="mask0_765_4537" style="mask-type:alpha" maskUnits="userSpaceOnUse" x="0" y="185" width="11" height="11">
<path d="M5.22838 195.425C8.11594 195.425 10.4568 193.091 10.4568 190.212C10.4568 187.334 8.11594 185 5.22838 185C2.34082 185 0 187.334 0 190.212C0 193.091 2.34082 195.425 5.22838 195.425Z" fill="url(#paint0_linear_765_4537)"/>
</mask>
<g mask="url(#mask0_765_4537)">
<path d="M5.22838 195.425C8.11594 195.425 10.4568 193.091 10.4568 190.212C10.4568 187.334 8.11594 185 5.22838 185C2.34082 185 0 187.334 0 190.212C0 193.091 2.34082 195.425 5.22838 195.425Z" fill="url(#paint1_linear_765_4537)"/>
</g>
<mask id="mask1_765_4537" style="mask-type:alpha" maskUnits="userSpaceOnUse" x="30" y="185" width="11" height="11">
<path d="M35.5096 195.425C38.3972 195.425 40.738 193.091 40.738 190.212C40.738 187.334 38.3972 185 35.5096 185C32.6221 185 30.2812 187.334 30.2812 190.212C30.2812 193.091 32.6221 195.425 35.5096 195.425Z" fill="url(#paint2_linear_765_4537)"/>
</mask>
<g mask="url(#mask1_765_4537)">
<path d="M35.5096 195.425C38.3972 195.425 40.738 193.091 40.738 190.212C40.738 187.334 38.3972 185 35.5096 185C32.6221 185 30.2812 187.334 30.2812 190.212C30.2812 193.091 32.6221 195.425 35.5096 195.425Z" fill="url(#paint3_linear_765_4537)"/>
</g>
<mask id="mask2_765_4537" style="mask-type:alpha" maskUnits="userSpaceOnUse" x="60" y="185" width="12" height="11">
<path d="M65.7904 195.425C68.678 195.425 71.0188 193.091 71.0188 190.212C71.0188 187.334 68.678 185 65.7904 185C62.9028 185 60.562 187.334 60.562 190.212C60.562 193.091 62.9028 195.425 65.7904 195.425Z" fill="url(#paint4_linear_765_4537)"/>
</mask>
<g mask="url(#mask2_765_4537)">
<path d="M65.7904 195.425C68.678 195.425 71.0188 193.091 71.0188 190.212C71.0188 187.334 68.678 185 65.7904 185C62.9028 185 60.562 187.334 60.562 190.212C60.562 193.091 62.9028 195.425 65.7904 195.425Z" fill="url(#paint5_linear_765_4537)"/>
</g>
<mask id="mask3_765_4537" style="mask-type:alpha" maskUnits="userSpaceOnUse" x="90" y="185" width="12" height="11">
<path d="M96.0717 195.425C98.9592 195.425 101.3 193.091 101.3 190.212C101.3 187.334 98.9592 185 96.0717 185C93.1841 185 90.8433 187.334 90.8433 190.212C90.8433 193.091 93.1841 195.425 96.0717 195.425Z" fill="url(#paint6_linear_765_4537)"/>
</mask>
<g mask="url(#mask3_765_4537)">
<path d="M96.0717 195.425C98.9592 195.425 101.3 193.091 101.3 190.212C101.3 187.334 98.9592 185 96.0717 185C93.1841 185 90.8433 187.334 90.8433 190.212C90.8433 193.091 93.1841 195.425 96.0717 195.425Z" fill="url(#paint7_linear_765_4537)"/>
</g>
<mask id="mask4_765_4537" style="mask-type:alpha" maskUnits="userSpaceOnUse" x="121" y="185" width="11" height="11">
<path d="M126.352 195.425C129.24 195.425 131.581 193.091 131.581 190.212C131.581 187.334 129.24 185 126.352 185C123.465 185 121.124 187.334 121.124 190.212C121.124 193.091 123.465 195.425 126.352 195.425Z" fill="url(#paint8_linear_765_4537)"/>
</mask>
<g mask="url(#mask4_765_4537)">
<path d="M126.352 195.425C129.24 195.425 131.581 193.091 131.581 190.212C131.581 187.334 129.24 185 126.352 185C123.465 185 121.124 187.334 121.124 190.212C121.124 193.091 123.465 195.425 126.352 195.425Z" fill="url(#paint9_linear_765_4537)"/>
</g>
<mask id="mask5_765_4537" style="mask-type:alpha" maskUnits="userSpaceOnUse" x="0" y="211" width="11" height="11">
<path d="M5.22838 221.596C8.11594 221.596 10.4568 219.262 10.4568 216.383C10.4568 213.505 8.11594 211.171 5.22838 211.171C2.34082 211.171 0 213.505 0 216.383C0 219.262 2.34082 221.596 5.22838 221.596Z" fill="url(#paint10_linear_765_4537)"/>
</mask>
<g mask="url(#mask5_765_4537)">
<path d="M5.22838 221.596C8.11594 221.596 10.4568 219.262 10.4568 216.383C10.4568 213.505 8.11594 211.171 5.22838 211.171C2.34082 211.171 0 213.505 0 216.383C0 219.262 2.34082 221.596 5.22838 221.596Z" fill="url(#paint11_linear_765_4537)"/>
</g>
<mask id="mask6_765_4537" style="mask-type:alpha" maskUnits="userSpaceOnUse" x="30" y="211" width="11" height="11">
<path d="M35.5096 221.596C38.3972 221.596 40.738 219.262 40.738 216.383C40.738 213.505 38.3972 211.171 35.5096 211.171C32.6221 211.171 30.2812 213.505 30.2812 216.383C30.2812 219.262 32.6221 221.596 35.5096 221.596Z" fill="url(#paint12_linear_765_4537)"/>
</mask>
<g mask="url(#mask6_765_4537)">
<path d="M35.5096 221.596C38.3972 221.596 40.738 219.262 40.738 216.383C40.738 213.505 38.3972 211.171 35.5096 211.171C32.6221 211.171 30.2812 213.505 30.2812 216.383C30.2812 219.262 32.6221 221.596 35.5096 221.596Z" fill="url(#paint13_linear_765_4537)"/>
</g>
<mask id="mask7_765_4537" style="mask-type:alpha" maskUnits="userSpaceOnUse" x="60" y="211" width="12" height="11">
<path d="M65.7904 221.596C68.678 221.596 71.0188 219.262 71.0188 216.383C71.0188 213.505 68.678 211.171 65.7904 211.171C62.9028 211.171 60.562 213.505 60.562 216.383C60.562 219.262 62.9028 221.596 65.7904 221.596Z" fill="url(#paint14_linear_765_4537)"/>
</mask>
<g mask="url(#mask7_765_4537)">
<path d="M65.7904 221.596C68.678 221.596 71.0188 219.262 71.0188 216.383C71.0188 213.505 68.678 211.171 65.7904 211.171C62.9028 211.171 60.562 213.505 60.562 216.383C60.562 219.262 62.9028 221.596 65.7904 221.596Z" fill="url(#paint15_linear_765_4537)"/>
</g>
<mask id="mask8_765_4537" style="mask-type:alpha" maskUnits="userSpaceOnUse" x="90" y="211" width="12" height="11">
<path d="M96.0717 221.596C98.9592 221.596 101.3 219.262 101.3 216.383C101.3 213.505 98.9592 211.171 96.0717 211.171C93.1841 211.171 90.8433 213.505 90.8433 216.383C90.8433 219.262 93.1841 221.596 96.0717 221.596Z" fill="url(#paint16_linear_765_4537)"/>
</mask>
<g mask="url(#mask8_765_4537)">
<path d="M96.0717 221.596C98.9592 221.596 101.3 219.262 101.3 216.383C101.3 213.505 98.9592 211.171 96.0717 211.171C93.1841 211.171 90.8433 213.505 90.8433 216.383C90.8433 219.262 93.1841 221.596 96.0717 221.596Z" fill="url(#paint17_linear_765_4537)"/>
</g>
<mask id="mask9_765_4537" style="mask-type:alpha" maskUnits="userSpaceOnUse" x="0" y="237" width="11" height="11">
<path d="M5.22838 247.712C8.11594 247.712 10.4568 245.379 10.4568 242.5C10.4568 239.621 8.11594 237.288 5.22838 237.288C2.34082 237.288 0 239.621 0 242.5C0 245.379 2.34082 247.712 5.22838 247.712Z" fill="url(#paint18_linear_765_4537)"/>
</mask>
<g mask="url(#mask9_765_4537)">
<path d="M5.22838 247.712C8.11594 247.712 10.4568 245.379 10.4568 242.5C10.4568 239.621 8.11594 237.288 5.22838 237.288C2.34082 237.288 0 239.621 0 242.5C0 245.379 2.34082 247.712 5.22838 247.712Z" fill="url(#paint19_linear_765_4537)"/>
</g>
<mask id="mask10_765_4537" style="mask-type:alpha" maskUnits="userSpaceOnUse" x="30" y="237" width="11" height="11">
<path d="M35.5096 247.712C38.3972 247.712 40.738 245.379 40.738 242.5C40.738 239.621 38.3972 237.288 35.5096 237.288C32.6221 237.288 30.2812 239.621 30.2812 242.5C30.2812 245.379 32.6221 247.712 35.5096 247.712Z" fill="url(#paint20_linear_765_4537)"/>
</mask>
<g mask="url(#mask10_765_4537)">
<path d="M35.5096 247.712C38.3972 247.712 40.738 245.379 40.738 242.5C40.738 239.621 38.3972 237.288 35.5096 237.288C32.6221 237.288 30.2812 239.621 30.2812 242.5C30.2812 245.379 32.6221 247.712 35.5096 247.712Z" fill="url(#paint21_linear_765_4537)"/>
</g>
<mask id="mask11_765_4537" style="mask-type:alpha" maskUnits="userSpaceOnUse" x="60" y="237" width="12" height="11">
<path d="M65.7904 247.712C68.678 247.712 71.0188 245.379 71.0188 242.5C71.0188 239.621 68.678 237.288 65.7904 237.288C62.9028 237.288 60.562 239.621 60.562 242.5C60.562 245.379 62.9028 247.712 65.7904 247.712Z" fill="url(#paint22_linear_765_4537)"/>
</mask>
<g mask="url(#mask11_765_4537)">
<path d="M65.7904 247.712C68.678 247.712 71.0188 245.379 71.0188 242.5C71.0188 239.621 68.678 237.288 65.7904 237.288C62.9028 237.288 60.562 239.621 60.562 242.5C60.562 245.379 62.9028 247.712 65.7904 247.712Z" fill="url(#paint23_linear_765_4537)"/>
</g>
<mask id="mask12_765_4537" style="mask-type:alpha" maskUnits="userSpaceOnUse" x="90" y="237" width="12" height="11">
<path d="M96.0717 247.712C98.9592 247.712 101.3 245.379 101.3 242.5C101.3 239.621 98.9592 237.288 96.0717 237.288C93.1841 237.288 90.8433 239.621 90.8433 242.5C90.8433 245.379 93.1841 247.712 96.0717 247.712Z" fill="url(#paint24_linear_765_4537)"/>
</mask>
<g mask="url(#mask12_765_4537)">
<path d="M96.0717 247.712C98.9592 247.712 101.3 245.379 101.3 242.5C101.3 239.621 98.9592 237.288 96.0717 237.288C93.1841 237.288 90.8433 239.621 90.8433 242.5C90.8433 245.379 93.1841 247.712 96.0717 247.712Z" fill="url(#paint25_linear_765_4537)"/>
</g>
<mask id="mask13_765_4537" style="mask-type:alpha" maskUnits="userSpaceOnUse" x="121" y="237" width="11" height="11">
<path d="M126.352 247.712C129.24 247.712 131.581 245.379 131.581 242.5C131.581 239.621 129.24 237.288 126.352 237.288C123.465 237.288 121.124 239.621 121.124 242.5C121.124 245.379 123.465 247.712 126.352 247.712Z" fill="url(#paint26_linear_765_4537)"/>
</mask>
<g mask="url(#mask13_765_4537)">
<path d="M126.352 247.712C129.24 247.712 131.581 245.379 131.581 242.5C131.581 239.621 129.24 237.288 126.352 237.288C123.465 237.288 121.124 239.621 121.124 242.5C121.124 245.379 123.465 247.712 126.352 247.712Z" fill="url(#paint27_linear_765_4537)"/>
</g>
<mask id="mask14_765_4537" style="mask-type:alpha" maskUnits="userSpaceOnUse" x="121" y="211" width="11" height="11">
<path d="M126.352 221.596C129.24 221.596 131.581 219.262 131.581 216.383C131.581 213.505 129.24 211.171 126.352 211.171C123.465 211.171 121.124 213.505 121.124 216.383C121.124 219.262 123.465 221.596 126.352 221.596Z" fill="url(#paint28_linear_765_4537)"/>
</mask>
<g mask="url(#mask14_765_4537)">
<path d="M126.352 221.596C129.24 221.596 131.581 219.262 131.581 216.383C131.581 213.505 129.24 211.171 126.352 211.171C123.465 211.171 121.124 213.505 121.124 216.383C121.124 219.262 123.465 221.596 126.352 221.596Z" fill="url(#paint29_linear_765_4537)"/>
</g>
<mask id="mask15_765_4537" style="mask-type:alpha" maskUnits="userSpaceOnUse" x="0" y="263" width="11" height="11">
<path d="M5.22838 273.883C8.11594 273.883 10.4568 271.55 10.4568 268.671C10.4568 265.792 8.11594 263.458 5.22838 263.458C2.34082 263.458 0 265.792 0 268.671C0 271.55 2.34082 273.883 5.22838 273.883Z" fill="url(#paint30_linear_765_4537)"/>
</mask>
<g mask="url(#mask15_765_4537)">
<path d="M5.22838 273.883C8.11594 273.883 10.4568 271.55 10.4568 268.671C10.4568 265.792 8.11594 263.458 5.22838 263.458C2.34082 263.458 0 265.792 0 268.671C0 271.55 2.34082 273.883 5.22838 273.883Z" fill="url(#paint31_linear_765_4537)"/>
</g>
<mask id="mask16_765_4537" style="mask-type:alpha" maskUnits="userSpaceOnUse" x="30" y="263" width="11" height="11">
<path d="M35.5096 273.883C38.3972 273.883 40.738 271.55 40.738 268.671C40.738 265.792 38.3972 263.458 35.5096 263.458C32.6221 263.458 30.2812 265.792 30.2812 268.671C30.2812 271.55 32.6221 273.883 35.5096 273.883Z" fill="url(#paint32_linear_765_4537)"/>
</mask>
<g mask="url(#mask16_765_4537)">
<path d="M35.5096 273.883C38.3972 273.883 40.738 271.55 40.738 268.671C40.738 265.792 38.3972 263.458 35.5096 263.458C32.6221 263.458 30.2812 265.792 30.2812 268.671C30.2812 271.55 32.6221 273.883 35.5096 273.883Z" fill="url(#paint33_linear_765_4537)"/>
</g>
<mask id="mask17_765_4537" style="mask-type:alpha" maskUnits="userSpaceOnUse" x="60" y="263" width="12" height="11">
<path d="M65.7904 273.883C68.678 273.883 71.0188 271.55 71.0188 268.671C71.0188 265.792 68.678 263.458 65.7904 263.458C62.9028 263.458 60.562 265.792 60.562 268.671C60.562 271.55 62.9028 273.883 65.7904 273.883Z" fill="url(#paint34_linear_765_4537)"/>
</mask>
<g mask="url(#mask17_765_4537)">
<path d="M65.7904 273.883C68.678 273.883 71.0188 271.55 71.0188 268.671C71.0188 265.792 68.678 263.458 65.7904 263.458C62.9028 263.458 60.562 265.792 60.562 268.671C60.562 271.55 62.9028 273.883 65.7904 273.883Z" fill="url(#paint35_linear_765_4537)"/>
</g>
<mask id="mask18_765_4537" style="mask-type:alpha" maskUnits="userSpaceOnUse" x="90" y="263" width="12" height="11">
<path d="M96.0717 273.883C98.9592 273.883 101.3 271.55 101.3 268.671C101.3 265.792 98.9592 263.458 96.0717 263.458C93.1841 263.458 90.8433 265.792 90.8433 268.671C90.8433 271.55 93.1841 273.883 96.0717 273.883Z" fill="url(#paint36_linear_765_4537)"/>
</mask>
<g mask="url(#mask18_765_4537)">
<path d="M96.0717 273.883C98.9592 273.883 101.3 271.55 101.3 268.671C101.3 265.792 98.9592 263.458 96.0717 263.458C93.1841 263.458 90.8433 265.792 90.8433 268.671C90.8433 271.55 93.1841 273.883 96.0717 273.883Z" fill="url(#paint37_linear_765_4537)"/>
</g>
<mask id="mask19_765_4537" style="mask-type:alpha" maskUnits="userSpaceOnUse" x="121" y="263" width="11" height="11">
<path d="M126.352 273.883C129.24 273.883 131.581 271.55 131.581 268.671C131.581 265.792 129.24 263.458 126.352 263.458C123.465 263.458 121.124 265.792 121.124 268.671C121.124 271.55 123.465 273.883 126.352 273.883Z" fill="url(#paint38_linear_765_4537)"/>
</mask>
<g mask="url(#mask19_765_4537)">
<path d="M126.352 273.883C129.24 273.883 131.581 271.55 131.581 268.671C131.581 265.792 129.24 263.458 126.352 263.458C123.465 263.458 121.124 265.792 121.124 268.671C121.124 271.55 123.465 273.883 126.352 273.883Z" fill="url(#paint39_linear_765_4537)"/>
</g>
<mask id="mask20_765_4537" style="mask-type:alpha" maskUnits="userSpaceOnUse" x="0" y="289" width="11" height="11">
<path d="M5.22838 300C8.11594 300 10.4568 297.666 10.4568 294.788C10.4568 291.909 8.11594 289.575 5.22838 289.575C2.34082 289.575 0 291.909 0 294.788C0 297.666 2.34082 300 5.22838 300Z" fill="url(#paint40_linear_765_4537)"/>
</mask>
<g mask="url(#mask20_765_4537)">
<path d="M5.22838 300C8.11594 300 10.4568 297.666 10.4568 294.788C10.4568 291.909 8.11594 289.575 5.22838 289.575C2.34082 289.575 0 291.909 0 294.788C0 297.666 2.34082 300 5.22838 300Z" fill="url(#paint41_linear_765_4537)"/>
</g>
<mask id="mask21_765_4537" style="mask-type:alpha" maskUnits="userSpaceOnUse" x="30" y="289" width="11" height="11">
<path d="M35.5096 300C38.3972 300 40.738 297.666 40.738 294.788C40.738 291.909 38.3972 289.575 35.5096 289.575C32.6221 289.575 30.2812 291.909 30.2812 294.788C30.2812 297.666 32.6221 300 35.5096 300Z" fill="url(#paint42_linear_765_4537)"/>
</mask>
<g mask="url(#mask21_765_4537)">
<path d="M35.5096 300C38.3972 300 40.738 297.666 40.738 294.788C40.738 291.909 38.3972 289.575 35.5096 289.575C32.6221 289.575 30.2812 291.909 30.2812 294.788C30.2812 297.666 32.6221 300 35.5096 300Z" fill="url(#paint43_linear_765_4537)"/>
</g>
<mask id="mask22_765_4537" style="mask-type:alpha" maskUnits="userSpaceOnUse" x="60" y="289" width="12" height="11">
<path d="M65.7904 300C68.678 300 71.0188 297.666 71.0188 294.788C71.0188 291.909 68.678 289.575 65.7904 289.575C62.9028 289.575 60.562 291.909 60.562 294.788C60.562 297.666 62.9028 300 65.7904 300Z" fill="url(#paint44_linear_765_4537)"/>
</mask>
<g mask="url(#mask22_765_4537)">
<path d="M65.7904 300C68.678 300 71.0188 297.666 71.0188 294.788C71.0188 291.909 68.678 289.575 65.7904 289.575C62.9028 289.575 60.562 291.909 60.562 294.788C60.562 297.666 62.9028 300 65.7904 300Z" fill="url(#paint45_linear_765_4537)"/>
</g>
<mask id="mask23_765_4537" style="mask-type:alpha" maskUnits="userSpaceOnUse" x="90" y="289" width="12" height="11">
<path d="M96.0717 300C98.9592 300 101.3 297.666 101.3 294.788C101.3 291.909 98.9592 289.575 96.0717 289.575C93.1841 289.575 90.8433 291.909 90.8433 294.788C90.8433 297.666 93.1841 300 96.0717 300Z" fill="url(#paint46_linear_765_4537)"/>
</mask>
<g mask="url(#mask23_765_4537)">
<path d="M96.0717 300C98.9592 300 101.3 297.666 101.3 294.788C101.3 291.909 98.9592 289.575 96.0717 289.575C93.1841 289.575 90.8433 291.909 90.8433 294.788C90.8433 297.666 93.1841 300 96.0717 300Z" fill="url(#paint47_linear_765_4537)"/>
</g>
<mask id="mask24_765_4537" style="mask-type:alpha" maskUnits="userSpaceOnUse" x="121" y="289" width="11" height="11">
<path d="M126.352 300C129.24 300 131.581 297.666 131.581 294.788C131.581 291.909 129.24 289.575 126.352 289.575C123.465 289.575 121.124 291.909 121.124 294.788C121.124 297.666 123.465 300 126.352 300Z" fill="url(#paint48_linear_765_4537)"/>
</mask>
<g mask="url(#mask24_765_4537)">
<path d="M126.352 300C129.24 300 131.581 297.666 131.581 294.788C131.581 291.909 129.24 289.575 126.352 289.575C123.465 289.575 121.124 291.909 121.124 294.788C121.124 297.666 123.465 300 126.352 300Z" fill="url(#paint49_linear_765_4537)"/>
</g>
</g>
<g clip-path="url(#clip0_765_4537)">
<path d="M77.9849 104.957L61.0123 95.3995C60.7834 85.174 63.0546 75.0472 67.6287 65.8983C71.5418 83.655 92.1351 92.1031 101.637 107.607C104.563 112.465 106.358 117.919 106.89 123.566C107.421 129.212 106.675 134.905 104.706 140.224L105.822 153.991C97.0502 151.364 88.9521 146.867 82.0858 140.81C75.2194 134.753 69.7481 127.28 66.0489 118.905C64.0202 114.186 62.5939 109.231 61.8037 104.156C69.717 104.998 77.9849 104.957 77.9849 104.957Z" fill="#F2F2F2"/>
<path d="M383.095 278.833L383.615 267.133C389.041 264.234 395.092 262.703 401.244 262.672C392.777 269.593 393.835 282.933 388.095 292.24C386.282 295.129 383.843 297.573 380.957 299.391C378.071 301.209 374.813 302.355 371.424 302.743L364.339 307.08C363.367 301.661 363.581 296.096 364.967 290.768C366.354 285.44 368.879 280.476 372.368 276.218C374.35 273.848 376.622 271.738 379.131 269.936C380.828 274.409 383.095 278.833 383.095 278.833Z" fill="#F2F2F2"/>
<path d="M364.839 301.059L358.423 301.058L355.371 276.318L364.84 276.319L364.839 301.059Z" fill="#FFB6B6"/>
<path d="M366.475 307.276L345.789 307.276V307.014C345.789 304.879 346.637 302.832 348.147 301.322C349.657 299.812 351.705 298.964 353.84 298.964H353.841L357.619 296.098L364.67 298.965L366.475 298.965L366.475 307.276Z" fill="#2F2E41"/>
<path d="M335.033 301.059L328.617 301.058L325.565 276.318L335.034 276.319L335.033 301.059Z" fill="#FFB6B6"/>
<path d="M336.669 307.276L315.983 307.276V307.014C315.983 304.879 316.831 302.832 318.341 301.322C319.851 299.812 321.899 298.964 324.035 298.964H324.035L327.814 296.098L334.864 298.965L336.67 298.965L336.669 307.276Z" fill="#2F2E41"/>
<path d="M332.256 165.802L373.986 166.845C381.911 171.149 382.032 180.464 379.435 191.523C379.435 191.523 380.311 198.096 378.558 199.849C376.805 201.602 375.928 201.602 376.805 204.669C377.682 207.737 373.05 212.747 373.612 213.31C374.175 213.872 375.49 216.94 375.49 216.94L371.107 241.918C371.107 241.918 368.038 285.302 367.162 286.178C366.285 287.055 365.409 286.178 366.285 288.369C367.162 290.56 368.038 289.684 367.162 290.56C366.385 291.397 365.654 292.275 364.97 293.19H354.373C354.373 293.19 353.574 288.808 353.574 288.369C353.574 287.931 352.697 285.302 352.697 284.864C352.697 284.425 353.472 283.651 353.472 283.651C353.74 282.76 353.921 281.845 354.012 280.92C354.012 280.043 356.642 246.3 356.642 246.3L351.382 202.478L338.671 245.424C338.671 245.424 338.671 283.111 337.795 283.987C336.918 284.864 336.918 284.425 337.356 286.178C337.795 287.931 339.548 287.493 338.233 288.808C336.918 290.122 336.48 287.931 336.918 290.122L337.356 292.313L324.207 292.501C324.207 292.501 322.453 288.808 323.33 287.493C324.207 286.178 324.154 286.537 323.085 284.386C322.015 282.234 321.577 281.796 322.015 281.358C322.453 280.92 322.453 278.589 322.453 278.589L324.645 236.659C324.645 236.659 325.083 192.399 325.083 191.085C325.116 190.408 324.992 189.733 324.719 189.113V187.329L326.398 181.006L332.256 165.802Z" fill="#2F2E41"/>
<path d="M357.324 79.0511C364.485 79.0511 370.29 73.2475 370.29 66.0884C370.29 58.9293 364.485 53.1256 357.324 53.1256C350.163 53.1256 344.358 58.9293 344.358 66.0884C344.358 73.2475 350.163 79.0511 357.324 79.0511Z" fill="#FFB6B6"/>
<path d="M350.841 87.6186C348.048 89.2789 346.377 92.3294 345.418 95.4335C343.642 101.18 342.573 107.122 342.234 113.128L341.221 131.107L328.674 169.389C339.548 178.588 380.424 171.48 380.424 171.48C380.424 171.48 381.678 171.062 380.424 169.807C379.169 168.553 377.947 169.664 379.202 168.41C380.457 167.155 379.592 168.553 379.174 167.298C378.755 166.044 379.174 166.88 379.592 166.462C380.01 166.044 376.354 162.28 376.354 162.28L379.7 140.306L383.882 95.9817C378.863 89.7093 368.77 86.0119 368.77 86.0119L366.162 81.3183L353.121 82.3613L350.841 87.6186Z" fill="#E6E6E6"/>
<path d="M349.063 58.4808C349.565 58.4848 350.064 58.5503 350.55 58.6759C351.507 58.906 352.48 59.0691 353.46 59.1638C356.461 59.4461 359.282 60.7259 361.47 62.7988C363.659 64.8716 365.09 67.618 365.534 70.5992C366.288 69.9425 368.002 68.7345 369.407 69.8572C369.429 69.875 369.441 69.8842 369.49 69.8607C370.424 69.4182 372.08 63.9704 372.13 59.1737C372.157 56.6278 371.756 53.3768 369.697 52.3473L369.588 52.2931L369.56 52.1752C369.422 51.6025 367.885 50.6249 365.213 49.864C360.357 48.4813 353.119 45.7878 349.044 49.7518C348.735 51.0882 347.732 53.948 346.718 54.2721C345.596 54.6309 344.626 54.9406 344.474 56.3171C344.346 58.2761 344.355 60.2416 344.501 62.1994C344.882 61.0014 345.628 59.9529 346.636 59.2015C347.352 58.7192 348.199 58.4677 349.063 58.4808Z" fill="#2F2E41"/>
<path d="M324.93 130.106L346.109 116.545L335.442 102.368L324.908 115.322L292.089 117.334C291.225 116.481 290.132 115.898 288.943 115.655C287.754 115.412 286.52 115.52 285.391 115.966C284.262 116.413 283.288 117.178 282.586 118.168C281.885 119.159 281.487 120.332 281.441 121.544C281.395 122.757 281.703 123.957 282.327 124.997C282.951 126.038 283.865 126.875 284.956 127.406C286.048 127.936 287.271 128.138 288.475 127.986C289.679 127.834 290.813 127.335 291.738 126.55L324.93 130.106Z" fill="#FFB6B6"/>
<path d="M365.767 97.6166C366.996 105.054 343.783 119.257 343.783 119.257C343.782 117.511 329.927 130.69 329.302 129.242C327.525 125.127 326.275 115.381 323.791 113.821C322.371 112.929 332.346 104.548 332.346 104.548C332.346 104.548 337.567 99.2895 344.418 92.6564C346.321 90.7451 348.676 89.3462 351.264 88.5897C353.853 87.8333 356.591 87.7439 359.223 88.3299C359.223 88.3299 364.537 90.179 365.767 97.6166Z" fill="#E6E6E6"/>
<path d="M409.421 133.665L395.412 112.782L381.46 123.745L394.638 134L397.345 166.762C396.51 167.643 395.95 168.748 395.732 169.942C395.514 171.135 395.649 172.367 396.119 173.486C396.589 174.604 397.375 175.562 398.38 176.242C399.385 176.922 400.567 177.295 401.78 177.316C402.994 177.336 404.187 177.003 405.215 176.357C406.243 175.711 407.06 174.78 407.567 173.678C408.075 172.575 408.251 171.349 408.073 170.149C407.896 168.948 407.373 167.825 406.568 166.917L409.421 133.665Z" fill="#FFB6B6"/>
<path d="M376.067 93.5347C383.479 92.1485 398.173 115.051 398.173 115.051C396.427 115.088 409.899 128.658 408.465 129.313C404.387 131.177 394.668 132.632 393.16 135.148C392.298 136.587 383.706 126.794 383.706 126.794C383.706 126.794 378.337 121.687 371.559 114.978C369.607 113.117 368.159 110.793 367.347 108.222C366.536 105.65 366.389 102.916 366.919 100.272C366.919 100.272 368.656 94.9208 376.067 93.5347Z" fill="#E6E6E6"/>
<path d="M413 307.379C413 307.461 412.984 307.542 412.953 307.617C412.922 307.693 412.877 307.761 412.819 307.819C412.761 307.876 412.693 307.922 412.617 307.953C412.542 307.984 412.461 308 412.379 308H266.174C266.009 308 265.851 307.935 265.735 307.818C265.619 307.702 265.553 307.544 265.553 307.379C265.553 307.215 265.619 307.057 265.735 306.941C265.851 306.824 266.009 306.759 266.174 306.759H412.379C412.461 306.759 412.542 306.774 412.617 306.806C412.693 306.837 412.761 306.882 412.819 306.94C412.877 306.998 412.922 307.066 412.953 307.142C412.984 307.217 413 307.298 413 307.379Z" fill="#CCCCCC"/>
<path d="M277.558 119.316H100.117C97.3452 119.319 94.6874 120.422 92.7272 122.382C90.7669 124.341 89.6643 126.999 89.6611 129.77V240.219C89.6643 242.99 90.7669 245.647 92.7272 247.607C94.6874 249.567 97.3452 250.67 100.117 250.673H277.557C280.33 250.67 282.988 249.567 284.948 247.607C286.908 245.647 288.011 242.99 288.014 240.219V129.77C288.011 126.999 286.908 124.341 284.948 122.381C282.988 120.422 280.33 119.319 277.558 119.316Z" fill="#458FF6"/>
<path d="M277.558 119.316H100.117C97.3452 119.319 94.6874 120.422 92.7272 122.382C90.7669 124.341 89.6643 126.999 89.6611 129.77V240.219C89.6643 242.99 90.7669 245.647 92.7272 247.607C94.6874 249.567 97.3452 250.67 100.117 250.673H277.557C280.33 250.67 282.988 249.567 284.948 247.607C286.908 245.647 288.011 242.99 288.014 240.219V129.77C288.011 126.999 286.908 124.341 284.948 122.381C282.988 120.422 280.33 119.319 277.558 119.316ZM280.989 198.653C280.947 209.897 276.498 220.677 268.597 228.68C260.697 236.682 249.973 241.27 238.728 241.46C220.724 241.694 248.69 241.785 226.975 241.785C177.32 241.785 125.544 241.311 106.226 241.003C103.685 240.951 101.264 239.907 99.4816 238.095C97.6991 236.283 96.6958 233.846 96.686 231.304V129.778C96.687 128.868 97.0485 127.995 97.6914 127.351C98.3344 126.707 99.2064 126.343 100.117 126.34H277.55C278.461 126.341 279.333 126.702 279.978 127.345C280.622 127.988 280.986 128.859 280.989 129.769V198.653Z" fill="#16245F"/>
<path d="M255.715 55.7164H120.524C119.328 55.7181 118.161 56.0889 117.184 56.778C116.206 57.4672 115.465 58.4412 115.062 59.5671L94.1827 118.132C93.8711 119.006 93.7739 119.942 93.8994 120.862C94.0248 121.781 94.3692 122.657 94.9036 123.416C95.438 124.175 96.1468 124.794 96.9704 125.222C97.794 125.65 98.7083 125.874 99.6365 125.876L280.949 126.197H280.958C281.917 126.197 282.862 125.959 283.706 125.504C284.551 125.05 285.27 124.392 285.798 123.591C286.326 122.79 286.648 121.871 286.733 120.916C286.818 119.96 286.665 118.998 286.287 118.117L285.971 118.252L286.287 118.117L261.044 59.23C260.598 58.1866 259.855 57.2974 258.907 56.6727C257.96 56.0481 256.85 55.7155 255.715 55.7164Z" fill="#16245F"/>
<path d="M286.757 119.388C286.756 120.174 286.596 120.951 286.287 121.673L261.046 167.002C260.596 168.043 259.852 168.93 258.905 169.553C257.958 170.177 256.849 170.51 255.715 170.511H120.526C119.329 170.51 118.162 170.14 117.184 169.451C116.206 168.762 115.464 167.789 115.059 166.663L94.1842 121.657C93.9283 120.94 93.8162 120.179 93.8545 119.419C93.8927 118.659 94.0804 117.913 94.4069 117.226C94.7335 116.538 95.1923 115.921 95.7574 115.411C96.3224 114.901 96.9825 114.507 97.6999 114.252C98.3205 114.027 98.9753 113.913 99.6351 113.913L121.783 113.871L130.823 113.855L249.774 113.647L258.818 113.631L280.951 113.589H280.956C282.494 113.589 283.97 114.201 285.057 115.288C286.145 116.376 286.756 117.85 286.757 119.388Z" fill="#16245F"/>
<path d="M113.419 202.165C116.1 202.165 152.914 204.415 152.914 207.095C152.914 209.775 116.1 211.871 113.419 211.871C112.132 211.871 110.897 211.36 109.987 210.45C109.077 209.54 108.565 208.305 108.565 207.018C108.565 205.731 109.077 204.497 109.987 203.587C110.897 202.677 112.132 202.165 113.419 202.165Z" fill="#16245F"/>
<path d="M247.296 20.0886H133.306C130.251 20.0922 127.322 21.307 125.162 23.4667C123.002 25.6263 121.787 28.5544 121.783 31.6087V170.511H255.715C256.815 170.515 257.892 170.202 258.818 169.609V31.6087C258.815 28.5544 257.6 25.6263 255.44 23.4667C253.28 21.307 250.351 20.0922 247.296 20.0886Z" fill="#E6E6E6"/>
<path d="M203.788 29.4288H141.318C138.537 29.4315 135.869 30.5371 133.902 32.5032C131.935 34.4692 130.827 37.1352 130.823 39.9163V170.511H249.774V75.4046C249.76 63.2154 244.91 51.5294 236.289 42.9103C227.668 34.2912 215.98 29.4428 203.788 29.4288Z" fill="white"/>
<path d="M229.509 158.913H151.088C150.41 158.913 149.76 159.182 149.281 159.662C148.802 160.141 148.532 160.791 148.532 161.469C148.532 162.146 148.802 162.796 149.281 163.275C149.76 163.755 150.41 164.024 151.088 164.024H229.509C230.187 164.024 230.837 163.755 231.316 163.275C231.795 162.796 232.065 162.146 232.065 161.469C232.065 160.791 231.795 160.141 231.316 159.662C230.837 159.182 230.187 158.913 229.509 158.913Z" fill="#E4E4E4"/>
<path d="M229.509 148.806H151.088C150.409 148.806 149.759 149.076 149.279 149.556C148.799 150.035 148.529 150.686 148.529 151.364C148.529 152.043 148.799 152.693 149.279 153.173C149.759 153.653 150.409 153.922 151.088 153.922H229.509C230.187 153.922 230.838 153.653 231.318 153.173C231.797 152.693 232.067 152.043 232.067 151.364C232.067 150.686 231.797 150.035 231.318 149.556C230.838 149.076 230.187 148.806 229.509 148.806Z" fill="#E4E4E4"/>
<path d="M185.082 138.705H151.088C150.41 138.705 149.76 138.974 149.281 139.453C148.802 139.933 148.532 140.583 148.532 141.26C148.532 141.938 148.802 142.588 149.281 143.067C149.76 143.546 150.41 143.816 151.088 143.816H185.082C185.76 143.816 186.41 143.546 186.89 143.067C187.369 142.588 187.638 141.938 187.638 141.26C187.638 140.583 187.369 139.933 186.89 139.453C186.41 138.974 185.76 138.705 185.082 138.705Z" fill="#E4E4E4"/>
<path d="M229.509 117.542H151.088C150.409 117.542 149.759 117.812 149.279 118.291C148.799 118.771 148.529 119.422 148.529 120.1C148.529 120.779 148.799 121.429 149.279 121.909C149.759 122.389 150.409 122.658 151.088 122.658H229.509C230.187 122.658 230.838 122.389 231.318 121.909C231.797 121.429 232.067 120.779 232.067 120.1C232.067 119.422 231.797 118.771 231.318 118.291C230.838 117.812 230.187 117.542 229.509 117.542Z" fill="#E4E4E4"/>
<path d="M229.509 107.441H151.088C150.41 107.441 149.76 107.71 149.281 108.189C148.802 108.668 148.532 109.318 148.532 109.996C148.532 110.674 148.802 111.324 149.281 111.803C149.76 112.282 150.41 112.551 151.088 112.551H229.509C230.187 112.551 230.837 112.282 231.316 111.803C231.795 111.324 232.065 110.674 232.065 109.996C232.065 109.318 231.795 108.668 231.316 108.189C230.837 107.71 230.187 107.441 229.509 107.441Z" fill="#E4E4E4"/>
<path d="M185.082 97.3339H151.088C150.409 97.3339 149.759 97.6034 149.279 98.0831C148.799 98.5629 148.529 99.2135 148.529 99.8919C148.529 100.57 148.799 101.221 149.279 101.701C149.759 102.18 150.409 102.45 151.088 102.45H185.082C185.761 102.45 186.411 102.18 186.891 101.701C187.371 101.221 187.641 100.57 187.641 99.8919C187.641 99.2135 187.371 98.5629 186.891 98.0831C186.411 97.6034 185.761 97.3339 185.082 97.3339Z" fill="#E4E4E4"/>
<path d="M229.509 76.1713H151.088C150.409 76.1713 149.759 76.4408 149.279 76.9205C148.799 77.4002 148.529 78.0508 148.529 78.7292C148.529 79.4077 148.799 80.0583 149.279 80.538C149.759 81.0177 150.409 81.2872 151.088 81.2872H229.509C230.187 81.2872 230.838 81.0177 231.318 80.538C231.797 80.0583 232.067 79.4077 232.067 78.7292C232.067 78.0508 231.797 77.4002 231.318 76.9205C230.838 76.4408 230.187 76.1713 229.509 76.1713Z" fill="#458FF6"/>
<path d="M229.509 66.0697H151.088C150.409 66.0697 149.759 66.3392 149.279 66.8189C148.799 67.2986 148.529 67.9493 148.529 68.6277C148.529 69.3061 148.799 69.9567 149.279 70.4364C149.759 70.9162 150.409 71.1857 151.088 71.1857H229.509C230.187 71.1857 230.838 70.9162 231.318 70.4364C231.797 69.9567 232.067 69.3061 232.067 68.6277C232.067 67.9493 231.797 67.2986 231.318 66.8189C230.838 66.3392 230.187 66.0697 229.509 66.0697Z" fill="#458FF6"/>
<path d="M185.082 55.963H151.088C150.409 55.963 149.759 56.2325 149.279 56.7122C148.799 57.1919 148.529 57.8425 148.529 58.5209C148.529 59.1994 148.799 59.85 149.279 60.3297C149.759 60.8094 150.409 61.0789 151.088 61.0789H185.082C185.761 61.0789 186.411 60.8094 186.891 60.3297C187.371 59.85 187.641 59.1994 187.641 58.5209C187.641 57.8425 187.371 57.1919 186.891 56.7122C186.411 56.2325 185.761 55.963 185.082 55.963Z" fill="#458FF6"/>
<path d="M254.545 39.8042C265.539 39.8042 274.452 30.8937 274.452 19.9021C274.452 8.91047 265.539 0 254.545 0C243.551 0 234.639 8.91047 234.639 19.9021C234.639 30.8937 243.551 39.8042 254.545 39.8042Z" fill="#458FF6"/>
<path d="M251.829 30.2602C251.485 30.2602 251.146 30.1802 250.839 30.0264C250.532 29.8727 250.264 29.6495 250.058 29.3745L244.627 22.1349C244.452 21.9024 244.324 21.6376 244.251 21.3556C244.178 21.0736 244.162 20.78 244.203 20.4917C244.243 20.2033 244.341 19.9259 244.489 19.6752C244.637 19.4245 244.833 19.2055 245.066 19.0308C245.299 18.856 245.565 18.729 245.847 18.6569C246.129 18.5848 246.423 18.5691 246.711 18.6107C246.999 18.6523 247.277 18.7504 247.527 18.8993C247.777 19.0482 247.996 19.245 248.17 19.4785L251.723 24.2144L260.849 10.5295C261.174 10.0409 261.681 9.70176 262.257 9.58661C262.833 9.47146 263.431 9.58974 263.919 9.91544C264.408 10.2411 264.747 10.7476 264.862 11.3233C264.978 11.8991 264.859 12.497 264.534 12.9855L253.672 29.2743C253.475 29.5689 253.211 29.8121 252.901 29.9835C252.591 30.1549 252.245 30.2496 251.891 30.2595C251.87 30.2598 251.85 30.2602 251.829 30.2602Z" fill="white"/>
</g>
<defs>
<linearGradient id="paint0_linear_765_4537" x1="54.996" y1="316.134" x2="-16.4057" y2="134.33" gradientUnits="userSpaceOnUse">
<stop/>
<stop offset="1" stop-color="white"/>
</linearGradient>
<linearGradient id="paint1_linear_765_4537" x1="54.996" y1="316.134" x2="-16.4057" y2="134.33" gradientUnits="userSpaceOnUse">
<stop stop-color="#97C3F9"/>
<stop offset="1" stop-color="#93C1F9"/>
</linearGradient>
<linearGradient id="paint2_linear_765_4537" x1="81.2007" y1="305.843" x2="9.79907" y2="124.039" gradientUnits="userSpaceOnUse">
<stop/>
<stop offset="1" stop-color="white"/>
</linearGradient>
<linearGradient id="paint3_linear_765_4537" x1="81.2007" y1="305.843" x2="9.79907" y2="124.039" gradientUnits="userSpaceOnUse">
<stop stop-color="#97C3F9"/>
<stop offset="1" stop-color="#93C1F9"/>
</linearGradient>
<linearGradient id="paint4_linear_765_4537" x1="107.405" y1="295.551" x2="36.0032" y2="113.747" gradientUnits="userSpaceOnUse">
<stop/>
<stop offset="1" stop-color="white"/>
</linearGradient>
<linearGradient id="paint5_linear_765_4537" x1="107.405" y1="295.551" x2="36.0032" y2="113.747" gradientUnits="userSpaceOnUse">
<stop stop-color="#97C3F9"/>
<stop offset="1" stop-color="#93C1F9"/>
</linearGradient>
<linearGradient id="paint6_linear_765_4537" x1="133.609" y1="285.259" x2="62.2076" y2="103.456" gradientUnits="userSpaceOnUse">
<stop/>
<stop offset="1" stop-color="white"/>
</linearGradient>
<linearGradient id="paint7_linear_765_4537" x1="133.609" y1="285.259" x2="62.2076" y2="103.456" gradientUnits="userSpaceOnUse">
<stop stop-color="#97C3F9"/>
<stop offset="1" stop-color="#93C1F9"/>
</linearGradient>
<linearGradient id="paint8_linear_765_4537" x1="159.813" y1="274.968" x2="88.4116" y2="93.1641" gradientUnits="userSpaceOnUse">
<stop/>
<stop offset="1" stop-color="white"/>
</linearGradient>
<linearGradient id="paint9_linear_765_4537" x1="159.813" y1="274.968" x2="88.4116" y2="93.1641" gradientUnits="userSpaceOnUse">
<stop stop-color="#97C3F9"/>
<stop offset="1" stop-color="#93C1F9"/>
</linearGradient>
<linearGradient id="paint10_linear_765_4537" x1="46.0538" y1="319.645" x2="-25.3466" y2="137.843" gradientUnits="userSpaceOnUse">
<stop/>
<stop offset="1" stop-color="white"/>
</linearGradient>
<linearGradient id="paint11_linear_765_4537" x1="46.0538" y1="319.645" x2="-25.3466" y2="137.843" gradientUnits="userSpaceOnUse">
<stop stop-color="#97C3F9"/>
<stop offset="1" stop-color="#93C1F9"/>
</linearGradient>
<linearGradient id="paint12_linear_765_4537" x1="72.2583" y1="309.354" x2="0.857901" y2="127.551" gradientUnits="userSpaceOnUse">
<stop/>
<stop offset="1" stop-color="white"/>
</linearGradient>
<linearGradient id="paint13_linear_765_4537" x1="72.2583" y1="309.354" x2="0.857901" y2="127.551" gradientUnits="userSpaceOnUse">
<stop stop-color="#97C3F9"/>
<stop offset="1" stop-color="#93C1F9"/>
</linearGradient>
<linearGradient id="paint14_linear_765_4537" x1="98.4623" y1="299.062" x2="27.0619" y2="117.26" gradientUnits="userSpaceOnUse">
<stop/>
<stop offset="1" stop-color="white"/>
</linearGradient>
<linearGradient id="paint15_linear_765_4537" x1="98.4623" y1="299.062" x2="27.0619" y2="117.26" gradientUnits="userSpaceOnUse">
<stop stop-color="#97C3F9"/>
<stop offset="1" stop-color="#93C1F9"/>
</linearGradient>
<linearGradient id="paint16_linear_765_4537" x1="124.667" y1="288.771" x2="53.2664" y2="106.968" gradientUnits="userSpaceOnUse">
<stop/>
<stop offset="1" stop-color="white"/>
</linearGradient>
<linearGradient id="paint17_linear_765_4537" x1="124.667" y1="288.771" x2="53.2664" y2="106.968" gradientUnits="userSpaceOnUse">
<stop stop-color="#97C3F9"/>
<stop offset="1" stop-color="#93C1F9"/>
</linearGradient>
<linearGradient id="paint18_linear_765_4537" x1="37.1113" y1="323.158" x2="-34.2903" y2="141.354" gradientUnits="userSpaceOnUse">
<stop/>
<stop offset="1" stop-color="white"/>
</linearGradient>
<linearGradient id="paint19_linear_765_4537" x1="37.1113" y1="323.158" x2="-34.2903" y2="141.354" gradientUnits="userSpaceOnUse">
<stop stop-color="#97C3F9"/>
<stop offset="1" stop-color="#93C1F9"/>
</linearGradient>
<linearGradient id="paint20_linear_765_4537" x1="63.3159" y1="312.866" x2="-8.08572" y2="131.063" gradientUnits="userSpaceOnUse">
<stop/>
<stop offset="1" stop-color="white"/>
</linearGradient>
<linearGradient id="paint21_linear_765_4537" x1="63.3159" y1="312.866" x2="-8.08572" y2="131.063" gradientUnits="userSpaceOnUse">
<stop stop-color="#97C3F9"/>
<stop offset="1" stop-color="#93C1F9"/>
</linearGradient>
<linearGradient id="paint22_linear_765_4537" x1="89.5199" y1="302.575" x2="18.1184" y2="120.771" gradientUnits="userSpaceOnUse">
<stop/>
<stop offset="1" stop-color="white"/>
</linearGradient>
<linearGradient id="paint23_linear_765_4537" x1="89.5199" y1="302.575" x2="18.1184" y2="120.771" gradientUnits="userSpaceOnUse">
<stop stop-color="#97C3F9"/>
<stop offset="1" stop-color="#93C1F9"/>
</linearGradient>
<linearGradient id="paint24_linear_765_4537" x1="115.724" y1="292.283" x2="44.3228" y2="110.48" gradientUnits="userSpaceOnUse">
<stop/>
<stop offset="1" stop-color="white"/>
</linearGradient>
<linearGradient id="paint25_linear_765_4537" x1="115.724" y1="292.283" x2="44.3228" y2="110.48" gradientUnits="userSpaceOnUse">
<stop stop-color="#97C3F9"/>
<stop offset="1" stop-color="#93C1F9"/>
</linearGradient>
<linearGradient id="paint26_linear_765_4537" x1="141.928" y1="281.992" x2="70.5268" y2="100.188" gradientUnits="userSpaceOnUse">
<stop/>
<stop offset="1" stop-color="white"/>
</linearGradient>
<linearGradient id="paint27_linear_765_4537" x1="141.928" y1="281.992" x2="70.5268" y2="100.188" gradientUnits="userSpaceOnUse">
<stop stop-color="#97C3F9"/>
<stop offset="1" stop-color="#93C1F9"/>
</linearGradient>
<linearGradient id="paint28_linear_765_4537" x1="150.871" y1="278.479" x2="79.4705" y2="96.6768" gradientUnits="userSpaceOnUse">
<stop/>
<stop offset="1" stop-color="white"/>
</linearGradient>
<linearGradient id="paint29_linear_765_4537" x1="150.871" y1="278.479" x2="79.4705" y2="96.6768" gradientUnits="userSpaceOnUse">
<stop stop-color="#97C3F9"/>
<stop offset="1" stop-color="#93C1F9"/>
</linearGradient>
<linearGradient id="paint30_linear_765_4537" x1="28.169" y1="326.67" x2="-43.2327" y2="144.866" gradientUnits="userSpaceOnUse">
<stop/>
<stop offset="1" stop-color="white"/>
</linearGradient>
<linearGradient id="paint31_linear_765_4537" x1="28.169" y1="326.67" x2="-43.2327" y2="144.866" gradientUnits="userSpaceOnUse">
<stop stop-color="#97C3F9"/>
<stop offset="1" stop-color="#93C1F9"/>
</linearGradient>
<linearGradient id="paint32_linear_765_4537" x1="54.3736" y1="316.378" x2="-17.0281" y2="134.575" gradientUnits="userSpaceOnUse">
<stop/>
<stop offset="1" stop-color="white"/>
</linearGradient>
<linearGradient id="paint33_linear_765_4537" x1="54.3736" y1="316.378" x2="-17.0281" y2="134.575" gradientUnits="userSpaceOnUse">
<stop stop-color="#97C3F9"/>
<stop offset="1" stop-color="#93C1F9"/>
</linearGradient>
<linearGradient id="paint34_linear_765_4537" x1="80.5775" y1="306.087" x2="9.17597" y2="124.283" gradientUnits="userSpaceOnUse">
<stop/>
<stop offset="1" stop-color="white"/>
</linearGradient>
<linearGradient id="paint35_linear_765_4537" x1="80.5775" y1="306.087" x2="9.17597" y2="124.283" gradientUnits="userSpaceOnUse">
<stop stop-color="#97C3F9"/>
<stop offset="1" stop-color="#93C1F9"/>
</linearGradient>
<linearGradient id="paint36_linear_765_4537" x1="106.782" y1="295.795" x2="35.3804" y2="113.992" gradientUnits="userSpaceOnUse">
<stop/>
<stop offset="1" stop-color="white"/>
</linearGradient>
<linearGradient id="paint37_linear_765_4537" x1="106.782" y1="295.795" x2="35.3804" y2="113.992" gradientUnits="userSpaceOnUse">
<stop stop-color="#97C3F9"/>
<stop offset="1" stop-color="#93C1F9"/>
</linearGradient>
<linearGradient id="paint38_linear_765_4537" x1="132.986" y1="285.504" x2="61.5845" y2="103.7" gradientUnits="userSpaceOnUse">
<stop/>
<stop offset="1" stop-color="white"/>
</linearGradient>
<linearGradient id="paint39_linear_765_4537" x1="132.986" y1="285.504" x2="61.5845" y2="103.7" gradientUnits="userSpaceOnUse">
<stop stop-color="#97C3F9"/>
<stop offset="1" stop-color="#93C1F9"/>
</linearGradient>
<linearGradient id="paint40_linear_765_4537" x1="19.2266" y1="330.182" x2="-52.1751" y2="148.378" gradientUnits="userSpaceOnUse">
<stop/>
<stop offset="1" stop-color="white"/>
</linearGradient>
<linearGradient id="paint41_linear_765_4537" x1="19.2266" y1="330.182" x2="-52.1751" y2="148.378" gradientUnits="userSpaceOnUse">
<stop stop-color="#97C3F9"/>
<stop offset="1" stop-color="#93C1F9"/>
</linearGradient>
<linearGradient id="paint42_linear_765_4537" x1="45.4312" y1="319.89" x2="-25.9705" y2="138.087" gradientUnits="userSpaceOnUse">
<stop/>
<stop offset="1" stop-color="white"/>
</linearGradient>
<linearGradient id="paint43_linear_765_4537" x1="45.4312" y1="319.89" x2="-25.9705" y2="138.087" gradientUnits="userSpaceOnUse">
<stop stop-color="#97C3F9"/>
<stop offset="1" stop-color="#93C1F9"/>
</linearGradient>
<linearGradient id="paint44_linear_765_4537" x1="71.6352" y1="309.599" x2="0.233627" y2="127.795" gradientUnits="userSpaceOnUse">
<stop/>
<stop offset="1" stop-color="white"/>
</linearGradient>
<linearGradient id="paint45_linear_765_4537" x1="71.6352" y1="309.599" x2="0.233627" y2="127.795" gradientUnits="userSpaceOnUse">
<stop stop-color="#97C3F9"/>
<stop offset="1" stop-color="#93C1F9"/>
</linearGradient>
<linearGradient id="paint46_linear_765_4537" x1="97.8397" y1="299.307" x2="26.4381" y2="117.504" gradientUnits="userSpaceOnUse">
<stop/>
<stop offset="1" stop-color="white"/>
</linearGradient>
<linearGradient id="paint47_linear_765_4537" x1="97.8397" y1="299.307" x2="26.4381" y2="117.504" gradientUnits="userSpaceOnUse">
<stop stop-color="#97C3F9"/>
<stop offset="1" stop-color="#93C1F9"/>
</linearGradient>
<linearGradient id="paint48_linear_765_4537" x1="124.044" y1="289.016" x2="52.6421" y2="107.212" gradientUnits="userSpaceOnUse">
<stop/>
<stop offset="1" stop-color="white"/>
</linearGradient>
<linearGradient id="paint49_linear_765_4537" x1="124.044" y1="289.016" x2="52.6421" y2="107.212" gradientUnits="userSpaceOnUse">
<stop stop-color="#97C3F9"/>
<stop offset="1" stop-color="#93C1F9"/>
</linearGradient>
<clipPath id="clip0_765_4537">
<rect width="352" height="308" fill="white" transform="translate(61)"/>
</clipPath>
</defs>
</svg>
