<svg width="592" height="384" viewBox="0 0 592 384" fill="none" xmlns="http://www.w3.org/2000/svg">
<g clip-path="url(#clip0_711_6732)">
<g opacity="0.3">
<mask id="mask0_711_6732" style="mask-type:alpha" maskUnits="userSpaceOnUse" x="38" y="28" width="11" height="11">
<path d="M43.2284 38.425C46.1159 38.425 48.4568 36.0912 48.4568 33.2124C48.4568 30.3337 46.1159 28 43.2284 28C40.3408 28 38 30.3337 38 33.2124C38 36.0912 40.3408 38.425 43.2284 38.425Z" fill="url(#paint0_linear_711_6732)"/>
</mask>
<g mask="url(#mask0_711_6732)">
<path d="M43.2284 38.425C46.1159 38.425 48.4568 36.0912 48.4568 33.2124C48.4568 30.3337 46.1159 28 43.2284 28C40.3408 28 38 30.3337 38 33.2124C38 36.0912 40.3408 38.425 43.2284 38.425Z" fill="url(#paint1_linear_711_6732)"/>
</g>
<mask id="mask1_711_6732" style="mask-type:alpha" maskUnits="userSpaceOnUse" x="68" y="28" width="11" height="11">
<path d="M73.5096 38.425C76.3972 38.425 78.738 36.0912 78.738 33.2124C78.738 30.3337 76.3972 28 73.5096 28C70.6221 28 68.2812 30.3337 68.2812 33.2124C68.2812 36.0912 70.6221 38.425 73.5096 38.425Z" fill="url(#paint2_linear_711_6732)"/>
</mask>
<g mask="url(#mask1_711_6732)">
<path d="M73.5096 38.425C76.3972 38.425 78.738 36.0912 78.738 33.2124C78.738 30.3337 76.3972 28 73.5096 28C70.6221 28 68.2812 30.3337 68.2812 33.2124C68.2812 36.0912 70.6221 38.425 73.5096 38.425Z" fill="url(#paint3_linear_711_6732)"/>
</g>
<mask id="mask2_711_6732" style="mask-type:alpha" maskUnits="userSpaceOnUse" x="98" y="28" width="12" height="11">
<path d="M103.79 38.425C106.678 38.425 109.019 36.0912 109.019 33.2124C109.019 30.3337 106.678 28 103.79 28C100.903 28 98.562 30.3337 98.562 33.2124C98.562 36.0912 100.903 38.425 103.79 38.425Z" fill="url(#paint4_linear_711_6732)"/>
</mask>
<g mask="url(#mask2_711_6732)">
<path d="M103.79 38.425C106.678 38.425 109.019 36.0912 109.019 33.2124C109.019 30.3337 106.678 28 103.79 28C100.903 28 98.562 30.3337 98.562 33.2124C98.562 36.0912 100.903 38.425 103.79 38.425Z" fill="url(#paint5_linear_711_6732)"/>
</g>
<mask id="mask3_711_6732" style="mask-type:alpha" maskUnits="userSpaceOnUse" x="128" y="28" width="12" height="11">
<path d="M134.072 38.425C136.959 38.425 139.3 36.0912 139.3 33.2124C139.3 30.3337 136.959 28 134.072 28C131.184 28 128.843 30.3337 128.843 33.2124C128.843 36.0912 131.184 38.425 134.072 38.425Z" fill="url(#paint6_linear_711_6732)"/>
</mask>
<g mask="url(#mask3_711_6732)">
<path d="M134.072 38.425C136.959 38.425 139.3 36.0912 139.3 33.2124C139.3 30.3337 136.959 28 134.072 28C131.184 28 128.843 30.3337 128.843 33.2124C128.843 36.0912 131.184 38.425 134.072 38.425Z" fill="url(#paint7_linear_711_6732)"/>
</g>
<mask id="mask4_711_6732" style="mask-type:alpha" maskUnits="userSpaceOnUse" x="159" y="28" width="11" height="11">
<path d="M164.352 38.425C167.24 38.425 169.581 36.0912 169.581 33.2124C169.581 30.3337 167.24 28 164.352 28C161.465 28 159.124 30.3337 159.124 33.2124C159.124 36.0912 161.465 38.425 164.352 38.425Z" fill="url(#paint8_linear_711_6732)"/>
</mask>
<g mask="url(#mask4_711_6732)">
<path d="M164.352 38.425C167.24 38.425 169.581 36.0912 169.581 33.2124C169.581 30.3337 167.24 28 164.352 28C161.465 28 159.124 30.3337 159.124 33.2124C159.124 36.0912 161.465 38.425 164.352 38.425Z" fill="url(#paint9_linear_711_6732)"/>
</g>
<mask id="mask5_711_6732" style="mask-type:alpha" maskUnits="userSpaceOnUse" x="38" y="54" width="11" height="11">
<path d="M43.2284 64.5958C46.1159 64.5958 48.4568 62.2621 48.4568 59.3833C48.4568 56.5046 46.1159 54.1709 43.2284 54.1709C40.3408 54.1709 38 56.5046 38 59.3833C38 62.2621 40.3408 64.5958 43.2284 64.5958Z" fill="url(#paint10_linear_711_6732)"/>
</mask>
<g mask="url(#mask5_711_6732)">
<path d="M43.2284 64.5958C46.1159 64.5958 48.4568 62.2621 48.4568 59.3833C48.4568 56.5046 46.1159 54.1709 43.2284 54.1709C40.3408 54.1709 38 56.5046 38 59.3833C38 62.2621 40.3408 64.5958 43.2284 64.5958Z" fill="url(#paint11_linear_711_6732)"/>
</g>
<mask id="mask6_711_6732" style="mask-type:alpha" maskUnits="userSpaceOnUse" x="68" y="54" width="11" height="11">
<path d="M73.5096 64.5958C76.3972 64.5958 78.738 62.2621 78.738 59.3833C78.738 56.5046 76.3972 54.1709 73.5096 54.1709C70.6221 54.1709 68.2812 56.5046 68.2812 59.3833C68.2812 62.2621 70.6221 64.5958 73.5096 64.5958Z" fill="url(#paint12_linear_711_6732)"/>
</mask>
<g mask="url(#mask6_711_6732)">
<path d="M73.5096 64.5958C76.3972 64.5958 78.738 62.2621 78.738 59.3833C78.738 56.5046 76.3972 54.1709 73.5096 54.1709C70.6221 54.1709 68.2812 56.5046 68.2812 59.3833C68.2812 62.2621 70.6221 64.5958 73.5096 64.5958Z" fill="url(#paint13_linear_711_6732)"/>
</g>
<mask id="mask7_711_6732" style="mask-type:alpha" maskUnits="userSpaceOnUse" x="98" y="54" width="12" height="11">
<path d="M103.79 64.5958C106.678 64.5958 109.019 62.2621 109.019 59.3833C109.019 56.5046 106.678 54.1709 103.79 54.1709C100.903 54.1709 98.562 56.5046 98.562 59.3833C98.562 62.2621 100.903 64.5958 103.79 64.5958Z" fill="url(#paint14_linear_711_6732)"/>
</mask>
<g mask="url(#mask7_711_6732)">
<path d="M103.79 64.5958C106.678 64.5958 109.019 62.2621 109.019 59.3833C109.019 56.5046 106.678 54.1709 103.79 54.1709C100.903 54.1709 98.562 56.5046 98.562 59.3833C98.562 62.2621 100.903 64.5958 103.79 64.5958Z" fill="url(#paint15_linear_711_6732)"/>
</g>
<mask id="mask8_711_6732" style="mask-type:alpha" maskUnits="userSpaceOnUse" x="128" y="54" width="12" height="11">
<path d="M134.072 64.5958C136.959 64.5958 139.3 62.2621 139.3 59.3833C139.3 56.5046 136.959 54.1709 134.072 54.1709C131.184 54.1709 128.843 56.5046 128.843 59.3833C128.843 62.2621 131.184 64.5958 134.072 64.5958Z" fill="url(#paint16_linear_711_6732)"/>
</mask>
<g mask="url(#mask8_711_6732)">
<path d="M134.072 64.5958C136.959 64.5958 139.3 62.2621 139.3 59.3833C139.3 56.5046 136.959 54.1709 134.072 54.1709C131.184 54.1709 128.843 56.5046 128.843 59.3833C128.843 62.2621 131.184 64.5958 134.072 64.5958Z" fill="url(#paint17_linear_711_6732)"/>
</g>
<mask id="mask9_711_6732" style="mask-type:alpha" maskUnits="userSpaceOnUse" x="38" y="80" width="11" height="11">
<path d="M43.2284 90.7126C46.1159 90.7126 48.4568 88.3789 48.4568 85.5001C48.4568 82.6213 46.1159 80.2876 43.2284 80.2876C40.3408 80.2876 38 82.6213 38 85.5001C38 88.3789 40.3408 90.7126 43.2284 90.7126Z" fill="url(#paint18_linear_711_6732)"/>
</mask>
<g mask="url(#mask9_711_6732)">
<path d="M43.2284 90.7126C46.1159 90.7126 48.4568 88.3789 48.4568 85.5001C48.4568 82.6213 46.1159 80.2876 43.2284 80.2876C40.3408 80.2876 38 82.6213 38 85.5001C38 88.3789 40.3408 90.7126 43.2284 90.7126Z" fill="url(#paint19_linear_711_6732)"/>
</g>
<mask id="mask10_711_6732" style="mask-type:alpha" maskUnits="userSpaceOnUse" x="68" y="80" width="11" height="11">
<path d="M73.5096 90.7126C76.3972 90.7126 78.738 88.3789 78.738 85.5001C78.738 82.6213 76.3972 80.2876 73.5096 80.2876C70.6221 80.2876 68.2812 82.6213 68.2812 85.5001C68.2812 88.3789 70.6221 90.7126 73.5096 90.7126Z" fill="url(#paint20_linear_711_6732)"/>
</mask>
<g mask="url(#mask10_711_6732)">
<path d="M73.5096 90.7126C76.3972 90.7126 78.738 88.3789 78.738 85.5001C78.738 82.6213 76.3972 80.2876 73.5096 80.2876C70.6221 80.2876 68.2812 82.6213 68.2812 85.5001C68.2812 88.3789 70.6221 90.7126 73.5096 90.7126Z" fill="url(#paint21_linear_711_6732)"/>
</g>
<mask id="mask11_711_6732" style="mask-type:alpha" maskUnits="userSpaceOnUse" x="98" y="80" width="12" height="11">
<path d="M103.79 90.7126C106.678 90.7126 109.019 88.3789 109.019 85.5001C109.019 82.6213 106.678 80.2876 103.79 80.2876C100.903 80.2876 98.562 82.6213 98.562 85.5001C98.562 88.3789 100.903 90.7126 103.79 90.7126Z" fill="url(#paint22_linear_711_6732)"/>
</mask>
<g mask="url(#mask11_711_6732)">
<path d="M103.79 90.7126C106.678 90.7126 109.019 88.3789 109.019 85.5001C109.019 82.6213 106.678 80.2876 103.79 80.2876C100.903 80.2876 98.562 82.6213 98.562 85.5001C98.562 88.3789 100.903 90.7126 103.79 90.7126Z" fill="url(#paint23_linear_711_6732)"/>
</g>
<mask id="mask12_711_6732" style="mask-type:alpha" maskUnits="userSpaceOnUse" x="128" y="80" width="12" height="11">
<path d="M134.072 90.7126C136.959 90.7126 139.3 88.3789 139.3 85.5001C139.3 82.6213 136.959 80.2876 134.072 80.2876C131.184 80.2876 128.843 82.6213 128.843 85.5001C128.843 88.3789 131.184 90.7126 134.072 90.7126Z" fill="url(#paint24_linear_711_6732)"/>
</mask>
<g mask="url(#mask12_711_6732)">
<path d="M134.072 90.7126C136.959 90.7126 139.3 88.3789 139.3 85.5001C139.3 82.6213 136.959 80.2876 134.072 80.2876C131.184 80.2876 128.843 82.6213 128.843 85.5001C128.843 88.3789 131.184 90.7126 134.072 90.7126Z" fill="url(#paint25_linear_711_6732)"/>
</g>
<mask id="mask13_711_6732" style="mask-type:alpha" maskUnits="userSpaceOnUse" x="159" y="80" width="11" height="11">
<path d="M164.352 90.7126C167.24 90.7126 169.581 88.3789 169.581 85.5001C169.581 82.6213 167.24 80.2876 164.352 80.2876C161.465 80.2876 159.124 82.6213 159.124 85.5001C159.124 88.3789 161.465 90.7126 164.352 90.7126Z" fill="url(#paint26_linear_711_6732)"/>
</mask>
<g mask="url(#mask13_711_6732)">
<path d="M164.352 90.7126C167.24 90.7126 169.581 88.3789 169.581 85.5001C169.581 82.6213 167.24 80.2876 164.352 80.2876C161.465 80.2876 159.124 82.6213 159.124 85.5001C159.124 88.3789 161.465 90.7126 164.352 90.7126Z" fill="url(#paint27_linear_711_6732)"/>
</g>
<mask id="mask14_711_6732" style="mask-type:alpha" maskUnits="userSpaceOnUse" x="159" y="54" width="11" height="11">
<path d="M164.352 64.5958C167.24 64.5958 169.581 62.2621 169.581 59.3833C169.581 56.5046 167.24 54.1709 164.352 54.1709C161.465 54.1709 159.124 56.5046 159.124 59.3833C159.124 62.2621 161.465 64.5958 164.352 64.5958Z" fill="url(#paint28_linear_711_6732)"/>
</mask>
<g mask="url(#mask14_711_6732)">
<path d="M164.352 64.5958C167.24 64.5958 169.581 62.2621 169.581 59.3833C169.581 56.5046 167.24 54.1709 164.352 54.1709C161.465 54.1709 159.124 56.5046 159.124 59.3833C159.124 62.2621 161.465 64.5958 164.352 64.5958Z" fill="url(#paint29_linear_711_6732)"/>
</g>
<mask id="mask15_711_6732" style="mask-type:alpha" maskUnits="userSpaceOnUse" x="38" y="106" width="11" height="11">
<path d="M43.2284 116.883C46.1159 116.883 48.4568 114.55 48.4568 111.671C48.4568 108.792 46.1159 106.458 43.2284 106.458C40.3408 106.458 38 108.792 38 111.671C38 114.55 40.3408 116.883 43.2284 116.883Z" fill="url(#paint30_linear_711_6732)"/>
</mask>
<g mask="url(#mask15_711_6732)">
<path d="M43.2284 116.883C46.1159 116.883 48.4568 114.55 48.4568 111.671C48.4568 108.792 46.1159 106.458 43.2284 106.458C40.3408 106.458 38 108.792 38 111.671C38 114.55 40.3408 116.883 43.2284 116.883Z" fill="url(#paint31_linear_711_6732)"/>
</g>
<mask id="mask16_711_6732" style="mask-type:alpha" maskUnits="userSpaceOnUse" x="68" y="106" width="11" height="11">
<path d="M73.5096 116.883C76.3972 116.883 78.738 114.55 78.738 111.671C78.738 108.792 76.3972 106.458 73.5096 106.458C70.6221 106.458 68.2812 108.792 68.2812 111.671C68.2812 114.55 70.6221 116.883 73.5096 116.883Z" fill="url(#paint32_linear_711_6732)"/>
</mask>
<g mask="url(#mask16_711_6732)">
<path d="M73.5096 116.883C76.3972 116.883 78.738 114.55 78.738 111.671C78.738 108.792 76.3972 106.458 73.5096 106.458C70.6221 106.458 68.2812 108.792 68.2812 111.671C68.2812 114.55 70.6221 116.883 73.5096 116.883Z" fill="url(#paint33_linear_711_6732)"/>
</g>
<mask id="mask17_711_6732" style="mask-type:alpha" maskUnits="userSpaceOnUse" x="98" y="106" width="12" height="11">
<path d="M103.79 116.883C106.678 116.883 109.019 114.55 109.019 111.671C109.019 108.792 106.678 106.458 103.79 106.458C100.903 106.458 98.562 108.792 98.562 111.671C98.562 114.55 100.903 116.883 103.79 116.883Z" fill="url(#paint34_linear_711_6732)"/>
</mask>
<g mask="url(#mask17_711_6732)">
<path d="M103.79 116.883C106.678 116.883 109.019 114.55 109.019 111.671C109.019 108.792 106.678 106.458 103.79 106.458C100.903 106.458 98.562 108.792 98.562 111.671C98.562 114.55 100.903 116.883 103.79 116.883Z" fill="url(#paint35_linear_711_6732)"/>
</g>
<mask id="mask18_711_6732" style="mask-type:alpha" maskUnits="userSpaceOnUse" x="128" y="106" width="12" height="11">
<path d="M134.072 116.883C136.959 116.883 139.3 114.55 139.3 111.671C139.3 108.792 136.959 106.458 134.072 106.458C131.184 106.458 128.843 108.792 128.843 111.671C128.843 114.55 131.184 116.883 134.072 116.883Z" fill="url(#paint36_linear_711_6732)"/>
</mask>
<g mask="url(#mask18_711_6732)">
<path d="M134.072 116.883C136.959 116.883 139.3 114.55 139.3 111.671C139.3 108.792 136.959 106.458 134.072 106.458C131.184 106.458 128.843 108.792 128.843 111.671C128.843 114.55 131.184 116.883 134.072 116.883Z" fill="url(#paint37_linear_711_6732)"/>
</g>
<mask id="mask19_711_6732" style="mask-type:alpha" maskUnits="userSpaceOnUse" x="159" y="106" width="11" height="11">
<path d="M164.352 116.883C167.24 116.883 169.581 114.55 169.581 111.671C169.581 108.792 167.24 106.458 164.352 106.458C161.465 106.458 159.124 108.792 159.124 111.671C159.124 114.55 161.465 116.883 164.352 116.883Z" fill="url(#paint38_linear_711_6732)"/>
</mask>
<g mask="url(#mask19_711_6732)">
<path d="M164.352 116.883C167.24 116.883 169.581 114.55 169.581 111.671C169.581 108.792 167.24 106.458 164.352 106.458C161.465 106.458 159.124 108.792 159.124 111.671C159.124 114.55 161.465 116.883 164.352 116.883Z" fill="url(#paint39_linear_711_6732)"/>
</g>
<mask id="mask20_711_6732" style="mask-type:alpha" maskUnits="userSpaceOnUse" x="38" y="132" width="11" height="11">
<path d="M43.2284 143C46.1159 143 48.4568 140.666 48.4568 137.787C48.4568 134.909 46.1159 132.575 43.2284 132.575C40.3408 132.575 38 134.909 38 137.787C38 140.666 40.3408 143 43.2284 143Z" fill="url(#paint40_linear_711_6732)"/>
</mask>
<g mask="url(#mask20_711_6732)">
<path d="M43.2284 143C46.1159 143 48.4568 140.666 48.4568 137.787C48.4568 134.909 46.1159 132.575 43.2284 132.575C40.3408 132.575 38 134.909 38 137.787C38 140.666 40.3408 143 43.2284 143Z" fill="url(#paint41_linear_711_6732)"/>
</g>
<mask id="mask21_711_6732" style="mask-type:alpha" maskUnits="userSpaceOnUse" x="68" y="132" width="11" height="11">
<path d="M73.5096 143C76.3972 143 78.738 140.666 78.738 137.787C78.738 134.909 76.3972 132.575 73.5096 132.575C70.6221 132.575 68.2812 134.909 68.2812 137.787C68.2812 140.666 70.6221 143 73.5096 143Z" fill="url(#paint42_linear_711_6732)"/>
</mask>
<g mask="url(#mask21_711_6732)">
<path d="M73.5096 143C76.3972 143 78.738 140.666 78.738 137.787C78.738 134.909 76.3972 132.575 73.5096 132.575C70.6221 132.575 68.2812 134.909 68.2812 137.787C68.2812 140.666 70.6221 143 73.5096 143Z" fill="url(#paint43_linear_711_6732)"/>
</g>
<mask id="mask22_711_6732" style="mask-type:alpha" maskUnits="userSpaceOnUse" x="98" y="132" width="12" height="11">
<path d="M103.79 143C106.678 143 109.019 140.666 109.019 137.787C109.019 134.909 106.678 132.575 103.79 132.575C100.903 132.575 98.562 134.909 98.562 137.787C98.562 140.666 100.903 143 103.79 143Z" fill="url(#paint44_linear_711_6732)"/>
</mask>
<g mask="url(#mask22_711_6732)">
<path d="M103.79 143C106.678 143 109.019 140.666 109.019 137.787C109.019 134.909 106.678 132.575 103.79 132.575C100.903 132.575 98.562 134.909 98.562 137.787C98.562 140.666 100.903 143 103.79 143Z" fill="url(#paint45_linear_711_6732)"/>
</g>
<mask id="mask23_711_6732" style="mask-type:alpha" maskUnits="userSpaceOnUse" x="128" y="132" width="12" height="11">
<path d="M134.072 143C136.959 143 139.3 140.666 139.3 137.787C139.3 134.909 136.959 132.575 134.072 132.575C131.184 132.575 128.843 134.909 128.843 137.787C128.843 140.666 131.184 143 134.072 143Z" fill="url(#paint46_linear_711_6732)"/>
</mask>
<g mask="url(#mask23_711_6732)">
<path d="M134.072 143C136.959 143 139.3 140.666 139.3 137.787C139.3 134.909 136.959 132.575 134.072 132.575C131.184 132.575 128.843 134.909 128.843 137.787C128.843 140.666 131.184 143 134.072 143Z" fill="url(#paint47_linear_711_6732)"/>
</g>
<mask id="mask24_711_6732" style="mask-type:alpha" maskUnits="userSpaceOnUse" x="159" y="132" width="11" height="11">
<path d="M164.352 143C167.24 143 169.581 140.666 169.581 137.787C169.581 134.909 167.24 132.575 164.352 132.575C161.465 132.575 159.124 134.909 159.124 137.787C159.124 140.666 161.465 143 164.352 143Z" fill="url(#paint48_linear_711_6732)"/>
</mask>
<g mask="url(#mask24_711_6732)">
<path d="M164.352 143C167.24 143 169.581 140.666 169.581 137.787C169.581 134.909 167.24 132.575 164.352 132.575C161.465 132.575 159.124 134.909 159.124 137.787C159.124 140.666 161.465 143 164.352 143Z" fill="url(#paint49_linear_711_6732)"/>
</g>
</g>
<path d="M18.7626 294.719C21.6964 264.762 39.4287 234.859 67.6427 224.399C57.2171 255.426 58.0983 289.142 70.1304 319.582C74.8132 331.304 81.2418 343.855 77.4381 355.891C75.0715 363.381 68.9566 369.224 62.0485 372.957C55.14 376.691 47.4144 378.586 39.7851 380.445L38.3077 381.733C25.4107 354.538 15.8288 324.675 18.7626 294.719Z" fill="#F0F0F0"/>
<path d="M67.9398 224.956C52.0097 243.765 41.9834 267.787 40.2304 292.414C39.8513 297.738 39.9301 303.172 41.227 308.376C42.5301 313.44 45.1648 318.061 48.8574 321.761C52.231 325.281 56.0893 328.489 58.5491 332.768C61.1418 337.277 61.3722 342.472 59.8055 347.374C57.8886 353.373 53.9314 358.325 49.8934 363.033C45.4099 368.26 40.6701 373.618 38.8842 380.44C38.6678 381.266 37.3984 380.882 37.6145 380.057C40.7217 368.189 51.9778 361.2 57.1524 350.448C59.567 345.431 60.4849 339.656 57.9641 334.493C55.7597 329.977 51.7839 326.665 48.3372 323.131C44.7181 319.421 41.9105 315.319 40.3889 310.322C38.8324 305.209 38.5412 299.767 38.7824 294.456C39.4193 282.418 41.9444 270.555 46.2651 259.301C51.1251 246.43 58.1503 234.486 67.0367 223.984C67.587 223.335 68.4865 224.311 67.9398 224.956L67.9398 224.956Z" fill="white"/>
<path d="M40.3777 284.379C36.2552 283.491 32.5826 281.166 30.0156 277.819C27.4487 274.472 26.1545 270.322 26.3643 266.108C26.3744 265.937 26.4508 265.776 26.5773 265.659C26.7039 265.543 26.8707 265.48 27.0426 265.484C27.2146 265.488 27.3782 265.559 27.499 265.681C27.6199 265.803 27.6885 265.968 27.6904 266.14C27.4878 270.063 28.6937 273.929 31.0904 277.041C33.4871 280.153 36.9168 282.305 40.7605 283.109C41.5956 283.285 41.208 284.554 40.3777 284.379Z" fill="white"/>
<path d="M46.9116 320.202C54.1952 315.59 59.4734 308.401 61.6937 300.069C61.913 299.243 63.1824 299.627 62.9634 300.452C60.6367 309.118 55.1287 316.588 47.5387 321.371C46.8149 321.827 46.1918 320.655 46.9116 320.202Z" fill="white"/>
<path d="M52.3876 247.654C53.9111 248.33 55.5786 248.617 57.2403 248.489C58.9021 248.362 60.5061 247.823 61.9082 246.922C62.6259 246.457 63.2483 247.629 62.5353 248.09C60.9815 249.079 59.2094 249.672 57.3737 249.817C55.538 249.963 53.6947 249.656 52.0047 248.924C51.8396 248.869 51.7019 248.752 51.6196 248.599C51.5372 248.445 51.5163 248.266 51.5613 248.098C51.6128 247.93 51.7285 247.789 51.8832 247.706C52.0379 247.623 52.2192 247.604 52.3875 247.654H52.3876Z" fill="white"/>
<path d="M155.805 275.469C155.365 275.772 154.925 276.074 154.485 276.388C148.592 280.488 143.043 285.061 137.89 290.06C137.486 290.44 137.082 290.831 136.689 291.222C124.404 303.399 114.486 317.751 107.439 333.55C104.641 339.839 102.325 346.332 100.511 352.972C98.0066 362.144 96.0207 372.287 90.7881 379.871C90.251 380.669 89.6651 381.432 89.0337 382.157L39.9935 383.436C39.8806 383.383 39.7674 383.341 39.6539 383.288L37.6982 383.429C37.7679 383.08 37.8476 382.719 37.9172 382.37C37.9568 382.168 38.0072 381.965 38.0468 381.762C38.0766 381.627 38.107 381.492 38.1262 381.368C38.1359 381.323 38.1462 381.278 38.1563 381.244C38.1755 381.12 38.2064 381.008 38.2259 380.895C38.6659 378.879 39.1209 376.862 39.5908 374.845C39.5905 374.834 39.5905 374.834 39.6011 374.822C43.2206 359.462 48.1538 344.269 55.2354 330.308C55.4486 329.888 55.661 329.457 55.8965 329.036C59.1235 322.761 62.8578 316.76 67.0621 311.093C69.3742 307.998 71.8414 305.021 74.4544 302.176C81.22 294.835 89.0977 288.605 97.7987 283.713C115.146 273.965 135.416 269.874 154.361 275.059C154.846 275.192 155.32 275.325 155.805 275.469Z" fill="#F0F0F0"/>
<path d="M155.711 276.095C131.671 281.518 109.208 294.66 92.9865 313.267C89.4795 317.29 86.2719 321.676 84.1752 326.613C82.1683 331.44 81.4904 336.717 82.2118 341.895C82.7874 346.737 83.9367 351.623 83.3258 356.52C82.6819 361.682 79.7396 365.969 75.5379 368.94C70.3971 372.575 64.2572 374.145 58.1995 375.472C51.4737 376.945 44.4643 378.369 38.9327 382.74C38.2625 383.27 37.4802 382.198 38.1494 381.67C47.7734 374.065 60.967 375.264 71.5696 369.796C76.5169 367.245 80.7256 363.186 81.8206 357.545C82.7782 352.612 81.5973 347.573 80.9721 342.676C80.3156 337.533 80.5423 332.568 82.3353 327.661C84.1695 322.641 87.2124 318.121 90.6013 314.026C98.3551 304.797 107.511 296.846 117.734 290.463C129.361 283.113 142.159 277.807 155.575 274.775C156.405 274.588 156.536 275.909 155.711 276.095H155.711Z" fill="white"/>
<path d="M97.9403 306.941C95.1832 303.749 93.6502 299.68 93.6149 295.462C93.5796 291.244 95.0444 287.15 97.7476 283.913C98.2969 283.259 99.3374 284.082 98.7874 284.737C96.2646 287.747 94.9005 291.56 94.9414 295.488C94.9823 299.416 96.4254 303.2 99.0104 306.157C99.5714 306.8 98.4981 307.58 97.9403 306.941Z" fill="white"/>
<path d="M81.5965 339.479C90.188 340.183 98.7291 337.622 105.517 332.306C106.189 331.779 106.971 332.85 106.3 333.377C99.2263 338.895 90.3325 341.542 81.3937 340.79C80.5417 340.718 80.7491 339.407 81.5965 339.479H81.5965Z" fill="white"/>
<path d="M129.632 284.851C130.442 286.309 131.6 287.542 133.004 288.441C134.408 289.34 136.013 289.875 137.675 290C138.527 290.062 138.319 291.372 137.472 291.311C135.636 291.165 133.865 290.571 132.311 289.581C130.758 288.592 129.471 287.237 128.562 285.635C128.464 285.491 128.424 285.315 128.45 285.143C128.477 284.971 128.568 284.815 128.705 284.708C128.848 284.605 129.025 284.562 129.198 284.589C129.372 284.616 129.528 284.71 129.632 284.851Z" fill="white"/>
<path d="M443.628 26.2838C442.896 24.121 433.714 16.7691 439.34 15.5334L443.954 21.6879L465.168 0.467285L467.301 2.60159L443.628 26.2838Z" fill="#458FF6"/>
<path d="M443.628 98.4427C442.896 96.2799 433.714 88.928 439.34 87.6923L443.954 93.8469L465.168 72.6262L467.301 74.7605L443.628 98.4427Z" fill="#458FF6"/>
<path d="M443.628 171.633C442.896 169.47 433.714 162.118 439.34 160.882L443.954 167.037L465.168 145.816L467.301 147.95L443.628 171.633Z" fill="#458FF6"/>
<path d="M424.094 112.461C427.709 112.461 430.64 109.529 430.64 105.912C430.64 102.296 427.709 99.3638 424.094 99.3638C420.479 99.3638 417.548 102.296 417.548 105.912C417.548 109.529 420.479 112.461 424.094 112.461Z" fill="#16245F"/>
<path d="M424.094 41.0833C427.709 41.0833 430.64 38.1515 430.64 34.5349C430.64 30.9184 427.709 27.9866 424.094 27.9866C420.479 27.9866 417.548 30.9184 417.548 34.5349C417.548 38.1515 420.479 41.0833 424.094 41.0833Z" fill="#16245F"/>
<path d="M592 19.4736H486.608V20.7833H592V19.4736Z" fill="#16245F"/>
<path d="M427.367 188.549C430.982 188.549 433.913 185.617 433.913 182C433.913 178.384 430.982 175.452 427.367 175.452C423.752 175.452 420.821 178.384 420.821 182C420.821 185.617 423.752 188.549 427.367 188.549Z" fill="#16245F"/>
<path d="M592 91.6326H486.608V92.9422H592V91.6326Z" fill="#16245F"/>
<path d="M592 164.823H486.608V166.132H592V164.823Z" fill="#16245F"/>
<path d="M460.161 181.39H427.431V147.993H449.688V149.303H428.74V180.08H458.852V165.019H460.161V181.39Z" fill="#16245F"/>
<path d="M460.161 108.048H427.431V74.6514H449.688V75.961H428.74V106.738H458.852V91.6771H460.161V108.048Z" fill="#16245F"/>
<path d="M460.161 33.3967H427.431V0H449.688V1.30967H428.74V32.087H458.852V17.0258H460.161V33.3967Z" fill="#16245F"/>
<path d="M246.462 119.031C246.462 119.031 237.715 155.978 248.406 155.978C259.097 155.978 284.368 114.169 284.368 114.169L275.62 103.474L259.92 125.28L259.097 114.169L246.462 119.031Z" fill="#A0616A"/>
<path d="M282.037 115.776C286.737 115.776 290.547 111.964 290.547 107.263C290.547 102.561 286.737 98.7498 282.037 98.7498C277.337 98.7498 273.527 102.561 273.527 107.263C273.527 111.964 277.337 115.776 282.037 115.776Z" fill="#A0616A"/>
<path d="M239.046 370.669L250.372 370.668L255.762 326.961L239.043 326.961L239.046 370.669Z" fill="#A0616A"/>
<path d="M238.646 382.49L273.479 382.489V382.048C273.479 378.451 272.051 375.001 269.508 372.458C266.965 369.914 263.517 368.485 259.921 368.485H259.921L253.558 363.656L241.686 368.486L238.646 368.486L238.646 382.49Z" fill="#2F2E41"/>
<path d="M117.199 356.532L127.334 361.591L151.667 324.891L136.708 317.423L117.199 356.532Z" fill="#A0616A"/>
<path d="M111.565 366.93L142.733 382.49L142.93 382.096C144.535 378.877 144.797 375.152 143.657 371.741C142.518 368.329 140.07 365.51 136.853 363.904L136.852 363.903L133.315 356.74L120.537 355.758L117.816 354.4L111.565 366.93Z" fill="#2F2E41"/>
<path d="M373.027 382.533H0V384H373.027V382.533Z" fill="#CCCCCC"/>
<path d="M165.81 186.057C165.81 186.057 161.283 240.506 160.311 252.173C159.645 259.487 158.011 266.68 155.452 273.564C155.452 273.564 153.508 277.453 153.508 281.342L131.477 321.394C131.477 321.394 124.745 326.344 125.717 330.234C126.689 334.123 121.658 336.456 121.658 336.456L144.858 340.929C144.858 340.929 143.887 338.012 146.802 337.04C149.718 336.067 152.039 327.634 152.039 327.634L184.61 274.536L207.936 225.922C207.936 225.922 221.544 269.675 224.459 274.536C224.459 274.536 235.151 328.984 237.095 333.845C239.038 338.707 240.01 338.707 239.038 340.651C238.066 342.596 238.066 344.54 239.038 345.512C240.01 346.485 258.477 345.512 258.477 345.512L253.617 276.481L244.87 193.837L200.161 180.225L165.81 186.057Z" fill="#2F2E41"/>
<path d="M209.583 56.0748C220.856 56.0748 229.994 46.9334 229.994 35.6569C229.994 24.3804 220.856 15.239 209.583 15.239C198.311 15.239 189.172 24.3804 189.172 35.6569C189.172 46.9334 198.311 56.0748 209.583 56.0748Z" fill="#A0616A"/>
<path d="M246.814 85.9135L222.517 71.1871C222.517 71.1871 221.843 62.0424 214.92 61.6121C211.445 61.3961 206.229 61.0658 198.402 60.561C196.747 60.4543 195.631 69.5075 193.735 69.3847L168.087 76.1906L171.975 142.306C171.975 142.306 166.144 168.557 168.087 173.419C170.031 178.28 163.228 180.225 165.172 181.197C167.115 182.169 165.172 188.975 165.172 188.975C165.172 188.975 203.077 208.421 244.87 193.837L240.983 181.197C241.512 179.545 241.611 177.785 241.271 176.083C240.931 174.382 240.162 172.796 239.039 171.474C239.039 171.474 242.927 165.641 238.067 160.779C238.067 160.779 240.011 152.029 235.151 148.139L234.179 134.527L237.095 127.722L246.814 85.9135Z" fill="#E6E6E6"/>
<path d="M191.872 47.321L191.301 45.9953C191.228 45.8239 184.009 28.7541 190.408 18.2249C193.369 13.3504 198.755 10.5983 206.414 10.0458C218.398 9.17898 226.6 12.0228 230.798 18.4922C231.502 19.5886 231.898 20.8546 231.944 22.1569C231.99 23.4592 231.684 24.7498 231.059 25.893C230.433 27.0362 229.512 27.9898 228.391 28.6534C227.269 29.3171 225.99 29.6663 224.688 29.6644H224.527L222.325 26.8043L222.196 27.0824C221.399 28.8078 219.568 29.7523 217.424 29.5454C217.059 29.5192 216.736 29.8341 216.477 30.5082C216.389 30.803 216.224 31.0689 215.999 31.2779C215.773 31.4869 215.496 31.6314 215.195 31.696C213.611 32.0046 211.352 30.0081 210.341 29.0131C210.302 29.2421 210.215 29.46 210.084 29.6522C209.954 29.8444 209.784 30.0063 209.585 30.1271C208.52 30.7419 206.862 29.9387 206.386 29.6829C202.595 30.4887 200.141 30.2732 199.089 29.0431C198.377 34.0877 196.847 43.1678 195.012 43.6711C194.821 43.7152 194.62 43.6965 194.44 43.6177C194.259 43.5388 194.109 43.4041 194.011 43.2334C193.57 42.6597 193.175 42.3739 192.928 42.4542C192.332 42.6441 191.98 44.6099 191.929 45.8786L191.872 47.321Z" fill="#2F2E41"/>
<path d="M236.123 86.8856L245.819 85.3098C252.803 92.0228 257.56 100.717 259.449 110.22C262.365 125.777 263.337 128.694 263.337 128.694L240.011 134.527L227.375 110.22L236.123 86.8856Z" fill="#E6E6E6"/>
<path d="M193.1 107.12L187.108 183.103L340.014 195.169L346.006 119.186L193.1 107.12Z" fill="white"/>
<path d="M209.436 113.007C205.694 110.334 200.943 110.14 199.128 110.179C199.682 111.908 201.403 116.342 205.145 119.016C208.896 121.696 213.641 121.883 215.453 121.846C214.899 120.118 213.179 115.682 209.436 113.007Z" fill="#458FF6"/>
<path d="M224.198 161.356L199.646 159.419C198.92 159.362 198.191 159.448 197.498 159.673C196.806 159.898 196.165 160.257 195.612 160.729C195.058 161.202 194.603 161.779 194.273 162.428C193.942 163.076 193.743 163.784 193.686 164.509C193.628 165.235 193.715 165.965 193.939 166.657C194.164 167.35 194.523 167.991 194.996 168.545C195.468 169.098 196.045 169.553 196.693 169.884C197.342 170.215 198.049 170.414 198.774 170.471L223.326 172.409C224.792 172.525 226.243 172.053 227.36 171.099C228.478 170.144 229.171 168.784 229.286 167.319C229.402 165.853 228.931 164.401 227.977 163.283C227.022 162.165 225.663 161.472 224.198 161.356Z" fill="#458FF6"/>
<path d="M339.978 111.8L202.321 100.936C200.72 100.81 199.11 101.001 197.582 101.497C196.055 101.994 194.64 102.786 193.419 103.83C192.198 104.873 191.194 106.147 190.465 107.578C189.735 109.01 189.295 110.571 189.169 112.173L183.875 179.261C183.621 182.497 184.661 185.701 186.768 188.17C188.874 190.638 191.875 192.169 195.109 192.425L332.766 203.288C334.367 203.414 335.978 203.224 337.505 202.727C339.033 202.231 340.447 201.438 341.669 200.395C342.89 199.352 343.894 198.078 344.623 196.646C345.352 195.215 345.792 193.654 345.918 192.052L350.949 128.287L351.051 126.984L351.211 124.957C351.337 123.355 351.146 121.744 350.65 120.216C350.154 118.688 349.362 117.273 348.319 116.051C347.276 114.83 346.002 113.825 344.571 113.096C343.14 112.367 341.579 111.926 339.978 111.8ZM335.913 170.171L335.041 181.224C334.882 183.176 333.956 184.985 332.467 186.257C330.977 187.528 329.045 188.158 327.093 188.008L308.677 186.557C306.726 186.397 304.917 185.471 303.646 183.981C302.375 182.492 301.745 180.559 301.895 178.606L302.767 167.553C302.927 165.601 303.853 163.792 305.342 162.521C306.831 161.25 308.763 160.62 310.715 160.769L329.125 162.222C331.076 162.382 332.885 163.308 334.157 164.797C335.429 166.286 336.06 168.218 335.913 170.171ZM192.467 164.408C192.61 162.619 193.457 160.96 194.82 159.795C196.184 158.63 197.955 158.054 199.743 158.193L224.294 160.131C225.181 160.2 226.046 160.443 226.839 160.845C227.632 161.248 228.338 161.804 228.916 162.48C229.495 163.156 229.934 163.939 230.21 164.785C230.486 165.631 230.592 166.523 230.523 167.411C230.454 168.298 230.21 169.163 229.807 169.956C229.403 170.749 228.848 171.454 228.171 172.032C227.495 172.611 226.712 173.05 225.866 173.325C225.02 173.6 224.128 173.705 223.241 173.635L223.228 173.639L198.677 171.7C197.79 171.63 196.926 171.386 196.134 170.981C195.342 170.576 194.637 170.019 194.06 169.342C193.484 168.665 193.046 167.88 192.773 167.034C192.499 166.187 192.396 165.295 192.467 164.408ZM197.723 109.741L197.556 109.054L198.262 108.989C198.538 108.959 205.069 108.373 210.153 112.005C215.237 115.638 216.795 122.012 216.863 122.279L217.025 122.967L216.32 123.038C215.32 123.113 214.315 123.106 213.316 123.018C210.138 122.832 207.068 121.795 204.428 120.015C199.344 116.383 197.785 110.009 197.723 109.741Z" fill="#458FF6"/>
<path d="M315.26 177.501L307.281 176.871C306.711 176.828 306.148 177.011 305.714 177.383C305.28 177.754 305.012 178.282 304.967 178.851C304.922 179.421 305.104 179.985 305.475 180.419C305.845 180.854 306.373 181.124 306.942 181.17L314.921 181.799C315.49 181.843 316.054 181.659 316.488 181.288C316.921 180.917 317.19 180.389 317.235 179.819C317.28 179.25 317.097 178.686 316.727 178.252C316.357 177.817 315.829 177.547 315.26 177.501Z" fill="#458FF6"/>
<path d="M329.992 178.664L322.012 178.034C321.443 177.99 320.88 178.174 320.447 178.546C320.013 178.917 319.744 179.445 319.7 180.014C319.655 180.583 319.837 181.147 320.207 181.581C320.577 182.016 321.104 182.286 321.673 182.332L329.653 182.962C330.222 183.005 330.785 182.821 331.218 182.45C331.652 182.079 331.92 181.551 331.965 180.982C332.01 180.413 331.827 179.849 331.457 179.414C331.087 178.98 330.56 178.71 329.992 178.664Z" fill="#458FF6"/>
<path d="M315.696 171.975L307.717 171.345C307.148 171.302 306.585 171.486 306.151 171.857C305.718 172.228 305.449 172.756 305.404 173.325C305.359 173.894 305.542 174.458 305.912 174.893C306.282 175.327 306.809 175.597 307.378 175.643L315.357 176.273C315.926 176.317 316.49 176.133 316.924 175.762C317.357 175.391 317.626 174.863 317.671 174.293C317.716 173.724 317.533 173.16 317.163 172.725C316.793 172.291 316.265 172.021 315.696 171.975Z" fill="#458FF6"/>
<path d="M330.427 173.137L322.448 172.508C321.878 172.464 321.315 172.648 320.881 173.019C320.447 173.39 320.179 173.918 320.134 174.488C320.089 175.057 320.271 175.621 320.642 176.055C321.012 176.49 321.54 176.76 322.109 176.806L330.088 177.436C330.657 177.479 331.221 177.296 331.655 176.924C332.088 176.553 332.357 176.025 332.402 175.456C332.447 174.886 332.264 174.322 331.894 173.888C331.524 173.453 330.996 173.183 330.427 173.137Z" fill="#458FF6"/>
<path d="M316.132 166.449L308.152 165.819C307.583 165.775 307.02 165.959 306.586 166.33C306.152 166.701 305.883 167.229 305.838 167.799C305.793 168.368 305.976 168.932 306.346 169.367C306.717 169.801 307.244 170.071 307.813 170.117L315.793 170.747C316.362 170.79 316.925 170.606 317.358 170.235C317.792 169.864 318.06 169.336 318.105 168.767C318.15 168.198 317.968 167.634 317.598 167.199C317.228 166.765 316.701 166.495 316.132 166.449Z" fill="#458FF6"/>
<path d="M330.863 167.611L322.884 166.981C322.315 166.938 321.752 167.122 321.318 167.493C320.885 167.864 320.616 168.392 320.571 168.961C320.526 169.53 320.709 170.094 321.079 170.529C321.449 170.963 321.976 171.233 322.545 171.28L330.524 171.909C331.093 171.953 331.656 171.769 332.09 171.398C332.523 171.026 332.792 170.498 332.837 169.929C332.882 169.36 332.699 168.797 332.329 168.362C331.959 167.927 331.432 167.657 330.863 167.611Z" fill="#458FF6"/>
<path d="M187.123 133.341L187.021 134.647L348.612 147.346L348.714 146.04L187.123 133.341Z" fill="white"/>
<path d="M351.05 126.984L350.949 128.287L345.325 127.846L285.407 123.137L285.515 121.833L345.427 126.543L351.05 126.984Z" fill="#16245F"/>
<path d="M153.508 113.137C153.508 113.137 144.761 150.084 155.452 150.084C166.143 150.084 191.414 108.276 191.414 108.276L182.666 97.5808L166.966 119.387L166.143 108.276L153.508 113.137Z" fill="#A0616A"/>
<path d="M189.083 109.882C193.782 109.882 197.592 106.071 197.592 101.369C197.592 96.6675 193.782 92.8562 189.083 92.8562C184.383 92.8562 180.573 96.6675 180.573 101.369C180.573 106.071 184.383 109.882 189.083 109.882Z" fill="#A0616A"/>
<path d="M175.168 82.0244L169.336 76.1907C169.336 76.1907 157.673 82.9966 156.701 89.8026C155.729 96.6086 150.869 117.999 150.869 117.999L168.85 119.457L174.682 110.707L175.168 82.0244Z" fill="#E6E6E6"/>
</g>
<defs>
<linearGradient id="paint0_linear_711_6732" x1="92.996" y1="159.134" x2="21.5943" y2="-22.67" gradientUnits="userSpaceOnUse">
<stop/>
<stop offset="1" stop-color="white"/>
</linearGradient>
<linearGradient id="paint1_linear_711_6732" x1="92.996" y1="159.134" x2="21.5943" y2="-22.67" gradientUnits="userSpaceOnUse">
<stop stop-color="#97C3F9"/>
<stop offset="1" stop-color="#93C1F9"/>
</linearGradient>
<linearGradient id="paint2_linear_711_6732" x1="119.201" y1="148.843" x2="47.7991" y2="-32.9613" gradientUnits="userSpaceOnUse">
<stop/>
<stop offset="1" stop-color="white"/>
</linearGradient>
<linearGradient id="paint3_linear_711_6732" x1="119.201" y1="148.843" x2="47.7991" y2="-32.9613" gradientUnits="userSpaceOnUse">
<stop stop-color="#97C3F9"/>
<stop offset="1" stop-color="#93C1F9"/>
</linearGradient>
<linearGradient id="paint4_linear_711_6732" x1="145.405" y1="138.551" x2="74.0032" y2="-43.2526" gradientUnits="userSpaceOnUse">
<stop/>
<stop offset="1" stop-color="white"/>
</linearGradient>
<linearGradient id="paint5_linear_711_6732" x1="145.405" y1="138.551" x2="74.0032" y2="-43.2526" gradientUnits="userSpaceOnUse">
<stop stop-color="#97C3F9"/>
<stop offset="1" stop-color="#93C1F9"/>
</linearGradient>
<linearGradient id="paint6_linear_711_6732" x1="171.609" y1="128.259" x2="100.208" y2="-53.5444" gradientUnits="userSpaceOnUse">
<stop/>
<stop offset="1" stop-color="white"/>
</linearGradient>
<linearGradient id="paint7_linear_711_6732" x1="171.609" y1="128.259" x2="100.208" y2="-53.5444" gradientUnits="userSpaceOnUse">
<stop stop-color="#97C3F9"/>
<stop offset="1" stop-color="#93C1F9"/>
</linearGradient>
<linearGradient id="paint8_linear_711_6732" x1="197.813" y1="117.968" x2="126.412" y2="-63.8359" gradientUnits="userSpaceOnUse">
<stop/>
<stop offset="1" stop-color="white"/>
</linearGradient>
<linearGradient id="paint9_linear_711_6732" x1="197.813" y1="117.968" x2="126.412" y2="-63.8359" gradientUnits="userSpaceOnUse">
<stop stop-color="#97C3F9"/>
<stop offset="1" stop-color="#93C1F9"/>
</linearGradient>
<linearGradient id="paint10_linear_711_6732" x1="84.0538" y1="162.645" x2="12.6534" y2="-19.1572" gradientUnits="userSpaceOnUse">
<stop/>
<stop offset="1" stop-color="white"/>
</linearGradient>
<linearGradient id="paint11_linear_711_6732" x1="84.0538" y1="162.645" x2="12.6534" y2="-19.1572" gradientUnits="userSpaceOnUse">
<stop stop-color="#97C3F9"/>
<stop offset="1" stop-color="#93C1F9"/>
</linearGradient>
<linearGradient id="paint12_linear_711_6732" x1="110.258" y1="152.354" x2="38.8579" y2="-29.4491" gradientUnits="userSpaceOnUse">
<stop/>
<stop offset="1" stop-color="white"/>
</linearGradient>
<linearGradient id="paint13_linear_711_6732" x1="110.258" y1="152.354" x2="38.8579" y2="-29.4491" gradientUnits="userSpaceOnUse">
<stop stop-color="#97C3F9"/>
<stop offset="1" stop-color="#93C1F9"/>
</linearGradient>
<linearGradient id="paint14_linear_711_6732" x1="136.462" y1="142.062" x2="65.0619" y2="-39.7404" gradientUnits="userSpaceOnUse">
<stop/>
<stop offset="1" stop-color="white"/>
</linearGradient>
<linearGradient id="paint15_linear_711_6732" x1="136.462" y1="142.062" x2="65.0619" y2="-39.7404" gradientUnits="userSpaceOnUse">
<stop stop-color="#97C3F9"/>
<stop offset="1" stop-color="#93C1F9"/>
</linearGradient>
<linearGradient id="paint16_linear_711_6732" x1="162.667" y1="131.771" x2="91.2664" y2="-50.0318" gradientUnits="userSpaceOnUse">
<stop/>
<stop offset="1" stop-color="white"/>
</linearGradient>
<linearGradient id="paint17_linear_711_6732" x1="162.667" y1="131.771" x2="91.2664" y2="-50.0318" gradientUnits="userSpaceOnUse">
<stop stop-color="#97C3F9"/>
<stop offset="1" stop-color="#93C1F9"/>
</linearGradient>
<linearGradient id="paint18_linear_711_6732" x1="75.1113" y1="166.158" x2="3.70966" y2="-15.6457" gradientUnits="userSpaceOnUse">
<stop/>
<stop offset="1" stop-color="white"/>
</linearGradient>
<linearGradient id="paint19_linear_711_6732" x1="75.1113" y1="166.158" x2="3.70966" y2="-15.6457" gradientUnits="userSpaceOnUse">
<stop stop-color="#97C3F9"/>
<stop offset="1" stop-color="#93C1F9"/>
</linearGradient>
<linearGradient id="paint20_linear_711_6732" x1="101.316" y1="155.867" x2="29.9143" y2="-25.9373" gradientUnits="userSpaceOnUse">
<stop/>
<stop offset="1" stop-color="white"/>
</linearGradient>
<linearGradient id="paint21_linear_711_6732" x1="101.316" y1="155.867" x2="29.9143" y2="-25.9373" gradientUnits="userSpaceOnUse">
<stop stop-color="#97C3F9"/>
<stop offset="1" stop-color="#93C1F9"/>
</linearGradient>
<linearGradient id="paint22_linear_711_6732" x1="127.52" y1="145.575" x2="56.1184" y2="-36.2287" gradientUnits="userSpaceOnUse">
<stop/>
<stop offset="1" stop-color="white"/>
</linearGradient>
<linearGradient id="paint23_linear_711_6732" x1="127.52" y1="145.575" x2="56.1184" y2="-36.2287" gradientUnits="userSpaceOnUse">
<stop stop-color="#97C3F9"/>
<stop offset="1" stop-color="#93C1F9"/>
</linearGradient>
<linearGradient id="paint24_linear_711_6732" x1="153.724" y1="135.283" x2="82.3228" y2="-46.5204" gradientUnits="userSpaceOnUse">
<stop/>
<stop offset="1" stop-color="white"/>
</linearGradient>
<linearGradient id="paint25_linear_711_6732" x1="153.724" y1="135.283" x2="82.3228" y2="-46.5204" gradientUnits="userSpaceOnUse">
<stop stop-color="#97C3F9"/>
<stop offset="1" stop-color="#93C1F9"/>
</linearGradient>
<linearGradient id="paint26_linear_711_6732" x1="179.928" y1="124.992" x2="108.527" y2="-56.8119" gradientUnits="userSpaceOnUse">
<stop/>
<stop offset="1" stop-color="white"/>
</linearGradient>
<linearGradient id="paint27_linear_711_6732" x1="179.928" y1="124.992" x2="108.527" y2="-56.8119" gradientUnits="userSpaceOnUse">
<stop stop-color="#97C3F9"/>
<stop offset="1" stop-color="#93C1F9"/>
</linearGradient>
<linearGradient id="paint28_linear_711_6732" x1="188.871" y1="121.479" x2="117.47" y2="-60.3232" gradientUnits="userSpaceOnUse">
<stop/>
<stop offset="1" stop-color="white"/>
</linearGradient>
<linearGradient id="paint29_linear_711_6732" x1="188.871" y1="121.479" x2="117.47" y2="-60.3232" gradientUnits="userSpaceOnUse">
<stop stop-color="#97C3F9"/>
<stop offset="1" stop-color="#93C1F9"/>
</linearGradient>
<linearGradient id="paint30_linear_711_6732" x1="66.169" y1="169.67" x2="-5.23274" y2="-12.1338" gradientUnits="userSpaceOnUse">
<stop/>
<stop offset="1" stop-color="white"/>
</linearGradient>
<linearGradient id="paint31_linear_711_6732" x1="66.169" y1="169.67" x2="-5.23274" y2="-12.1338" gradientUnits="userSpaceOnUse">
<stop stop-color="#97C3F9"/>
<stop offset="1" stop-color="#93C1F9"/>
</linearGradient>
<linearGradient id="paint32_linear_711_6732" x1="92.3736" y1="159.379" x2="20.9719" y2="-22.4253" gradientUnits="userSpaceOnUse">
<stop/>
<stop offset="1" stop-color="white"/>
</linearGradient>
<linearGradient id="paint33_linear_711_6732" x1="92.3736" y1="159.379" x2="20.9719" y2="-22.4253" gradientUnits="userSpaceOnUse">
<stop stop-color="#97C3F9"/>
<stop offset="1" stop-color="#93C1F9"/>
</linearGradient>
<linearGradient id="paint34_linear_711_6732" x1="118.578" y1="149.087" x2="47.176" y2="-32.7167" gradientUnits="userSpaceOnUse">
<stop/>
<stop offset="1" stop-color="white"/>
</linearGradient>
<linearGradient id="paint35_linear_711_6732" x1="118.578" y1="149.087" x2="47.176" y2="-32.7167" gradientUnits="userSpaceOnUse">
<stop stop-color="#97C3F9"/>
<stop offset="1" stop-color="#93C1F9"/>
</linearGradient>
<linearGradient id="paint36_linear_711_6732" x1="144.782" y1="138.796" x2="73.3804" y2="-43.0083" gradientUnits="userSpaceOnUse">
<stop/>
<stop offset="1" stop-color="white"/>
</linearGradient>
<linearGradient id="paint37_linear_711_6732" x1="144.782" y1="138.796" x2="73.3804" y2="-43.0083" gradientUnits="userSpaceOnUse">
<stop stop-color="#97C3F9"/>
<stop offset="1" stop-color="#93C1F9"/>
</linearGradient>
<linearGradient id="paint38_linear_711_6732" x1="170.986" y1="128.504" x2="99.5845" y2="-53.2999" gradientUnits="userSpaceOnUse">
<stop/>
<stop offset="1" stop-color="white"/>
</linearGradient>
<linearGradient id="paint39_linear_711_6732" x1="170.986" y1="128.504" x2="99.5845" y2="-53.2999" gradientUnits="userSpaceOnUse">
<stop stop-color="#97C3F9"/>
<stop offset="1" stop-color="#93C1F9"/>
</linearGradient>
<linearGradient id="paint40_linear_711_6732" x1="57.2266" y1="173.182" x2="-14.1751" y2="-8.62195" gradientUnits="userSpaceOnUse">
<stop/>
<stop offset="1" stop-color="white"/>
</linearGradient>
<linearGradient id="paint41_linear_711_6732" x1="57.2266" y1="173.182" x2="-14.1751" y2="-8.62195" gradientUnits="userSpaceOnUse">
<stop stop-color="#97C3F9"/>
<stop offset="1" stop-color="#93C1F9"/>
</linearGradient>
<linearGradient id="paint42_linear_711_6732" x1="83.4312" y1="162.89" x2="12.0295" y2="-18.9135" gradientUnits="userSpaceOnUse">
<stop/>
<stop offset="1" stop-color="white"/>
</linearGradient>
<linearGradient id="paint43_linear_711_6732" x1="83.4312" y1="162.89" x2="12.0295" y2="-18.9135" gradientUnits="userSpaceOnUse">
<stop stop-color="#97C3F9"/>
<stop offset="1" stop-color="#93C1F9"/>
</linearGradient>
<linearGradient id="paint44_linear_711_6732" x1="109.635" y1="152.599" x2="38.2336" y2="-29.2048" gradientUnits="userSpaceOnUse">
<stop/>
<stop offset="1" stop-color="white"/>
</linearGradient>
<linearGradient id="paint45_linear_711_6732" x1="109.635" y1="152.599" x2="38.2336" y2="-29.2048" gradientUnits="userSpaceOnUse">
<stop stop-color="#97C3F9"/>
<stop offset="1" stop-color="#93C1F9"/>
</linearGradient>
<linearGradient id="paint46_linear_711_6732" x1="135.84" y1="142.307" x2="64.4381" y2="-39.4964" gradientUnits="userSpaceOnUse">
<stop/>
<stop offset="1" stop-color="white"/>
</linearGradient>
<linearGradient id="paint47_linear_711_6732" x1="135.84" y1="142.307" x2="64.4381" y2="-39.4964" gradientUnits="userSpaceOnUse">
<stop stop-color="#97C3F9"/>
<stop offset="1" stop-color="#93C1F9"/>
</linearGradient>
<linearGradient id="paint48_linear_711_6732" x1="162.044" y1="132.016" x2="90.6421" y2="-49.7879" gradientUnits="userSpaceOnUse">
<stop/>
<stop offset="1" stop-color="white"/>
</linearGradient>
<linearGradient id="paint49_linear_711_6732" x1="162.044" y1="132.016" x2="90.6421" y2="-49.7879" gradientUnits="userSpaceOnUse">
<stop stop-color="#97C3F9"/>
<stop offset="1" stop-color="#93C1F9"/>
</linearGradient>
<clipPath id="clip0_711_6732">
<rect width="592" height="384" fill="white"/>
</clipPath>
</defs>
</svg>
