<svg width="646" height="406" viewBox="0 0 646 406" fill="none" xmlns="http://www.w3.org/2000/svg">
<g clip-path="url(#clip0_702_4616)">
<path d="M646 166.748H644.909V136.863C644.909 134.592 644.462 132.342 643.592 130.244C642.723 128.145 641.449 126.239 639.842 124.632C638.236 123.026 636.329 121.752 634.23 120.883C632.132 120.014 629.882 119.566 627.611 119.566H564.29C562.018 119.566 559.769 120.014 557.67 120.883C555.571 121.752 553.664 123.026 552.058 124.632C550.452 126.239 549.178 128.145 548.308 130.244C547.439 132.342 546.991 134.592 546.991 136.863V300.815C546.991 303.086 547.439 305.335 548.308 307.434C549.178 309.532 550.452 311.439 552.058 313.045C553.664 314.651 555.571 315.926 557.67 316.795C559.769 317.664 562.018 318.111 564.29 318.111H627.611C629.882 318.111 632.132 317.664 634.23 316.795C636.329 315.926 638.236 314.651 639.842 313.045C641.449 311.439 642.723 309.532 643.592 307.434C644.462 305.335 644.909 303.086 644.909 300.815V188.021H646V166.748Z" fill="#16245F"/>
<path d="M641.228 137.88V301.593C641.228 305.019 639.867 308.305 637.444 310.728C635.021 313.15 631.735 314.511 628.308 314.512H564.683C562.986 314.511 561.307 314.177 559.739 313.528C558.172 312.878 556.748 311.927 555.549 310.727C554.35 309.527 553.399 308.103 552.75 306.536C552.101 304.969 551.768 303.289 551.768 301.593V137.88C551.768 134.455 553.129 131.17 555.551 128.749C557.973 126.327 561.258 124.967 564.683 124.967H572.402C572.023 125.898 571.879 126.909 571.982 127.909C572.085 128.91 572.433 129.869 572.994 130.704C573.555 131.539 574.313 132.223 575.2 132.696C576.088 133.17 577.078 133.418 578.084 133.419H614.361C615.368 133.421 616.36 133.174 617.249 132.702C618.138 132.229 618.897 131.545 619.459 130.709C620.02 129.874 620.367 128.913 620.469 127.911C620.571 126.909 620.425 125.898 620.043 124.967H628.308C631.734 124.966 635.019 126.327 637.442 128.748C639.865 131.17 641.227 134.454 641.228 137.88Z" fill="#C9E2FF"/>
<path d="M629.183 208.783H555.22V228.74H629.183V208.783Z" fill="#458FF6"/>
<path d="M632.118 225.218H560.503C560.036 225.218 559.589 225.032 559.258 224.702C558.928 224.372 558.743 223.924 558.742 223.457V205.849C558.743 205.382 558.928 204.934 559.258 204.604C559.589 204.274 560.036 204.088 560.503 204.088H632.118C632.585 204.088 633.032 204.274 633.362 204.604C633.693 204.934 633.878 205.382 633.879 205.849V223.457C633.878 223.924 633.693 224.372 633.362 224.702C633.032 225.032 632.585 225.218 632.118 225.218ZM560.503 205.262C560.347 205.262 560.198 205.324 560.088 205.434C559.978 205.544 559.916 205.693 559.916 205.849V223.457C559.916 223.613 559.978 223.762 560.088 223.872C560.198 223.982 560.347 224.044 560.503 224.044H632.118C632.273 224.044 632.423 223.982 632.533 223.872C632.643 223.762 632.705 223.613 632.705 223.457V205.849C632.705 205.693 632.643 205.544 632.533 205.434C632.423 205.324 632.273 205.262 632.118 205.262H560.503Z" fill="#16245F"/>
<path d="M572.83 219.936H563.438V221.109H572.83V219.936Z" fill="#16245F"/>
<path d="M585.744 219.936H576.352V221.109H585.744V219.936Z" fill="#16245F"/>
<path d="M598.658 219.936H589.266V221.109H598.658V219.936Z" fill="#16245F"/>
<path d="M611.573 219.936H602.18V221.109H611.573V219.936Z" fill="#16245F"/>
<path d="M624.487 219.936H615.094V221.109H624.487V219.936Z" fill="#16245F"/>
<path opacity="0.1" d="M641.228 284.947V301.593C641.228 305.019 639.867 308.305 637.444 310.727C635.021 313.15 631.735 314.511 628.308 314.512H564.683C562.986 314.511 561.307 314.177 559.739 313.528C558.172 312.878 556.748 311.927 555.549 310.727C554.35 309.527 553.399 308.103 552.75 306.536C552.101 304.969 551.768 303.289 551.768 301.593V225.019L641.228 284.947Z" fill="black"/>
<path d="M336.267 269.827H58.6133V406H336.267V269.827Z" fill="#C9E2FF"/>
<path opacity="0.1" d="M265.68 406H59.7873C59.4762 405.999 59.1781 405.875 58.9582 405.655C58.7382 405.435 58.6142 405.137 58.6133 404.826V271.001C58.6142 270.69 58.7382 270.391 58.9581 270.172C59.1781 269.952 59.4762 269.828 59.7873 269.827H62.3936L265.68 406Z" fill="black"/>
<path d="M617.442 288.022H187.167V289.196H617.442V288.022Z" fill="#16245F"/>
<path d="M323.201 2.53432H200.23V0H144.469V2.53432H20.9908C19.8985 2.53432 18.8168 2.74946 17.8076 3.16745C16.7984 3.58543 15.8815 4.19809 15.109 4.97043C14.3366 5.74276 13.7239 6.65966 13.3059 7.66877C12.8879 8.67788 12.6727 9.75944 12.6727 10.8517V179.223C12.6727 181.429 13.5491 183.544 15.109 185.104C16.669 186.664 18.7847 187.54 20.9908 187.54H323.201C325.407 187.54 327.523 186.664 329.083 185.104C330.643 183.544 331.519 181.429 331.519 179.223V10.8517C331.519 9.75944 331.304 8.67788 330.886 7.66877C330.468 6.65966 329.855 5.74276 329.083 4.97043C328.311 4.19809 327.394 3.58543 326.384 3.16745C325.375 2.74946 324.293 2.53432 323.201 2.53432Z" fill="#16245F"/>
<path d="M320.365 17.2312H23.8273V184.501H320.365V17.2312Z" fill="#C9E2FF"/>
<path d="M171.843 12.6717C173.522 12.6717 174.884 11.3102 174.884 9.63055C174.884 7.95094 173.522 6.58936 171.843 6.58936C170.163 6.58936 168.801 7.95094 168.801 9.63055C168.801 11.3102 170.163 12.6717 171.843 12.6717Z" fill="#458FF6"/>
<path d="M112.031 79.6535H104.987C104.52 79.653 104.072 79.4674 103.742 79.1372C103.412 78.8071 103.226 78.3595 103.226 77.8927V70.8492C103.226 70.3824 103.412 69.9348 103.742 69.6047C104.072 69.2746 104.52 69.0889 104.987 69.0884H112.031C112.498 69.0889 112.945 69.2746 113.275 69.6047C113.606 69.9348 113.791 70.3824 113.792 70.8492V77.8927C113.791 78.3595 113.606 78.8071 113.275 79.1372C112.945 79.4674 112.498 79.653 112.031 79.6535ZM104.987 70.2623C104.831 70.2625 104.682 70.3244 104.572 70.4344C104.462 70.5445 104.4 70.6936 104.4 70.8492V77.8927C104.4 78.0483 104.462 78.1975 104.572 78.3075C104.682 78.4175 104.831 78.4794 104.987 78.4796H112.031C112.186 78.4794 112.336 78.4175 112.446 78.3075C112.556 78.1975 112.618 78.0483 112.618 77.8927V70.8492C112.618 70.6936 112.556 70.5445 112.446 70.4344C112.336 70.3244 112.186 70.2625 112.031 70.2623H104.987Z" fill="#16245F"/>
<path d="M237.65 78.4797H103.813V79.6536H237.65V78.4797Z" fill="#16245F"/>
<path d="M234.128 110.762H203.017V120.153H234.128V110.762Z" fill="#458FF6"/>
<path d="M236.476 117.806H207.713C207.246 117.805 206.798 117.619 206.468 117.289C206.138 116.959 205.952 116.512 205.952 116.045V109.001C205.952 108.534 206.138 108.087 206.468 107.757C206.798 107.427 207.246 107.241 207.713 107.24H236.476C236.943 107.241 237.39 107.427 237.721 107.757C238.051 108.087 238.236 108.534 238.237 109.001V116.045C238.236 116.512 238.051 116.959 237.721 117.289C237.39 117.619 236.943 117.805 236.476 117.806ZM207.713 108.414C207.557 108.415 207.408 108.476 207.298 108.587C207.188 108.697 207.126 108.846 207.126 109.001V116.045C207.126 116.2 207.188 116.35 207.298 116.46C207.408 116.57 207.557 116.632 207.713 116.632H236.476C236.632 116.632 236.781 116.57 236.891 116.46C237.001 116.35 237.063 116.2 237.063 116.045V109.001C237.063 108.846 237.001 108.697 236.891 108.587C236.781 108.476 236.632 108.415 236.476 108.414H207.713Z" fill="#16245F"/>
<path d="M471.865 121.327H413.165V162.414H471.865V121.327Z" fill="#458FF6"/>
<path d="M477.735 159.186H421.383C420.76 159.185 420.163 158.938 419.723 158.497C419.283 158.057 419.035 157.46 419.035 156.838V118.099C419.035 117.477 419.283 116.88 419.723 116.44C420.163 115.999 420.76 115.752 421.383 115.751H477.735C478.358 115.752 478.955 115.999 479.395 116.44C479.835 116.88 480.083 117.477 480.083 118.099V156.838C480.083 157.46 479.835 158.057 479.395 158.497C478.955 158.938 478.358 159.185 477.735 159.186ZM421.383 118.099V156.838H477.737L477.735 118.099H421.383Z" fill="#16245F"/>
<path d="M471.278 116.632H468.93C468.93 111.495 466.889 106.568 463.257 102.936C459.624 99.3031 454.697 97.2624 449.559 97.2624C444.421 97.2624 439.494 99.3031 435.862 102.936C432.229 106.568 430.188 111.495 430.188 116.632H427.84C427.84 110.872 430.128 105.348 434.201 101.275C438.274 97.2026 443.799 94.9146 449.559 94.9146C455.319 94.9146 460.844 97.2026 464.917 101.275C468.99 105.348 471.278 110.872 471.278 116.632Z" fill="#16245F"/>
<path d="M455.429 132.773C455.43 131.751 455.164 130.746 454.658 129.858C454.152 128.971 453.422 128.23 452.542 127.711C451.661 127.192 450.661 126.911 449.639 126.897C448.616 126.883 447.608 127.137 446.714 127.632C445.82 128.127 445.071 128.847 444.541 129.721C444.01 130.595 443.717 131.592 443.691 132.614C443.664 133.636 443.905 134.646 444.389 135.547C444.873 136.447 445.584 137.205 446.451 137.746V144.046C446.451 144.454 446.532 144.858 446.688 145.235C446.844 145.612 447.073 145.955 447.362 146.243C447.65 146.532 447.993 146.761 448.37 146.917C448.747 147.073 449.151 147.153 449.559 147.153C450.383 147.153 451.174 146.826 451.756 146.243C452.339 145.66 452.667 144.87 452.667 144.046V137.746C453.512 137.22 454.209 136.487 454.692 135.617C455.175 134.747 455.429 133.768 455.429 132.773Z" fill="#16245F"/>
<path d="M176.308 330.283H166.916V331.457H176.308V330.283Z" fill="#16245F"/>
<path d="M189.222 330.283H179.83V331.457H189.222V330.283Z" fill="#16245F"/>
<path d="M202.136 330.283H192.744V331.457H202.136V330.283Z" fill="#16245F"/>
<path d="M215.05 330.283H205.658V331.457H215.05V330.283Z" fill="#16245F"/>
<path d="M227.964 330.283H218.572V331.457H227.964V330.283Z" fill="#16245F"/>
<path d="M348.594 396.022H73.2885C72.6659 396.021 72.0691 395.774 71.6289 395.333C71.1887 394.893 70.9411 394.296 70.9404 393.674V259.849C70.9411 259.226 71.1887 258.629 71.6289 258.189C72.0691 257.749 72.6659 257.501 73.2885 257.501H348.594C349.216 257.501 349.813 257.749 350.253 258.189C350.694 258.629 350.941 259.226 350.942 259.849V393.674C350.941 394.297 350.694 394.893 350.253 395.333C349.813 395.774 349.216 396.021 348.594 396.022ZM73.2885 259.849V393.674H348.595L348.594 259.849H73.2885Z" fill="#16245F"/>
<path d="M85.6155 279.805C87.5607 279.805 89.1376 278.228 89.1376 276.283C89.1376 274.338 87.5607 272.761 85.6155 272.761C83.6704 272.761 82.0935 274.338 82.0935 276.283C82.0935 278.228 83.6704 279.805 85.6155 279.805Z" fill="#16245F"/>
<path d="M97.9426 279.805C99.8878 279.805 101.465 278.228 101.465 276.283C101.465 274.338 99.8878 272.761 97.9426 272.761C95.9975 272.761 94.4206 274.338 94.4206 276.283C94.4206 278.228 95.9975 279.805 97.9426 279.805Z" fill="#16245F"/>
<path d="M110.27 279.805C112.215 279.805 113.792 278.228 113.792 276.283C113.792 274.338 112.215 272.761 110.27 272.761C108.325 272.761 106.748 274.338 106.748 276.283C106.748 278.228 108.325 279.805 110.27 279.805Z" fill="#16245F"/>
<path d="M237.063 338.5H157.817C157.35 338.5 156.903 338.314 156.573 337.984C156.242 337.654 156.057 337.206 156.056 336.739V316.783C156.057 316.316 156.242 315.869 156.573 315.538C156.903 315.208 157.35 315.023 157.817 315.022H237.063C237.53 315.023 237.978 315.208 238.308 315.538C238.638 315.869 238.823 316.316 238.824 316.783V336.739C238.823 337.206 238.638 337.654 238.308 337.984C237.978 338.314 237.53 338.5 237.063 338.5ZM157.817 316.196C157.662 316.196 157.512 316.258 157.402 316.368C157.292 316.478 157.23 316.627 157.23 316.783V336.739C157.23 336.895 157.292 337.044 157.402 337.154C157.512 337.264 157.662 337.326 157.817 337.326H237.063C237.219 337.326 237.368 337.264 237.478 337.154C237.588 337.044 237.65 336.895 237.65 336.739V316.783C237.65 316.627 237.588 316.478 237.478 316.368C237.368 316.258 237.219 316.196 237.063 316.196H157.817Z" fill="#16245F"/>
<path d="M257.021 339.087C262.857 339.087 267.587 334.357 267.587 328.522C267.587 322.687 262.857 317.957 257.021 317.957C251.186 317.957 246.455 322.687 246.455 328.522C246.455 334.357 251.186 339.087 257.021 339.087Z" fill="#458FF6"/>
<path d="M260.543 337.913C258.337 337.913 256.181 337.259 254.347 336.034C252.513 334.808 251.083 333.067 250.239 331.029C249.395 328.991 249.174 326.749 249.604 324.586C250.035 322.422 251.097 320.435 252.657 318.876C254.217 317.316 256.204 316.254 258.367 315.823C260.531 315.393 262.773 315.614 264.811 316.458C266.849 317.302 268.591 318.731 269.817 320.565C271.042 322.399 271.696 324.556 271.696 326.761C271.693 329.718 270.517 332.553 268.426 334.643C266.335 336.734 263.5 337.91 260.543 337.913ZM260.543 316.783C258.57 316.783 256.64 317.368 254.999 318.465C253.358 319.561 252.079 321.119 251.324 322.943C250.568 324.766 250.371 326.772 250.756 328.708C251.141 330.643 252.091 332.421 253.487 333.817C254.882 335.212 256.661 336.163 258.596 336.548C260.532 336.933 262.539 336.735 264.362 335.98C266.185 335.225 267.744 333.946 268.841 332.305C269.937 330.664 270.522 328.735 270.522 326.761C270.519 324.116 269.467 321.579 267.596 319.709C265.725 317.838 263.189 316.786 260.543 316.783Z" fill="#16245F"/>
<path d="M260.7 330.926L255.017 325.243L256.677 323.584L260.386 327.292L270.736 312.585L272.656 313.937L260.7 330.926Z" fill="#16245F"/>
<path opacity="0.1" d="M254.62 184.501H23.8271V29.9036L254.62 184.501Z" fill="black"/>
<path d="M339.846 181.458H310.905V179.373C310.905 179.319 310.894 179.265 310.873 179.215C310.853 179.165 310.822 179.119 310.784 179.081C310.745 179.042 310.7 179.012 310.65 178.991C310.6 178.97 310.546 178.959 310.491 178.959H300.569C300.515 178.959 300.461 178.97 300.411 178.991C300.361 179.012 300.315 179.042 300.277 179.081C300.238 179.119 300.208 179.165 300.187 179.215C300.166 179.265 300.156 179.319 300.156 179.373V181.458H293.954V179.373C293.954 179.319 293.943 179.265 293.923 179.215C293.902 179.165 293.871 179.119 293.833 179.081C293.794 179.042 293.749 179.012 293.699 178.991C293.649 178.97 293.595 178.959 293.541 178.959H283.618C283.564 178.959 283.51 178.97 283.46 178.991C283.41 179.012 283.364 179.042 283.326 179.081C283.287 179.119 283.257 179.165 283.236 179.215C283.215 179.265 283.205 179.319 283.205 179.373V181.458H277.003V179.373C277.003 179.319 276.992 179.265 276.972 179.215C276.951 179.165 276.92 179.119 276.882 179.081C276.844 179.042 276.798 179.012 276.748 178.991C276.698 178.97 276.644 178.959 276.59 178.959H266.667C266.613 178.959 266.559 178.97 266.509 178.991C266.459 179.012 266.413 179.042 266.375 179.081C266.336 179.119 266.306 179.165 266.285 179.215C266.264 179.265 266.254 179.319 266.254 179.373V181.458H260.052V179.373C260.052 179.319 260.041 179.265 260.021 179.215C260 179.165 259.969 179.119 259.931 179.081C259.893 179.042 259.847 179.012 259.797 178.991C259.747 178.97 259.693 178.959 259.639 178.959H249.716C249.662 178.959 249.608 178.97 249.558 178.991C249.508 179.012 249.462 179.042 249.424 179.081C249.385 179.119 249.355 179.165 249.334 179.215C249.313 179.265 249.303 179.319 249.303 179.373V181.458H243.101V179.373C243.101 179.319 243.09 179.265 243.07 179.215C243.049 179.165 243.018 179.119 242.98 179.081C242.942 179.042 242.896 179.012 242.846 178.991C242.796 178.97 242.742 178.959 242.688 178.959H232.765C232.711 178.959 232.657 178.97 232.607 178.991C232.557 179.012 232.511 179.042 232.473 179.081C232.435 179.119 232.404 179.165 232.383 179.215C232.363 179.265 232.352 179.319 232.352 179.373V181.458H226.15V179.373C226.15 179.319 226.14 179.265 226.119 179.215C226.098 179.165 226.068 179.119 226.029 179.081C225.991 179.042 225.945 179.012 225.895 178.991C225.845 178.97 225.791 178.959 225.737 178.959H215.814C215.76 178.959 215.706 178.97 215.656 178.991C215.606 179.012 215.56 179.042 215.522 179.081C215.484 179.119 215.453 179.165 215.432 179.215C215.412 179.265 215.401 179.319 215.401 179.373V181.458H209.199V179.373C209.199 179.319 209.189 179.265 209.168 179.215C209.147 179.165 209.117 179.119 209.078 179.081C209.04 179.042 208.994 179.012 208.944 178.991C208.894 178.97 208.84 178.959 208.786 178.959H131.06C131.005 178.959 130.952 178.97 130.901 178.991C130.851 179.012 130.806 179.042 130.767 179.081C130.729 179.119 130.698 179.165 130.678 179.215C130.657 179.265 130.646 179.319 130.646 179.373V181.458H124.445V179.373C124.445 179.319 124.434 179.265 124.413 179.215C124.392 179.165 124.362 179.119 124.324 179.081C124.285 179.042 124.24 179.012 124.189 178.991C124.139 178.97 124.086 178.959 124.031 178.959H114.109C114.054 178.959 114.001 178.97 113.951 178.991C113.9 179.012 113.855 179.042 113.816 179.081C113.778 179.119 113.748 179.165 113.727 179.215C113.706 179.265 113.695 179.319 113.695 179.373V181.458H107.494V179.373C107.494 179.319 107.483 179.265 107.462 179.215C107.441 179.165 107.411 179.119 107.373 179.081C107.334 179.042 107.289 179.012 107.238 178.991C107.188 178.97 107.135 178.959 107.08 178.959H97.1578C97.1035 178.959 97.0497 178.97 96.9996 178.991C96.9494 179.012 96.9038 179.042 96.8654 179.081C96.827 179.119 96.7966 179.165 96.7758 179.215C96.755 179.265 96.7443 179.319 96.7443 179.373V181.458H90.5428V179.373C90.5428 179.319 90.5321 179.265 90.5113 179.215C90.4905 179.165 90.4601 179.119 90.4217 179.081C90.3833 179.042 90.3377 179.012 90.2876 178.991C90.2374 178.97 90.1836 178.959 90.1293 178.959H80.2069C80.1526 178.959 80.0988 178.97 80.0486 178.991C79.9985 179.012 79.9529 179.042 79.9145 179.081C79.8761 179.119 79.8457 179.165 79.8249 179.215C79.8041 179.265 79.7934 179.319 79.7934 179.373V181.458H73.5919V179.373C73.5919 179.319 73.5812 179.265 73.5604 179.215C73.5396 179.165 73.5092 179.119 73.4708 179.081C73.4324 179.042 73.3868 179.012 73.3366 178.991C73.2865 178.97 73.2327 178.959 73.1784 178.959H63.2559C63.2016 178.959 63.1479 178.97 63.0977 178.991C63.0475 179.012 63.0019 179.042 62.9636 179.081C62.9252 179.119 62.8947 179.165 62.8739 179.215C62.8532 179.265 62.8425 179.319 62.8425 179.373V181.458H56.6409V179.373C56.6409 179.319 56.6302 179.265 56.6095 179.215C56.5887 179.165 56.5582 179.119 56.5199 179.081C56.4815 179.042 56.4359 179.012 56.3857 178.991C56.3356 178.97 56.2818 178.959 56.2275 178.959H46.305C46.2507 178.959 46.1969 178.97 46.1468 178.991C46.0966 179.012 46.051 179.042 46.0126 179.081C45.9743 179.119 45.9438 179.165 45.923 179.215C45.9022 179.265 45.8915 179.319 45.8915 179.373V181.458H39.69V179.373C39.69 179.319 39.6793 179.265 39.6585 179.215C39.6377 179.165 39.6073 179.119 39.5689 179.081C39.5305 179.042 39.4849 179.012 39.4348 178.991C39.3846 178.97 39.3308 178.959 39.2765 178.959H29.3541C29.2998 178.959 29.246 178.97 29.1958 178.991C29.1457 179.012 29.1001 179.042 29.0617 179.081C29.0233 179.119 28.9929 179.165 28.9721 179.215C28.9513 179.265 28.9406 179.319 28.9406 179.373V181.458H9.92249C8.61945 181.458 7.32917 181.714 6.12532 182.213C4.92147 182.712 3.82762 183.443 2.90623 184.364C1.98484 185.285 1.25395 186.379 0.755303 187.583C0.256651 188.786 -7.70865e-07 190.077 0 191.379V195.866C6.22733e-06 198.497 1.04541 201.021 2.90624 202.881C4.76707 204.742 7.29089 205.787 9.92249 205.787H339.846C341.149 205.787 342.439 205.531 343.643 205.032C344.847 204.534 345.94 203.803 346.862 202.881C347.783 201.96 348.514 200.866 349.013 199.663C349.511 198.459 349.768 197.169 349.768 195.866V191.379C349.768 190.077 349.511 188.786 349.013 187.583C348.514 186.379 347.783 185.285 346.862 184.364C345.94 183.442 344.847 182.712 343.643 182.213C342.439 181.714 341.149 181.458 339.846 181.458Z" fill="#16245F"/>
<path d="M249.39 127.784H94.4206C93.9537 127.783 93.5061 127.598 93.176 127.268C92.8458 126.937 92.6601 126.49 92.6596 126.023V61.4581C92.6601 60.9913 92.8458 60.5437 93.176 60.2136C93.5061 59.8835 93.9537 59.6978 94.4206 59.6973H249.39C249.857 59.6978 250.305 59.8835 250.635 60.2136C250.965 60.5437 251.151 60.9913 251.151 61.4581V126.023C251.151 126.49 250.965 126.937 250.635 127.268C250.305 127.598 249.857 127.783 249.39 127.784ZM94.4206 60.8712C94.265 60.8714 94.1158 60.9333 94.0058 61.0433C93.8957 61.1533 93.8338 61.3025 93.8336 61.4581V126.023C93.8338 126.179 93.8957 126.328 94.0058 126.438C94.1158 126.548 94.265 126.61 94.4206 126.61H249.39C249.546 126.61 249.695 126.548 249.805 126.438C249.915 126.328 249.977 126.179 249.977 126.023V61.4581C249.977 61.3025 249.915 61.1533 249.805 61.0433C249.695 60.9333 249.546 60.8714 249.39 60.8712H94.4206Z" fill="#16245F"/>
<path d="M112.031 97.2622H104.987C104.52 97.2617 104.072 97.076 103.742 96.7459C103.412 96.4158 103.226 95.9682 103.226 95.5013V88.4579C103.226 87.991 103.412 87.5434 103.742 87.2133C104.072 86.8832 104.52 86.6975 104.987 86.697H112.031C112.498 86.6975 112.945 86.8832 113.275 87.2133C113.606 87.5434 113.791 87.991 113.792 88.4579V95.5013C113.791 95.9682 113.606 96.4158 113.275 96.7459C112.945 97.076 112.498 97.2617 112.031 97.2622ZM104.987 87.8709C104.831 87.8711 104.682 87.933 104.572 88.0431C104.462 88.1531 104.4 88.3023 104.4 88.4579V95.5013C104.4 95.6569 104.462 95.8061 104.572 95.9162C104.682 96.0262 104.831 96.0881 104.987 96.0883H112.031C112.186 96.0881 112.336 96.0262 112.446 95.9162C112.556 95.8061 112.618 95.6569 112.618 95.5013V88.4579C112.618 88.3023 112.556 88.1531 112.446 88.0431C112.336 87.933 112.186 87.8711 112.031 87.8709H104.987Z" fill="#16245F"/>
<path d="M237.65 96.0884H103.813V97.2623H237.65V96.0884Z" fill="#16245F"/>
<path d="M585.744 158.305H155.469V159.479H585.744V158.305Z" fill="#16245F"/>
<path d="M155.469 166.523C160.008 166.523 163.687 162.844 163.687 158.305C163.687 153.767 160.008 150.088 155.469 150.088C150.93 150.088 147.251 153.767 147.251 158.305C147.251 162.844 150.93 166.523 155.469 166.523Z" fill="#16245F"/>
<path d="M585.744 165.936C589.31 165.936 592.201 163.045 592.201 159.479C592.201 155.913 589.31 153.023 585.744 153.023C582.178 153.023 579.287 155.913 579.287 159.479C579.287 163.045 582.178 165.936 585.744 165.936Z" fill="#16245F"/>
<path d="M617.443 295.653C621.009 295.653 623.9 292.762 623.9 289.196C623.9 285.63 621.009 282.74 617.443 282.74C613.877 282.74 610.986 285.63 610.986 289.196C610.986 292.762 613.877 295.653 617.443 295.653Z" fill="#16245F"/>
<path d="M188.928 295.653C192.495 295.653 195.386 292.762 195.386 289.196C195.386 285.63 192.495 282.74 188.928 282.74C185.362 282.74 182.471 285.63 182.471 289.196C182.471 292.762 185.362 295.653 188.928 295.653Z" fill="#16245F"/>
</g>
<defs>
<clipPath id="clip0_702_4616">
<rect width="646" height="406" fill="white"/>
</clipPath>
</defs>
</svg>
