<svg width="671" height="431" viewBox="0 0 671 431" fill="none" xmlns="http://www.w3.org/2000/svg">
<g opacity="0.3">
<mask id="mask0_996_4540" style="mask-type:alpha" maskUnits="userSpaceOnUse" x="518" y="22" width="11" height="11">
<path d="M523.228 32.425C526.116 32.425 528.457 30.0912 528.457 27.2124C528.457 24.3337 526.116 22 523.228 22C520.341 22 518 24.3337 518 27.2124C518 30.0912 520.341 32.425 523.228 32.425Z" fill="url(#paint0_linear_996_4540)"/>
</mask>
<g mask="url(#mask0_996_4540)">
<path d="M523.228 32.425C526.116 32.425 528.457 30.0912 528.457 27.2124C528.457 24.3337 526.116 22 523.228 22C520.341 22 518 24.3337 518 27.2124C518 30.0912 520.341 32.425 523.228 32.425Z" fill="url(#paint1_linear_996_4540)"/>
</g>
<mask id="mask1_996_4540" style="mask-type:alpha" maskUnits="userSpaceOnUse" x="548" y="22" width="11" height="11">
<path d="M553.509 32.425C556.397 32.425 558.738 30.0912 558.738 27.2124C558.738 24.3337 556.397 22 553.509 22C550.622 22 548.281 24.3337 548.281 27.2124C548.281 30.0912 550.622 32.425 553.509 32.425Z" fill="url(#paint2_linear_996_4540)"/>
</mask>
<g mask="url(#mask1_996_4540)">
<path d="M553.509 32.425C556.397 32.425 558.738 30.0912 558.738 27.2124C558.738 24.3337 556.397 22 553.509 22C550.622 22 548.281 24.3337 548.281 27.2124C548.281 30.0912 550.622 32.425 553.509 32.425Z" fill="url(#paint3_linear_996_4540)"/>
</g>
<mask id="mask2_996_4540" style="mask-type:alpha" maskUnits="userSpaceOnUse" x="578" y="22" width="12" height="11">
<path d="M583.791 32.425C586.678 32.425 589.019 30.0912 589.019 27.2124C589.019 24.3337 586.678 22 583.791 22C580.903 22 578.562 24.3337 578.562 27.2124C578.562 30.0912 580.903 32.425 583.791 32.425Z" fill="url(#paint4_linear_996_4540)"/>
</mask>
<g mask="url(#mask2_996_4540)">
<path d="M583.791 32.425C586.678 32.425 589.019 30.0912 589.019 27.2124C589.019 24.3337 586.678 22 583.791 22C580.903 22 578.562 24.3337 578.562 27.2124C578.562 30.0912 580.903 32.425 583.791 32.425Z" fill="url(#paint5_linear_996_4540)"/>
</g>
<mask id="mask3_996_4540" style="mask-type:alpha" maskUnits="userSpaceOnUse" x="608" y="22" width="12" height="11">
<path d="M614.072 32.425C616.959 32.425 619.3 30.0912 619.3 27.2124C619.3 24.3337 616.959 22 614.072 22C611.184 22 608.843 24.3337 608.843 27.2124C608.843 30.0912 611.184 32.425 614.072 32.425Z" fill="url(#paint6_linear_996_4540)"/>
</mask>
<g mask="url(#mask3_996_4540)">
<path d="M614.072 32.425C616.959 32.425 619.3 30.0912 619.3 27.2124C619.3 24.3337 616.959 22 614.072 22C611.184 22 608.843 24.3337 608.843 27.2124C608.843 30.0912 611.184 32.425 614.072 32.425Z" fill="url(#paint7_linear_996_4540)"/>
</g>
<mask id="mask4_996_4540" style="mask-type:alpha" maskUnits="userSpaceOnUse" x="639" y="22" width="11" height="11">
<path d="M644.353 32.425C647.24 32.425 649.581 30.0912 649.581 27.2124C649.581 24.3337 647.24 22 644.353 22C641.465 22 639.124 24.3337 639.124 27.2124C639.124 30.0912 641.465 32.425 644.353 32.425Z" fill="url(#paint8_linear_996_4540)"/>
</mask>
<g mask="url(#mask4_996_4540)">
<path d="M644.353 32.425C647.24 32.425 649.581 30.0912 649.581 27.2124C649.581 24.3337 647.24 22 644.353 22C641.465 22 639.124 24.3337 639.124 27.2124C639.124 30.0912 641.465 32.425 644.353 32.425Z" fill="url(#paint9_linear_996_4540)"/>
</g>
<mask id="mask5_996_4540" style="mask-type:alpha" maskUnits="userSpaceOnUse" x="518" y="48" width="11" height="11">
<path d="M523.228 58.5958C526.116 58.5958 528.457 56.2621 528.457 53.3833C528.457 50.5046 526.116 48.1709 523.228 48.1709C520.341 48.1709 518 50.5046 518 53.3833C518 56.2621 520.341 58.5958 523.228 58.5958Z" fill="url(#paint10_linear_996_4540)"/>
</mask>
<g mask="url(#mask5_996_4540)">
<path d="M523.228 58.5958C526.116 58.5958 528.457 56.2621 528.457 53.3833C528.457 50.5046 526.116 48.1709 523.228 48.1709C520.341 48.1709 518 50.5046 518 53.3833C518 56.2621 520.341 58.5958 523.228 58.5958Z" fill="url(#paint11_linear_996_4540)"/>
</g>
<mask id="mask6_996_4540" style="mask-type:alpha" maskUnits="userSpaceOnUse" x="548" y="48" width="11" height="11">
<path d="M553.509 58.5958C556.397 58.5958 558.738 56.2621 558.738 53.3833C558.738 50.5046 556.397 48.1709 553.509 48.1709C550.622 48.1709 548.281 50.5046 548.281 53.3833C548.281 56.2621 550.622 58.5958 553.509 58.5958Z" fill="url(#paint12_linear_996_4540)"/>
</mask>
<g mask="url(#mask6_996_4540)">
<path d="M553.509 58.5958C556.397 58.5958 558.738 56.2621 558.738 53.3833C558.738 50.5046 556.397 48.1709 553.509 48.1709C550.622 48.1709 548.281 50.5046 548.281 53.3833C548.281 56.2621 550.622 58.5958 553.509 58.5958Z" fill="url(#paint13_linear_996_4540)"/>
</g>
<mask id="mask7_996_4540" style="mask-type:alpha" maskUnits="userSpaceOnUse" x="578" y="48" width="12" height="11">
<path d="M583.791 58.5958C586.678 58.5958 589.019 56.2621 589.019 53.3833C589.019 50.5046 586.678 48.1709 583.791 48.1709C580.903 48.1709 578.562 50.5046 578.562 53.3833C578.562 56.2621 580.903 58.5958 583.791 58.5958Z" fill="url(#paint14_linear_996_4540)"/>
</mask>
<g mask="url(#mask7_996_4540)">
<path d="M583.791 58.5958C586.678 58.5958 589.019 56.2621 589.019 53.3833C589.019 50.5046 586.678 48.1709 583.791 48.1709C580.903 48.1709 578.562 50.5046 578.562 53.3833C578.562 56.2621 580.903 58.5958 583.791 58.5958Z" fill="url(#paint15_linear_996_4540)"/>
</g>
<mask id="mask8_996_4540" style="mask-type:alpha" maskUnits="userSpaceOnUse" x="608" y="48" width="12" height="11">
<path d="M614.072 58.5958C616.959 58.5958 619.3 56.2621 619.3 53.3833C619.3 50.5046 616.959 48.1709 614.072 48.1709C611.184 48.1709 608.843 50.5046 608.843 53.3833C608.843 56.2621 611.184 58.5958 614.072 58.5958Z" fill="url(#paint16_linear_996_4540)"/>
</mask>
<g mask="url(#mask8_996_4540)">
<path d="M614.072 58.5958C616.959 58.5958 619.3 56.2621 619.3 53.3833C619.3 50.5046 616.959 48.1709 614.072 48.1709C611.184 48.1709 608.843 50.5046 608.843 53.3833C608.843 56.2621 611.184 58.5958 614.072 58.5958Z" fill="url(#paint17_linear_996_4540)"/>
</g>
<mask id="mask9_996_4540" style="mask-type:alpha" maskUnits="userSpaceOnUse" x="518" y="74" width="11" height="11">
<path d="M523.228 84.7126C526.116 84.7126 528.457 82.3789 528.457 79.5001C528.457 76.6213 526.116 74.2876 523.228 74.2876C520.341 74.2876 518 76.6213 518 79.5001C518 82.3789 520.341 84.7126 523.228 84.7126Z" fill="url(#paint18_linear_996_4540)"/>
</mask>
<g mask="url(#mask9_996_4540)">
<path d="M523.228 84.7126C526.116 84.7126 528.457 82.3789 528.457 79.5001C528.457 76.6213 526.116 74.2876 523.228 74.2876C520.341 74.2876 518 76.6213 518 79.5001C518 82.3789 520.341 84.7126 523.228 84.7126Z" fill="url(#paint19_linear_996_4540)"/>
</g>
<mask id="mask10_996_4540" style="mask-type:alpha" maskUnits="userSpaceOnUse" x="548" y="74" width="11" height="11">
<path d="M553.509 84.7126C556.397 84.7126 558.738 82.3789 558.738 79.5001C558.738 76.6213 556.397 74.2876 553.509 74.2876C550.622 74.2876 548.281 76.6213 548.281 79.5001C548.281 82.3789 550.622 84.7126 553.509 84.7126Z" fill="url(#paint20_linear_996_4540)"/>
</mask>
<g mask="url(#mask10_996_4540)">
<path d="M553.509 84.7126C556.397 84.7126 558.738 82.3789 558.738 79.5001C558.738 76.6213 556.397 74.2876 553.509 74.2876C550.622 74.2876 548.281 76.6213 548.281 79.5001C548.281 82.3789 550.622 84.7126 553.509 84.7126Z" fill="url(#paint21_linear_996_4540)"/>
</g>
<mask id="mask11_996_4540" style="mask-type:alpha" maskUnits="userSpaceOnUse" x="578" y="74" width="12" height="11">
<path d="M583.791 84.7126C586.678 84.7126 589.019 82.3789 589.019 79.5001C589.019 76.6213 586.678 74.2876 583.791 74.2876C580.903 74.2876 578.562 76.6213 578.562 79.5001C578.562 82.3789 580.903 84.7126 583.791 84.7126Z" fill="url(#paint22_linear_996_4540)"/>
</mask>
<g mask="url(#mask11_996_4540)">
<path d="M583.791 84.7126C586.678 84.7126 589.019 82.3789 589.019 79.5001C589.019 76.6213 586.678 74.2876 583.791 74.2876C580.903 74.2876 578.562 76.6213 578.562 79.5001C578.562 82.3789 580.903 84.7126 583.791 84.7126Z" fill="url(#paint23_linear_996_4540)"/>
</g>
<mask id="mask12_996_4540" style="mask-type:alpha" maskUnits="userSpaceOnUse" x="608" y="74" width="12" height="11">
<path d="M614.072 84.7126C616.959 84.7126 619.3 82.3789 619.3 79.5001C619.3 76.6213 616.959 74.2876 614.072 74.2876C611.184 74.2876 608.843 76.6213 608.843 79.5001C608.843 82.3789 611.184 84.7126 614.072 84.7126Z" fill="url(#paint24_linear_996_4540)"/>
</mask>
<g mask="url(#mask12_996_4540)">
<path d="M614.072 84.7126C616.959 84.7126 619.3 82.3789 619.3 79.5001C619.3 76.6213 616.959 74.2876 614.072 74.2876C611.184 74.2876 608.843 76.6213 608.843 79.5001C608.843 82.3789 611.184 84.7126 614.072 84.7126Z" fill="url(#paint25_linear_996_4540)"/>
</g>
<mask id="mask13_996_4540" style="mask-type:alpha" maskUnits="userSpaceOnUse" x="639" y="74" width="11" height="11">
<path d="M644.353 84.7126C647.24 84.7126 649.581 82.3789 649.581 79.5001C649.581 76.6213 647.24 74.2876 644.353 74.2876C641.465 74.2876 639.124 76.6213 639.124 79.5001C639.124 82.3789 641.465 84.7126 644.353 84.7126Z" fill="url(#paint26_linear_996_4540)"/>
</mask>
<g mask="url(#mask13_996_4540)">
<path d="M644.353 84.7126C647.24 84.7126 649.581 82.3789 649.581 79.5001C649.581 76.6213 647.24 74.2876 644.353 74.2876C641.465 74.2876 639.124 76.6213 639.124 79.5001C639.124 82.3789 641.465 84.7126 644.353 84.7126Z" fill="url(#paint27_linear_996_4540)"/>
</g>
<mask id="mask14_996_4540" style="mask-type:alpha" maskUnits="userSpaceOnUse" x="639" y="48" width="11" height="11">
<path d="M644.353 58.5958C647.24 58.5958 649.581 56.2621 649.581 53.3833C649.581 50.5046 647.24 48.1709 644.353 48.1709C641.465 48.1709 639.124 50.5046 639.124 53.3833C639.124 56.2621 641.465 58.5958 644.353 58.5958Z" fill="url(#paint28_linear_996_4540)"/>
</mask>
<g mask="url(#mask14_996_4540)">
<path d="M644.353 58.5958C647.24 58.5958 649.581 56.2621 649.581 53.3833C649.581 50.5046 647.24 48.1709 644.353 48.1709C641.465 48.1709 639.124 50.5046 639.124 53.3833C639.124 56.2621 641.465 58.5958 644.353 58.5958Z" fill="url(#paint29_linear_996_4540)"/>
</g>
<mask id="mask15_996_4540" style="mask-type:alpha" maskUnits="userSpaceOnUse" x="518" y="100" width="11" height="11">
<path d="M523.228 110.883C526.116 110.883 528.457 108.55 528.457 105.671C528.457 102.792 526.116 100.458 523.228 100.458C520.341 100.458 518 102.792 518 105.671C518 108.55 520.341 110.883 523.228 110.883Z" fill="url(#paint30_linear_996_4540)"/>
</mask>
<g mask="url(#mask15_996_4540)">
<path d="M523.228 110.883C526.116 110.883 528.457 108.55 528.457 105.671C528.457 102.792 526.116 100.458 523.228 100.458C520.341 100.458 518 102.792 518 105.671C518 108.55 520.341 110.883 523.228 110.883Z" fill="url(#paint31_linear_996_4540)"/>
</g>
<mask id="mask16_996_4540" style="mask-type:alpha" maskUnits="userSpaceOnUse" x="548" y="100" width="11" height="11">
<path d="M553.509 110.883C556.397 110.883 558.738 108.55 558.738 105.671C558.738 102.792 556.397 100.458 553.509 100.458C550.622 100.458 548.281 102.792 548.281 105.671C548.281 108.55 550.622 110.883 553.509 110.883Z" fill="url(#paint32_linear_996_4540)"/>
</mask>
<g mask="url(#mask16_996_4540)">
<path d="M553.509 110.883C556.397 110.883 558.738 108.55 558.738 105.671C558.738 102.792 556.397 100.458 553.509 100.458C550.622 100.458 548.281 102.792 548.281 105.671C548.281 108.55 550.622 110.883 553.509 110.883Z" fill="url(#paint33_linear_996_4540)"/>
</g>
<mask id="mask17_996_4540" style="mask-type:alpha" maskUnits="userSpaceOnUse" x="578" y="100" width="12" height="11">
<path d="M583.791 110.883C586.678 110.883 589.019 108.55 589.019 105.671C589.019 102.792 586.678 100.458 583.791 100.458C580.903 100.458 578.562 102.792 578.562 105.671C578.562 108.55 580.903 110.883 583.791 110.883Z" fill="url(#paint34_linear_996_4540)"/>
</mask>
<g mask="url(#mask17_996_4540)">
<path d="M583.791 110.883C586.678 110.883 589.019 108.55 589.019 105.671C589.019 102.792 586.678 100.458 583.791 100.458C580.903 100.458 578.562 102.792 578.562 105.671C578.562 108.55 580.903 110.883 583.791 110.883Z" fill="url(#paint35_linear_996_4540)"/>
</g>
<mask id="mask18_996_4540" style="mask-type:alpha" maskUnits="userSpaceOnUse" x="608" y="100" width="12" height="11">
<path d="M614.072 110.883C616.959 110.883 619.3 108.55 619.3 105.671C619.3 102.792 616.959 100.458 614.072 100.458C611.184 100.458 608.843 102.792 608.843 105.671C608.843 108.55 611.184 110.883 614.072 110.883Z" fill="url(#paint36_linear_996_4540)"/>
</mask>
<g mask="url(#mask18_996_4540)">
<path d="M614.072 110.883C616.959 110.883 619.3 108.55 619.3 105.671C619.3 102.792 616.959 100.458 614.072 100.458C611.184 100.458 608.843 102.792 608.843 105.671C608.843 108.55 611.184 110.883 614.072 110.883Z" fill="url(#paint37_linear_996_4540)"/>
</g>
<mask id="mask19_996_4540" style="mask-type:alpha" maskUnits="userSpaceOnUse" x="639" y="100" width="11" height="11">
<path d="M644.353 110.883C647.24 110.883 649.581 108.55 649.581 105.671C649.581 102.792 647.24 100.458 644.353 100.458C641.465 100.458 639.124 102.792 639.124 105.671C639.124 108.55 641.465 110.883 644.353 110.883Z" fill="url(#paint38_linear_996_4540)"/>
</mask>
<g mask="url(#mask19_996_4540)">
<path d="M644.353 110.883C647.24 110.883 649.581 108.55 649.581 105.671C649.581 102.792 647.24 100.458 644.353 100.458C641.465 100.458 639.124 102.792 639.124 105.671C639.124 108.55 641.465 110.883 644.353 110.883Z" fill="url(#paint39_linear_996_4540)"/>
</g>
<mask id="mask20_996_4540" style="mask-type:alpha" maskUnits="userSpaceOnUse" x="518" y="126" width="11" height="11">
<path d="M523.228 137C526.116 137 528.457 134.666 528.457 131.788C528.457 128.909 526.116 126.575 523.228 126.575C520.341 126.575 518 128.909 518 131.788C518 134.666 520.341 137 523.228 137Z" fill="url(#paint40_linear_996_4540)"/>
</mask>
<g mask="url(#mask20_996_4540)">
<path d="M523.228 137C526.116 137 528.457 134.666 528.457 131.788C528.457 128.909 526.116 126.575 523.228 126.575C520.341 126.575 518 128.909 518 131.788C518 134.666 520.341 137 523.228 137Z" fill="url(#paint41_linear_996_4540)"/>
</g>
<mask id="mask21_996_4540" style="mask-type:alpha" maskUnits="userSpaceOnUse" x="548" y="126" width="11" height="11">
<path d="M553.509 137C556.397 137 558.738 134.666 558.738 131.788C558.738 128.909 556.397 126.575 553.509 126.575C550.622 126.575 548.281 128.909 548.281 131.788C548.281 134.666 550.622 137 553.509 137Z" fill="url(#paint42_linear_996_4540)"/>
</mask>
<g mask="url(#mask21_996_4540)">
<path d="M553.509 137C556.397 137 558.738 134.666 558.738 131.788C558.738 128.909 556.397 126.575 553.509 126.575C550.622 126.575 548.281 128.909 548.281 131.788C548.281 134.666 550.622 137 553.509 137Z" fill="url(#paint43_linear_996_4540)"/>
</g>
<mask id="mask22_996_4540" style="mask-type:alpha" maskUnits="userSpaceOnUse" x="578" y="126" width="12" height="11">
<path d="M583.791 137C586.678 137 589.019 134.666 589.019 131.788C589.019 128.909 586.678 126.575 583.791 126.575C580.903 126.575 578.562 128.909 578.562 131.788C578.562 134.666 580.903 137 583.791 137Z" fill="url(#paint44_linear_996_4540)"/>
</mask>
<g mask="url(#mask22_996_4540)">
<path d="M583.791 137C586.678 137 589.019 134.666 589.019 131.788C589.019 128.909 586.678 126.575 583.791 126.575C580.903 126.575 578.562 128.909 578.562 131.788C578.562 134.666 580.903 137 583.791 137Z" fill="url(#paint45_linear_996_4540)"/>
</g>
<mask id="mask23_996_4540" style="mask-type:alpha" maskUnits="userSpaceOnUse" x="608" y="126" width="12" height="11">
<path d="M614.072 137C616.959 137 619.3 134.666 619.3 131.788C619.3 128.909 616.959 126.575 614.072 126.575C611.184 126.575 608.843 128.909 608.843 131.788C608.843 134.666 611.184 137 614.072 137Z" fill="url(#paint46_linear_996_4540)"/>
</mask>
<g mask="url(#mask23_996_4540)">
<path d="M614.072 137C616.959 137 619.3 134.666 619.3 131.788C619.3 128.909 616.959 126.575 614.072 126.575C611.184 126.575 608.843 128.909 608.843 131.788C608.843 134.666 611.184 137 614.072 137Z" fill="url(#paint47_linear_996_4540)"/>
</g>
<mask id="mask24_996_4540" style="mask-type:alpha" maskUnits="userSpaceOnUse" x="639" y="126" width="11" height="11">
<path d="M644.353 137C647.24 137 649.581 134.666 649.581 131.788C649.581 128.909 647.24 126.575 644.353 126.575C641.465 126.575 639.124 128.909 639.124 131.788C639.124 134.666 641.465 137 644.353 137Z" fill="url(#paint48_linear_996_4540)"/>
</mask>
<g mask="url(#mask24_996_4540)">
<path d="M644.353 137C647.24 137 649.581 134.666 649.581 131.788C649.581 128.909 647.24 126.575 644.353 126.575C641.465 126.575 639.124 128.909 639.124 131.788C639.124 134.666 641.465 137 644.353 137Z" fill="url(#paint49_linear_996_4540)"/>
</g>
</g>
<g opacity="0.3">
<mask id="mask25_996_4540" style="mask-type:alpha" maskUnits="userSpaceOnUse" x="0" y="316" width="11" height="11">
<path d="M5.22838 326.425C8.11594 326.425 10.4568 324.091 10.4568 321.212C10.4568 318.334 8.11594 316 5.22838 316C2.34082 316 0 318.334 0 321.212C0 324.091 2.34082 326.425 5.22838 326.425Z" fill="url(#paint50_linear_996_4540)"/>
</mask>
<g mask="url(#mask25_996_4540)">
<path d="M5.22838 326.425C8.11594 326.425 10.4568 324.091 10.4568 321.212C10.4568 318.334 8.11594 316 5.22838 316C2.34082 316 0 318.334 0 321.212C0 324.091 2.34082 326.425 5.22838 326.425Z" fill="url(#paint51_linear_996_4540)"/>
</g>
<mask id="mask26_996_4540" style="mask-type:alpha" maskUnits="userSpaceOnUse" x="30" y="316" width="11" height="11">
<path d="M35.5095 326.425C38.397 326.425 40.7378 324.091 40.7378 321.212C40.7378 318.334 38.397 316 35.5095 316C32.6219 316 30.2811 318.334 30.2811 321.212C30.2811 324.091 32.6219 326.425 35.5095 326.425Z" fill="url(#paint52_linear_996_4540)"/>
</mask>
<g mask="url(#mask26_996_4540)">
<path d="M35.5095 326.425C38.397 326.425 40.7378 324.091 40.7378 321.212C40.7378 318.334 38.397 316 35.5095 316C32.6219 316 30.2811 318.334 30.2811 321.212C30.2811 324.091 32.6219 326.425 35.5095 326.425Z" fill="url(#paint53_linear_996_4540)"/>
</g>
<mask id="mask27_996_4540" style="mask-type:alpha" maskUnits="userSpaceOnUse" x="60" y="316" width="12" height="11">
<path d="M65.7905 326.425C68.6781 326.425 71.0189 324.091 71.0189 321.212C71.0189 318.334 68.6781 316 65.7905 316C62.903 316 60.5621 318.334 60.5621 321.212C60.5621 324.091 62.903 326.425 65.7905 326.425Z" fill="url(#paint54_linear_996_4540)"/>
</mask>
<g mask="url(#mask27_996_4540)">
<path d="M65.7905 326.425C68.6781 326.425 71.0189 324.091 71.0189 321.212C71.0189 318.334 68.6781 316 65.7905 316C62.903 316 60.5621 318.334 60.5621 321.212C60.5621 324.091 62.903 326.425 65.7905 326.425Z" fill="url(#paint55_linear_996_4540)"/>
</g>
<mask id="mask28_996_4540" style="mask-type:alpha" maskUnits="userSpaceOnUse" x="90" y="316" width="12" height="11">
<path d="M96.0716 326.425C98.9592 326.425 101.3 324.091 101.3 321.212C101.3 318.334 98.9592 316 96.0716 316C93.184 316 90.8432 318.334 90.8432 321.212C90.8432 324.091 93.184 326.425 96.0716 326.425Z" fill="url(#paint56_linear_996_4540)"/>
</mask>
<g mask="url(#mask28_996_4540)">
<path d="M96.0716 326.425C98.9592 326.425 101.3 324.091 101.3 321.212C101.3 318.334 98.9592 316 96.0716 316C93.184 316 90.8432 318.334 90.8432 321.212C90.8432 324.091 93.184 326.425 96.0716 326.425Z" fill="url(#paint57_linear_996_4540)"/>
</g>
<mask id="mask29_996_4540" style="mask-type:alpha" maskUnits="userSpaceOnUse" x="121" y="316" width="11" height="11">
<path d="M126.353 326.425C129.24 326.425 131.581 324.091 131.581 321.212C131.581 318.334 129.24 316 126.353 316C123.465 316 121.124 318.334 121.124 321.212C121.124 324.091 123.465 326.425 126.353 326.425Z" fill="url(#paint58_linear_996_4540)"/>
</mask>
<g mask="url(#mask29_996_4540)">
<path d="M126.353 326.425C129.24 326.425 131.581 324.091 131.581 321.212C131.581 318.334 129.24 316 126.353 316C123.465 316 121.124 318.334 121.124 321.212C121.124 324.091 123.465 326.425 126.353 326.425Z" fill="url(#paint59_linear_996_4540)"/>
</g>
<mask id="mask30_996_4540" style="mask-type:alpha" maskUnits="userSpaceOnUse" x="0" y="342" width="11" height="11">
<path d="M5.22838 352.596C8.11594 352.596 10.4568 350.262 10.4568 347.383C10.4568 344.505 8.11594 342.171 5.22838 342.171C2.34082 342.171 0 344.505 0 347.383C0 350.262 2.34082 352.596 5.22838 352.596Z" fill="url(#paint60_linear_996_4540)"/>
</mask>
<g mask="url(#mask30_996_4540)">
<path d="M5.22838 352.596C8.11594 352.596 10.4568 350.262 10.4568 347.383C10.4568 344.505 8.11594 342.171 5.22838 342.171C2.34082 342.171 0 344.505 0 347.383C0 350.262 2.34082 352.596 5.22838 352.596Z" fill="url(#paint61_linear_996_4540)"/>
</g>
<mask id="mask31_996_4540" style="mask-type:alpha" maskUnits="userSpaceOnUse" x="30" y="342" width="11" height="11">
<path d="M35.5095 352.596C38.397 352.596 40.7378 350.262 40.7378 347.383C40.7378 344.505 38.397 342.171 35.5095 342.171C32.6219 342.171 30.2811 344.505 30.2811 347.383C30.2811 350.262 32.6219 352.596 35.5095 352.596Z" fill="url(#paint62_linear_996_4540)"/>
</mask>
<g mask="url(#mask31_996_4540)">
<path d="M35.5095 352.596C38.397 352.596 40.7378 350.262 40.7378 347.383C40.7378 344.505 38.397 342.171 35.5095 342.171C32.6219 342.171 30.2811 344.505 30.2811 347.383C30.2811 350.262 32.6219 352.596 35.5095 352.596Z" fill="url(#paint63_linear_996_4540)"/>
</g>
<mask id="mask32_996_4540" style="mask-type:alpha" maskUnits="userSpaceOnUse" x="60" y="342" width="12" height="11">
<path d="M65.7905 352.596C68.6781 352.596 71.0189 350.262 71.0189 347.383C71.0189 344.505 68.6781 342.171 65.7905 342.171C62.903 342.171 60.5621 344.505 60.5621 347.383C60.5621 350.262 62.903 352.596 65.7905 352.596Z" fill="url(#paint64_linear_996_4540)"/>
</mask>
<g mask="url(#mask32_996_4540)">
<path d="M65.7905 352.596C68.6781 352.596 71.0189 350.262 71.0189 347.383C71.0189 344.505 68.6781 342.171 65.7905 342.171C62.903 342.171 60.5621 344.505 60.5621 347.383C60.5621 350.262 62.903 352.596 65.7905 352.596Z" fill="url(#paint65_linear_996_4540)"/>
</g>
<mask id="mask33_996_4540" style="mask-type:alpha" maskUnits="userSpaceOnUse" x="90" y="342" width="12" height="11">
<path d="M96.0716 352.596C98.9592 352.596 101.3 350.262 101.3 347.383C101.3 344.505 98.9592 342.171 96.0716 342.171C93.184 342.171 90.8432 344.505 90.8432 347.383C90.8432 350.262 93.184 352.596 96.0716 352.596Z" fill="url(#paint66_linear_996_4540)"/>
</mask>
<g mask="url(#mask33_996_4540)">
<path d="M96.0716 352.596C98.9592 352.596 101.3 350.262 101.3 347.383C101.3 344.505 98.9592 342.171 96.0716 342.171C93.184 342.171 90.8432 344.505 90.8432 347.383C90.8432 350.262 93.184 352.596 96.0716 352.596Z" fill="url(#paint67_linear_996_4540)"/>
</g>
<mask id="mask34_996_4540" style="mask-type:alpha" maskUnits="userSpaceOnUse" x="0" y="368" width="11" height="11">
<path d="M5.22838 378.712C8.11594 378.712 10.4568 376.379 10.4568 373.5C10.4568 370.621 8.11594 368.287 5.22838 368.287C2.34082 368.287 0 370.621 0 373.5C0 376.379 2.34082 378.712 5.22838 378.712Z" fill="url(#paint68_linear_996_4540)"/>
</mask>
<g mask="url(#mask34_996_4540)">
<path d="M5.22838 378.712C8.11594 378.712 10.4568 376.379 10.4568 373.5C10.4568 370.621 8.11594 368.287 5.22838 368.287C2.34082 368.287 0 370.621 0 373.5C0 376.379 2.34082 378.712 5.22838 378.712Z" fill="url(#paint69_linear_996_4540)"/>
</g>
<mask id="mask35_996_4540" style="mask-type:alpha" maskUnits="userSpaceOnUse" x="30" y="368" width="11" height="11">
<path d="M35.5095 378.712C38.397 378.712 40.7378 376.379 40.7378 373.5C40.7378 370.621 38.397 368.287 35.5095 368.287C32.6219 368.287 30.2811 370.621 30.2811 373.5C30.2811 376.379 32.6219 378.712 35.5095 378.712Z" fill="url(#paint70_linear_996_4540)"/>
</mask>
<g mask="url(#mask35_996_4540)">
<path d="M35.5095 378.712C38.397 378.712 40.7378 376.379 40.7378 373.5C40.7378 370.621 38.397 368.287 35.5095 368.287C32.6219 368.287 30.2811 370.621 30.2811 373.5C30.2811 376.379 32.6219 378.712 35.5095 378.712Z" fill="url(#paint71_linear_996_4540)"/>
</g>
<mask id="mask36_996_4540" style="mask-type:alpha" maskUnits="userSpaceOnUse" x="60" y="368" width="12" height="11">
<path d="M65.7905 378.712C68.6781 378.712 71.0189 376.379 71.0189 373.5C71.0189 370.621 68.6781 368.287 65.7905 368.287C62.903 368.287 60.5621 370.621 60.5621 373.5C60.5621 376.379 62.903 378.712 65.7905 378.712Z" fill="url(#paint72_linear_996_4540)"/>
</mask>
<g mask="url(#mask36_996_4540)">
<path d="M65.7905 378.712C68.6781 378.712 71.0189 376.379 71.0189 373.5C71.0189 370.621 68.6781 368.287 65.7905 368.287C62.903 368.287 60.5621 370.621 60.5621 373.5C60.5621 376.379 62.903 378.712 65.7905 378.712Z" fill="url(#paint73_linear_996_4540)"/>
</g>
<mask id="mask37_996_4540" style="mask-type:alpha" maskUnits="userSpaceOnUse" x="90" y="368" width="12" height="11">
<path d="M96.0716 378.712C98.9592 378.712 101.3 376.379 101.3 373.5C101.3 370.621 98.9592 368.287 96.0716 368.287C93.184 368.287 90.8432 370.621 90.8432 373.5C90.8432 376.379 93.184 378.712 96.0716 378.712Z" fill="url(#paint74_linear_996_4540)"/>
</mask>
<g mask="url(#mask37_996_4540)">
<path d="M96.0716 378.712C98.9592 378.712 101.3 376.379 101.3 373.5C101.3 370.621 98.9592 368.287 96.0716 368.287C93.184 368.287 90.8432 370.621 90.8432 373.5C90.8432 376.379 93.184 378.712 96.0716 378.712Z" fill="url(#paint75_linear_996_4540)"/>
</g>
<mask id="mask38_996_4540" style="mask-type:alpha" maskUnits="userSpaceOnUse" x="121" y="368" width="11" height="11">
<path d="M126.353 378.712C129.24 378.712 131.581 376.379 131.581 373.5C131.581 370.621 129.24 368.287 126.353 368.287C123.465 368.287 121.124 370.621 121.124 373.5C121.124 376.379 123.465 378.712 126.353 378.712Z" fill="url(#paint76_linear_996_4540)"/>
</mask>
<g mask="url(#mask38_996_4540)">
<path d="M126.353 378.712C129.24 378.712 131.581 376.379 131.581 373.5C131.581 370.621 129.24 368.287 126.353 368.287C123.465 368.287 121.124 370.621 121.124 373.5C121.124 376.379 123.465 378.712 126.353 378.712Z" fill="url(#paint77_linear_996_4540)"/>
</g>
<mask id="mask39_996_4540" style="mask-type:alpha" maskUnits="userSpaceOnUse" x="121" y="342" width="11" height="11">
<path d="M126.353 352.596C129.24 352.596 131.581 350.262 131.581 347.383C131.581 344.505 129.24 342.171 126.353 342.171C123.465 342.171 121.124 344.505 121.124 347.383C121.124 350.262 123.465 352.596 126.353 352.596Z" fill="url(#paint78_linear_996_4540)"/>
</mask>
<g mask="url(#mask39_996_4540)">
<path d="M126.353 352.596C129.24 352.596 131.581 350.262 131.581 347.383C131.581 344.505 129.24 342.171 126.353 342.171C123.465 342.171 121.124 344.505 121.124 347.383C121.124 350.262 123.465 352.596 126.353 352.596Z" fill="url(#paint79_linear_996_4540)"/>
</g>
<mask id="mask40_996_4540" style="mask-type:alpha" maskUnits="userSpaceOnUse" x="0" y="394" width="11" height="11">
<path d="M5.22838 404.883C8.11594 404.883 10.4568 402.55 10.4568 399.671C10.4568 396.792 8.11594 394.458 5.22838 394.458C2.34082 394.458 0 396.792 0 399.671C0 402.55 2.34082 404.883 5.22838 404.883Z" fill="url(#paint80_linear_996_4540)"/>
</mask>
<g mask="url(#mask40_996_4540)">
<path d="M5.22838 404.883C8.11594 404.883 10.4568 402.55 10.4568 399.671C10.4568 396.792 8.11594 394.458 5.22838 394.458C2.34082 394.458 0 396.792 0 399.671C0 402.55 2.34082 404.883 5.22838 404.883Z" fill="url(#paint81_linear_996_4540)"/>
</g>
<mask id="mask41_996_4540" style="mask-type:alpha" maskUnits="userSpaceOnUse" x="30" y="394" width="11" height="11">
<path d="M35.5095 404.883C38.397 404.883 40.7378 402.55 40.7378 399.671C40.7378 396.792 38.397 394.458 35.5095 394.458C32.6219 394.458 30.2811 396.792 30.2811 399.671C30.2811 402.55 32.6219 404.883 35.5095 404.883Z" fill="url(#paint82_linear_996_4540)"/>
</mask>
<g mask="url(#mask41_996_4540)">
<path d="M35.5095 404.883C38.397 404.883 40.7378 402.55 40.7378 399.671C40.7378 396.792 38.397 394.458 35.5095 394.458C32.6219 394.458 30.2811 396.792 30.2811 399.671C30.2811 402.55 32.6219 404.883 35.5095 404.883Z" fill="url(#paint83_linear_996_4540)"/>
</g>
<mask id="mask42_996_4540" style="mask-type:alpha" maskUnits="userSpaceOnUse" x="60" y="394" width="12" height="11">
<path d="M65.7905 404.883C68.6781 404.883 71.0189 402.55 71.0189 399.671C71.0189 396.792 68.6781 394.458 65.7905 394.458C62.903 394.458 60.5621 396.792 60.5621 399.671C60.5621 402.55 62.903 404.883 65.7905 404.883Z" fill="url(#paint84_linear_996_4540)"/>
</mask>
<g mask="url(#mask42_996_4540)">
<path d="M65.7905 404.883C68.6781 404.883 71.0189 402.55 71.0189 399.671C71.0189 396.792 68.6781 394.458 65.7905 394.458C62.903 394.458 60.5621 396.792 60.5621 399.671C60.5621 402.55 62.903 404.883 65.7905 404.883Z" fill="url(#paint85_linear_996_4540)"/>
</g>
<mask id="mask43_996_4540" style="mask-type:alpha" maskUnits="userSpaceOnUse" x="90" y="394" width="12" height="11">
<path d="M96.0716 404.883C98.9592 404.883 101.3 402.55 101.3 399.671C101.3 396.792 98.9592 394.458 96.0716 394.458C93.184 394.458 90.8432 396.792 90.8432 399.671C90.8432 402.55 93.184 404.883 96.0716 404.883Z" fill="url(#paint86_linear_996_4540)"/>
</mask>
<g mask="url(#mask43_996_4540)">
<path d="M96.0716 404.883C98.9592 404.883 101.3 402.55 101.3 399.671C101.3 396.792 98.9592 394.458 96.0716 394.458C93.184 394.458 90.8432 396.792 90.8432 399.671C90.8432 402.55 93.184 404.883 96.0716 404.883Z" fill="url(#paint87_linear_996_4540)"/>
</g>
<mask id="mask44_996_4540" style="mask-type:alpha" maskUnits="userSpaceOnUse" x="121" y="394" width="11" height="11">
<path d="M126.353 404.883C129.24 404.883 131.581 402.55 131.581 399.671C131.581 396.792 129.24 394.458 126.353 394.458C123.465 394.458 121.124 396.792 121.124 399.671C121.124 402.55 123.465 404.883 126.353 404.883Z" fill="url(#paint88_linear_996_4540)"/>
</mask>
<g mask="url(#mask44_996_4540)">
<path d="M126.353 404.883C129.24 404.883 131.581 402.55 131.581 399.671C131.581 396.792 129.24 394.458 126.353 394.458C123.465 394.458 121.124 396.792 121.124 399.671C121.124 402.55 123.465 404.883 126.353 404.883Z" fill="url(#paint89_linear_996_4540)"/>
</g>
<mask id="mask45_996_4540" style="mask-type:alpha" maskUnits="userSpaceOnUse" x="0" y="420" width="11" height="11">
<path d="M5.22838 431C8.11594 431 10.4568 428.666 10.4568 425.788C10.4568 422.909 8.11594 420.575 5.22838 420.575C2.34082 420.575 0 422.909 0 425.788C0 428.666 2.34082 431 5.22838 431Z" fill="url(#paint90_linear_996_4540)"/>
</mask>
<g mask="url(#mask45_996_4540)">
<path d="M5.22838 431C8.11594 431 10.4568 428.666 10.4568 425.788C10.4568 422.909 8.11594 420.575 5.22838 420.575C2.34082 420.575 0 422.909 0 425.788C0 428.666 2.34082 431 5.22838 431Z" fill="url(#paint91_linear_996_4540)"/>
</g>
<mask id="mask46_996_4540" style="mask-type:alpha" maskUnits="userSpaceOnUse" x="30" y="420" width="11" height="11">
<path d="M35.5095 431C38.397 431 40.7378 428.666 40.7378 425.788C40.7378 422.909 38.397 420.575 35.5095 420.575C32.6219 420.575 30.2811 422.909 30.2811 425.788C30.2811 428.666 32.6219 431 35.5095 431Z" fill="url(#paint92_linear_996_4540)"/>
</mask>
<g mask="url(#mask46_996_4540)">
<path d="M35.5095 431C38.397 431 40.7378 428.666 40.7378 425.788C40.7378 422.909 38.397 420.575 35.5095 420.575C32.6219 420.575 30.2811 422.909 30.2811 425.788C30.2811 428.666 32.6219 431 35.5095 431Z" fill="url(#paint93_linear_996_4540)"/>
</g>
<mask id="mask47_996_4540" style="mask-type:alpha" maskUnits="userSpaceOnUse" x="60" y="420" width="12" height="11">
<path d="M65.7905 431C68.6781 431 71.0189 428.666 71.0189 425.788C71.0189 422.909 68.6781 420.575 65.7905 420.575C62.903 420.575 60.5621 422.909 60.5621 425.788C60.5621 428.666 62.903 431 65.7905 431Z" fill="url(#paint94_linear_996_4540)"/>
</mask>
<g mask="url(#mask47_996_4540)">
<path d="M65.7905 431C68.6781 431 71.0189 428.666 71.0189 425.788C71.0189 422.909 68.6781 420.575 65.7905 420.575C62.903 420.575 60.5621 422.909 60.5621 425.788C60.5621 428.666 62.903 431 65.7905 431Z" fill="url(#paint95_linear_996_4540)"/>
</g>
<mask id="mask48_996_4540" style="mask-type:alpha" maskUnits="userSpaceOnUse" x="90" y="420" width="12" height="11">
<path d="M96.0716 431C98.9592 431 101.3 428.666 101.3 425.788C101.3 422.909 98.9592 420.575 96.0716 420.575C93.184 420.575 90.8432 422.909 90.8432 425.788C90.8432 428.666 93.184 431 96.0716 431Z" fill="url(#paint96_linear_996_4540)"/>
</mask>
<g mask="url(#mask48_996_4540)">
<path d="M96.0716 431C98.9592 431 101.3 428.666 101.3 425.788C101.3 422.909 98.9592 420.575 96.0716 420.575C93.184 420.575 90.8432 422.909 90.8432 425.788C90.8432 428.666 93.184 431 96.0716 431Z" fill="url(#paint97_linear_996_4540)"/>
</g>
<mask id="mask49_996_4540" style="mask-type:alpha" maskUnits="userSpaceOnUse" x="121" y="420" width="11" height="11">
<path d="M126.353 431C129.24 431 131.581 428.666 131.581 425.788C131.581 422.909 129.24 420.575 126.353 420.575C123.465 420.575 121.124 422.909 121.124 425.788C121.124 428.666 123.465 431 126.353 431Z" fill="url(#paint98_linear_996_4540)"/>
</mask>
<g mask="url(#mask49_996_4540)">
<path d="M126.353 431C129.24 431 131.581 428.666 131.581 425.788C131.581 422.909 129.24 420.575 126.353 420.575C123.465 420.575 121.124 422.909 121.124 425.788C121.124 428.666 123.465 431 126.353 431Z" fill="url(#paint99_linear_996_4540)"/>
</g>
</g>
<g clip-path="url(#clip0_996_4540)">
<path d="M671 166.748H669.909V136.863C669.909 134.592 669.462 132.342 668.592 130.244C667.723 128.145 666.449 126.239 664.842 124.632C663.236 123.026 661.329 121.752 659.23 120.883C657.132 120.014 654.882 119.566 652.611 119.566H589.29C587.018 119.566 584.769 120.014 582.67 120.883C580.571 121.752 578.664 123.026 577.058 124.632C575.452 126.239 574.178 128.145 573.308 130.244C572.439 132.342 571.991 134.592 571.991 136.863V300.815C571.991 303.086 572.439 305.335 573.308 307.434C574.178 309.532 575.452 311.439 577.058 313.045C578.664 314.651 580.571 315.926 582.67 316.795C584.769 317.664 587.018 318.111 589.29 318.111H652.611C654.882 318.111 657.132 317.664 659.23 316.795C661.329 315.926 663.236 314.651 664.842 313.045C666.449 311.439 667.723 309.532 668.592 307.434C669.462 305.335 669.909 303.086 669.909 300.815V188.021H671V166.748Z" fill="#16245F"/>
<path d="M666.228 137.88V301.593C666.228 305.019 664.867 308.305 662.444 310.728C660.021 313.15 656.735 314.511 653.308 314.512H589.683C587.986 314.511 586.307 314.177 584.739 313.528C583.172 312.878 581.748 311.927 580.549 310.727C579.35 309.527 578.399 308.103 577.75 306.536C577.101 304.969 576.768 303.289 576.768 301.593V137.88C576.768 134.455 578.129 131.17 580.551 128.749C582.973 126.327 586.258 124.967 589.683 124.967H597.402C597.023 125.898 596.879 126.909 596.982 127.909C597.085 128.91 597.433 129.869 597.994 130.704C598.555 131.539 599.313 132.223 600.2 132.696C601.088 133.17 602.078 133.418 603.084 133.419H639.361C640.368 133.421 641.36 133.174 642.249 132.702C643.138 132.229 643.897 131.545 644.459 130.709C645.02 129.874 645.367 128.913 645.469 127.911C645.571 126.909 645.425 125.898 645.043 124.967H653.308C656.734 124.966 660.019 126.327 662.442 128.748C664.865 131.17 666.227 134.454 666.228 137.88Z" fill="white"/>
<path d="M654.183 208.783H580.22V228.74H654.183V208.783Z" fill="#458FF6"/>
<path d="M657.118 225.218H585.503C585.036 225.218 584.589 225.032 584.258 224.702C583.928 224.372 583.743 223.924 583.742 223.457V205.849C583.743 205.382 583.928 204.934 584.258 204.604C584.589 204.274 585.036 204.088 585.503 204.088H657.118C657.585 204.088 658.032 204.274 658.362 204.604C658.693 204.934 658.878 205.382 658.879 205.849V223.457C658.878 223.924 658.693 224.372 658.362 224.702C658.032 225.032 657.585 225.218 657.118 225.218ZM585.503 205.262C585.347 205.262 585.198 205.324 585.088 205.434C584.978 205.544 584.916 205.693 584.916 205.849V223.457C584.916 223.613 584.978 223.762 585.088 223.872C585.198 223.982 585.347 224.044 585.503 224.044H657.118C657.273 224.044 657.423 223.982 657.533 223.872C657.643 223.762 657.705 223.613 657.705 223.457V205.849C657.705 205.693 657.643 205.544 657.533 205.434C657.423 205.324 657.273 205.262 657.118 205.262H585.503Z" fill="#16245F"/>
<path d="M597.83 219.936H588.438V221.109H597.83V219.936Z" fill="#16245F"/>
<path d="M610.744 219.936H601.352V221.109H610.744V219.936Z" fill="#16245F"/>
<path d="M623.658 219.936H614.266V221.109H623.658V219.936Z" fill="#16245F"/>
<path d="M636.573 219.936H627.18V221.109H636.573V219.936Z" fill="#16245F"/>
<path d="M649.487 219.936H640.094V221.109H649.487V219.936Z" fill="#16245F"/>
<path opacity="0.1" d="M666.228 284.947V301.593C666.228 305.019 664.867 308.305 662.444 310.727C660.021 313.15 656.735 314.511 653.308 314.512H589.683C587.986 314.511 586.307 314.177 584.739 313.528C583.172 312.878 581.748 311.927 580.549 310.727C579.35 309.527 578.399 308.103 577.75 306.536C577.101 304.969 576.768 303.289 576.768 301.593V225.019L666.228 284.947Z" fill="black"/>
<path d="M361.267 269.827H83.6133V406H361.267V269.827Z" fill="white"/>
<path opacity="0.1" d="M290.68 406H84.7873C84.4762 405.999 84.1781 405.875 83.9582 405.655C83.7382 405.435 83.6142 405.137 83.6133 404.826V271.001C83.6142 270.69 83.7382 270.391 83.9581 270.172C84.1781 269.952 84.4762 269.828 84.7873 269.827H87.3936L290.68 406Z" fill="black"/>
<path d="M642.442 288.022H212.167V289.196H642.442V288.022Z" fill="#16245F"/>
<path d="M348.201 2.53432H225.23V0H169.469V2.53432H45.9908C44.8985 2.53432 43.8168 2.74946 42.8076 3.16745C41.7984 3.58543 40.8815 4.19809 40.109 4.97043C39.3366 5.74276 38.7239 6.65966 38.3059 7.66877C37.8879 8.67788 37.6727 9.75944 37.6727 10.8517V179.223C37.6727 181.429 38.5491 183.544 40.109 185.104C41.669 186.664 43.7847 187.54 45.9908 187.54H348.201C350.407 187.54 352.523 186.664 354.083 185.104C355.643 183.544 356.519 181.429 356.519 179.223V10.8517C356.519 9.75944 356.304 8.67788 355.886 7.66877C355.468 6.65966 354.855 5.74276 354.083 4.97043C353.311 4.19809 352.394 3.58543 351.384 3.16745C350.375 2.74946 349.293 2.53432 348.201 2.53432Z" fill="#16245F"/>
<path d="M345.365 17.2312H48.8273V184.501H345.365V17.2312Z" fill="white"/>
<path d="M196.843 12.6717C198.522 12.6717 199.884 11.3102 199.884 9.63055C199.884 7.95094 198.522 6.58936 196.843 6.58936C195.163 6.58936 193.801 7.95094 193.801 9.63055C193.801 11.3102 195.163 12.6717 196.843 12.6717Z" fill="#458FF6"/>
<path d="M137.031 79.6535H129.987C129.52 79.653 129.072 79.4674 128.742 79.1372C128.412 78.8071 128.226 78.3595 128.226 77.8927V70.8492C128.226 70.3824 128.412 69.9348 128.742 69.6047C129.072 69.2746 129.52 69.0889 129.987 69.0884H137.031C137.498 69.0889 137.945 69.2746 138.275 69.6047C138.606 69.9348 138.791 70.3824 138.792 70.8492V77.8927C138.791 78.3595 138.606 78.8071 138.275 79.1372C137.945 79.4674 137.498 79.653 137.031 79.6535ZM129.987 70.2623C129.831 70.2625 129.682 70.3244 129.572 70.4344C129.462 70.5445 129.4 70.6936 129.4 70.8492V77.8927C129.4 78.0483 129.462 78.1975 129.572 78.3075C129.682 78.4175 129.831 78.4794 129.987 78.4796H137.031C137.186 78.4794 137.336 78.4175 137.446 78.3075C137.556 78.1975 137.618 78.0483 137.618 77.8927V70.8492C137.618 70.6936 137.556 70.5445 137.446 70.4344C137.336 70.3244 137.186 70.2625 137.031 70.2623H129.987Z" fill="#16245F"/>
<path d="M262.65 78.4797H128.813V79.6536H262.65V78.4797Z" fill="#16245F"/>
<path d="M259.128 110.762H228.017V120.153H259.128V110.762Z" fill="#458FF6"/>
<path d="M261.476 117.806H232.713C232.246 117.805 231.798 117.619 231.468 117.289C231.138 116.959 230.952 116.512 230.952 116.045V109.001C230.952 108.534 231.138 108.087 231.468 107.757C231.798 107.427 232.246 107.241 232.713 107.24H261.476C261.943 107.241 262.39 107.427 262.721 107.757C263.051 108.087 263.236 108.534 263.237 109.001V116.045C263.236 116.512 263.051 116.959 262.721 117.289C262.39 117.619 261.943 117.805 261.476 117.806ZM232.713 108.414C232.557 108.415 232.408 108.476 232.298 108.587C232.188 108.697 232.126 108.846 232.126 109.001V116.045C232.126 116.2 232.188 116.35 232.298 116.46C232.408 116.57 232.557 116.632 232.713 116.632H261.476C261.632 116.632 261.781 116.57 261.891 116.46C262.001 116.35 262.063 116.2 262.063 116.045V109.001C262.063 108.846 262.001 108.697 261.891 108.587C261.781 108.476 261.632 108.415 261.476 108.414H232.713Z" fill="#16245F"/>
<path d="M496.865 121.327H438.165V162.414H496.865V121.327Z" fill="#458FF6"/>
<path d="M502.735 159.186H446.383C445.76 159.185 445.163 158.938 444.723 158.497C444.283 158.057 444.035 157.46 444.035 156.838V118.099C444.035 117.477 444.283 116.88 444.723 116.44C445.163 115.999 445.76 115.752 446.383 115.751H502.735C503.358 115.752 503.955 115.999 504.395 116.44C504.835 116.88 505.083 117.477 505.083 118.099V156.838C505.083 157.46 504.835 158.057 504.395 158.497C503.955 158.938 503.358 159.185 502.735 159.186ZM446.383 118.099V156.838H502.737L502.735 118.099H446.383Z" fill="#16245F"/>
<path d="M496.278 116.632H493.93C493.93 111.495 491.889 106.568 488.257 102.936C484.624 99.3031 479.697 97.2624 474.559 97.2624C469.421 97.2624 464.494 99.3031 460.862 102.936C457.229 106.568 455.188 111.495 455.188 116.632H452.84C452.84 110.872 455.128 105.348 459.201 101.275C463.274 97.2026 468.799 94.9146 474.559 94.9146C480.319 94.9146 485.844 97.2026 489.917 101.275C493.99 105.348 496.278 110.872 496.278 116.632Z" fill="#16245F"/>
<path d="M480.429 132.773C480.43 131.751 480.164 130.746 479.658 129.858C479.152 128.971 478.422 128.23 477.542 127.711C476.661 127.192 475.661 126.911 474.639 126.897C473.616 126.883 472.608 127.137 471.714 127.632C470.82 128.127 470.071 128.847 469.541 129.721C469.01 130.595 468.717 131.592 468.691 132.614C468.664 133.636 468.905 134.646 469.389 135.547C469.873 136.447 470.584 137.205 471.451 137.746V144.046C471.451 144.454 471.532 144.858 471.688 145.235C471.844 145.612 472.073 145.955 472.362 146.243C472.65 146.532 472.993 146.761 473.37 146.917C473.747 147.073 474.151 147.153 474.559 147.153C475.383 147.153 476.174 146.826 476.756 146.243C477.339 145.66 477.667 144.87 477.667 144.046V137.746C478.512 137.22 479.209 136.487 479.692 135.617C480.175 134.747 480.429 133.768 480.429 132.773Z" fill="#16245F"/>
<path d="M201.308 330.283H191.916V331.457H201.308V330.283Z" fill="#16245F"/>
<path d="M214.222 330.283H204.83V331.457H214.222V330.283Z" fill="#16245F"/>
<path d="M227.136 330.283H217.744V331.457H227.136V330.283Z" fill="#16245F"/>
<path d="M240.05 330.283H230.658V331.457H240.05V330.283Z" fill="#16245F"/>
<path d="M252.964 330.283H243.572V331.457H252.964V330.283Z" fill="#16245F"/>
<path d="M373.594 396.022H98.2885C97.6659 396.021 97.0691 395.774 96.6289 395.333C96.1887 394.893 95.9411 394.296 95.9404 393.674V259.849C95.9411 259.226 96.1887 258.629 96.6289 258.189C97.0691 257.749 97.6659 257.501 98.2885 257.501H373.594C374.216 257.501 374.813 257.749 375.253 258.189C375.694 258.629 375.941 259.226 375.942 259.849V393.674C375.941 394.297 375.694 394.893 375.253 395.333C374.813 395.774 374.216 396.021 373.594 396.022ZM98.2885 259.849V393.674H373.595L373.594 259.849H98.2885Z" fill="#16245F"/>
<path d="M110.616 279.805C112.561 279.805 114.138 278.228 114.138 276.283C114.138 274.338 112.561 272.761 110.616 272.761C108.67 272.761 107.094 274.338 107.094 276.283C107.094 278.228 108.67 279.805 110.616 279.805Z" fill="#16245F"/>
<path d="M122.943 279.805C124.888 279.805 126.465 278.228 126.465 276.283C126.465 274.338 124.888 272.761 122.943 272.761C120.997 272.761 119.421 274.338 119.421 276.283C119.421 278.228 120.997 279.805 122.943 279.805Z" fill="#16245F"/>
<path d="M135.27 279.805C137.215 279.805 138.792 278.228 138.792 276.283C138.792 274.338 137.215 272.761 135.27 272.761C133.325 272.761 131.748 274.338 131.748 276.283C131.748 278.228 133.325 279.805 135.27 279.805Z" fill="#16245F"/>
<path d="M262.063 338.5H182.817C182.35 338.5 181.903 338.314 181.573 337.984C181.242 337.654 181.057 337.206 181.056 336.739V316.783C181.057 316.316 181.242 315.869 181.573 315.538C181.903 315.208 182.35 315.023 182.817 315.022H262.063C262.53 315.023 262.978 315.208 263.308 315.538C263.638 315.869 263.823 316.316 263.824 316.783V336.739C263.823 337.206 263.638 337.654 263.308 337.984C262.978 338.314 262.53 338.5 262.063 338.5ZM182.817 316.196C182.662 316.196 182.512 316.258 182.402 316.368C182.292 316.478 182.23 316.627 182.23 316.783V336.739C182.23 336.895 182.292 337.044 182.402 337.154C182.512 337.264 182.662 337.326 182.817 337.326H262.063C262.219 337.326 262.368 337.264 262.478 337.154C262.588 337.044 262.65 336.895 262.65 336.739V316.783C262.65 316.627 262.588 316.478 262.478 316.368C262.368 316.258 262.219 316.196 262.063 316.196H182.817Z" fill="#16245F"/>
<path d="M282.021 339.087C287.857 339.087 292.587 334.357 292.587 328.522C292.587 322.687 287.857 317.957 282.021 317.957C276.186 317.957 271.455 322.687 271.455 328.522C271.455 334.357 276.186 339.087 282.021 339.087Z" fill="#458FF6"/>
<path d="M285.543 337.913C283.337 337.913 281.181 337.259 279.347 336.034C277.513 334.808 276.083 333.067 275.239 331.029C274.395 328.991 274.174 326.749 274.604 324.586C275.035 322.422 276.097 320.435 277.657 318.876C279.217 317.316 281.204 316.254 283.367 315.823C285.531 315.393 287.773 315.614 289.811 316.458C291.849 317.302 293.591 318.731 294.817 320.565C296.042 322.399 296.696 324.556 296.696 326.761C296.693 329.718 295.517 332.553 293.426 334.643C291.335 336.734 288.5 337.91 285.543 337.913ZM285.543 316.783C283.57 316.783 281.64 317.368 279.999 318.465C278.358 319.561 277.079 321.119 276.324 322.943C275.568 324.766 275.371 326.772 275.756 328.708C276.141 330.643 277.091 332.421 278.487 333.817C279.882 335.212 281.661 336.163 283.596 336.548C285.532 336.933 287.539 336.735 289.362 335.98C291.185 335.225 292.744 333.946 293.841 332.305C294.937 330.664 295.522 328.735 295.522 326.761C295.519 324.116 294.467 321.579 292.596 319.709C290.725 317.838 288.189 316.786 285.543 316.783Z" fill="#16245F"/>
<path d="M285.7 330.926L280.017 325.243L281.677 323.584L285.386 327.292L295.736 312.585L297.656 313.937L285.7 330.926Z" fill="#16245F"/>
<path opacity="0.1" d="M279.62 184.501H48.8271V29.9036L279.62 184.501Z" fill="black"/>
<path d="M364.846 181.458H335.905V179.373C335.905 179.319 335.894 179.265 335.873 179.215C335.853 179.165 335.822 179.119 335.784 179.081C335.745 179.042 335.7 179.012 335.65 178.991C335.6 178.97 335.546 178.959 335.491 178.959H325.569C325.515 178.959 325.461 178.97 325.411 178.991C325.361 179.012 325.315 179.042 325.277 179.081C325.238 179.119 325.208 179.165 325.187 179.215C325.166 179.265 325.156 179.319 325.156 179.373V181.458H318.954V179.373C318.954 179.319 318.943 179.265 318.923 179.215C318.902 179.165 318.871 179.119 318.833 179.081C318.794 179.042 318.749 179.012 318.699 178.991C318.649 178.97 318.595 178.959 318.541 178.959H308.618C308.564 178.959 308.51 178.97 308.46 178.991C308.41 179.012 308.364 179.042 308.326 179.081C308.287 179.119 308.257 179.165 308.236 179.215C308.215 179.265 308.205 179.319 308.205 179.373V181.458H302.003V179.373C302.003 179.319 301.992 179.265 301.972 179.215C301.951 179.165 301.92 179.119 301.882 179.081C301.844 179.042 301.798 179.012 301.748 178.991C301.698 178.97 301.644 178.959 301.59 178.959H291.667C291.613 178.959 291.559 178.97 291.509 178.991C291.459 179.012 291.413 179.042 291.375 179.081C291.336 179.119 291.306 179.165 291.285 179.215C291.264 179.265 291.254 179.319 291.254 179.373V181.458H285.052V179.373C285.052 179.319 285.041 179.265 285.021 179.215C285 179.165 284.969 179.119 284.931 179.081C284.893 179.042 284.847 179.012 284.797 178.991C284.747 178.97 284.693 178.959 284.639 178.959H274.716C274.662 178.959 274.608 178.97 274.558 178.991C274.508 179.012 274.462 179.042 274.424 179.081C274.385 179.119 274.355 179.165 274.334 179.215C274.313 179.265 274.303 179.319 274.303 179.373V181.458H268.101V179.373C268.101 179.319 268.09 179.265 268.07 179.215C268.049 179.165 268.018 179.119 267.98 179.081C267.942 179.042 267.896 179.012 267.846 178.991C267.796 178.97 267.742 178.959 267.688 178.959H257.765C257.711 178.959 257.657 178.97 257.607 178.991C257.557 179.012 257.511 179.042 257.473 179.081C257.435 179.119 257.404 179.165 257.383 179.215C257.363 179.265 257.352 179.319 257.352 179.373V181.458H251.15V179.373C251.15 179.319 251.14 179.265 251.119 179.215C251.098 179.165 251.068 179.119 251.029 179.081C250.991 179.042 250.945 179.012 250.895 178.991C250.845 178.97 250.791 178.959 250.737 178.959H240.814C240.76 178.959 240.706 178.97 240.656 178.991C240.606 179.012 240.56 179.042 240.522 179.081C240.484 179.119 240.453 179.165 240.432 179.215C240.412 179.265 240.401 179.319 240.401 179.373V181.458H234.199V179.373C234.199 179.319 234.189 179.265 234.168 179.215C234.147 179.165 234.117 179.119 234.078 179.081C234.04 179.042 233.994 179.012 233.944 178.991C233.894 178.97 233.84 178.959 233.786 178.959H156.06C156.005 178.959 155.952 178.97 155.901 178.991C155.851 179.012 155.806 179.042 155.767 179.081C155.729 179.119 155.698 179.165 155.678 179.215C155.657 179.265 155.646 179.319 155.646 179.373V181.458H149.445V179.373C149.445 179.319 149.434 179.265 149.413 179.215C149.392 179.165 149.362 179.119 149.324 179.081C149.285 179.042 149.24 179.012 149.189 178.991C149.139 178.97 149.086 178.959 149.031 178.959H139.109C139.054 178.959 139.001 178.97 138.951 178.991C138.9 179.012 138.855 179.042 138.816 179.081C138.778 179.119 138.748 179.165 138.727 179.215C138.706 179.265 138.695 179.319 138.695 179.373V181.458H132.494V179.373C132.494 179.319 132.483 179.265 132.462 179.215C132.441 179.165 132.411 179.119 132.373 179.081C132.334 179.042 132.289 179.012 132.238 178.991C132.188 178.97 132.135 178.959 132.08 178.959H122.158C122.103 178.959 122.05 178.97 122 178.991C121.949 179.012 121.904 179.042 121.865 179.081C121.827 179.119 121.797 179.165 121.776 179.215C121.755 179.265 121.744 179.319 121.744 179.373V181.458H115.543V179.373C115.543 179.319 115.532 179.265 115.511 179.215C115.491 179.165 115.46 179.119 115.422 179.081C115.383 179.042 115.338 179.012 115.288 178.991C115.237 178.97 115.184 178.959 115.129 178.959H105.207C105.153 178.959 105.099 178.97 105.049 178.991C104.998 179.012 104.953 179.042 104.915 179.081C104.876 179.119 104.846 179.165 104.825 179.215C104.804 179.265 104.793 179.319 104.793 179.373V181.458H98.5919V179.373C98.5919 179.319 98.5812 179.265 98.5604 179.215C98.5396 179.165 98.5092 179.119 98.4708 179.081C98.4324 179.042 98.3868 179.012 98.3366 178.991C98.2865 178.97 98.2327 178.959 98.1784 178.959H88.2559C88.2016 178.959 88.1479 178.97 88.0977 178.991C88.0475 179.012 88.0019 179.042 87.9636 179.081C87.9252 179.119 87.8947 179.165 87.8739 179.215C87.8532 179.265 87.8425 179.319 87.8425 179.373V181.458H81.6409V179.373C81.6409 179.319 81.6302 179.265 81.6095 179.215C81.5887 179.165 81.5582 179.119 81.5199 179.081C81.4815 179.042 81.4359 179.012 81.3857 178.991C81.3356 178.97 81.2818 178.959 81.2275 178.959H71.305C71.2507 178.959 71.1969 178.97 71.1468 178.991C71.0966 179.012 71.051 179.042 71.0126 179.081C70.9743 179.119 70.9438 179.165 70.923 179.215C70.9022 179.265 70.8915 179.319 70.8915 179.373V181.458H64.69V179.373C64.69 179.319 64.6793 179.265 64.6585 179.215C64.6377 179.165 64.6073 179.119 64.5689 179.081C64.5305 179.042 64.4849 179.012 64.4348 178.991C64.3846 178.97 64.3308 178.959 64.2765 178.959H54.3541C54.2998 178.959 54.246 178.97 54.1958 178.991C54.1457 179.012 54.1001 179.042 54.0617 179.081C54.0233 179.119 53.9929 179.165 53.9721 179.215C53.9513 179.265 53.9406 179.319 53.9406 179.373V181.458H34.9225C33.6195 181.458 32.3292 181.714 31.1253 182.213C29.9215 182.712 28.8276 183.443 27.9062 184.364C26.9848 185.285 26.254 186.379 25.7553 187.583C25.2567 188.786 25 190.077 25 191.379V195.866C25 198.497 26.0454 201.021 27.9062 202.881C29.7671 204.742 32.2909 205.787 34.9225 205.787H364.846C366.149 205.787 367.439 205.531 368.643 205.032C369.847 204.534 370.94 203.803 371.862 202.881C372.783 201.96 373.514 200.866 374.013 199.663C374.511 198.459 374.768 197.169 374.768 195.866V191.379C374.768 190.077 374.511 188.786 374.013 187.583C373.514 186.379 372.783 185.285 371.862 184.364C370.94 183.442 369.847 182.712 368.643 182.213C367.439 181.714 366.149 181.458 364.846 181.458Z" fill="#16245F"/>
<path d="M274.39 127.784H119.421C118.954 127.783 118.506 127.598 118.176 127.268C117.846 126.937 117.66 126.49 117.66 126.023V61.4581C117.66 60.9913 117.846 60.5437 118.176 60.2136C118.506 59.8835 118.954 59.6978 119.421 59.6973H274.39C274.857 59.6978 275.305 59.8835 275.635 60.2136C275.965 60.5437 276.151 60.9913 276.151 61.4581V126.023C276.151 126.49 275.965 126.937 275.635 127.268C275.305 127.598 274.857 127.783 274.39 127.784ZM119.421 60.8712C119.265 60.8714 119.116 60.9333 119.006 61.0433C118.896 61.1533 118.834 61.3025 118.834 61.4581V126.023C118.834 126.179 118.896 126.328 119.006 126.438C119.116 126.548 119.265 126.61 119.421 126.61H274.39C274.546 126.61 274.695 126.548 274.805 126.438C274.915 126.328 274.977 126.179 274.977 126.023V61.4581C274.977 61.3025 274.915 61.1533 274.805 61.0433C274.695 60.9333 274.546 60.8714 274.39 60.8712H119.421Z" fill="#16245F"/>
<path d="M137.031 97.2622H129.987C129.52 97.2617 129.072 97.076 128.742 96.7459C128.412 96.4158 128.226 95.9682 128.226 95.5013V88.4579C128.226 87.991 128.412 87.5434 128.742 87.2133C129.072 86.8832 129.52 86.6975 129.987 86.697H137.031C137.498 86.6975 137.945 86.8832 138.275 87.2133C138.606 87.5434 138.791 87.991 138.792 88.4579V95.5013C138.791 95.9682 138.606 96.4158 138.275 96.7459C137.945 97.076 137.498 97.2617 137.031 97.2622ZM129.987 87.8709C129.831 87.8711 129.682 87.933 129.572 88.0431C129.462 88.1531 129.4 88.3023 129.4 88.4579V95.5013C129.4 95.6569 129.462 95.8061 129.572 95.9162C129.682 96.0262 129.831 96.0881 129.987 96.0883H137.031C137.186 96.0881 137.336 96.0262 137.446 95.9162C137.556 95.8061 137.618 95.6569 137.618 95.5013V88.4579C137.618 88.3023 137.556 88.1531 137.446 88.0431C137.336 87.933 137.186 87.8711 137.031 87.8709H129.987Z" fill="#16245F"/>
<path d="M262.65 96.0884H128.813V97.2623H262.65V96.0884Z" fill="#16245F"/>
<path d="M610.744 158.305H180.469V159.479H610.744V158.305Z" fill="#16245F"/>
<path d="M180.469 166.523C185.008 166.523 188.687 162.844 188.687 158.305C188.687 153.767 185.008 150.088 180.469 150.088C175.93 150.088 172.251 153.767 172.251 158.305C172.251 162.844 175.93 166.523 180.469 166.523Z" fill="#16245F"/>
<path d="M610.744 165.936C614.31 165.936 617.201 163.045 617.201 159.479C617.201 155.913 614.31 153.023 610.744 153.023C607.178 153.023 604.287 155.913 604.287 159.479C604.287 163.045 607.178 165.936 610.744 165.936Z" fill="#16245F"/>
<path d="M642.443 295.653C646.009 295.653 648.9 292.762 648.9 289.196C648.9 285.63 646.009 282.74 642.443 282.74C638.877 282.74 635.986 285.63 635.986 289.196C635.986 292.762 638.877 295.653 642.443 295.653Z" fill="#16245F"/>
<path d="M213.928 295.653C217.495 295.653 220.386 292.762 220.386 289.196C220.386 285.63 217.495 282.74 213.928 282.74C210.362 282.74 207.471 285.63 207.471 289.196C207.471 292.762 210.362 295.653 213.928 295.653Z" fill="#16245F"/>
</g>
<defs>
<linearGradient id="paint0_linear_996_4540" x1="572.996" y1="153.134" x2="501.594" y2="-28.67" gradientUnits="userSpaceOnUse">
<stop/>
<stop offset="1" stop-color="white"/>
</linearGradient>
<linearGradient id="paint1_linear_996_4540" x1="572.996" y1="153.134" x2="501.594" y2="-28.67" gradientUnits="userSpaceOnUse">
<stop stop-color="#97C3F9"/>
<stop offset="1" stop-color="#93C1F9"/>
</linearGradient>
<linearGradient id="paint2_linear_996_4540" x1="599.2" y1="142.843" x2="527.799" y2="-38.9613" gradientUnits="userSpaceOnUse">
<stop/>
<stop offset="1" stop-color="white"/>
</linearGradient>
<linearGradient id="paint3_linear_996_4540" x1="599.2" y1="142.843" x2="527.799" y2="-38.9613" gradientUnits="userSpaceOnUse">
<stop stop-color="#97C3F9"/>
<stop offset="1" stop-color="#93C1F9"/>
</linearGradient>
<linearGradient id="paint4_linear_996_4540" x1="625.405" y1="132.551" x2="554.003" y2="-49.2526" gradientUnits="userSpaceOnUse">
<stop/>
<stop offset="1" stop-color="white"/>
</linearGradient>
<linearGradient id="paint5_linear_996_4540" x1="625.405" y1="132.551" x2="554.003" y2="-49.2526" gradientUnits="userSpaceOnUse">
<stop stop-color="#97C3F9"/>
<stop offset="1" stop-color="#93C1F9"/>
</linearGradient>
<linearGradient id="paint6_linear_996_4540" x1="651.609" y1="122.259" x2="580.208" y2="-59.5444" gradientUnits="userSpaceOnUse">
<stop/>
<stop offset="1" stop-color="white"/>
</linearGradient>
<linearGradient id="paint7_linear_996_4540" x1="651.609" y1="122.259" x2="580.208" y2="-59.5444" gradientUnits="userSpaceOnUse">
<stop stop-color="#97C3F9"/>
<stop offset="1" stop-color="#93C1F9"/>
</linearGradient>
<linearGradient id="paint8_linear_996_4540" x1="677.813" y1="111.968" x2="606.412" y2="-69.8359" gradientUnits="userSpaceOnUse">
<stop/>
<stop offset="1" stop-color="white"/>
</linearGradient>
<linearGradient id="paint9_linear_996_4540" x1="677.813" y1="111.968" x2="606.412" y2="-69.8359" gradientUnits="userSpaceOnUse">
<stop stop-color="#97C3F9"/>
<stop offset="1" stop-color="#93C1F9"/>
</linearGradient>
<linearGradient id="paint10_linear_996_4540" x1="564.054" y1="156.645" x2="492.653" y2="-25.1572" gradientUnits="userSpaceOnUse">
<stop/>
<stop offset="1" stop-color="white"/>
</linearGradient>
<linearGradient id="paint11_linear_996_4540" x1="564.054" y1="156.645" x2="492.653" y2="-25.1572" gradientUnits="userSpaceOnUse">
<stop stop-color="#97C3F9"/>
<stop offset="1" stop-color="#93C1F9"/>
</linearGradient>
<linearGradient id="paint12_linear_996_4540" x1="590.258" y1="146.354" x2="518.858" y2="-35.4491" gradientUnits="userSpaceOnUse">
<stop/>
<stop offset="1" stop-color="white"/>
</linearGradient>
<linearGradient id="paint13_linear_996_4540" x1="590.258" y1="146.354" x2="518.858" y2="-35.4491" gradientUnits="userSpaceOnUse">
<stop stop-color="#97C3F9"/>
<stop offset="1" stop-color="#93C1F9"/>
</linearGradient>
<linearGradient id="paint14_linear_996_4540" x1="616.462" y1="136.062" x2="545.062" y2="-45.7404" gradientUnits="userSpaceOnUse">
<stop/>
<stop offset="1" stop-color="white"/>
</linearGradient>
<linearGradient id="paint15_linear_996_4540" x1="616.462" y1="136.062" x2="545.062" y2="-45.7404" gradientUnits="userSpaceOnUse">
<stop stop-color="#97C3F9"/>
<stop offset="1" stop-color="#93C1F9"/>
</linearGradient>
<linearGradient id="paint16_linear_996_4540" x1="642.667" y1="125.771" x2="571.266" y2="-56.0318" gradientUnits="userSpaceOnUse">
<stop/>
<stop offset="1" stop-color="white"/>
</linearGradient>
<linearGradient id="paint17_linear_996_4540" x1="642.667" y1="125.771" x2="571.266" y2="-56.0318" gradientUnits="userSpaceOnUse">
<stop stop-color="#97C3F9"/>
<stop offset="1" stop-color="#93C1F9"/>
</linearGradient>
<linearGradient id="paint18_linear_996_4540" x1="555.111" y1="160.158" x2="483.71" y2="-21.6457" gradientUnits="userSpaceOnUse">
<stop/>
<stop offset="1" stop-color="white"/>
</linearGradient>
<linearGradient id="paint19_linear_996_4540" x1="555.111" y1="160.158" x2="483.71" y2="-21.6457" gradientUnits="userSpaceOnUse">
<stop stop-color="#97C3F9"/>
<stop offset="1" stop-color="#93C1F9"/>
</linearGradient>
<linearGradient id="paint20_linear_996_4540" x1="581.316" y1="149.867" x2="509.914" y2="-31.9373" gradientUnits="userSpaceOnUse">
<stop/>
<stop offset="1" stop-color="white"/>
</linearGradient>
<linearGradient id="paint21_linear_996_4540" x1="581.316" y1="149.867" x2="509.914" y2="-31.9373" gradientUnits="userSpaceOnUse">
<stop stop-color="#97C3F9"/>
<stop offset="1" stop-color="#93C1F9"/>
</linearGradient>
<linearGradient id="paint22_linear_996_4540" x1="607.52" y1="139.575" x2="536.118" y2="-42.2287" gradientUnits="userSpaceOnUse">
<stop/>
<stop offset="1" stop-color="white"/>
</linearGradient>
<linearGradient id="paint23_linear_996_4540" x1="607.52" y1="139.575" x2="536.118" y2="-42.2287" gradientUnits="userSpaceOnUse">
<stop stop-color="#97C3F9"/>
<stop offset="1" stop-color="#93C1F9"/>
</linearGradient>
<linearGradient id="paint24_linear_996_4540" x1="633.724" y1="129.283" x2="562.323" y2="-52.5204" gradientUnits="userSpaceOnUse">
<stop/>
<stop offset="1" stop-color="white"/>
</linearGradient>
<linearGradient id="paint25_linear_996_4540" x1="633.724" y1="129.283" x2="562.323" y2="-52.5204" gradientUnits="userSpaceOnUse">
<stop stop-color="#97C3F9"/>
<stop offset="1" stop-color="#93C1F9"/>
</linearGradient>
<linearGradient id="paint26_linear_996_4540" x1="659.929" y1="118.992" x2="588.527" y2="-62.8119" gradientUnits="userSpaceOnUse">
<stop/>
<stop offset="1" stop-color="white"/>
</linearGradient>
<linearGradient id="paint27_linear_996_4540" x1="659.929" y1="118.992" x2="588.527" y2="-62.8119" gradientUnits="userSpaceOnUse">
<stop stop-color="#97C3F9"/>
<stop offset="1" stop-color="#93C1F9"/>
</linearGradient>
<linearGradient id="paint28_linear_996_4540" x1="668.871" y1="115.479" x2="597.471" y2="-66.3232" gradientUnits="userSpaceOnUse">
<stop/>
<stop offset="1" stop-color="white"/>
</linearGradient>
<linearGradient id="paint29_linear_996_4540" x1="668.871" y1="115.479" x2="597.471" y2="-66.3232" gradientUnits="userSpaceOnUse">
<stop stop-color="#97C3F9"/>
<stop offset="1" stop-color="#93C1F9"/>
</linearGradient>
<linearGradient id="paint30_linear_996_4540" x1="546.169" y1="163.67" x2="474.767" y2="-18.1338" gradientUnits="userSpaceOnUse">
<stop/>
<stop offset="1" stop-color="white"/>
</linearGradient>
<linearGradient id="paint31_linear_996_4540" x1="546.169" y1="163.67" x2="474.767" y2="-18.1338" gradientUnits="userSpaceOnUse">
<stop stop-color="#97C3F9"/>
<stop offset="1" stop-color="#93C1F9"/>
</linearGradient>
<linearGradient id="paint32_linear_996_4540" x1="572.373" y1="153.379" x2="500.972" y2="-28.4253" gradientUnits="userSpaceOnUse">
<stop/>
<stop offset="1" stop-color="white"/>
</linearGradient>
<linearGradient id="paint33_linear_996_4540" x1="572.373" y1="153.379" x2="500.972" y2="-28.4253" gradientUnits="userSpaceOnUse">
<stop stop-color="#97C3F9"/>
<stop offset="1" stop-color="#93C1F9"/>
</linearGradient>
<linearGradient id="paint34_linear_996_4540" x1="598.578" y1="143.087" x2="527.176" y2="-38.7167" gradientUnits="userSpaceOnUse">
<stop/>
<stop offset="1" stop-color="white"/>
</linearGradient>
<linearGradient id="paint35_linear_996_4540" x1="598.578" y1="143.087" x2="527.176" y2="-38.7167" gradientUnits="userSpaceOnUse">
<stop stop-color="#97C3F9"/>
<stop offset="1" stop-color="#93C1F9"/>
</linearGradient>
<linearGradient id="paint36_linear_996_4540" x1="624.782" y1="132.796" x2="553.38" y2="-49.0083" gradientUnits="userSpaceOnUse">
<stop/>
<stop offset="1" stop-color="white"/>
</linearGradient>
<linearGradient id="paint37_linear_996_4540" x1="624.782" y1="132.796" x2="553.38" y2="-49.0083" gradientUnits="userSpaceOnUse">
<stop stop-color="#97C3F9"/>
<stop offset="1" stop-color="#93C1F9"/>
</linearGradient>
<linearGradient id="paint38_linear_996_4540" x1="650.986" y1="122.504" x2="579.585" y2="-59.2999" gradientUnits="userSpaceOnUse">
<stop/>
<stop offset="1" stop-color="white"/>
</linearGradient>
<linearGradient id="paint39_linear_996_4540" x1="650.986" y1="122.504" x2="579.585" y2="-59.2999" gradientUnits="userSpaceOnUse">
<stop stop-color="#97C3F9"/>
<stop offset="1" stop-color="#93C1F9"/>
</linearGradient>
<linearGradient id="paint40_linear_996_4540" x1="537.227" y1="167.182" x2="465.825" y2="-14.6218" gradientUnits="userSpaceOnUse">
<stop/>
<stop offset="1" stop-color="white"/>
</linearGradient>
<linearGradient id="paint41_linear_996_4540" x1="537.227" y1="167.182" x2="465.825" y2="-14.6218" gradientUnits="userSpaceOnUse">
<stop stop-color="#97C3F9"/>
<stop offset="1" stop-color="#93C1F9"/>
</linearGradient>
<linearGradient id="paint42_linear_996_4540" x1="563.431" y1="156.89" x2="492.029" y2="-24.9133" gradientUnits="userSpaceOnUse">
<stop/>
<stop offset="1" stop-color="white"/>
</linearGradient>
<linearGradient id="paint43_linear_996_4540" x1="563.431" y1="156.89" x2="492.029" y2="-24.9133" gradientUnits="userSpaceOnUse">
<stop stop-color="#97C3F9"/>
<stop offset="1" stop-color="#93C1F9"/>
</linearGradient>
<linearGradient id="paint44_linear_996_4540" x1="589.635" y1="146.599" x2="518.234" y2="-35.2047" gradientUnits="userSpaceOnUse">
<stop/>
<stop offset="1" stop-color="white"/>
</linearGradient>
<linearGradient id="paint45_linear_996_4540" x1="589.635" y1="146.599" x2="518.234" y2="-35.2047" gradientUnits="userSpaceOnUse">
<stop stop-color="#97C3F9"/>
<stop offset="1" stop-color="#93C1F9"/>
</linearGradient>
<linearGradient id="paint46_linear_996_4540" x1="615.84" y1="136.307" x2="544.438" y2="-45.4963" gradientUnits="userSpaceOnUse">
<stop/>
<stop offset="1" stop-color="white"/>
</linearGradient>
<linearGradient id="paint47_linear_996_4540" x1="615.84" y1="136.307" x2="544.438" y2="-45.4963" gradientUnits="userSpaceOnUse">
<stop stop-color="#97C3F9"/>
<stop offset="1" stop-color="#93C1F9"/>
</linearGradient>
<linearGradient id="paint48_linear_996_4540" x1="642.044" y1="126.016" x2="570.642" y2="-55.7878" gradientUnits="userSpaceOnUse">
<stop/>
<stop offset="1" stop-color="white"/>
</linearGradient>
<linearGradient id="paint49_linear_996_4540" x1="642.044" y1="126.016" x2="570.642" y2="-55.7878" gradientUnits="userSpaceOnUse">
<stop stop-color="#97C3F9"/>
<stop offset="1" stop-color="#93C1F9"/>
</linearGradient>
<linearGradient id="paint50_linear_996_4540" x1="54.996" y1="447.134" x2="-16.4057" y2="265.33" gradientUnits="userSpaceOnUse">
<stop/>
<stop offset="1" stop-color="white"/>
</linearGradient>
<linearGradient id="paint51_linear_996_4540" x1="54.996" y1="447.134" x2="-16.4057" y2="265.33" gradientUnits="userSpaceOnUse">
<stop stop-color="#97C3F9"/>
<stop offset="1" stop-color="#93C1F9"/>
</linearGradient>
<linearGradient id="paint52_linear_996_4540" x1="81.2005" y1="436.843" x2="9.79889" y2="255.039" gradientUnits="userSpaceOnUse">
<stop/>
<stop offset="1" stop-color="white"/>
</linearGradient>
<linearGradient id="paint53_linear_996_4540" x1="81.2005" y1="436.843" x2="9.79889" y2="255.039" gradientUnits="userSpaceOnUse">
<stop stop-color="#97C3F9"/>
<stop offset="1" stop-color="#93C1F9"/>
</linearGradient>
<linearGradient id="paint54_linear_996_4540" x1="107.405" y1="426.551" x2="36.0033" y2="244.747" gradientUnits="userSpaceOnUse">
<stop/>
<stop offset="1" stop-color="white"/>
</linearGradient>
<linearGradient id="paint55_linear_996_4540" x1="107.405" y1="426.551" x2="36.0033" y2="244.747" gradientUnits="userSpaceOnUse">
<stop stop-color="#97C3F9"/>
<stop offset="1" stop-color="#93C1F9"/>
</linearGradient>
<linearGradient id="paint56_linear_996_4540" x1="133.609" y1="416.259" x2="62.2075" y2="234.456" gradientUnits="userSpaceOnUse">
<stop/>
<stop offset="1" stop-color="white"/>
</linearGradient>
<linearGradient id="paint57_linear_996_4540" x1="133.609" y1="416.259" x2="62.2075" y2="234.456" gradientUnits="userSpaceOnUse">
<stop stop-color="#97C3F9"/>
<stop offset="1" stop-color="#93C1F9"/>
</linearGradient>
<linearGradient id="paint58_linear_996_4540" x1="159.813" y1="405.968" x2="88.4119" y2="224.164" gradientUnits="userSpaceOnUse">
<stop/>
<stop offset="1" stop-color="white"/>
</linearGradient>
<linearGradient id="paint59_linear_996_4540" x1="159.813" y1="405.968" x2="88.4119" y2="224.164" gradientUnits="userSpaceOnUse">
<stop stop-color="#97C3F9"/>
<stop offset="1" stop-color="#93C1F9"/>
</linearGradient>
<linearGradient id="paint60_linear_996_4540" x1="46.0538" y1="450.645" x2="-25.3466" y2="268.843" gradientUnits="userSpaceOnUse">
<stop/>
<stop offset="1" stop-color="white"/>
</linearGradient>
<linearGradient id="paint61_linear_996_4540" x1="46.0538" y1="450.645" x2="-25.3466" y2="268.843" gradientUnits="userSpaceOnUse">
<stop stop-color="#97C3F9"/>
<stop offset="1" stop-color="#93C1F9"/>
</linearGradient>
<linearGradient id="paint62_linear_996_4540" x1="72.2581" y1="440.354" x2="0.857718" y2="258.551" gradientUnits="userSpaceOnUse">
<stop/>
<stop offset="1" stop-color="white"/>
</linearGradient>
<linearGradient id="paint63_linear_996_4540" x1="72.2581" y1="440.354" x2="0.857718" y2="258.551" gradientUnits="userSpaceOnUse">
<stop stop-color="#97C3F9"/>
<stop offset="1" stop-color="#93C1F9"/>
</linearGradient>
<linearGradient id="paint64_linear_996_4540" x1="98.4624" y1="430.062" x2="27.0621" y2="248.26" gradientUnits="userSpaceOnUse">
<stop/>
<stop offset="1" stop-color="white"/>
</linearGradient>
<linearGradient id="paint65_linear_996_4540" x1="98.4624" y1="430.062" x2="27.0621" y2="248.26" gradientUnits="userSpaceOnUse">
<stop stop-color="#97C3F9"/>
<stop offset="1" stop-color="#93C1F9"/>
</linearGradient>
<linearGradient id="paint66_linear_996_4540" x1="124.667" y1="419.771" x2="53.2663" y2="237.968" gradientUnits="userSpaceOnUse">
<stop/>
<stop offset="1" stop-color="white"/>
</linearGradient>
<linearGradient id="paint67_linear_996_4540" x1="124.667" y1="419.771" x2="53.2663" y2="237.968" gradientUnits="userSpaceOnUse">
<stop stop-color="#97C3F9"/>
<stop offset="1" stop-color="#93C1F9"/>
</linearGradient>
<linearGradient id="paint68_linear_996_4540" x1="37.1113" y1="454.158" x2="-34.2903" y2="272.354" gradientUnits="userSpaceOnUse">
<stop/>
<stop offset="1" stop-color="white"/>
</linearGradient>
<linearGradient id="paint69_linear_996_4540" x1="37.1113" y1="454.158" x2="-34.2903" y2="272.354" gradientUnits="userSpaceOnUse">
<stop stop-color="#97C3F9"/>
<stop offset="1" stop-color="#93C1F9"/>
</linearGradient>
<linearGradient id="paint70_linear_996_4540" x1="63.3157" y1="443.866" x2="-8.0859" y2="262.063" gradientUnits="userSpaceOnUse">
<stop/>
<stop offset="1" stop-color="white"/>
</linearGradient>
<linearGradient id="paint71_linear_996_4540" x1="63.3157" y1="443.866" x2="-8.0859" y2="262.063" gradientUnits="userSpaceOnUse">
<stop stop-color="#97C3F9"/>
<stop offset="1" stop-color="#93C1F9"/>
</linearGradient>
<linearGradient id="paint72_linear_996_4540" x1="89.5201" y1="433.575" x2="18.1185" y2="251.771" gradientUnits="userSpaceOnUse">
<stop/>
<stop offset="1" stop-color="white"/>
</linearGradient>
<linearGradient id="paint73_linear_996_4540" x1="89.5201" y1="433.575" x2="18.1185" y2="251.771" gradientUnits="userSpaceOnUse">
<stop stop-color="#97C3F9"/>
<stop offset="1" stop-color="#93C1F9"/>
</linearGradient>
<linearGradient id="paint74_linear_996_4540" x1="115.724" y1="423.283" x2="44.3227" y2="241.48" gradientUnits="userSpaceOnUse">
<stop/>
<stop offset="1" stop-color="white"/>
</linearGradient>
<linearGradient id="paint75_linear_996_4540" x1="115.724" y1="423.283" x2="44.3227" y2="241.48" gradientUnits="userSpaceOnUse">
<stop stop-color="#97C3F9"/>
<stop offset="1" stop-color="#93C1F9"/>
</linearGradient>
<linearGradient id="paint76_linear_996_4540" x1="141.929" y1="412.992" x2="70.5271" y2="231.188" gradientUnits="userSpaceOnUse">
<stop/>
<stop offset="1" stop-color="white"/>
</linearGradient>
<linearGradient id="paint77_linear_996_4540" x1="141.929" y1="412.992" x2="70.5271" y2="231.188" gradientUnits="userSpaceOnUse">
<stop stop-color="#97C3F9"/>
<stop offset="1" stop-color="#93C1F9"/>
</linearGradient>
<linearGradient id="paint78_linear_996_4540" x1="150.871" y1="409.479" x2="79.4707" y2="227.677" gradientUnits="userSpaceOnUse">
<stop/>
<stop offset="1" stop-color="white"/>
</linearGradient>
<linearGradient id="paint79_linear_996_4540" x1="150.871" y1="409.479" x2="79.4707" y2="227.677" gradientUnits="userSpaceOnUse">
<stop stop-color="#97C3F9"/>
<stop offset="1" stop-color="#93C1F9"/>
</linearGradient>
<linearGradient id="paint80_linear_996_4540" x1="28.169" y1="457.67" x2="-43.2327" y2="275.866" gradientUnits="userSpaceOnUse">
<stop/>
<stop offset="1" stop-color="white"/>
</linearGradient>
<linearGradient id="paint81_linear_996_4540" x1="28.169" y1="457.67" x2="-43.2327" y2="275.866" gradientUnits="userSpaceOnUse">
<stop stop-color="#97C3F9"/>
<stop offset="1" stop-color="#93C1F9"/>
</linearGradient>
<linearGradient id="paint82_linear_996_4540" x1="54.3734" y1="447.378" x2="-17.0283" y2="265.575" gradientUnits="userSpaceOnUse">
<stop/>
<stop offset="1" stop-color="white"/>
</linearGradient>
<linearGradient id="paint83_linear_996_4540" x1="54.3734" y1="447.378" x2="-17.0283" y2="265.575" gradientUnits="userSpaceOnUse">
<stop stop-color="#97C3F9"/>
<stop offset="1" stop-color="#93C1F9"/>
</linearGradient>
<linearGradient id="paint84_linear_996_4540" x1="80.5777" y1="437.087" x2="9.17609" y2="255.283" gradientUnits="userSpaceOnUse">
<stop/>
<stop offset="1" stop-color="white"/>
</linearGradient>
<linearGradient id="paint85_linear_996_4540" x1="80.5777" y1="437.087" x2="9.17609" y2="255.283" gradientUnits="userSpaceOnUse">
<stop stop-color="#97C3F9"/>
<stop offset="1" stop-color="#93C1F9"/>
</linearGradient>
<linearGradient id="paint86_linear_996_4540" x1="106.782" y1="426.795" x2="35.3804" y2="244.992" gradientUnits="userSpaceOnUse">
<stop/>
<stop offset="1" stop-color="white"/>
</linearGradient>
<linearGradient id="paint87_linear_996_4540" x1="106.782" y1="426.795" x2="35.3804" y2="244.992" gradientUnits="userSpaceOnUse">
<stop stop-color="#97C3F9"/>
<stop offset="1" stop-color="#93C1F9"/>
</linearGradient>
<linearGradient id="paint88_linear_996_4540" x1="132.986" y1="416.504" x2="61.5847" y2="234.7" gradientUnits="userSpaceOnUse">
<stop/>
<stop offset="1" stop-color="white"/>
</linearGradient>
<linearGradient id="paint89_linear_996_4540" x1="132.986" y1="416.504" x2="61.5847" y2="234.7" gradientUnits="userSpaceOnUse">
<stop stop-color="#97C3F9"/>
<stop offset="1" stop-color="#93C1F9"/>
</linearGradient>
<linearGradient id="paint90_linear_996_4540" x1="19.2266" y1="461.182" x2="-52.1751" y2="279.378" gradientUnits="userSpaceOnUse">
<stop/>
<stop offset="1" stop-color="white"/>
</linearGradient>
<linearGradient id="paint91_linear_996_4540" x1="19.2266" y1="461.182" x2="-52.1751" y2="279.378" gradientUnits="userSpaceOnUse">
<stop stop-color="#97C3F9"/>
<stop offset="1" stop-color="#93C1F9"/>
</linearGradient>
<linearGradient id="paint92_linear_996_4540" x1="45.431" y1="450.89" x2="-25.9706" y2="269.087" gradientUnits="userSpaceOnUse">
<stop/>
<stop offset="1" stop-color="white"/>
</linearGradient>
<linearGradient id="paint93_linear_996_4540" x1="45.431" y1="450.89" x2="-25.9706" y2="269.087" gradientUnits="userSpaceOnUse">
<stop stop-color="#97C3F9"/>
<stop offset="1" stop-color="#93C1F9"/>
</linearGradient>
<linearGradient id="paint94_linear_996_4540" x1="71.6353" y1="440.599" x2="0.233749" y2="258.795" gradientUnits="userSpaceOnUse">
<stop/>
<stop offset="1" stop-color="white"/>
</linearGradient>
<linearGradient id="paint95_linear_996_4540" x1="71.6353" y1="440.599" x2="0.233749" y2="258.795" gradientUnits="userSpaceOnUse">
<stop stop-color="#97C3F9"/>
<stop offset="1" stop-color="#93C1F9"/>
</linearGradient>
<linearGradient id="paint96_linear_996_4540" x1="97.8397" y1="430.307" x2="26.438" y2="248.504" gradientUnits="userSpaceOnUse">
<stop/>
<stop offset="1" stop-color="white"/>
</linearGradient>
<linearGradient id="paint97_linear_996_4540" x1="97.8397" y1="430.307" x2="26.438" y2="248.504" gradientUnits="userSpaceOnUse">
<stop stop-color="#97C3F9"/>
<stop offset="1" stop-color="#93C1F9"/>
</linearGradient>
<linearGradient id="paint98_linear_996_4540" x1="124.044" y1="420.016" x2="52.6424" y2="238.212" gradientUnits="userSpaceOnUse">
<stop/>
<stop offset="1" stop-color="white"/>
</linearGradient>
<linearGradient id="paint99_linear_996_4540" x1="124.044" y1="420.016" x2="52.6424" y2="238.212" gradientUnits="userSpaceOnUse">
<stop stop-color="#97C3F9"/>
<stop offset="1" stop-color="#93C1F9"/>
</linearGradient>
<clipPath id="clip0_996_4540">
<rect width="646" height="406" fill="white" transform="translate(25)"/>
</clipPath>
</defs>
</svg>
