<svg width="465" height="383" viewBox="0 0 465 383" fill="none" xmlns="http://www.w3.org/2000/svg">
<g opacity="0.3">
<mask id="mask0_992_4537" style="mask-type:alpha" maskUnits="userSpaceOnUse" x="0" y="228" width="10" height="10">
<path d="M4.70251 237.829C7.29963 237.829 9.40502 235.73 9.40502 233.141C9.40502 230.552 7.29963 228.453 4.70251 228.453C2.10538 228.453 0 230.552 0 233.141C0 235.73 2.10538 237.829 4.70251 237.829Z" fill="url(#paint0_linear_992_4537)"/>
</mask>
<g mask="url(#mask0_992_4537)">
<path d="M4.70251 237.829C7.29963 237.829 9.40502 235.73 9.40502 233.141C9.40502 230.552 7.29963 228.453 4.70251 228.453C2.10538 228.453 0 230.552 0 233.141C0 235.73 2.10538 237.829 4.70251 237.829Z" fill="url(#paint1_linear_992_4537)"/>
</g>
<mask id="mask1_992_4537" style="mask-type:alpha" maskUnits="userSpaceOnUse" x="27" y="228" width="10" height="10">
<path d="M31.9379 237.829C34.535 237.829 36.6404 235.73 36.6404 233.141C36.6404 230.552 34.535 228.453 31.9379 228.453C29.3407 228.453 27.2354 230.552 27.2354 233.141C27.2354 235.73 29.3407 237.829 31.9379 237.829Z" fill="url(#paint2_linear_992_4537)"/>
</mask>
<g mask="url(#mask1_992_4537)">
<path d="M31.9379 237.829C34.535 237.829 36.6404 235.73 36.6404 233.141C36.6404 230.552 34.535 228.453 31.9379 228.453C29.3407 228.453 27.2354 230.552 27.2354 233.141C27.2354 235.73 29.3407 237.829 31.9379 237.829Z" fill="url(#paint3_linear_992_4537)"/>
</g>
<mask id="mask2_992_4537" style="mask-type:alpha" maskUnits="userSpaceOnUse" x="54" y="228" width="10" height="10">
<path d="M59.1752 237.829C61.7723 237.829 63.8777 235.73 63.8777 233.141C63.8777 230.551 61.7723 228.453 59.1752 228.453C56.578 228.453 54.4727 230.551 54.4727 233.141C54.4727 235.73 56.578 237.829 59.1752 237.829Z" fill="url(#paint4_linear_992_4537)"/>
</mask>
<g mask="url(#mask2_992_4537)">
<path d="M59.1742 237.829C61.7713 237.829 63.8767 235.73 63.8767 233.141C63.8767 230.551 61.7713 228.453 59.1742 228.453C56.5771 228.453 54.4717 230.551 54.4717 233.141C54.4717 235.73 56.5771 237.829 59.1742 237.829Z" fill="url(#paint5_linear_992_4537)"/>
</g>
<mask id="mask3_992_4537" style="mask-type:alpha" maskUnits="userSpaceOnUse" x="81" y="228" width="11" height="10">
<path d="M86.4076 237.829C89.0047 237.829 91.1101 235.73 91.1101 233.141C91.1101 230.551 89.0047 228.453 86.4076 228.453C83.8105 228.453 81.7051 230.551 81.7051 233.141C81.7051 235.73 83.8105 237.829 86.4076 237.829Z" fill="url(#paint6_linear_992_4537)"/>
</mask>
<g mask="url(#mask3_992_4537)">
<path d="M86.4086 237.829C89.0057 237.829 91.1111 235.73 91.1111 233.141C91.1111 230.551 89.0057 228.453 86.4086 228.453C83.8114 228.453 81.7061 230.551 81.7061 233.141C81.7061 235.73 83.8114 237.829 86.4086 237.829Z" fill="url(#paint7_linear_992_4537)"/>
</g>
<mask id="mask4_992_4537" style="mask-type:alpha" maskUnits="userSpaceOnUse" x="108" y="228" width="11" height="10">
<path d="M113.644 237.829C116.241 237.829 118.346 235.73 118.346 233.141C118.346 230.552 116.241 228.453 113.644 228.453C111.047 228.453 108.941 230.552 108.941 233.141C108.941 235.73 111.047 237.829 113.644 237.829Z" fill="url(#paint8_linear_992_4537)"/>
</mask>
<g mask="url(#mask4_992_4537)">
<path d="M113.644 237.829C116.241 237.829 118.346 235.73 118.346 233.141C118.346 230.552 116.241 228.453 113.644 228.453C111.047 228.453 108.941 230.552 108.941 233.141C108.941 235.73 111.047 237.829 113.644 237.829Z" fill="url(#paint9_linear_992_4537)"/>
</g>
<mask id="mask5_992_4537" style="mask-type:alpha" maskUnits="userSpaceOnUse" x="0" y="251" width="10" height="11">
<path d="M4.70251 261.368C7.29963 261.368 9.40502 259.269 9.40502 256.679C9.40502 254.09 7.29963 251.991 4.70251 251.991C2.10538 251.991 0 254.09 0 256.679C0 259.269 2.10538 261.368 4.70251 261.368Z" fill="url(#paint10_linear_992_4537)"/>
</mask>
<g mask="url(#mask5_992_4537)">
<path d="M4.70251 261.368C7.29963 261.368 9.40502 259.269 9.40502 256.679C9.40502 254.09 7.29963 251.991 4.70251 251.991C2.10538 251.991 0 254.09 0 256.679C0 259.269 2.10538 261.368 4.70251 261.368Z" fill="url(#paint11_linear_992_4537)"/>
</g>
<mask id="mask6_992_4537" style="mask-type:alpha" maskUnits="userSpaceOnUse" x="27" y="251" width="10" height="11">
<path d="M31.9379 261.368C34.535 261.368 36.6404 259.269 36.6404 256.679C36.6404 254.09 34.535 251.991 31.9379 251.991C29.3407 251.991 27.2354 254.09 27.2354 256.679C27.2354 259.269 29.3407 261.368 31.9379 261.368Z" fill="url(#paint12_linear_992_4537)"/>
</mask>
<g mask="url(#mask6_992_4537)">
<path d="M31.9379 261.368C34.535 261.368 36.6404 259.269 36.6404 256.679C36.6404 254.09 34.535 251.991 31.9379 251.991C29.3407 251.991 27.2354 254.09 27.2354 256.679C27.2354 259.269 29.3407 261.368 31.9379 261.368Z" fill="url(#paint13_linear_992_4537)"/>
</g>
<mask id="mask7_992_4537" style="mask-type:alpha" maskUnits="userSpaceOnUse" x="54" y="251" width="10" height="11">
<path d="M59.1752 261.368C61.7723 261.368 63.8777 259.269 63.8777 256.679C63.8777 254.09 61.7723 251.991 59.1752 251.991C56.578 251.991 54.4727 254.09 54.4727 256.679C54.4727 259.269 56.578 261.368 59.1752 261.368Z" fill="url(#paint14_linear_992_4537)"/>
</mask>
<g mask="url(#mask7_992_4537)">
<path d="M59.1742 261.368C61.7713 261.368 63.8767 259.269 63.8767 256.679C63.8767 254.09 61.7713 251.991 59.1742 251.991C56.5771 251.991 54.4717 254.09 54.4717 256.679C54.4717 259.269 56.5771 261.368 59.1742 261.368Z" fill="url(#paint15_linear_992_4537)"/>
</g>
<mask id="mask8_992_4537" style="mask-type:alpha" maskUnits="userSpaceOnUse" x="81" y="251" width="11" height="11">
<path d="M86.4076 261.368C89.0047 261.368 91.1101 259.269 91.1101 256.679C91.1101 254.09 89.0047 251.991 86.4076 251.991C83.8105 251.991 81.7051 254.09 81.7051 256.679C81.7051 259.269 83.8105 261.368 86.4076 261.368Z" fill="url(#paint16_linear_992_4537)"/>
</mask>
<g mask="url(#mask8_992_4537)">
<path d="M86.4086 261.368C89.0057 261.368 91.1111 259.269 91.1111 256.679C91.1111 254.09 89.0057 251.991 86.4086 251.991C83.8114 251.991 81.7061 254.09 81.7061 256.679C81.7061 259.269 83.8114 261.368 86.4086 261.368Z" fill="url(#paint17_linear_992_4537)"/>
</g>
<mask id="mask9_992_4537" style="mask-type:alpha" maskUnits="userSpaceOnUse" x="0" y="275" width="10" height="10">
<path d="M4.70251 284.857C7.29963 284.857 9.40502 282.758 9.40502 280.169C9.40502 277.58 7.29963 275.481 4.70251 275.481C2.10538 275.481 0 277.58 0 280.169C0 282.758 2.10538 284.857 4.70251 284.857Z" fill="url(#paint18_linear_992_4537)"/>
</mask>
<g mask="url(#mask9_992_4537)">
<path d="M4.70251 284.857C7.29963 284.857 9.40502 282.758 9.40502 280.169C9.40502 277.58 7.29963 275.481 4.70251 275.481C2.10538 275.481 0 277.58 0 280.169C0 282.758 2.10538 284.857 4.70251 284.857Z" fill="url(#paint19_linear_992_4537)"/>
</g>
<mask id="mask10_992_4537" style="mask-type:alpha" maskUnits="userSpaceOnUse" x="27" y="275" width="10" height="10">
<path d="M31.9379 284.857C34.535 284.857 36.6404 282.758 36.6404 280.169C36.6404 277.58 34.535 275.481 31.9379 275.481C29.3407 275.481 27.2354 277.58 27.2354 280.169C27.2354 282.758 29.3407 284.857 31.9379 284.857Z" fill="url(#paint20_linear_992_4537)"/>
</mask>
<g mask="url(#mask10_992_4537)">
<path d="M31.9379 284.857C34.535 284.857 36.6404 282.758 36.6404 280.169C36.6404 277.58 34.535 275.481 31.9379 275.481C29.3407 275.481 27.2354 277.58 27.2354 280.169C27.2354 282.758 29.3407 284.857 31.9379 284.857Z" fill="url(#paint21_linear_992_4537)"/>
</g>
<mask id="mask11_992_4537" style="mask-type:alpha" maskUnits="userSpaceOnUse" x="54" y="275" width="10" height="10">
<path d="M59.1752 284.857C61.7723 284.857 63.8777 282.759 63.8777 280.169C63.8777 277.58 61.7723 275.481 59.1752 275.481C56.578 275.481 54.4727 277.58 54.4727 280.169C54.4727 282.759 56.578 284.857 59.1752 284.857Z" fill="url(#paint22_linear_992_4537)"/>
</mask>
<g mask="url(#mask11_992_4537)">
<path d="M59.1742 284.857C61.7713 284.857 63.8767 282.758 63.8767 280.169C63.8767 277.58 61.7713 275.481 59.1742 275.481C56.5771 275.481 54.4717 277.58 54.4717 280.169C54.4717 282.758 56.5771 284.857 59.1742 284.857Z" fill="url(#paint23_linear_992_4537)"/>
</g>
<mask id="mask12_992_4537" style="mask-type:alpha" maskUnits="userSpaceOnUse" x="81" y="275" width="11" height="10">
<path d="M86.4076 284.857C89.0047 284.857 91.1101 282.759 91.1101 280.169C91.1101 277.58 89.0047 275.481 86.4076 275.481C83.8105 275.481 81.7051 277.58 81.7051 280.169C81.7051 282.759 83.8105 284.857 86.4076 284.857Z" fill="url(#paint24_linear_992_4537)"/>
</mask>
<g mask="url(#mask12_992_4537)">
<path d="M86.4086 284.857C89.0057 284.857 91.1111 282.758 91.1111 280.169C91.1111 277.58 89.0057 275.481 86.4086 275.481C83.8114 275.481 81.7061 277.58 81.7061 280.169C81.7061 282.758 83.8114 284.857 86.4086 284.857Z" fill="url(#paint25_linear_992_4537)"/>
</g>
<mask id="mask13_992_4537" style="mask-type:alpha" maskUnits="userSpaceOnUse" x="108" y="275" width="11" height="10">
<path d="M113.644 284.857C116.241 284.857 118.346 282.758 118.346 280.169C118.346 277.58 116.241 275.481 113.644 275.481C111.047 275.481 108.941 277.58 108.941 280.169C108.941 282.758 111.047 284.857 113.644 284.857Z" fill="url(#paint26_linear_992_4537)"/>
</mask>
<g mask="url(#mask13_992_4537)">
<path d="M113.644 284.857C116.241 284.857 118.346 282.758 118.346 280.169C118.346 277.58 116.241 275.481 113.644 275.481C111.047 275.481 108.941 277.58 108.941 280.169C108.941 282.758 111.047 284.857 113.644 284.857Z" fill="url(#paint27_linear_992_4537)"/>
</g>
<mask id="mask14_992_4537" style="mask-type:alpha" maskUnits="userSpaceOnUse" x="108" y="251" width="11" height="11">
<path d="M113.644 261.368C116.241 261.368 118.346 259.269 118.346 256.679C118.346 254.09 116.241 251.991 113.644 251.991C111.047 251.991 108.941 254.09 108.941 256.679C108.941 259.269 111.047 261.368 113.644 261.368Z" fill="url(#paint28_linear_992_4537)"/>
</mask>
<g mask="url(#mask14_992_4537)">
<path d="M113.644 261.368C116.241 261.368 118.346 259.269 118.346 256.679C118.346 254.09 116.241 251.991 113.644 251.991C111.047 251.991 108.941 254.09 108.941 256.679C108.941 259.269 111.047 261.368 113.644 261.368Z" fill="url(#paint29_linear_992_4537)"/>
</g>
<mask id="mask15_992_4537" style="mask-type:alpha" maskUnits="userSpaceOnUse" x="0" y="299" width="10" height="10">
<path d="M4.70251 308.396C7.29963 308.396 9.40502 306.297 9.40502 303.708C9.40502 301.119 7.29963 299.02 4.70251 299.02C2.10538 299.02 0 301.119 0 303.708C0 306.297 2.10538 308.396 4.70251 308.396Z" fill="url(#paint30_linear_992_4537)"/>
</mask>
<g mask="url(#mask15_992_4537)">
<path d="M4.70251 308.396C7.29963 308.396 9.40502 306.297 9.40502 303.708C9.40502 301.119 7.29963 299.02 4.70251 299.02C2.10538 299.02 0 301.119 0 303.708C0 306.297 2.10538 308.396 4.70251 308.396Z" fill="url(#paint31_linear_992_4537)"/>
</g>
<mask id="mask16_992_4537" style="mask-type:alpha" maskUnits="userSpaceOnUse" x="27" y="299" width="10" height="10">
<path d="M31.9379 308.396C34.535 308.396 36.6404 306.297 36.6404 303.708C36.6404 301.119 34.535 299.02 31.9379 299.02C29.3407 299.02 27.2354 301.119 27.2354 303.708C27.2354 306.297 29.3407 308.396 31.9379 308.396Z" fill="url(#paint32_linear_992_4537)"/>
</mask>
<g mask="url(#mask16_992_4537)">
<path d="M31.9379 308.396C34.535 308.396 36.6404 306.297 36.6404 303.708C36.6404 301.119 34.535 299.02 31.9379 299.02C29.3407 299.02 27.2354 301.119 27.2354 303.708C27.2354 306.297 29.3407 308.396 31.9379 308.396Z" fill="url(#paint33_linear_992_4537)"/>
</g>
<mask id="mask17_992_4537" style="mask-type:alpha" maskUnits="userSpaceOnUse" x="54" y="299" width="10" height="10">
<path d="M59.1752 308.396C61.7723 308.396 63.8777 306.297 63.8777 303.708C63.8777 301.118 61.7723 299.02 59.1752 299.02C56.578 299.02 54.4727 301.118 54.4727 303.708C54.4727 306.297 56.578 308.396 59.1752 308.396Z" fill="url(#paint34_linear_992_4537)"/>
</mask>
<g mask="url(#mask17_992_4537)">
<path d="M59.1742 308.396C61.7713 308.396 63.8767 306.297 63.8767 303.708C63.8767 301.119 61.7713 299.02 59.1742 299.02C56.5771 299.02 54.4717 301.119 54.4717 303.708C54.4717 306.297 56.5771 308.396 59.1742 308.396Z" fill="url(#paint35_linear_992_4537)"/>
</g>
<mask id="mask18_992_4537" style="mask-type:alpha" maskUnits="userSpaceOnUse" x="81" y="299" width="11" height="10">
<path d="M86.4076 308.396C89.0047 308.396 91.1101 306.297 91.1101 303.708C91.1101 301.118 89.0047 299.02 86.4076 299.02C83.8105 299.02 81.7051 301.118 81.7051 303.708C81.7051 306.297 83.8105 308.396 86.4076 308.396Z" fill="url(#paint36_linear_992_4537)"/>
</mask>
<g mask="url(#mask18_992_4537)">
<path d="M86.4086 308.396C89.0057 308.396 91.1111 306.297 91.1111 303.708C91.1111 301.119 89.0057 299.02 86.4086 299.02C83.8114 299.02 81.7061 301.119 81.7061 303.708C81.7061 306.297 83.8114 308.396 86.4086 308.396Z" fill="url(#paint37_linear_992_4537)"/>
</g>
<mask id="mask19_992_4537" style="mask-type:alpha" maskUnits="userSpaceOnUse" x="108" y="299" width="11" height="10">
<path d="M113.644 308.396C116.241 308.396 118.346 306.297 118.346 303.708C118.346 301.119 116.241 299.02 113.644 299.02C111.047 299.02 108.941 301.119 108.941 303.708C108.941 306.297 111.047 308.396 113.644 308.396Z" fill="url(#paint38_linear_992_4537)"/>
</mask>
<g mask="url(#mask19_992_4537)">
<path d="M113.644 308.396C116.241 308.396 118.346 306.297 118.346 303.708C118.346 301.119 116.241 299.02 113.644 299.02C111.047 299.02 108.941 301.119 108.941 303.708C108.941 306.297 111.047 308.396 113.644 308.396Z" fill="url(#paint39_linear_992_4537)"/>
</g>
<mask id="mask20_992_4537" style="mask-type:alpha" maskUnits="userSpaceOnUse" x="0" y="322" width="10" height="10">
<path d="M4.70251 331.886C7.29963 331.886 9.40502 329.787 9.40502 327.198C9.40502 324.609 7.29963 322.51 4.70251 322.51C2.10538 322.51 0 324.609 0 327.198C0 329.787 2.10538 331.886 4.70251 331.886Z" fill="url(#paint40_linear_992_4537)"/>
</mask>
<g mask="url(#mask20_992_4537)">
<path d="M4.70251 331.886C7.29963 331.886 9.40502 329.787 9.40502 327.198C9.40502 324.609 7.29963 322.51 4.70251 322.51C2.10538 322.51 0 324.609 0 327.198C0 329.787 2.10538 331.886 4.70251 331.886Z" fill="url(#paint41_linear_992_4537)"/>
</g>
<mask id="mask21_992_4537" style="mask-type:alpha" maskUnits="userSpaceOnUse" x="27" y="322" width="10" height="10">
<path d="M31.9379 331.886C34.535 331.886 36.6404 329.787 36.6404 327.198C36.6404 324.609 34.535 322.51 31.9379 322.51C29.3407 322.51 27.2354 324.609 27.2354 327.198C27.2354 329.787 29.3407 331.886 31.9379 331.886Z" fill="url(#paint42_linear_992_4537)"/>
</mask>
<g mask="url(#mask21_992_4537)">
<path d="M31.9379 331.886C34.535 331.886 36.6404 329.787 36.6404 327.198C36.6404 324.609 34.535 322.51 31.9379 322.51C29.3407 322.51 27.2354 324.609 27.2354 327.198C27.2354 329.787 29.3407 331.886 31.9379 331.886Z" fill="url(#paint43_linear_992_4537)"/>
</g>
<mask id="mask22_992_4537" style="mask-type:alpha" maskUnits="userSpaceOnUse" x="54" y="322" width="10" height="10">
<path d="M59.1752 331.886C61.7723 331.886 63.8777 329.787 63.8777 327.198C63.8777 324.608 61.7723 322.509 59.1752 322.509C56.578 322.509 54.4727 324.608 54.4727 327.198C54.4727 329.787 56.578 331.886 59.1752 331.886Z" fill="url(#paint44_linear_992_4537)"/>
</mask>
<g mask="url(#mask22_992_4537)">
<path d="M59.1742 331.886C61.7713 331.886 63.8767 329.787 63.8767 327.198C63.8767 324.608 61.7713 322.509 59.1742 322.509C56.5771 322.509 54.4717 324.608 54.4717 327.198C54.4717 329.787 56.5771 331.886 59.1742 331.886Z" fill="url(#paint45_linear_992_4537)"/>
</g>
<mask id="mask23_992_4537" style="mask-type:alpha" maskUnits="userSpaceOnUse" x="81" y="322" width="11" height="10">
<path d="M86.4076 331.886C89.0047 331.886 91.1101 329.787 91.1101 327.198C91.1101 324.608 89.0047 322.509 86.4076 322.509C83.8105 322.509 81.7051 324.608 81.7051 327.198C81.7051 329.787 83.8105 331.886 86.4076 331.886Z" fill="url(#paint46_linear_992_4537)"/>
</mask>
<g mask="url(#mask23_992_4537)">
<path d="M86.4086 331.886C89.0057 331.886 91.1111 329.787 91.1111 327.198C91.1111 324.608 89.0057 322.509 86.4086 322.509C83.8114 322.509 81.7061 324.608 81.7061 327.198C81.7061 329.787 83.8114 331.886 86.4086 331.886Z" fill="url(#paint47_linear_992_4537)"/>
</g>
<mask id="mask24_992_4537" style="mask-type:alpha" maskUnits="userSpaceOnUse" x="108" y="322" width="11" height="10">
<path d="M113.644 331.886C116.241 331.886 118.346 329.787 118.346 327.198C118.346 324.609 116.241 322.51 113.644 322.51C111.047 322.51 108.941 324.609 108.941 327.198C108.941 329.787 111.047 331.886 113.644 331.886Z" fill="url(#paint48_linear_992_4537)"/>
</mask>
<g mask="url(#mask24_992_4537)">
<path d="M113.644 331.886C116.241 331.886 118.346 329.787 118.346 327.198C118.346 324.609 116.241 322.51 113.644 322.51C111.047 322.51 108.941 324.609 108.941 327.198C108.941 329.787 111.047 331.886 113.644 331.886Z" fill="url(#paint49_linear_992_4537)"/>
</g>
</g>
<g opacity="0.3">
<mask id="mask25_992_4537" style="mask-type:alpha" maskUnits="userSpaceOnUse" x="327" y="72" width="10" height="11">
<path d="M332.091 82.2294C334.688 82.2294 336.794 80.1304 336.794 77.5412C336.794 74.952 334.688 72.853 332.091 72.853C329.494 72.853 327.389 74.952 327.389 77.5412C327.389 80.1304 329.494 82.2294 332.091 82.2294Z" fill="url(#paint50_linear_992_4537)"/>
</mask>
<g mask="url(#mask25_992_4537)">
<path d="M332.091 82.2294C334.688 82.2294 336.794 80.1304 336.794 77.5412C336.794 74.952 334.688 72.853 332.091 72.853C329.494 72.853 327.389 74.952 327.389 77.5412C327.389 80.1304 329.494 82.2294 332.091 82.2294Z" fill="url(#paint51_linear_992_4537)"/>
</g>
<mask id="mask26_992_4537" style="mask-type:alpha" maskUnits="userSpaceOnUse" x="354" y="72" width="11" height="11">
<path d="M359.328 82.2293C361.925 82.2293 364.03 80.1303 364.03 77.5411C364.03 74.9519 361.925 72.8529 359.328 72.8529C356.73 72.8529 354.625 74.9519 354.625 77.5411C354.625 80.1303 356.73 82.2293 359.328 82.2293Z" fill="url(#paint52_linear_992_4537)"/>
</mask>
<g mask="url(#mask26_992_4537)">
<path d="M359.327 82.2293C361.924 82.2293 364.029 80.1303 364.029 77.5411C364.029 74.9519 361.924 72.8529 359.327 72.8529C356.729 72.8529 354.624 74.9519 354.624 77.5411C354.624 80.1303 356.729 82.2293 359.327 82.2293Z" fill="url(#paint53_linear_992_4537)"/>
</g>
<mask id="mask27_992_4537" style="mask-type:alpha" maskUnits="userSpaceOnUse" x="381" y="72" width="11" height="11">
<path d="M386.561 82.2293C389.158 82.2293 391.263 80.1303 391.263 77.5411C391.263 74.9519 389.158 72.8529 386.561 72.8529C383.964 72.8529 381.858 74.9519 381.858 77.5411C381.858 80.1303 383.964 82.2293 386.561 82.2293Z" fill="url(#paint54_linear_992_4537)"/>
</mask>
<g mask="url(#mask27_992_4537)">
<path d="M386.562 82.2293C389.159 82.2293 391.264 80.1303 391.264 77.5411C391.264 74.9519 389.159 72.8529 386.562 72.8529C383.965 72.8529 381.859 74.9519 381.859 77.5411C381.859 80.1303 383.965 82.2293 386.562 82.2293Z" fill="url(#paint55_linear_992_4537)"/>
</g>
<mask id="mask28_992_4537" style="mask-type:alpha" maskUnits="userSpaceOnUse" x="409" y="72" width="10" height="11">
<path d="M413.797 82.2294C416.394 82.2294 418.5 80.1304 418.5 77.5412C418.5 74.952 416.394 72.853 413.797 72.853C411.2 72.853 409.095 74.952 409.095 77.5412C409.095 80.1304 411.2 82.2294 413.797 82.2294Z" fill="url(#paint56_linear_992_4537)"/>
</mask>
<g mask="url(#mask28_992_4537)">
<path d="M413.797 82.2294C416.394 82.2294 418.5 80.1304 418.5 77.5412C418.5 74.952 416.394 72.853 413.797 72.853C411.2 72.853 409.095 74.952 409.095 77.5412C409.095 80.1304 411.2 82.2294 413.797 82.2294Z" fill="url(#paint57_linear_992_4537)"/>
</g>
<mask id="mask29_992_4537" style="mask-type:alpha" maskUnits="userSpaceOnUse" x="436" y="72" width="10" height="11">
<path d="M441.033 82.2294C443.63 82.2294 445.735 80.1304 445.735 77.5412C445.735 74.952 443.63 72.853 441.033 72.853C438.435 72.853 436.33 74.952 436.33 77.5412C436.33 80.1304 438.435 82.2294 441.033 82.2294Z" fill="url(#paint58_linear_992_4537)"/>
</mask>
<g mask="url(#mask29_992_4537)">
<path d="M441.033 82.2294C443.63 82.2294 445.735 80.1304 445.735 77.5412C445.735 74.952 443.63 72.853 441.033 72.853C438.435 72.853 436.33 74.952 436.33 77.5412C436.33 80.1304 438.435 82.2294 441.033 82.2294Z" fill="url(#paint59_linear_992_4537)"/>
</g>
<mask id="mask30_992_4537" style="mask-type:alpha" maskUnits="userSpaceOnUse" x="327" y="96" width="10" height="10">
<path d="M332.091 105.768C334.688 105.768 336.794 103.669 336.794 101.08C336.794 98.4906 334.688 96.3916 332.091 96.3916C329.494 96.3916 327.389 98.4906 327.389 101.08C327.389 103.669 329.494 105.768 332.091 105.768Z" fill="url(#paint60_linear_992_4537)"/>
</mask>
<g mask="url(#mask30_992_4537)">
<path d="M332.091 105.768C334.688 105.768 336.794 103.669 336.794 101.08C336.794 98.4906 334.688 96.3916 332.091 96.3916C329.494 96.3916 327.389 98.4906 327.389 101.08C327.389 103.669 329.494 105.768 332.091 105.768Z" fill="url(#paint61_linear_992_4537)"/>
</g>
<mask id="mask31_992_4537" style="mask-type:alpha" maskUnits="userSpaceOnUse" x="354" y="96" width="11" height="10">
<path d="M359.328 105.768C361.925 105.768 364.03 103.669 364.03 101.08C364.03 98.4907 361.925 96.3917 359.328 96.3917C356.73 96.3917 354.625 98.4907 354.625 101.08C354.625 103.669 356.73 105.768 359.328 105.768Z" fill="url(#paint62_linear_992_4537)"/>
</mask>
<g mask="url(#mask31_992_4537)">
<path d="M359.327 105.768C361.924 105.768 364.029 103.669 364.029 101.08C364.029 98.4907 361.924 96.3917 359.327 96.3917C356.729 96.3917 354.624 98.4907 354.624 101.08C354.624 103.669 356.729 105.768 359.327 105.768Z" fill="url(#paint63_linear_992_4537)"/>
</g>
<mask id="mask32_992_4537" style="mask-type:alpha" maskUnits="userSpaceOnUse" x="381" y="96" width="11" height="10">
<path d="M386.561 105.768C389.158 105.768 391.263 103.669 391.263 101.08C391.263 98.4907 389.158 96.3917 386.561 96.3917C383.964 96.3917 381.858 98.4907 381.858 101.08C381.858 103.669 383.964 105.768 386.561 105.768Z" fill="url(#paint64_linear_992_4537)"/>
</mask>
<g mask="url(#mask32_992_4537)">
<path d="M386.562 105.768C389.159 105.768 391.264 103.669 391.264 101.08C391.264 98.4907 389.159 96.3917 386.562 96.3917C383.965 96.3917 381.859 98.4907 381.859 101.08C381.859 103.669 383.965 105.768 386.562 105.768Z" fill="url(#paint65_linear_992_4537)"/>
</g>
<mask id="mask33_992_4537" style="mask-type:alpha" maskUnits="userSpaceOnUse" x="409" y="96" width="10" height="10">
<path d="M413.797 105.768C416.394 105.768 418.5 103.669 418.5 101.08C418.5 98.4906 416.394 96.3916 413.797 96.3916C411.2 96.3916 409.095 98.4906 409.095 101.08C409.095 103.669 411.2 105.768 413.797 105.768Z" fill="url(#paint66_linear_992_4537)"/>
</mask>
<g mask="url(#mask33_992_4537)">
<path d="M413.797 105.768C416.394 105.768 418.5 103.669 418.5 101.08C418.5 98.4906 416.394 96.3916 413.797 96.3916C411.2 96.3916 409.095 98.4906 409.095 101.08C409.095 103.669 411.2 105.768 413.797 105.768Z" fill="url(#paint67_linear_992_4537)"/>
</g>
<mask id="mask34_992_4537" style="mask-type:alpha" maskUnits="userSpaceOnUse" x="327" y="119" width="10" height="11">
<path d="M332.091 129.258C334.688 129.258 336.794 127.159 336.794 124.57C336.794 121.98 334.688 119.881 332.091 119.881C329.494 119.881 327.389 121.98 327.389 124.57C327.389 127.159 329.494 129.258 332.091 129.258Z" fill="url(#paint68_linear_992_4537)"/>
</mask>
<g mask="url(#mask34_992_4537)">
<path d="M332.091 129.258C334.688 129.258 336.794 127.159 336.794 124.57C336.794 121.98 334.688 119.881 332.091 119.881C329.494 119.881 327.389 121.98 327.389 124.57C327.389 127.159 329.494 129.258 332.091 129.258Z" fill="url(#paint69_linear_992_4537)"/>
</g>
<mask id="mask35_992_4537" style="mask-type:alpha" maskUnits="userSpaceOnUse" x="354" y="119" width="11" height="11">
<path d="M359.328 129.258C361.925 129.258 364.03 127.159 364.03 124.57C364.03 121.98 361.925 119.881 359.328 119.881C356.73 119.881 354.625 121.98 354.625 124.57C354.625 127.159 356.73 129.258 359.328 129.258Z" fill="url(#paint70_linear_992_4537)"/>
</mask>
<g mask="url(#mask35_992_4537)">
<path d="M359.327 129.258C361.924 129.258 364.029 127.159 364.029 124.57C364.029 121.98 361.924 119.881 359.327 119.881C356.729 119.881 354.624 121.98 354.624 124.57C354.624 127.159 356.729 129.258 359.327 129.258Z" fill="url(#paint71_linear_992_4537)"/>
</g>
<mask id="mask36_992_4537" style="mask-type:alpha" maskUnits="userSpaceOnUse" x="381" y="119" width="11" height="11">
<path d="M386.561 129.258C389.158 129.258 391.263 127.159 391.263 124.57C391.263 121.98 389.158 119.881 386.561 119.881C383.964 119.881 381.858 121.98 381.858 124.57C381.858 127.159 383.964 129.258 386.561 129.258Z" fill="url(#paint72_linear_992_4537)"/>
</mask>
<g mask="url(#mask36_992_4537)">
<path d="M386.562 129.258C389.159 129.258 391.264 127.159 391.264 124.57C391.264 121.98 389.159 119.881 386.562 119.881C383.965 119.881 381.859 121.98 381.859 124.57C381.859 127.159 383.965 129.258 386.562 129.258Z" fill="url(#paint73_linear_992_4537)"/>
</g>
<mask id="mask37_992_4537" style="mask-type:alpha" maskUnits="userSpaceOnUse" x="409" y="119" width="10" height="11">
<path d="M413.797 129.258C416.394 129.258 418.5 127.159 418.5 124.57C418.5 121.98 416.394 119.881 413.797 119.881C411.2 119.881 409.095 121.98 409.095 124.57C409.095 127.159 411.2 129.258 413.797 129.258Z" fill="url(#paint74_linear_992_4537)"/>
</mask>
<g mask="url(#mask37_992_4537)">
<path d="M413.797 129.258C416.394 129.258 418.5 127.159 418.5 124.57C418.5 121.98 416.394 119.881 413.797 119.881C411.2 119.881 409.095 121.98 409.095 124.57C409.095 127.159 411.2 129.258 413.797 129.258Z" fill="url(#paint75_linear_992_4537)"/>
</g>
<mask id="mask38_992_4537" style="mask-type:alpha" maskUnits="userSpaceOnUse" x="436" y="119" width="10" height="11">
<path d="M441.033 129.258C443.63 129.258 445.735 127.159 445.735 124.57C445.735 121.98 443.63 119.881 441.033 119.881C438.435 119.881 436.33 121.98 436.33 124.57C436.33 127.159 438.435 129.258 441.033 129.258Z" fill="url(#paint76_linear_992_4537)"/>
</mask>
<g mask="url(#mask38_992_4537)">
<path d="M441.033 129.258C443.63 129.258 445.735 127.159 445.735 124.57C445.735 121.98 443.63 119.881 441.033 119.881C438.435 119.881 436.33 121.98 436.33 124.57C436.33 127.159 438.435 129.258 441.033 129.258Z" fill="url(#paint77_linear_992_4537)"/>
</g>
<mask id="mask39_992_4537" style="mask-type:alpha" maskUnits="userSpaceOnUse" x="436" y="96" width="10" height="10">
<path d="M441.033 105.768C443.63 105.768 445.735 103.669 445.735 101.08C445.735 98.4906 443.63 96.3916 441.033 96.3916C438.435 96.3916 436.33 98.4906 436.33 101.08C436.33 103.669 438.435 105.768 441.033 105.768Z" fill="url(#paint78_linear_992_4537)"/>
</mask>
<g mask="url(#mask39_992_4537)">
<path d="M441.033 105.768C443.63 105.768 445.735 103.669 445.735 101.08C445.735 98.4906 443.63 96.3916 441.033 96.3916C438.435 96.3916 436.33 98.4906 436.33 101.08C436.33 103.669 438.435 105.768 441.033 105.768Z" fill="url(#paint79_linear_992_4537)"/>
</g>
<mask id="mask40_992_4537" style="mask-type:alpha" maskUnits="userSpaceOnUse" x="327" y="143" width="10" height="10">
<path d="M332.091 152.796C334.688 152.796 336.794 150.697 336.794 148.108C336.794 145.519 334.688 143.42 332.091 143.42C329.494 143.42 327.389 145.519 327.389 148.108C327.389 150.697 329.494 152.796 332.091 152.796Z" fill="url(#paint80_linear_992_4537)"/>
</mask>
<g mask="url(#mask40_992_4537)">
<path d="M332.091 152.796C334.688 152.796 336.794 150.697 336.794 148.108C336.794 145.519 334.688 143.42 332.091 143.42C329.494 143.42 327.389 145.519 327.389 148.108C327.389 150.697 329.494 152.796 332.091 152.796Z" fill="url(#paint81_linear_992_4537)"/>
</g>
<mask id="mask41_992_4537" style="mask-type:alpha" maskUnits="userSpaceOnUse" x="354" y="143" width="11" height="10">
<path d="M359.328 152.796C361.925 152.796 364.03 150.697 364.03 148.108C364.03 145.519 361.925 143.42 359.328 143.42C356.73 143.42 354.625 145.519 354.625 148.108C354.625 150.697 356.73 152.796 359.328 152.796Z" fill="url(#paint82_linear_992_4537)"/>
</mask>
<g mask="url(#mask41_992_4537)">
<path d="M359.327 152.796C361.924 152.796 364.029 150.697 364.029 148.108C364.029 145.519 361.924 143.42 359.327 143.42C356.729 143.42 354.624 145.519 354.624 148.108C354.624 150.697 356.729 152.796 359.327 152.796Z" fill="url(#paint83_linear_992_4537)"/>
</g>
<mask id="mask42_992_4537" style="mask-type:alpha" maskUnits="userSpaceOnUse" x="381" y="143" width="11" height="10">
<path d="M386.561 152.796C389.158 152.796 391.263 150.697 391.263 148.108C391.263 145.519 389.158 143.42 386.561 143.42C383.964 143.42 381.858 145.519 381.858 148.108C381.858 150.697 383.964 152.796 386.561 152.796Z" fill="url(#paint84_linear_992_4537)"/>
</mask>
<g mask="url(#mask42_992_4537)">
<path d="M386.562 152.796C389.159 152.796 391.264 150.697 391.264 148.108C391.264 145.519 389.159 143.42 386.562 143.42C383.965 143.42 381.859 145.519 381.859 148.108C381.859 150.697 383.965 152.796 386.562 152.796Z" fill="url(#paint85_linear_992_4537)"/>
</g>
<mask id="mask43_992_4537" style="mask-type:alpha" maskUnits="userSpaceOnUse" x="409" y="143" width="10" height="10">
<path d="M413.797 152.796C416.394 152.796 418.5 150.697 418.5 148.108C418.5 145.519 416.394 143.42 413.797 143.42C411.2 143.42 409.095 145.519 409.095 148.108C409.095 150.697 411.2 152.796 413.797 152.796Z" fill="url(#paint86_linear_992_4537)"/>
</mask>
<g mask="url(#mask43_992_4537)">
<path d="M413.797 152.796C416.394 152.796 418.5 150.697 418.5 148.108C418.5 145.519 416.394 143.42 413.797 143.42C411.2 143.42 409.095 145.519 409.095 148.108C409.095 150.697 411.2 152.796 413.797 152.796Z" fill="url(#paint87_linear_992_4537)"/>
</g>
<mask id="mask44_992_4537" style="mask-type:alpha" maskUnits="userSpaceOnUse" x="436" y="143" width="10" height="10">
<path d="M441.033 152.796C443.63 152.796 445.735 150.697 445.735 148.108C445.735 145.519 443.63 143.42 441.033 143.42C438.435 143.42 436.33 145.519 436.33 148.108C436.33 150.697 438.435 152.796 441.033 152.796Z" fill="url(#paint88_linear_992_4537)"/>
</mask>
<g mask="url(#mask44_992_4537)">
<path d="M441.033 152.796C443.63 152.796 445.735 150.697 445.735 148.108C445.735 145.519 443.63 143.42 441.033 143.42C438.435 143.42 436.33 145.519 436.33 148.108C436.33 150.697 438.435 152.796 441.033 152.796Z" fill="url(#paint89_linear_992_4537)"/>
</g>
<mask id="mask45_992_4537" style="mask-type:alpha" maskUnits="userSpaceOnUse" x="327" y="166" width="10" height="11">
<path d="M332.091 176.286C334.688 176.286 336.794 174.187 336.794 171.598C336.794 169.009 334.688 166.91 332.091 166.91C329.494 166.91 327.389 169.009 327.389 171.598C327.389 174.187 329.494 176.286 332.091 176.286Z" fill="url(#paint90_linear_992_4537)"/>
</mask>
<g mask="url(#mask45_992_4537)">
<path d="M332.091 176.286C334.688 176.286 336.794 174.187 336.794 171.598C336.794 169.009 334.688 166.91 332.091 166.91C329.494 166.91 327.389 169.009 327.389 171.598C327.389 174.187 329.494 176.286 332.091 176.286Z" fill="url(#paint91_linear_992_4537)"/>
</g>
<mask id="mask46_992_4537" style="mask-type:alpha" maskUnits="userSpaceOnUse" x="354" y="166" width="11" height="11">
<path d="M359.328 176.286C361.925 176.286 364.03 174.187 364.03 171.598C364.03 169.009 361.925 166.91 359.328 166.91C356.73 166.91 354.625 169.009 354.625 171.598C354.625 174.187 356.73 176.286 359.328 176.286Z" fill="url(#paint92_linear_992_4537)"/>
</mask>
<g mask="url(#mask46_992_4537)">
<path d="M359.327 176.286C361.924 176.286 364.029 174.187 364.029 171.598C364.029 169.009 361.924 166.91 359.327 166.91C356.729 166.91 354.624 169.009 354.624 171.598C354.624 174.187 356.729 176.286 359.327 176.286Z" fill="url(#paint93_linear_992_4537)"/>
</g>
<mask id="mask47_992_4537" style="mask-type:alpha" maskUnits="userSpaceOnUse" x="381" y="166" width="11" height="11">
<path d="M386.561 176.286C389.158 176.286 391.263 174.187 391.263 171.598C391.263 169.009 389.158 166.91 386.561 166.91C383.964 166.91 381.858 169.009 381.858 171.598C381.858 174.187 383.964 176.286 386.561 176.286Z" fill="url(#paint94_linear_992_4537)"/>
</mask>
<g mask="url(#mask47_992_4537)">
<path d="M386.562 176.286C389.159 176.286 391.264 174.187 391.264 171.598C391.264 169.009 389.159 166.91 386.562 166.91C383.965 166.91 381.859 169.009 381.859 171.598C381.859 174.187 383.965 176.286 386.562 176.286Z" fill="url(#paint95_linear_992_4537)"/>
</g>
<mask id="mask48_992_4537" style="mask-type:alpha" maskUnits="userSpaceOnUse" x="409" y="166" width="10" height="11">
<path d="M413.797 176.286C416.394 176.286 418.5 174.187 418.5 171.598C418.5 169.009 416.394 166.91 413.797 166.91C411.2 166.91 409.095 169.009 409.095 171.598C409.095 174.187 411.2 176.286 413.797 176.286Z" fill="url(#paint96_linear_992_4537)"/>
</mask>
<g mask="url(#mask48_992_4537)">
<path d="M413.797 176.286C416.394 176.286 418.5 174.187 418.5 171.598C418.5 169.009 416.394 166.91 413.797 166.91C411.2 166.91 409.095 169.009 409.095 171.598C409.095 174.187 411.2 176.286 413.797 176.286Z" fill="url(#paint97_linear_992_4537)"/>
</g>
<mask id="mask49_992_4537" style="mask-type:alpha" maskUnits="userSpaceOnUse" x="436" y="166" width="10" height="11">
<path d="M441.033 176.286C443.63 176.286 445.735 174.187 445.735 171.598C445.735 169.009 443.63 166.91 441.033 166.91C438.435 166.91 436.33 169.009 436.33 171.598C436.33 174.187 438.435 176.286 441.033 176.286Z" fill="url(#paint98_linear_992_4537)"/>
</mask>
<g mask="url(#mask49_992_4537)">
<path d="M441.033 176.286C443.63 176.286 445.735 174.187 445.735 171.598C445.735 169.009 443.63 166.91 441.033 166.91C438.435 166.91 436.33 169.009 436.33 171.598C436.33 174.187 438.435 176.286 441.033 176.286Z" fill="url(#paint99_linear_992_4537)"/>
</g>
</g>
<g clip-path="url(#clip0_992_4537)">
<path d="M254.283 53.7959C269.311 42.6989 290.469 38.4449 307.024 47.1021C288.387 55.1908 273.213 69.6085 264.187 87.804C260.731 94.8339 257.62 103.013 250.49 106.262C246.053 108.283 240.817 107.893 236.223 106.26C231.629 104.628 227.543 101.855 223.513 99.1107L222.305 98.9653C229.476 81.7195 239.256 64.8929 254.283 53.7959Z" fill="#F0F0F0"/>
<path d="M306.891 47.4706C291.434 47.9547 276.522 53.2949 264.274 62.7328C261.601 64.7178 259.258 67.1115 257.331 69.8258C255.539 72.5305 254.504 75.6655 254.335 78.9051C254.116 81.9225 254.241 85.0343 253.292 87.9459C252.784 89.4291 251.968 90.7882 250.898 91.9341C249.828 93.0801 248.528 93.9869 247.082 94.5952C243.52 96.2045 239.592 96.4384 235.742 96.5337C231.468 96.6396 227.027 96.6818 223.14 98.6935C222.67 98.9373 222.319 98.1925 222.789 97.9492C229.552 94.4492 237.454 96.7327 244.562 94.6497C247.878 93.6777 250.922 91.7008 252.254 88.3931C253.418 85.5006 253.292 82.2916 253.487 79.2345C253.606 76.0718 254.498 72.9864 256.086 70.2478C257.868 67.4442 260.115 64.9642 262.73 62.9142C268.544 58.2049 275.062 54.4387 282.046 51.7535C290 48.6446 298.427 46.9187 306.963 46.6505C307.491 46.6341 307.416 47.4543 306.891 47.4706V47.4706Z" fill="white"/>
<path d="M268.039 59.4617C266.734 57.1926 266.278 54.5337 266.754 51.9597C267.229 49.3857 268.604 47.0643 270.633 45.4102C271.044 45.0769 271.582 45.7008 271.17 46.0345C269.277 47.5714 267.997 49.7339 267.559 52.1317C267.122 54.5295 267.556 57.0046 268.784 59.1103C269.05 59.5682 268.304 59.917 268.039 59.4617V59.4617Z" fill="white"/>
<path d="M254.244 77.3605C259.399 78.8009 264.908 78.246 269.672 75.8067C270.144 75.5646 270.494 76.3093 270.023 76.551C265.061 79.0802 259.327 79.646 253.966 78.1353C253.455 77.991 253.736 77.217 254.244 77.3605V77.3605Z" fill="white"/>
<path d="M289.961 49.7353C290.283 50.7185 290.845 51.6063 291.595 52.319C292.345 53.0318 293.26 53.5472 294.259 53.8189C294.771 53.9567 294.49 54.7306 293.981 54.5937C292.879 54.2884 291.869 53.718 291.038 52.9323C290.208 52.1467 289.582 51.1697 289.217 50.0867C289.174 49.9875 289.17 49.8757 289.207 49.7739C289.243 49.6721 289.317 49.5881 289.413 49.5388C289.512 49.4928 289.625 49.4876 289.728 49.5244C289.83 49.5612 289.914 49.637 289.961 49.7353H289.961Z" fill="white"/>
<path d="M320.15 108.96C319.827 108.883 319.505 108.806 319.177 108.734C314.837 107.722 310.421 107.064 305.974 106.767C305.631 106.738 305.282 106.715 304.939 106.696C294.217 106.094 283.477 107.487 273.264 110.805C269.202 112.129 265.246 113.759 261.43 115.683C256.162 118.34 250.661 121.64 244.988 122.38C244.398 122.464 243.802 122.511 243.205 122.522L222.221 100.45C222.198 100.376 222.17 100.307 222.148 100.232L221.27 99.3893C221.459 99.2764 221.659 99.1633 221.849 99.0503C221.958 98.9843 222.073 98.9233 222.183 98.8573C222.257 98.8149 222.332 98.7727 222.397 98.7301C222.422 98.7159 222.447 98.7019 222.467 98.6925C222.532 98.6499 222.597 98.6173 222.657 98.5795C223.769 97.9444 224.888 97.316 226.013 96.6943C226.018 96.6895 226.018 96.6895 226.028 96.6897C234.613 91.9746 243.668 87.9345 253.048 85.3966C253.33 85.3203 253.617 85.239 253.909 85.1728C258.143 84.0523 262.462 83.2797 266.823 82.8625C269.211 82.6418 271.609 82.542 274.008 82.5637C280.205 82.6315 286.353 83.6733 292.226 85.6509C303.934 89.5948 314.249 97.2377 319.738 108.124C319.879 108.403 320.014 108.677 320.15 108.96Z" fill="#F0F0F0"/>
<path d="M319.823 109.177C307.19 100.26 292.067 95.55 276.603 95.7144C273.274 95.6907 269.961 96.1918 266.787 97.1992C263.728 98.2804 261.013 100.161 258.927 102.645C256.934 104.923 255.16 107.483 252.649 109.237C251.35 110.115 249.88 110.709 248.335 110.98C246.791 111.251 245.206 111.192 243.686 110.808C239.872 109.949 236.595 107.772 233.464 105.532C229.988 103.044 226.416 100.405 222.101 99.6718C221.578 99.583 221.747 98.7772 222.269 98.8659C229.776 100.141 234.711 106.721 241.641 109.335C244.874 110.555 248.495 110.808 251.551 108.969C254.223 107.36 256.054 104.722 258.051 102.398C260.052 99.9448 262.622 98.0182 265.539 96.7868C268.651 95.6211 271.939 94.9933 275.262 94.9303C282.74 94.669 290.213 95.5847 297.406 97.6439C305.63 99.9485 313.398 103.642 320.375 108.565C320.806 108.87 320.252 109.479 319.823 109.177L319.823 109.177Z" fill="white"/>
<path d="M281.579 95.3685C281.903 92.7713 283.141 90.374 285.071 88.6047C287 86.8354 289.496 85.8094 292.113 85.7099C292.642 85.6916 292.696 86.5132 292.165 86.5315C289.729 86.6197 287.404 87.5757 285.61 89.2269C283.817 90.8781 282.673 93.1158 282.385 95.5361C282.322 96.062 281.516 95.8914 281.579 95.3685H281.579Z" fill="white"/>
<path d="M259.784 101.358C263.033 105.61 267.766 108.482 273.039 109.402C273.561 109.493 273.393 110.298 272.871 110.208C267.385 109.241 262.467 106.242 259.096 101.809C258.775 101.386 259.465 100.937 259.784 101.358V101.358Z" fill="white"/>
<path d="M304.94 100.796C304.605 101.775 304.519 102.821 304.688 103.842C304.858 104.862 305.278 105.825 305.912 106.643C306.238 107.061 305.547 107.51 305.223 107.094C304.527 106.187 304.064 105.124 303.875 103.996C303.685 102.869 303.774 101.713 304.134 100.628C304.16 100.523 304.224 100.432 304.315 100.372C304.405 100.313 304.515 100.29 304.621 100.309C304.728 100.332 304.821 100.396 304.881 100.487C304.941 100.578 304.962 100.689 304.94 100.796V100.796Z" fill="white"/>
<path d="M250.318 70.3049H248.692V25.7736C248.692 22.3889 248.025 19.0374 246.729 15.9104C245.434 12.7835 243.534 9.9422 241.14 7.5489C238.746 5.15561 235.904 3.25715 232.775 1.9619C229.647 0.666659 226.294 1.82467e-06 222.908 0H128.525C125.139 -7.29838e-06 121.786 0.666636 118.658 1.96187C115.53 3.25711 112.687 5.15556 110.293 7.54885C107.899 9.94214 106 12.7834 104.704 15.9104C103.408 19.0374 102.741 22.3888 102.741 25.7735V270.076C102.741 276.912 105.458 283.467 110.293 288.301C115.128 293.134 121.687 295.85 128.525 295.85H222.908C229.746 295.85 236.305 293.134 241.14 288.301C245.976 283.467 248.692 276.912 248.692 270.076V102.003H250.318V70.3049Z" fill="#3F3D56"/>
<path d="M223.948 6.70534H211.628C212.195 8.09384 212.411 9.6003 212.258 11.092C212.105 12.5838 211.587 14.015 210.75 15.2596C209.914 16.5042 208.783 17.524 207.46 18.2291C206.136 18.9343 204.659 19.3032 203.158 19.3033H149.087C147.587 19.3032 146.11 18.9343 144.786 18.2292C143.462 17.524 142.332 16.5042 141.495 15.2596C140.659 14.015 140.141 12.5838 139.988 11.092C139.835 9.60029 140.051 8.09382 140.618 6.70532H129.111C124.004 6.70532 119.106 8.73317 115.495 12.3427C111.884 15.9523 109.855 20.848 109.855 25.9527V269.897C109.855 272.424 110.354 274.927 111.321 277.262C112.289 279.598 113.707 281.719 115.495 283.507C117.283 285.294 119.406 286.712 121.742 287.679C124.078 288.646 126.582 289.144 129.111 289.144H223.948C226.477 289.144 228.981 288.646 231.317 287.679C233.653 286.712 235.776 285.294 237.564 283.507C239.352 281.719 240.77 279.598 241.738 277.262C242.705 274.927 243.203 272.424 243.203 269.897V269.897V25.9527C243.203 20.848 241.175 15.9523 237.564 12.3427C233.953 8.73317 229.055 6.70534 223.948 6.70534Z" fill="white"/>
<path d="M178.352 210.78C171.368 210.787 164.452 209.416 157.998 206.748C151.545 204.079 145.681 200.165 140.743 195.229C135.805 190.292 131.889 184.431 129.219 177.98C126.55 171.529 125.179 164.616 125.186 157.635C125.176 147.832 127.882 138.218 133.005 129.859C138.127 121.501 145.466 114.723 154.207 110.279C160.543 107.057 167.46 105.135 174.551 104.626C181.641 104.118 188.762 105.033 195.494 107.317C207.415 111.378 217.507 119.537 223.973 130.341C230.439 141.145 232.858 153.892 230.801 166.313C228.743 178.733 222.341 190.02 212.736 198.163C203.131 206.307 190.947 210.778 178.352 210.78L178.352 210.78ZM178.352 106.574C170.286 106.55 162.332 108.457 155.155 112.135C148.881 115.331 143.336 119.787 138.868 125.227C134.399 130.666 131.104 136.969 129.188 143.742C127.273 150.515 126.779 157.61 127.737 164.583C128.695 171.556 131.085 178.255 134.757 184.26C138.428 190.266 143.302 195.448 149.073 199.481C154.843 203.514 161.385 206.311 168.288 207.697C175.191 209.082 182.307 209.026 189.187 207.532C196.068 206.038 202.565 203.139 208.271 199.015C211.03 197.026 213.581 194.763 215.886 192.262C222.626 184.971 227.094 175.874 228.742 166.085C230.389 156.295 229.145 146.238 225.162 137.144C221.179 128.05 214.629 120.315 206.315 114.885C198.001 109.456 188.283 106.567 178.352 106.574V106.574Z" fill="#F0F0F0"/>
<path d="M63.1483 110.47C64.6077 110.653 66.0091 111.154 67.254 111.937C68.4989 112.719 69.557 113.766 70.3536 115.002C71.1502 116.237 71.6661 117.633 71.8649 119.09C72.0636 120.546 71.9405 122.029 71.504 123.433L89.1686 138.141L82.8451 151.051L58.1912 129.93C55.8803 129.041 53.9759 127.335 52.8391 125.136C51.7022 122.937 51.4117 120.398 52.0228 117.999C52.6338 115.601 54.1039 113.509 56.1544 112.122C58.2049 110.734 60.6934 110.146 63.1483 110.47L63.1483 110.47Z" fill="#FFB6B6"/>
<path d="M228.127 171.807C227.772 168 226.308 161.157 225.065 158.626C221.245 148.631 196.56 140.416 193.245 139.357L192.404 130.013L158.107 126.324L153.756 138.273L141.455 142.886C140.62 143.198 139.864 143.69 139.242 144.328C138.619 144.965 138.146 145.733 137.855 146.575V146.575L126.819 149.764L115.928 152.911L78.0933 126.262L76.307 127.429L64.3674 135.217L62.5254 136.418L111.487 180.574L129.675 176.309L143.352 173.092L144.52 177.83L141.497 194.475C150.255 203.233 161.849 208.586 174.198 209.572C186.547 210.559 198.844 207.116 208.883 199.859L216.652 192.968C222.068 187.115 226.065 180.096 228.335 172.453L228.127 171.807Z" fill="#E4E4E4"/>
<path d="M186.032 118.683C198.979 114.398 206 100.432 201.713 87.4904C197.426 74.5483 183.456 67.5303 170.508 71.8153C157.561 76.1003 150.54 90.0656 154.827 103.008C159.114 115.95 173.085 122.968 186.032 118.683Z" fill="#FFB6B6"/>
<path d="M158.765 67.108C161.165 63.6809 164.768 61.2821 168.857 60.3882C172.9 59.557 177.107 60.3285 180.592 62.5398C184.381 61.0141 188.466 60.0018 192.48 60.5164C196.494 61.031 200.428 63.2721 202.285 66.9642C202.676 67.9207 203.15 68.8409 203.702 69.7143C205.338 71.8965 208.379 72.1796 211.064 72.2844C209.706 73.076 208.349 73.8675 206.99 74.659C208.344 75.2893 209.697 75.9197 211.051 76.5502C209.209 77.253 207.367 77.9559 205.525 78.6588C209.812 82.4257 210.849 89.1296 209.225 94.7502C207.689 100.072 204.165 104.551 200.231 108.386C199.463 105.525 200.307 102.422 200.87 99.4595C201.463 96.3291 201.559 92.6687 199.366 90.4586C197.887 88.9677 195.717 88.5173 193.671 88.1556C183.351 86.3312 172.936 85.095 162.476 84.453C161.076 84.2597 159.65 84.4052 158.318 84.8774C155.772 86.0081 154.749 89.1134 154.012 91.8669C153.658 87.0339 153.941 82.1754 154.851 77.4158C155.549 73.773 156.648 70.1269 158.765 67.108Z" fill="#2F2E41"/>
<path d="M190.862 235.819H161.673C160.659 235.819 159.687 235.416 158.97 234.7C158.253 233.983 157.851 233.012 157.851 231.998C157.851 230.985 158.253 230.013 158.97 229.296C159.687 228.58 160.659 228.177 161.673 228.177H190.862C191.876 228.177 192.848 228.58 193.565 229.296C194.282 230.013 194.685 230.985 194.685 231.998C194.685 233.012 194.282 233.983 193.565 234.7C192.848 235.416 191.876 235.819 190.862 235.819V235.819Z" fill="#458FF6"/>
<path d="M95.0799 31.3489H14.792C14.0522 31.3477 13.343 31.0531 12.8203 30.5297C12.2975 30.0064 12.0039 29.2971 12.0039 28.5575C12.0039 27.8179 12.2975 27.1086 12.8203 26.5852C13.343 26.0619 14.0522 25.7673 14.792 25.7661H95.0799C95.8205 25.7661 96.5308 26.0602 97.0545 26.5837C97.5782 27.1072 97.8724 27.8172 97.8724 28.5575C97.8724 29.2978 97.5782 30.0078 97.0545 30.5313C96.5308 31.0548 95.8205 31.3489 95.0799 31.3489V31.3489Z" fill="#458FF6"/>
<path d="M141.436 49.1773H14.7923C14.0518 49.1773 13.3415 48.8832 12.8179 48.3598C12.2942 47.8363 12 47.1263 12 46.3861C12 45.6458 12.2942 44.9358 12.8179 44.4124C13.3415 43.8889 14.0518 43.5948 14.7923 43.5948H141.436C142.176 43.5948 142.887 43.8889 143.41 44.4124C143.934 44.9358 144.228 45.6458 144.228 46.3861C144.228 47.1263 143.934 47.8363 143.41 48.3598C142.887 48.8832 142.176 49.1773 141.436 49.1773Z" fill="#458FF6"/>
<path d="M117.099 65.9734H14.7923C14.0518 65.9734 13.3415 65.6794 12.8179 65.1559C12.2942 64.6324 12 63.9225 12 63.1822C12 62.4419 12.2942 61.732 12.8179 61.2085C13.3415 60.6851 14.0518 60.391 14.7923 60.391H117.099C117.84 60.391 118.55 60.6851 119.073 61.2085C119.597 61.732 119.891 62.4419 119.891 63.1822C119.891 63.9225 119.597 64.6324 119.073 65.1559C118.55 65.6794 117.84 65.9734 117.099 65.9734V65.9734Z" fill="#CACACA"/>
<path d="M72.4823 82.7078H14.7923C14.0518 82.7078 13.3415 82.4137 12.8179 81.8903C12.2942 81.3668 12 80.6569 12 79.9166C12 79.1763 12.2942 78.4663 12.8179 77.9429C13.3415 77.4194 14.0518 77.1254 14.7923 77.1254H72.4823C73.2229 77.1254 73.9331 77.4194 74.4568 77.9429C74.9804 78.4663 75.2746 79.1763 75.2746 79.9166C75.2746 80.6569 74.9804 81.3668 74.4568 81.8903C73.9331 82.4137 73.2229 82.7078 72.4823 82.7078V82.7078Z" fill="#CACACA"/>
<path d="M104.352 99.4408H14.7928C14.053 99.4397 13.3439 99.1451 12.8212 98.6218C12.2985 98.0984 12.0049 97.3891 12.0049 96.6496C12.0049 95.9101 12.2985 95.2008 12.8212 94.6775C13.3439 94.1541 14.053 93.8596 14.7928 93.8584H104.352C105.092 93.8596 105.801 94.1541 106.324 94.6775C106.846 95.2008 107.14 95.9101 107.14 96.6496C107.14 97.3891 106.846 98.0984 106.324 98.6218C105.801 99.1451 105.092 99.4397 104.352 99.4408V99.4408Z" fill="#CACACA"/>
<path d="M356.754 372.521L349.558 372.521L346.135 344.775L356.756 344.776L356.754 372.521Z" fill="#9F616A"/>
<path d="M359.586 382.476L332.112 382.475V382.128C332.113 379.293 333.239 376.574 335.245 374.57C337.25 372.565 339.97 371.439 342.806 371.439H342.806L347.825 367.633L357.188 371.439L359.586 371.44L359.586 382.476Z" fill="#2F2E41"/>
<path d="M352.562 242.124L349.388 203.444L346.895 188.925L360.854 185.843L365.486 205.72L361.45 243.198C362.264 244.195 362.762 245.413 362.878 246.694C362.994 247.976 362.725 249.263 362.104 250.391C361.483 251.518 360.539 252.434 359.393 253.022C358.247 253.609 356.952 253.84 355.674 253.685C354.395 253.531 353.192 252.998 352.219 252.155C351.246 251.312 350.548 250.198 350.213 248.955C349.879 247.712 349.923 246.398 350.342 245.181C350.76 243.963 351.533 242.899 352.562 242.124H352.562Z" fill="#9F616A"/>
<path d="M318.531 372.521L311.335 372.521L307.911 344.775L318.532 344.776L318.531 372.521Z" fill="#9F616A"/>
<path d="M307.014 250.893L303.824 256.409C303.824 256.409 300.319 257.366 301.464 268.788C302.61 280.21 302.659 347.88 308.205 356.207L309.208 363.358L319.679 364.358L319.943 358.013L332.429 269.866C332.429 269.866 339.782 356.399 345.865 358.516L348.062 365.725L357.659 365.73L357.092 357.234L357.711 249.999L307.014 250.893Z" fill="#2F2E41"/>
<path d="M303.507 255.989L303.286 255.932C309.871 231.314 307.971 199.436 303.322 165.205L303.322 165.063L320.129 149.675H334.724L349.192 159.008C358.546 163.683 360.671 173.583 360.692 173.683L360.706 173.753L354.975 193.75L359.293 251.579L359.298 251.646L359.273 251.709C357.876 255.25 354.131 254.746 349.796 254.162C345.468 253.578 329.519 258.912 324.629 258.912C315.072 258.912 304.19 256.164 303.507 255.989Z" fill="#E4E4E4"/>
<path d="M346.162 166.803L352.431 164.076L360.692 174.2L367.388 206.641L344.453 203.168L346.162 166.803Z" fill="#E4E4E4"/>
<path d="M249.726 226.625L278.388 200.444L288.349 189.588L299.33 198.738L286.439 214.564L254.317 234.309C254.026 235.562 253.367 236.701 252.424 237.577C251.481 238.454 250.297 239.028 249.025 239.227C247.753 239.426 246.451 239.241 245.285 238.694C244.119 238.147 243.144 237.265 242.483 236.16C241.823 235.055 241.509 233.778 241.58 232.493C241.652 231.208 242.106 229.973 242.885 228.948C243.663 227.923 244.731 227.154 245.95 226.74C247.169 226.326 248.484 226.286 249.726 226.625L249.726 226.625Z" fill="#9F616A"/>
<path d="M277.765 200.729L285.703 190.424C285.769 190.277 292.355 175.565 298.064 169.172C303.92 162.615 308.53 165.968 308.576 166.004L308.691 166.091L309.01 190.306L287.029 216.56L277.765 200.729Z" fill="#E4E4E4"/>
<path d="M339.185 135.181C340.369 127.89 335.416 121.021 328.122 119.838C320.829 118.654 313.957 123.606 312.773 130.896C311.589 138.187 316.543 145.056 323.836 146.24C331.13 147.423 338.002 142.471 339.185 135.181Z" fill="#9F616A"/>
<path d="M313.747 131.053C313.747 131.053 313.64 126.352 313.046 124.271C312.451 122.191 311.262 120.408 311.856 120.408C312.451 120.408 312.748 118.922 312.748 118.922C312.748 118.922 313.343 118.625 313.64 118.922C313.938 119.219 314.235 116.841 314.235 116.841C314.235 116.841 314.532 115.95 314.829 116.544C315.127 117.139 315.127 116.841 315.424 115.95C315.721 115.058 317.208 114.464 317.208 114.464C317.208 114.464 322.857 114.761 323.749 113.572C324.641 112.384 334.749 113.275 336.831 114.761C338.912 116.247 348.128 121.597 346.642 126.054C345.155 130.512 340.876 140.777 339.804 141.806C338.108 143.433 336.934 144.02 328.91 145.616C327.34 145.928 319.325 140.804 319.325 139.913C319.325 139.021 320.291 136.194 318.738 135.805C316.39 135.219 316.126 138.186 315.531 137.294C314.937 136.403 313.747 131.053 313.747 131.053Z" fill="#2F2E41"/>
<path d="M321.361 382.476L293.888 382.475V382.128C293.888 379.293 295.015 376.574 297.02 374.57C299.025 372.565 301.745 371.439 304.581 371.439H304.582L309.6 367.633L318.963 371.439L321.362 371.44L321.361 382.476Z" fill="#2F2E41"/>
<path d="M464.173 383H14.3129C14.0934 383 13.8829 382.913 13.7277 382.758C13.5725 382.603 13.4854 382.392 13.4854 382.173C13.4854 381.953 13.5725 381.743 13.7277 381.588C13.8829 381.433 14.0934 381.346 14.3129 381.346H464.173C464.392 381.346 464.602 381.433 464.758 381.588C464.913 381.743 465 381.953 465 382.173C465 382.392 464.913 382.603 464.758 382.758C464.602 382.913 464.392 383 464.173 383V383Z" fill="#CACACA"/>
</g>
<defs>
<linearGradient id="paint0_linear_992_4537" x1="49.4645" y1="346.397" x2="-14.7556" y2="182.879" gradientUnits="userSpaceOnUse">
<stop/>
<stop offset="1" stop-color="white"/>
</linearGradient>
<linearGradient id="paint1_linear_992_4537" x1="49.4645" y1="346.397" x2="-14.7556" y2="182.879" gradientUnits="userSpaceOnUse">
<stop stop-color="#97C3F9"/>
<stop offset="1" stop-color="#93C1F9"/>
</linearGradient>
<linearGradient id="paint2_linear_992_4537" x1="73.0333" y1="337.141" x2="8.81328" y2="173.623" gradientUnits="userSpaceOnUse">
<stop/>
<stop offset="1" stop-color="white"/>
</linearGradient>
<linearGradient id="paint3_linear_992_4537" x1="73.0333" y1="337.141" x2="8.81328" y2="173.623" gradientUnits="userSpaceOnUse">
<stop stop-color="#97C3F9"/>
<stop offset="1" stop-color="#93C1F9"/>
</linearGradient>
<linearGradient id="paint4_linear_992_4537" x1="96.604" y1="327.884" x2="32.384" y2="164.367" gradientUnits="userSpaceOnUse">
<stop/>
<stop offset="1" stop-color="white"/>
</linearGradient>
<linearGradient id="paint5_linear_992_4537" x1="96.603" y1="327.884" x2="32.383" y2="164.367" gradientUnits="userSpaceOnUse">
<stop stop-color="#97C3F9"/>
<stop offset="1" stop-color="#93C1F9"/>
</linearGradient>
<linearGradient id="paint6_linear_992_4537" x1="120.17" y1="318.628" x2="55.9496" y2="155.11" gradientUnits="userSpaceOnUse">
<stop/>
<stop offset="1" stop-color="white"/>
</linearGradient>
<linearGradient id="paint7_linear_992_4537" x1="120.171" y1="318.628" x2="55.9506" y2="155.11" gradientUnits="userSpaceOnUse">
<stop stop-color="#97C3F9"/>
<stop offset="1" stop-color="#93C1F9"/>
</linearGradient>
<linearGradient id="paint8_linear_992_4537" x1="143.739" y1="309.372" x2="79.5192" y2="145.854" gradientUnits="userSpaceOnUse">
<stop/>
<stop offset="1" stop-color="white"/>
</linearGradient>
<linearGradient id="paint9_linear_992_4537" x1="143.739" y1="309.372" x2="79.5192" y2="145.854" gradientUnits="userSpaceOnUse">
<stop stop-color="#97C3F9"/>
<stop offset="1" stop-color="#93C1F9"/>
</linearGradient>
<linearGradient id="paint10_linear_992_4537" x1="41.4217" y1="349.555" x2="-22.7973" y2="186.039" gradientUnits="userSpaceOnUse">
<stop/>
<stop offset="1" stop-color="white"/>
</linearGradient>
<linearGradient id="paint11_linear_992_4537" x1="41.4217" y1="349.555" x2="-22.7973" y2="186.039" gradientUnits="userSpaceOnUse">
<stop stop-color="#97C3F9"/>
<stop offset="1" stop-color="#93C1F9"/>
</linearGradient>
<linearGradient id="paint12_linear_992_4537" x1="64.9903" y1="340.299" x2="0.771408" y2="176.782" gradientUnits="userSpaceOnUse">
<stop/>
<stop offset="1" stop-color="white"/>
</linearGradient>
<linearGradient id="paint13_linear_992_4537" x1="64.9903" y1="340.299" x2="0.771408" y2="176.782" gradientUnits="userSpaceOnUse">
<stop stop-color="#97C3F9"/>
<stop offset="1" stop-color="#93C1F9"/>
</linearGradient>
<linearGradient id="paint14_linear_992_4537" x1="88.5609" y1="331.042" x2="24.342" y2="167.526" gradientUnits="userSpaceOnUse">
<stop/>
<stop offset="1" stop-color="white"/>
</linearGradient>
<linearGradient id="paint15_linear_992_4537" x1="88.5599" y1="331.042" x2="24.341" y2="167.526" gradientUnits="userSpaceOnUse">
<stop stop-color="#97C3F9"/>
<stop offset="1" stop-color="#93C1F9"/>
</linearGradient>
<linearGradient id="paint16_linear_992_4537" x1="112.127" y1="321.786" x2="47.9077" y2="158.269" gradientUnits="userSpaceOnUse">
<stop/>
<stop offset="1" stop-color="white"/>
</linearGradient>
<linearGradient id="paint17_linear_992_4537" x1="112.128" y1="321.786" x2="47.9087" y2="158.269" gradientUnits="userSpaceOnUse">
<stop stop-color="#97C3F9"/>
<stop offset="1" stop-color="#93C1F9"/>
</linearGradient>
<linearGradient id="paint18_linear_992_4537" x1="33.3787" y1="352.715" x2="-30.8414" y2="189.197" gradientUnits="userSpaceOnUse">
<stop/>
<stop offset="1" stop-color="white"/>
</linearGradient>
<linearGradient id="paint19_linear_992_4537" x1="33.3787" y1="352.715" x2="-30.8414" y2="189.197" gradientUnits="userSpaceOnUse">
<stop stop-color="#97C3F9"/>
<stop offset="1" stop-color="#93C1F9"/>
</linearGradient>
<linearGradient id="paint20_linear_992_4537" x1="56.9474" y1="343.458" x2="-7.27266" y2="179.94" gradientUnits="userSpaceOnUse">
<stop/>
<stop offset="1" stop-color="white"/>
</linearGradient>
<linearGradient id="paint21_linear_992_4537" x1="56.9474" y1="343.458" x2="-7.27266" y2="179.94" gradientUnits="userSpaceOnUse">
<stop stop-color="#97C3F9"/>
<stop offset="1" stop-color="#93C1F9"/>
</linearGradient>
<linearGradient id="paint22_linear_992_4537" x1="80.518" y1="334.202" x2="16.298" y2="170.684" gradientUnits="userSpaceOnUse">
<stop/>
<stop offset="1" stop-color="white"/>
</linearGradient>
<linearGradient id="paint23_linear_992_4537" x1="80.517" y1="334.202" x2="16.297" y2="170.684" gradientUnits="userSpaceOnUse">
<stop stop-color="#97C3F9"/>
<stop offset="1" stop-color="#93C1F9"/>
</linearGradient>
<linearGradient id="paint24_linear_992_4537" x1="104.084" y1="324.945" x2="39.8636" y2="161.427" gradientUnits="userSpaceOnUse">
<stop/>
<stop offset="1" stop-color="white"/>
</linearGradient>
<linearGradient id="paint25_linear_992_4537" x1="104.085" y1="324.945" x2="39.8646" y2="161.427" gradientUnits="userSpaceOnUse">
<stop stop-color="#97C3F9"/>
<stop offset="1" stop-color="#93C1F9"/>
</linearGradient>
<linearGradient id="paint26_linear_992_4537" x1="127.653" y1="315.689" x2="63.4333" y2="152.171" gradientUnits="userSpaceOnUse">
<stop/>
<stop offset="1" stop-color="white"/>
</linearGradient>
<linearGradient id="paint27_linear_992_4537" x1="127.653" y1="315.689" x2="63.4333" y2="152.171" gradientUnits="userSpaceOnUse">
<stop stop-color="#97C3F9"/>
<stop offset="1" stop-color="#93C1F9"/>
</linearGradient>
<linearGradient id="paint28_linear_992_4537" x1="135.696" y1="312.53" x2="71.4774" y2="149.013" gradientUnits="userSpaceOnUse">
<stop/>
<stop offset="1" stop-color="white"/>
</linearGradient>
<linearGradient id="paint29_linear_992_4537" x1="135.696" y1="312.53" x2="71.4774" y2="149.013" gradientUnits="userSpaceOnUse">
<stop stop-color="#97C3F9"/>
<stop offset="1" stop-color="#93C1F9"/>
</linearGradient>
<linearGradient id="paint30_linear_992_4537" x1="25.3357" y1="355.873" x2="-38.8844" y2="192.355" gradientUnits="userSpaceOnUse">
<stop/>
<stop offset="1" stop-color="white"/>
</linearGradient>
<linearGradient id="paint31_linear_992_4537" x1="25.3357" y1="355.873" x2="-38.8844" y2="192.355" gradientUnits="userSpaceOnUse">
<stop stop-color="#97C3F9"/>
<stop offset="1" stop-color="#93C1F9"/>
</linearGradient>
<linearGradient id="paint32_linear_992_4537" x1="48.9044" y1="346.617" x2="-15.3156" y2="183.099" gradientUnits="userSpaceOnUse">
<stop/>
<stop offset="1" stop-color="white"/>
</linearGradient>
<linearGradient id="paint33_linear_992_4537" x1="48.9044" y1="346.617" x2="-15.3156" y2="183.099" gradientUnits="userSpaceOnUse">
<stop stop-color="#97C3F9"/>
<stop offset="1" stop-color="#93C1F9"/>
</linearGradient>
<linearGradient id="paint34_linear_992_4537" x1="72.475" y1="337.36" x2="8.25504" y2="173.843" gradientUnits="userSpaceOnUse">
<stop/>
<stop offset="1" stop-color="white"/>
</linearGradient>
<linearGradient id="paint35_linear_992_4537" x1="72.474" y1="337.36" x2="8.25406" y2="173.843" gradientUnits="userSpaceOnUse">
<stop stop-color="#97C3F9"/>
<stop offset="1" stop-color="#93C1F9"/>
</linearGradient>
<linearGradient id="paint36_linear_992_4537" x1="96.0407" y1="328.104" x2="31.8207" y2="164.586" gradientUnits="userSpaceOnUse">
<stop/>
<stop offset="1" stop-color="white"/>
</linearGradient>
<linearGradient id="paint37_linear_992_4537" x1="96.0417" y1="328.104" x2="31.8217" y2="164.586" gradientUnits="userSpaceOnUse">
<stop stop-color="#97C3F9"/>
<stop offset="1" stop-color="#93C1F9"/>
</linearGradient>
<linearGradient id="paint38_linear_992_4537" x1="119.61" y1="318.848" x2="55.3904" y2="155.33" gradientUnits="userSpaceOnUse">
<stop/>
<stop offset="1" stop-color="white"/>
</linearGradient>
<linearGradient id="paint39_linear_992_4537" x1="119.61" y1="318.848" x2="55.3904" y2="155.33" gradientUnits="userSpaceOnUse">
<stop stop-color="#97C3F9"/>
<stop offset="1" stop-color="#93C1F9"/>
</linearGradient>
<linearGradient id="paint40_linear_992_4537" x1="17.2927" y1="359.032" x2="-46.9273" y2="195.514" gradientUnits="userSpaceOnUse">
<stop/>
<stop offset="1" stop-color="white"/>
</linearGradient>
<linearGradient id="paint41_linear_992_4537" x1="17.2927" y1="359.032" x2="-46.9273" y2="195.514" gradientUnits="userSpaceOnUse">
<stop stop-color="#97C3F9"/>
<stop offset="1" stop-color="#93C1F9"/>
</linearGradient>
<linearGradient id="paint42_linear_992_4537" x1="40.8615" y1="349.776" x2="-23.3586" y2="186.258" gradientUnits="userSpaceOnUse">
<stop/>
<stop offset="1" stop-color="white"/>
</linearGradient>
<linearGradient id="paint43_linear_992_4537" x1="40.8615" y1="349.776" x2="-23.3586" y2="186.258" gradientUnits="userSpaceOnUse">
<stop stop-color="#97C3F9"/>
<stop offset="1" stop-color="#93C1F9"/>
</linearGradient>
<linearGradient id="paint44_linear_992_4537" x1="64.4321" y1="340.519" x2="0.212115" y2="177.002" gradientUnits="userSpaceOnUse">
<stop/>
<stop offset="1" stop-color="white"/>
</linearGradient>
<linearGradient id="paint45_linear_992_4537" x1="64.4311" y1="340.519" x2="0.211138" y2="177.002" gradientUnits="userSpaceOnUse">
<stop stop-color="#97C3F9"/>
<stop offset="1" stop-color="#93C1F9"/>
</linearGradient>
<linearGradient id="paint46_linear_992_4537" x1="87.9978" y1="331.263" x2="23.7778" y2="167.745" gradientUnits="userSpaceOnUse">
<stop/>
<stop offset="1" stop-color="white"/>
</linearGradient>
<linearGradient id="paint47_linear_992_4537" x1="87.9988" y1="331.263" x2="23.7788" y2="167.745" gradientUnits="userSpaceOnUse">
<stop stop-color="#97C3F9"/>
<stop offset="1" stop-color="#93C1F9"/>
</linearGradient>
<linearGradient id="paint48_linear_992_4537" x1="111.567" y1="322.007" x2="47.3474" y2="158.489" gradientUnits="userSpaceOnUse">
<stop/>
<stop offset="1" stop-color="white"/>
</linearGradient>
<linearGradient id="paint49_linear_992_4537" x1="111.567" y1="322.007" x2="47.3474" y2="158.489" gradientUnits="userSpaceOnUse">
<stop stop-color="#97C3F9"/>
<stop offset="1" stop-color="#93C1F9"/>
</linearGradient>
<linearGradient id="paint50_linear_992_4537" x1="376.853" y1="190.797" x2="312.633" y2="27.2794" gradientUnits="userSpaceOnUse">
<stop/>
<stop offset="1" stop-color="white"/>
</linearGradient>
<linearGradient id="paint51_linear_992_4537" x1="376.853" y1="190.797" x2="312.633" y2="27.2794" gradientUnits="userSpaceOnUse">
<stop stop-color="#97C3F9"/>
<stop offset="1" stop-color="#93C1F9"/>
</linearGradient>
<linearGradient id="paint52_linear_992_4537" x1="400.423" y1="181.541" x2="336.203" y2="18.0231" gradientUnits="userSpaceOnUse">
<stop/>
<stop offset="1" stop-color="white"/>
</linearGradient>
<linearGradient id="paint53_linear_992_4537" x1="400.422" y1="181.541" x2="336.202" y2="18.0231" gradientUnits="userSpaceOnUse">
<stop stop-color="#97C3F9"/>
<stop offset="1" stop-color="#93C1F9"/>
</linearGradient>
<linearGradient id="paint54_linear_992_4537" x1="423.99" y1="172.285" x2="359.77" y2="8.76695" gradientUnits="userSpaceOnUse">
<stop/>
<stop offset="1" stop-color="white"/>
</linearGradient>
<linearGradient id="paint55_linear_992_4537" x1="423.991" y1="172.285" x2="359.771" y2="8.76695" gradientUnits="userSpaceOnUse">
<stop stop-color="#97C3F9"/>
<stop offset="1" stop-color="#93C1F9"/>
</linearGradient>
<linearGradient id="paint56_linear_992_4537" x1="447.559" y1="163.028" x2="383.339" y2="-0.489645" gradientUnits="userSpaceOnUse">
<stop/>
<stop offset="1" stop-color="white"/>
</linearGradient>
<linearGradient id="paint57_linear_992_4537" x1="447.559" y1="163.028" x2="383.339" y2="-0.489645" gradientUnits="userSpaceOnUse">
<stop stop-color="#97C3F9"/>
<stop offset="1" stop-color="#93C1F9"/>
</linearGradient>
<linearGradient id="paint58_linear_992_4537" x1="471.128" y1="153.772" x2="406.908" y2="-9.74602" gradientUnits="userSpaceOnUse">
<stop/>
<stop offset="1" stop-color="white"/>
</linearGradient>
<linearGradient id="paint59_linear_992_4537" x1="471.128" y1="153.772" x2="406.908" y2="-9.74602" gradientUnits="userSpaceOnUse">
<stop stop-color="#97C3F9"/>
<stop offset="1" stop-color="#93C1F9"/>
</linearGradient>
<linearGradient id="paint60_linear_992_4537" x1="368.81" y1="193.956" x2="304.591" y2="30.4389" gradientUnits="userSpaceOnUse">
<stop/>
<stop offset="1" stop-color="white"/>
</linearGradient>
<linearGradient id="paint61_linear_992_4537" x1="368.81" y1="193.956" x2="304.591" y2="30.4389" gradientUnits="userSpaceOnUse">
<stop stop-color="#97C3F9"/>
<stop offset="1" stop-color="#93C1F9"/>
</linearGradient>
<linearGradient id="paint62_linear_992_4537" x1="392.38" y1="184.699" x2="328.161" y2="21.1823" gradientUnits="userSpaceOnUse">
<stop/>
<stop offset="1" stop-color="white"/>
</linearGradient>
<linearGradient id="paint63_linear_992_4537" x1="392.379" y1="184.699" x2="328.16" y2="21.1823" gradientUnits="userSpaceOnUse">
<stop stop-color="#97C3F9"/>
<stop offset="1" stop-color="#93C1F9"/>
</linearGradient>
<linearGradient id="paint64_linear_992_4537" x1="415.947" y1="175.443" x2="351.728" y2="11.9261" gradientUnits="userSpaceOnUse">
<stop/>
<stop offset="1" stop-color="white"/>
</linearGradient>
<linearGradient id="paint65_linear_992_4537" x1="415.948" y1="175.443" x2="351.729" y2="11.9261" gradientUnits="userSpaceOnUse">
<stop stop-color="#97C3F9"/>
<stop offset="1" stop-color="#93C1F9"/>
</linearGradient>
<linearGradient id="paint66_linear_992_4537" x1="439.516" y1="166.186" x2="375.297" y2="2.6696" gradientUnits="userSpaceOnUse">
<stop/>
<stop offset="1" stop-color="white"/>
</linearGradient>
<linearGradient id="paint67_linear_992_4537" x1="439.516" y1="166.186" x2="375.297" y2="2.6696" gradientUnits="userSpaceOnUse">
<stop stop-color="#97C3F9"/>
<stop offset="1" stop-color="#93C1F9"/>
</linearGradient>
<linearGradient id="paint68_linear_992_4537" x1="360.767" y1="197.115" x2="296.547" y2="33.597" gradientUnits="userSpaceOnUse">
<stop/>
<stop offset="1" stop-color="white"/>
</linearGradient>
<linearGradient id="paint69_linear_992_4537" x1="360.767" y1="197.115" x2="296.547" y2="33.597" gradientUnits="userSpaceOnUse">
<stop stop-color="#97C3F9"/>
<stop offset="1" stop-color="#93C1F9"/>
</linearGradient>
<linearGradient id="paint70_linear_992_4537" x1="384.337" y1="187.859" x2="320.117" y2="24.3407" gradientUnits="userSpaceOnUse">
<stop/>
<stop offset="1" stop-color="white"/>
</linearGradient>
<linearGradient id="paint71_linear_992_4537" x1="384.336" y1="187.859" x2="320.116" y2="24.3406" gradientUnits="userSpaceOnUse">
<stop stop-color="#97C3F9"/>
<stop offset="1" stop-color="#93C1F9"/>
</linearGradient>
<linearGradient id="paint72_linear_992_4537" x1="407.904" y1="178.602" x2="343.684" y2="15.0844" gradientUnits="userSpaceOnUse">
<stop/>
<stop offset="1" stop-color="white"/>
</linearGradient>
<linearGradient id="paint73_linear_992_4537" x1="407.905" y1="178.602" x2="343.685" y2="15.0843" gradientUnits="userSpaceOnUse">
<stop stop-color="#97C3F9"/>
<stop offset="1" stop-color="#93C1F9"/>
</linearGradient>
<linearGradient id="paint74_linear_992_4537" x1="431.473" y1="169.346" x2="367.253" y2="5.82775" gradientUnits="userSpaceOnUse">
<stop/>
<stop offset="1" stop-color="white"/>
</linearGradient>
<linearGradient id="paint75_linear_992_4537" x1="431.473" y1="169.346" x2="367.253" y2="5.82775" gradientUnits="userSpaceOnUse">
<stop stop-color="#97C3F9"/>
<stop offset="1" stop-color="#93C1F9"/>
</linearGradient>
<linearGradient id="paint76_linear_992_4537" x1="455.042" y1="160.089" x2="390.822" y2="-3.42862" gradientUnits="userSpaceOnUse">
<stop/>
<stop offset="1" stop-color="white"/>
</linearGradient>
<linearGradient id="paint77_linear_992_4537" x1="455.042" y1="160.089" x2="390.822" y2="-3.42862" gradientUnits="userSpaceOnUse">
<stop stop-color="#97C3F9"/>
<stop offset="1" stop-color="#93C1F9"/>
</linearGradient>
<linearGradient id="paint78_linear_992_4537" x1="463.085" y1="156.93" x2="398.866" y2="-6.58664" gradientUnits="userSpaceOnUse">
<stop/>
<stop offset="1" stop-color="white"/>
</linearGradient>
<linearGradient id="paint79_linear_992_4537" x1="463.085" y1="156.93" x2="398.866" y2="-6.58664" gradientUnits="userSpaceOnUse">
<stop stop-color="#97C3F9"/>
<stop offset="1" stop-color="#93C1F9"/>
</linearGradient>
<linearGradient id="paint80_linear_992_4537" x1="352.724" y1="200.274" x2="288.504" y2="36.7558" gradientUnits="userSpaceOnUse">
<stop/>
<stop offset="1" stop-color="white"/>
</linearGradient>
<linearGradient id="paint81_linear_992_4537" x1="352.724" y1="200.274" x2="288.504" y2="36.7558" gradientUnits="userSpaceOnUse">
<stop stop-color="#97C3F9"/>
<stop offset="1" stop-color="#93C1F9"/>
</linearGradient>
<linearGradient id="paint82_linear_992_4537" x1="376.294" y1="191.017" x2="312.074" y2="27.4993" gradientUnits="userSpaceOnUse">
<stop/>
<stop offset="1" stop-color="white"/>
</linearGradient>
<linearGradient id="paint83_linear_992_4537" x1="376.293" y1="191.017" x2="312.073" y2="27.4994" gradientUnits="userSpaceOnUse">
<stop stop-color="#97C3F9"/>
<stop offset="1" stop-color="#93C1F9"/>
</linearGradient>
<linearGradient id="paint84_linear_992_4537" x1="399.861" y1="181.761" x2="335.641" y2="18.243" gradientUnits="userSpaceOnUse">
<stop/>
<stop offset="1" stop-color="white"/>
</linearGradient>
<linearGradient id="paint85_linear_992_4537" x1="399.862" y1="181.761" x2="335.642" y2="18.2431" gradientUnits="userSpaceOnUse">
<stop stop-color="#97C3F9"/>
<stop offset="1" stop-color="#93C1F9"/>
</linearGradient>
<linearGradient id="paint86_linear_992_4537" x1="423.43" y1="172.505" x2="359.21" y2="8.98662" gradientUnits="userSpaceOnUse">
<stop/>
<stop offset="1" stop-color="white"/>
</linearGradient>
<linearGradient id="paint87_linear_992_4537" x1="423.43" y1="172.505" x2="359.21" y2="8.98662" gradientUnits="userSpaceOnUse">
<stop stop-color="#97C3F9"/>
<stop offset="1" stop-color="#93C1F9"/>
</linearGradient>
<linearGradient id="paint88_linear_992_4537" x1="446.999" y1="163.248" x2="382.779" y2="-0.269804" gradientUnits="userSpaceOnUse">
<stop/>
<stop offset="1" stop-color="white"/>
</linearGradient>
<linearGradient id="paint89_linear_992_4537" x1="446.999" y1="163.248" x2="382.779" y2="-0.269804" gradientUnits="userSpaceOnUse">
<stop stop-color="#97C3F9"/>
<stop offset="1" stop-color="#93C1F9"/>
</linearGradient>
<linearGradient id="paint90_linear_992_4537" x1="344.681" y1="203.432" x2="280.461" y2="39.9146" gradientUnits="userSpaceOnUse">
<stop/>
<stop offset="1" stop-color="white"/>
</linearGradient>
<linearGradient id="paint91_linear_992_4537" x1="344.681" y1="203.432" x2="280.461" y2="39.9146" gradientUnits="userSpaceOnUse">
<stop stop-color="#97C3F9"/>
<stop offset="1" stop-color="#93C1F9"/>
</linearGradient>
<linearGradient id="paint92_linear_992_4537" x1="368.251" y1="194.176" x2="304.031" y2="30.6581" gradientUnits="userSpaceOnUse">
<stop/>
<stop offset="1" stop-color="white"/>
</linearGradient>
<linearGradient id="paint93_linear_992_4537" x1="368.25" y1="194.176" x2="304.03" y2="30.6581" gradientUnits="userSpaceOnUse">
<stop stop-color="#97C3F9"/>
<stop offset="1" stop-color="#93C1F9"/>
</linearGradient>
<linearGradient id="paint94_linear_992_4537" x1="391.818" y1="184.92" x2="327.598" y2="21.4019" gradientUnits="userSpaceOnUse">
<stop/>
<stop offset="1" stop-color="white"/>
</linearGradient>
<linearGradient id="paint95_linear_992_4537" x1="391.819" y1="184.92" x2="327.599" y2="21.4019" gradientUnits="userSpaceOnUse">
<stop stop-color="#97C3F9"/>
<stop offset="1" stop-color="#93C1F9"/>
</linearGradient>
<linearGradient id="paint96_linear_992_4537" x1="415.387" y1="175.663" x2="351.167" y2="12.1455" gradientUnits="userSpaceOnUse">
<stop/>
<stop offset="1" stop-color="white"/>
</linearGradient>
<linearGradient id="paint97_linear_992_4537" x1="415.387" y1="175.663" x2="351.167" y2="12.1455" gradientUnits="userSpaceOnUse">
<stop stop-color="#97C3F9"/>
<stop offset="1" stop-color="#93C1F9"/>
</linearGradient>
<linearGradient id="paint98_linear_992_4537" x1="438.956" y1="166.407" x2="374.736" y2="2.88912" gradientUnits="userSpaceOnUse">
<stop/>
<stop offset="1" stop-color="white"/>
</linearGradient>
<linearGradient id="paint99_linear_992_4537" x1="438.956" y1="166.407" x2="374.736" y2="2.88912" gradientUnits="userSpaceOnUse">
<stop stop-color="#97C3F9"/>
<stop offset="1" stop-color="#93C1F9"/>
</linearGradient>
<clipPath id="clip0_992_4537">
<rect width="453" height="383" fill="white" transform="translate(12)"/>
</clipPath>
</defs>
</svg>
