<svg width="614" height="335" viewBox="0 0 614 335" fill="none" xmlns="http://www.w3.org/2000/svg">
<g clip-path="url(#clip0_996_4539)">
<path d="M222.323 335C204.701 335 187.106 334.684 169.536 334.053C144.433 333.15 118.474 332.218 94.3459 318.824C77.4674 309.456 62.519 294.426 51.117 275.357C43.496 262.432 37.908 248.411 34.5492 233.785C28.2838 207.156 28.4972 179.411 35.1715 152.882C37.5105 143.786 40.7348 134.942 44.7984 126.476C62.3938 90.009 94.4865 65.5297 132.848 59.3154C133.165 59.2742 133.485 59.2674 133.803 59.2949C133.976 59.3042 134.148 59.3141 134.323 59.3067L134.549 59.2349C135.128 59.0337 135.722 58.881 136.326 58.7786C195.489 49.9635 258.034 67.7995 317.193 110.357C362.935 143.267 423.555 160.988 502.52 164.534L503.641 164.593C525.622 165.856 546.885 174.926 565.133 190.824C583.144 206.514 596.668 227.448 604.241 251.363C605.172 254.279 606.026 257.314 606.778 260.384C607.478 263.236 607.428 266.222 606.634 269.05C605.84 271.878 604.328 274.452 602.245 276.521V276.527L602.048 276.729C601.575 277.2 601.077 277.652 600.567 278.073L599.969 278.567C594.922 282.727 590.937 286.014 586.166 288.566C582.985 290.257 579.601 291.536 576.097 292.371C556.854 297.066 537.313 301.42 518.016 305.311C480.54 312.873 442.077 319.112 403.695 323.852C343.522 331.278 282.951 335.001 222.323 335ZM133.355 60.5865C133.237 60.5854 133.119 60.5934 133.003 60.6104C94.9997 66.7667 63.2108 91.0057 45.7898 127.112C41.7664 135.494 38.5739 144.25 36.2582 153.256C29.6448 179.55 29.434 207.048 35.6437 233.441C38.9696 247.927 44.5034 261.814 52.0508 274.615C63.3412 293.497 78.1368 308.377 94.8383 317.646C118.749 330.919 144.586 331.848 169.572 332.746C247.719 335.54 325.965 332.132 403.574 322.553C441.931 317.815 480.37 311.581 517.821 304.023C537.105 300.135 556.632 295.785 575.862 291.092C579.282 290.278 582.584 289.031 585.689 287.381C590.363 284.88 594.311 281.624 599.308 277.504L599.907 277.01C600.345 276.648 600.775 276.262 601.186 275.859L601.304 275.736C605.411 271.592 607.008 266.126 605.686 260.739V260.738C604.942 257.701 604.097 254.699 603.176 251.813C587.705 202.959 547.683 168.433 503.586 165.898L502.471 165.84C466.402 164.22 434.838 159.733 405.98 152.12C371.531 143.034 341.457 129.355 316.592 111.466C257.658 69.0713 195.375 51.3017 136.47 60.0749C135.92 60.1699 135.379 60.3104 134.852 60.4949L134.445 60.6088C134.214 60.6192 133.982 60.6164 133.751 60.6005C133.615 60.5935 133.484 60.5865 133.355 60.5865H133.355Z" fill="#F0F0F0"/>
<path d="M212.418 137.463C210.786 135.896 209.118 127.161 207.035 126.274C208.592 129.718 207.461 130.63 207.453 134.409C207.473 136.555 207.222 138.695 206.708 140.778H171.427V113.221C171.427 110.745 171.914 108.293 172.861 106.005C173.807 103.718 175.195 101.639 176.944 99.8882C178.694 98.1373 180.771 96.7485 183.056 95.8009C185.342 94.8534 187.792 94.3658 190.266 94.3658C191.21 94.3843 192.148 94.5217 193.058 94.775C196.091 95.5944 198.855 97.1975 201.073 99.4235C203.291 101.65 204.885 104.42 205.696 107.457C208.385 117.297 212.663 133.675 212.418 137.463Z" fill="#2F2E41"/>
<path d="M173.497 171.364L173.514 149.884L160.899 151.013L165.351 164.559L163.267 198.61C162.257 198.837 161.334 199.353 160.611 200.096C159.889 200.839 159.398 201.776 159.199 202.793C158.999 203.811 159.1 204.864 159.488 205.825C159.876 206.786 160.536 207.613 161.385 208.206C162.235 208.798 163.239 209.13 164.274 209.162C165.31 209.193 166.332 208.922 167.216 208.382C168.1 207.842 168.808 207.057 169.254 206.121C169.7 205.185 169.864 204.14 169.726 203.112L173.497 171.364Z" fill="#FFB6B6"/>
<path d="M198.325 324.855L203.421 324.854L205.846 305.179H198.323L198.325 324.855Z" fill="#FFB6B6"/>
<path d="M196.598 322.338L204.655 321.857V325.312L212.315 330.606C212.693 330.868 212.978 331.243 213.128 331.678C213.278 332.113 213.285 332.585 213.148 333.024C213.011 333.464 212.738 333.848 212.367 334.12C211.997 334.393 211.549 334.54 211.089 334.54H201.497L199.844 331.123L199.199 334.54H195.582L196.598 322.338Z" fill="#2F2E41"/>
<path d="M168.854 324.855L173.951 324.854L176.375 305.179H168.854L168.854 324.855Z" fill="#FFB6B6"/>
<path d="M167.128 322.338L175.185 321.857V325.312L182.845 330.606C183.223 330.868 183.508 331.243 183.658 331.678C183.808 332.113 183.815 332.585 183.678 333.024C183.542 333.464 183.268 333.848 182.898 334.12C182.527 334.393 182.08 334.54 181.62 334.54H172.028L170.374 331.123L169.729 334.54H166.112L167.128 322.338Z" fill="#2F2E41"/>
<path d="M193.785 126.689L183.227 126.896L175.774 134.769L169.799 135.646C167.096 136.043 164.611 137.356 162.759 139.367C160.908 141.377 159.802 143.962 159.626 146.69L160.661 152.381H166.872L170.465 173.494C169.068 177.057 168.973 179.87 171.84 180.974L180.742 197.757L207.035 185.947C208.368 183.653 208.795 181.348 207.432 179.108L209.312 146.787H215.632C215.632 140.742 213.589 135.646 207.586 134.973C205.203 134.715 202.807 134.578 200.41 134.562L193.785 126.689Z" fill="#E6E6E6"/>
<path d="M207.035 185.947C207.035 185.947 181.364 190.505 171.841 180.974C171.841 180.974 170.874 182.617 169.417 185.341C168.998 186.125 168.189 186.656 167.7 187.605C167.256 188.467 166.114 189.528 165.63 190.506C165.241 191.293 165.865 192.321 165.46 193.171C160.583 203.409 154.885 217.851 156.107 227.387C156.895 233.536 158.522 247.846 160.235 263.215C160.369 264.416 159.285 265.958 159.419 267.168C159.546 268.31 160.892 269.119 161.019 270.263C161.103 271.022 160.163 271.797 160.247 272.556C160.34 273.388 161.456 274.204 161.547 275.033C163.895 296.254 166.044 316.067 166.044 316.067H178.052L180.317 270.817L178.466 254.322L182.813 220.963L188.817 252.665L189.589 270.506L195.934 316.896H207.035V271.988L207.863 269.655L207.035 266.663L207.863 263.439L207.035 259.928V185.947Z" fill="#2F2E41"/>
<path d="M197.027 120.561C195.391 122.735 193.064 124.287 190.43 124.961C187.795 125.636 185.01 125.392 182.532 124.27C180.054 123.148 178.032 121.215 176.799 118.789C175.565 116.364 175.194 113.59 175.746 110.925C176.298 108.26 177.741 105.863 179.836 104.128C181.931 102.393 184.555 101.424 187.274 101.38C189.993 101.337 192.645 102.221 194.795 103.888C196.945 105.555 198.463 107.905 199.1 110.551C199.135 110.695 199.164 110.837 199.192 110.986C199.528 112.644 199.509 114.355 199.136 116.006C198.763 117.656 198.044 119.209 197.027 120.561Z" fill="#FFB6B6"/>
<path d="M194.531 113.726C194.277 112.451 193.635 111.286 192.692 110.39C192.785 111.613 192.616 112.84 192.196 113.992C189.048 114.271 185.886 113.644 183.082 112.185C180.971 110.751 178.284 110.875 175.153 112.185C175.153 110.661 175.453 109.152 176.035 107.744C176.618 106.336 177.472 105.057 178.549 103.98C179.625 102.902 180.903 102.048 182.31 101.465C183.717 100.882 185.224 100.582 186.747 100.582H188.817C191.892 100.582 194.84 101.805 197.014 103.981C199.188 106.157 200.41 109.108 200.41 112.185C198.5 112.871 196.532 113.387 194.531 113.726Z" fill="#2F2E41"/>
<path d="M103.958 261.612C122.353 261.612 137.265 246.688 137.265 228.278C137.265 209.868 122.353 194.944 103.958 194.944C85.564 194.944 70.6523 209.868 70.6523 228.278C70.6523 246.688 85.564 261.612 103.958 261.612Z" fill="#F0F0F0"/>
<path d="M316.204 108.668C334.598 108.668 349.51 93.7437 349.51 75.3339C349.51 56.9241 334.598 42 316.204 42C297.809 42 282.897 56.9241 282.897 75.3339C282.897 93.7437 297.809 108.668 316.204 108.668Z" fill="#F0F0F0"/>
<path d="M580.694 266.841C599.088 266.841 614 251.916 614 233.507C614 215.097 599.088 200.173 580.694 200.173C562.299 200.173 547.388 215.097 547.388 233.507C547.388 251.916 562.299 266.841 580.694 266.841Z" fill="#F0F0F0"/>
<path d="M376.285 78.9691V154.556C376.286 156.126 375.667 157.633 374.563 158.749C373.46 159.865 371.961 160.5 370.392 160.516C370.371 160.519 370.349 160.52 370.327 160.519H361.537C354.504 160.519 347.759 157.723 342.786 152.746C337.812 147.768 335.019 141.018 335.019 133.979V78.9691C335.019 77.3876 335.646 75.8708 336.764 74.7525C337.881 73.6342 339.396 73.006 340.977 73.006H344.538C342.888 77.8235 365.283 79.8517 366.513 73.006H370.327C371.907 73.006 373.423 73.6343 374.54 74.7526C375.658 75.8709 376.285 77.3876 376.285 78.9691Z" fill="#458FF6"/>
<path d="M350.2 67.3539C350.2 67.1467 350.283 66.9481 350.429 66.8016C350.576 66.655 350.774 66.5726 350.981 66.5724H356.291C356.497 66.573 356.695 66.6556 356.841 66.8021C356.987 66.9486 357.069 67.147 357.069 67.3539C357.069 67.5607 356.987 67.7592 356.841 67.9057C356.695 68.0522 356.497 68.1348 356.291 68.1354H350.981C350.774 68.1351 350.576 68.0527 350.429 67.9062C350.283 67.7597 350.2 67.5611 350.2 67.3539Z" fill="#3F3D56"/>
<path d="M372.151 170.107H338.574C335.968 170.104 333.471 169.067 331.629 167.223C329.787 165.38 328.75 162.88 328.747 160.273V107.434C328.563 107.302 328.413 107.127 328.309 106.925C328.206 106.723 328.152 106.499 328.152 106.272V100.958C328.152 100.731 328.206 100.507 328.309 100.304C328.413 100.102 328.563 99.9278 328.747 99.7953V98.3691C328.563 98.2366 328.413 98.0621 328.309 97.86C328.206 97.6578 328.152 97.4339 328.152 97.2068V91.8924C328.152 91.6653 328.206 91.4413 328.309 91.2392C328.413 91.037 328.563 90.8625 328.747 90.7301V88.1523C328.52 88.03 328.33 87.848 328.197 87.6258C328.065 87.4037 327.995 87.1497 327.996 86.8911V81.577C327.995 81.3183 328.065 81.0643 328.197 80.8421C328.33 80.6199 328.52 80.4379 328.747 80.3154V73.2521C328.75 70.6449 329.787 68.1452 331.629 66.3016C333.471 64.458 335.968 63.421 338.574 63.4181H372.151C374.756 63.421 377.254 64.4581 379.096 66.3017C380.938 68.1453 381.974 70.6449 381.977 73.2522V88.6486C382.154 88.7594 382.3 88.9134 382.401 89.0961C382.503 89.2788 382.556 89.4842 382.556 89.6931V99.826C382.556 100.035 382.503 100.24 382.401 100.423C382.3 100.606 382.154 100.76 381.977 100.871V160.273C381.974 162.88 380.938 165.38 379.096 167.223C377.254 169.067 374.756 170.104 372.151 170.107ZM338.574 64.7253C336.315 64.7278 334.149 65.627 332.552 67.2256C330.955 68.8241 330.056 70.9915 330.053 73.2522V81.4274L329.425 81.4516C329.393 81.4528 329.362 81.4664 329.339 81.4898C329.316 81.5131 329.303 81.5443 329.302 81.577V86.891C329.303 86.9237 329.316 86.9549 329.339 86.9782C329.362 87.0015 329.393 87.0152 329.425 87.0165L330.053 87.0404V91.6479L329.557 91.7704C329.529 91.7771 329.505 91.7926 329.487 91.8147C329.469 91.8367 329.459 91.864 329.458 91.8924V97.2067C329.459 97.2351 329.469 97.2624 329.487 97.2844C329.505 97.3065 329.529 97.322 329.557 97.3287L330.053 97.4512V100.713L329.557 100.836C329.529 100.842 329.505 100.858 329.487 100.88C329.469 100.902 329.459 100.929 329.458 100.958V106.272C329.459 106.3 329.469 106.327 329.487 106.35C329.505 106.372 329.529 106.387 329.557 106.394L330.053 106.516V160.273C330.056 162.533 330.955 164.701 332.552 166.299C334.149 167.898 336.315 168.797 338.574 168.8H372.151C374.41 168.797 376.576 167.898 378.173 166.299C379.77 164.701 380.669 162.533 380.671 160.273V99.7516H381.25V89.7678H380.671V73.2521C380.669 70.9915 379.77 68.8241 378.173 67.2256C376.576 65.6271 374.41 64.7279 372.151 64.7253L338.574 64.7253Z" fill="#3F3D56"/>
<path d="M359.258 68.1354C359.69 68.1354 360.039 67.7855 360.039 67.3539C360.039 66.9223 359.69 66.5724 359.258 66.5724C358.827 66.5724 358.478 66.9223 358.478 67.3539C358.478 67.7855 358.827 68.1354 359.258 68.1354Z" fill="#3F3D56"/>
<path d="M189.399 218.737H102.028C100.787 218.734 99.5983 218.239 98.7209 217.361C97.8435 216.483 97.3491 215.293 97.3457 214.051V171.443C97.3489 170.202 97.8432 169.012 98.7204 168.133C99.5977 167.255 100.787 166.76 102.027 166.757H189.399C190.639 166.76 191.829 167.255 192.706 168.133C193.583 169.011 194.078 170.201 194.081 171.443V214.051C194.078 215.292 193.584 216.483 192.706 217.361C191.829 218.239 190.64 218.734 189.399 218.737Z" fill="white"/>
<path d="M189.399 218.737H102.028C100.787 218.734 99.5983 218.239 98.7209 217.361C97.8435 216.483 97.3491 215.293 97.3457 214.051V171.443C97.3489 170.202 97.8432 169.012 98.7204 168.133C99.5977 167.255 100.787 166.76 102.027 166.757H189.399C190.639 166.76 191.829 167.255 192.706 168.133C193.583 169.011 194.078 170.201 194.081 171.443V214.051C194.078 215.292 193.584 216.483 192.706 217.361C191.829 218.239 190.64 218.734 189.399 218.737ZM102.028 168.064C101.133 168.067 100.276 168.424 99.6434 169.057C99.0108 169.69 98.6543 170.549 98.6518 171.444V214.051C98.6544 214.946 99.011 215.804 99.6438 216.437C100.277 217.071 101.134 217.427 102.029 217.43H189.398C190.293 217.427 191.15 217.07 191.783 216.437C192.416 215.804 192.773 214.946 192.775 214.05V171.443C192.772 170.548 192.416 169.69 191.783 169.057C191.15 168.424 190.293 168.067 189.398 168.064L102.028 168.064Z" fill="#3F3D56"/>
<path d="M150.397 212.44C133.165 212.44 115.197 212.275 108.493 212.169C107.611 212.15 106.771 211.788 106.153 211.158C105.534 210.529 105.186 209.682 105.183 208.799V173.529C105.183 173.213 105.308 172.91 105.532 172.686C105.755 172.462 106.057 172.336 106.373 172.335H185.051C185.367 172.335 185.67 172.461 185.894 172.684C186.117 172.907 186.243 173.21 186.245 173.526V197.456C186.23 201.362 184.686 205.107 181.944 207.887C179.203 210.667 175.481 212.261 171.579 212.327C165.331 212.409 157.932 212.44 150.397 212.44Z" fill="#458FF6"/>
<path d="M180.381 195.258H109.289C108.694 195.256 108.113 195.071 107.627 194.728C107.14 194.384 106.771 193.9 106.569 193.339L98.5229 170.746C98.3678 170.31 98.3195 169.844 98.382 169.385C98.4445 168.927 98.6159 168.49 98.8819 168.112C99.1479 167.734 99.5008 167.425 99.9108 167.212C100.321 166.998 100.776 166.886 101.238 166.885L190.102 166.762C190.524 166.761 190.942 166.853 191.324 167.032C191.707 167.21 192.047 167.471 192.318 167.795C192.589 168.119 192.787 168.498 192.896 168.907C193.005 169.315 193.023 169.743 192.949 170.159L193.017 170.188L192.762 170.784L192.76 170.79L183.032 193.506C182.811 194.026 182.441 194.469 181.97 194.781C181.498 195.092 180.946 195.258 180.381 195.258ZM190.106 168.069L101.241 168.193C100.988 168.193 100.738 168.254 100.514 168.371C100.289 168.488 100.096 168.657 99.9499 168.864C99.8041 169.072 99.7102 169.311 99.6759 169.562C99.6417 169.813 99.6682 170.069 99.7531 170.307L107.799 192.899C107.91 193.206 108.112 193.472 108.379 193.66C108.646 193.848 108.964 193.949 109.29 193.95H180.381C180.69 193.951 180.992 193.86 181.25 193.689C181.508 193.519 181.71 193.276 181.832 192.992L191.559 170.275L192.038 170.48L191.559 170.275C191.662 170.034 191.704 169.771 191.681 169.511C191.658 169.25 191.57 168.999 191.426 168.78C191.282 168.561 191.086 168.382 190.856 168.258C190.625 168.134 190.368 168.069 190.106 168.069Z" fill="#3F3D56"/>
<path d="M145.581 200.175C148.656 200.175 151.148 197.681 151.148 194.604C151.148 191.527 148.656 189.033 145.581 189.033C142.507 189.033 140.015 191.527 140.015 194.604C140.015 197.681 142.507 200.175 145.581 200.175Z" fill="white"/>
<path d="M355.867 151.809C358.941 151.809 361.433 149.314 361.433 146.237C361.433 143.16 358.941 140.666 355.867 140.666C352.792 140.666 350.3 143.16 350.3 146.237C350.3 149.314 352.792 151.809 355.867 151.809Z" fill="white"/>
<path d="M566.411 227.049L551.541 212.356C550.817 211.635 549.958 211.064 549.014 210.676C548.069 210.288 547.057 210.09 546.036 210.094H545.984C544.955 210.097 543.937 210.305 542.988 210.704C542.04 211.103 541.18 211.687 540.459 212.421C537.134 215.789 535.243 220.316 535.183 225.05C535.123 229.784 536.9 234.357 540.139 237.807C540.296 237.977 540.459 238.141 540.622 238.304C541.526 239.204 542.525 240.004 543.6 240.69C546.54 242.591 549.968 243.597 553.468 243.585H553.579C555.981 243.577 558.358 243.092 560.572 242.159C562.786 241.225 564.793 239.862 566.477 238.147C567.936 236.665 568.749 234.665 568.736 232.585C568.724 230.504 567.888 228.513 566.411 227.049ZM565.549 237.226C562.789 240.009 559.153 241.755 555.256 242.17C551.359 242.584 547.439 241.641 544.155 239.5C543.216 238.878 542.339 238.167 541.536 237.376C538.332 234.209 536.516 229.898 536.488 225.391C536.46 220.883 538.222 216.55 541.386 213.343C541.988 212.729 542.705 212.242 543.497 211.909C544.288 211.575 545.138 211.403 545.997 211.402H546.036C546.886 211.399 547.729 211.563 548.515 211.886C549.302 212.209 550.017 212.684 550.62 213.284L565.491 227.984C566.722 229.202 567.419 230.86 567.43 232.592C567.441 234.325 566.765 235.992 565.549 237.226Z" fill="#3F3D56"/>
<path d="M517.621 178.826L502.75 164.126C501.287 162.673 499.307 161.86 497.245 161.865H497.199C496.169 161.869 495.15 162.077 494.2 162.478C493.251 162.878 492.39 163.463 491.668 164.198C488.919 166.992 487.137 170.594 486.582 174.475C486.027 178.357 486.73 182.314 488.586 185.767L488.592 185.774C489.358 187.186 490.309 188.49 491.42 189.65C491.544 189.793 491.688 189.937 491.831 190.081C495.246 193.473 499.865 195.373 504.677 195.362H504.795C507.197 195.352 509.574 194.866 511.788 193.931C514.002 192.997 516.008 191.633 517.692 189.918C518.416 189.185 518.987 188.316 519.375 187.362C519.763 186.408 519.959 185.387 519.952 184.357C519.945 183.327 519.736 182.308 519.336 181.359C518.936 180.41 518.353 179.549 517.621 178.826V178.826ZM516.759 189.002C515.195 190.594 513.333 191.86 511.278 192.727C509.224 193.594 507.018 194.046 504.788 194.055H504.677C501.328 194.054 498.055 193.061 495.268 191.203C492.481 189.344 490.306 186.703 489.015 183.61C487.725 180.518 487.377 177.112 488.015 173.822C488.653 170.532 490.249 167.504 492.602 165.12C493.819 163.888 495.476 163.19 497.207 163.179C498.938 163.168 500.603 163.845 501.836 165.061L516.706 179.754C517.937 180.975 518.633 182.634 518.643 184.367C518.653 186.101 517.975 187.768 516.759 189.003L516.759 189.002Z" fill="#3F3D56"/>
<path d="M567.362 231.668L550.968 215.463C549.893 214.403 548.441 213.813 546.932 213.822C545.423 213.832 543.979 214.44 542.917 215.513C541.589 216.856 540.538 218.448 539.825 220.198C539.112 221.947 538.75 223.821 538.761 225.71C538.772 227.6 539.154 229.469 539.887 231.21C540.62 232.952 541.689 234.532 543.032 235.86C544.375 237.188 545.967 238.237 547.716 238.949C549.465 239.661 551.337 240.021 553.225 240.008C555.113 239.995 556.98 239.61 558.72 238.875C560.459 238.139 562.036 237.068 563.361 235.722L567.362 231.668Z" fill="#458FF6"/>
<path d="M518.575 183.443L502.181 167.237C501.106 166.177 499.654 165.587 498.145 165.596C496.636 165.606 495.192 166.214 494.13 167.288C492.802 168.63 491.751 170.222 491.038 171.972C490.325 173.722 489.963 175.595 489.974 177.485C489.985 179.374 490.367 181.243 491.1 182.985C491.833 184.726 492.902 186.306 494.245 187.634C495.588 188.962 497.18 190.012 498.929 190.723C500.678 191.435 502.55 191.795 504.438 191.782C506.326 191.77 508.193 191.384 509.932 190.649C511.672 189.914 513.249 188.842 514.574 187.496L518.575 183.443Z" fill="#458FF6"/>
<path d="M549.347 241.762L548.955 242.794C547.114 242.095 545.329 241.394 543.6 240.69C512.985 228.186 498.369 213.552 488.593 185.774L488.586 185.767C488.123 184.46 487.672 183.122 487.234 181.754L488.266 181.421C488.611 182.737 489.116 184.005 489.768 185.199C490.304 186.722 490.855 188.205 491.421 189.65C500.609 213.095 514.16 226.493 540.139 237.807C541.445 238.376 542.784 238.94 544.155 239.5C545.748 240.539 547.503 241.303 549.347 241.762Z" fill="#3F3D56"/>
<path d="M502.479 194.172L501.561 195.103L535.479 228.631L536.397 227.701L502.479 194.172Z" fill="#3F3D56"/>
<path d="M215.316 166.391L215.333 144.911L202.718 146.04L207.17 159.587L191.008 184.106C189.998 184.333 189.075 184.85 188.353 185.592C187.63 186.335 187.139 187.272 186.94 188.289C186.74 189.307 186.841 190.36 187.229 191.321C187.617 192.282 188.277 193.109 189.127 193.702C189.977 194.294 190.98 194.626 192.016 194.658C193.051 194.689 194.073 194.418 194.957 193.878C195.841 193.338 196.549 192.553 196.995 191.617C197.441 190.681 197.605 189.636 197.467 188.609L215.316 166.391Z" fill="#FFB6B6"/>
<g opacity="0.3">
<mask id="mask0_996_4539" style="mask-type:alpha" maskUnits="userSpaceOnUse" x="469" y="262" width="11" height="11">
<path d="M474.228 272.425C477.116 272.425 479.457 270.091 479.457 267.212C479.457 264.334 477.116 262 474.228 262C471.341 262 469 264.334 469 267.212C469 270.091 471.341 272.425 474.228 272.425Z" fill="url(#paint0_linear_996_4539)"/>
</mask>
<g mask="url(#mask0_996_4539)">
<path d="M474.228 272.425C477.116 272.425 479.457 270.091 479.457 267.212C479.457 264.334 477.116 262 474.228 262C471.341 262 469 264.334 469 267.212C469 270.091 471.341 272.425 474.228 272.425Z" fill="url(#paint1_linear_996_4539)"/>
</g>
<mask id="mask1_996_4539" style="mask-type:alpha" maskUnits="userSpaceOnUse" x="499" y="262" width="11" height="11">
<path d="M504.51 272.425C507.397 272.425 509.738 270.091 509.738 267.212C509.738 264.334 507.397 262 504.51 262C501.622 262 499.281 264.334 499.281 267.212C499.281 270.091 501.622 272.425 504.51 272.425Z" fill="url(#paint2_linear_996_4539)"/>
</mask>
<g mask="url(#mask1_996_4539)">
<path d="M504.51 272.425C507.397 272.425 509.738 270.091 509.738 267.212C509.738 264.334 507.397 262 504.51 262C501.622 262 499.281 264.334 499.281 267.212C499.281 270.091 501.622 272.425 504.51 272.425Z" fill="url(#paint3_linear_996_4539)"/>
</g>
<mask id="mask2_996_4539" style="mask-type:alpha" maskUnits="userSpaceOnUse" x="529" y="262" width="12" height="11">
<path d="M534.791 272.425C537.678 272.425 540.019 270.091 540.019 267.212C540.019 264.334 537.678 262 534.791 262C531.903 262 529.562 264.334 529.562 267.212C529.562 270.091 531.903 272.425 534.791 272.425Z" fill="url(#paint4_linear_996_4539)"/>
</mask>
<g mask="url(#mask2_996_4539)">
<path d="M534.791 272.425C537.678 272.425 540.019 270.091 540.019 267.212C540.019 264.334 537.678 262 534.791 262C531.903 262 529.562 264.334 529.562 267.212C529.562 270.091 531.903 272.425 534.791 272.425Z" fill="url(#paint5_linear_996_4539)"/>
</g>
<mask id="mask3_996_4539" style="mask-type:alpha" maskUnits="userSpaceOnUse" x="559" y="262" width="12" height="11">
<path d="M565.071 272.425C567.959 272.425 570.3 270.091 570.3 267.212C570.3 264.334 567.959 262 565.071 262C562.184 262 559.843 264.334 559.843 267.212C559.843 270.091 562.184 272.425 565.071 272.425Z" fill="url(#paint6_linear_996_4539)"/>
</mask>
<g mask="url(#mask3_996_4539)">
<path d="M565.071 272.425C567.959 272.425 570.3 270.091 570.3 267.212C570.3 264.334 567.959 262 565.071 262C562.184 262 559.843 264.334 559.843 267.212C559.843 270.091 562.184 272.425 565.071 272.425Z" fill="url(#paint7_linear_996_4539)"/>
</g>
<mask id="mask4_996_4539" style="mask-type:alpha" maskUnits="userSpaceOnUse" x="590" y="262" width="11" height="11">
<path d="M595.352 272.425C598.24 272.425 600.581 270.091 600.581 267.212C600.581 264.334 598.24 262 595.352 262C592.465 262 590.124 264.334 590.124 267.212C590.124 270.091 592.465 272.425 595.352 272.425Z" fill="url(#paint8_linear_996_4539)"/>
</mask>
<g mask="url(#mask4_996_4539)">
<path d="M595.352 272.425C598.24 272.425 600.581 270.091 600.581 267.212C600.581 264.334 598.24 262 595.352 262C592.465 262 590.124 264.334 590.124 267.212C590.124 270.091 592.465 272.425 595.352 272.425Z" fill="url(#paint9_linear_996_4539)"/>
</g>
<mask id="mask5_996_4539" style="mask-type:alpha" maskUnits="userSpaceOnUse" x="469" y="288" width="11" height="11">
<path d="M474.228 298.596C477.116 298.596 479.457 296.262 479.457 293.383C479.457 290.505 477.116 288.171 474.228 288.171C471.341 288.171 469 290.505 469 293.383C469 296.262 471.341 298.596 474.228 298.596Z" fill="url(#paint10_linear_996_4539)"/>
</mask>
<g mask="url(#mask5_996_4539)">
<path d="M474.228 298.596C477.116 298.596 479.457 296.262 479.457 293.383C479.457 290.505 477.116 288.171 474.228 288.171C471.341 288.171 469 290.505 469 293.383C469 296.262 471.341 298.596 474.228 298.596Z" fill="url(#paint11_linear_996_4539)"/>
</g>
<mask id="mask6_996_4539" style="mask-type:alpha" maskUnits="userSpaceOnUse" x="499" y="288" width="11" height="11">
<path d="M504.51 298.596C507.397 298.596 509.738 296.262 509.738 293.383C509.738 290.505 507.397 288.171 504.51 288.171C501.622 288.171 499.281 290.505 499.281 293.383C499.281 296.262 501.622 298.596 504.51 298.596Z" fill="url(#paint12_linear_996_4539)"/>
</mask>
<g mask="url(#mask6_996_4539)">
<path d="M504.51 298.596C507.397 298.596 509.738 296.262 509.738 293.383C509.738 290.505 507.397 288.171 504.51 288.171C501.622 288.171 499.281 290.505 499.281 293.383C499.281 296.262 501.622 298.596 504.51 298.596Z" fill="url(#paint13_linear_996_4539)"/>
</g>
<mask id="mask7_996_4539" style="mask-type:alpha" maskUnits="userSpaceOnUse" x="529" y="288" width="12" height="11">
<path d="M534.791 298.596C537.678 298.596 540.019 296.262 540.019 293.383C540.019 290.505 537.678 288.171 534.791 288.171C531.903 288.171 529.562 290.505 529.562 293.383C529.562 296.262 531.903 298.596 534.791 298.596Z" fill="url(#paint14_linear_996_4539)"/>
</mask>
<g mask="url(#mask7_996_4539)">
<path d="M534.791 298.596C537.678 298.596 540.019 296.262 540.019 293.383C540.019 290.505 537.678 288.171 534.791 288.171C531.903 288.171 529.562 290.505 529.562 293.383C529.562 296.262 531.903 298.596 534.791 298.596Z" fill="url(#paint15_linear_996_4539)"/>
</g>
<mask id="mask8_996_4539" style="mask-type:alpha" maskUnits="userSpaceOnUse" x="559" y="288" width="12" height="11">
<path d="M565.071 298.596C567.959 298.596 570.3 296.262 570.3 293.383C570.3 290.505 567.959 288.171 565.071 288.171C562.184 288.171 559.843 290.505 559.843 293.383C559.843 296.262 562.184 298.596 565.071 298.596Z" fill="url(#paint16_linear_996_4539)"/>
</mask>
<g mask="url(#mask8_996_4539)">
<path d="M565.071 298.596C567.959 298.596 570.3 296.262 570.3 293.383C570.3 290.505 567.959 288.171 565.071 288.171C562.184 288.171 559.843 290.505 559.843 293.383C559.843 296.262 562.184 298.596 565.071 298.596Z" fill="url(#paint17_linear_996_4539)"/>
</g>
<mask id="mask9_996_4539" style="mask-type:alpha" maskUnits="userSpaceOnUse" x="469" y="314" width="11" height="11">
<path d="M474.228 324.712C477.116 324.712 479.457 322.379 479.457 319.5C479.457 316.621 477.116 314.287 474.228 314.287C471.341 314.287 469 316.621 469 319.5C469 322.379 471.341 324.712 474.228 324.712Z" fill="url(#paint18_linear_996_4539)"/>
</mask>
<g mask="url(#mask9_996_4539)">
<path d="M474.228 324.712C477.116 324.712 479.457 322.379 479.457 319.5C479.457 316.621 477.116 314.287 474.228 314.287C471.341 314.287 469 316.621 469 319.5C469 322.379 471.341 324.712 474.228 324.712Z" fill="url(#paint19_linear_996_4539)"/>
</g>
<mask id="mask10_996_4539" style="mask-type:alpha" maskUnits="userSpaceOnUse" x="499" y="314" width="11" height="11">
<path d="M504.51 324.712C507.397 324.712 509.738 322.379 509.738 319.5C509.738 316.621 507.397 314.287 504.51 314.287C501.622 314.287 499.281 316.621 499.281 319.5C499.281 322.379 501.622 324.712 504.51 324.712Z" fill="url(#paint20_linear_996_4539)"/>
</mask>
<g mask="url(#mask10_996_4539)">
<path d="M504.51 324.712C507.397 324.712 509.738 322.379 509.738 319.5C509.738 316.621 507.397 314.287 504.51 314.287C501.622 314.287 499.281 316.621 499.281 319.5C499.281 322.379 501.622 324.712 504.51 324.712Z" fill="url(#paint21_linear_996_4539)"/>
</g>
<mask id="mask11_996_4539" style="mask-type:alpha" maskUnits="userSpaceOnUse" x="529" y="314" width="12" height="11">
<path d="M534.791 324.712C537.678 324.712 540.019 322.379 540.019 319.5C540.019 316.621 537.678 314.287 534.791 314.287C531.903 314.287 529.562 316.621 529.562 319.5C529.562 322.379 531.903 324.712 534.791 324.712Z" fill="url(#paint22_linear_996_4539)"/>
</mask>
<g mask="url(#mask11_996_4539)">
<path d="M534.791 324.712C537.678 324.712 540.019 322.379 540.019 319.5C540.019 316.621 537.678 314.287 534.791 314.287C531.903 314.287 529.562 316.621 529.562 319.5C529.562 322.379 531.903 324.712 534.791 324.712Z" fill="url(#paint23_linear_996_4539)"/>
</g>
<mask id="mask12_996_4539" style="mask-type:alpha" maskUnits="userSpaceOnUse" x="559" y="314" width="12" height="11">
<path d="M565.071 324.712C567.959 324.712 570.3 322.379 570.3 319.5C570.3 316.621 567.959 314.287 565.071 314.287C562.184 314.287 559.843 316.621 559.843 319.5C559.843 322.379 562.184 324.712 565.071 324.712Z" fill="url(#paint24_linear_996_4539)"/>
</mask>
<g mask="url(#mask12_996_4539)">
<path d="M565.071 324.712C567.959 324.712 570.3 322.379 570.3 319.5C570.3 316.621 567.959 314.287 565.071 314.287C562.184 314.287 559.843 316.621 559.843 319.5C559.843 322.379 562.184 324.712 565.071 324.712Z" fill="url(#paint25_linear_996_4539)"/>
</g>
<mask id="mask13_996_4539" style="mask-type:alpha" maskUnits="userSpaceOnUse" x="590" y="314" width="11" height="11">
<path d="M595.352 324.712C598.24 324.712 600.581 322.379 600.581 319.5C600.581 316.621 598.24 314.287 595.352 314.287C592.465 314.287 590.124 316.621 590.124 319.5C590.124 322.379 592.465 324.712 595.352 324.712Z" fill="url(#paint26_linear_996_4539)"/>
</mask>
<g mask="url(#mask13_996_4539)">
<path d="M595.352 324.712C598.24 324.712 600.581 322.379 600.581 319.5C600.581 316.621 598.24 314.287 595.352 314.287C592.465 314.287 590.124 316.621 590.124 319.5C590.124 322.379 592.465 324.712 595.352 324.712Z" fill="url(#paint27_linear_996_4539)"/>
</g>
<mask id="mask14_996_4539" style="mask-type:alpha" maskUnits="userSpaceOnUse" x="590" y="288" width="11" height="11">
<path d="M595.352 298.596C598.24 298.596 600.581 296.262 600.581 293.383C600.581 290.505 598.24 288.171 595.352 288.171C592.465 288.171 590.124 290.505 590.124 293.383C590.124 296.262 592.465 298.596 595.352 298.596Z" fill="url(#paint28_linear_996_4539)"/>
</mask>
<g mask="url(#mask14_996_4539)">
<path d="M595.352 298.596C598.24 298.596 600.581 296.262 600.581 293.383C600.581 290.505 598.24 288.171 595.352 288.171C592.465 288.171 590.124 290.505 590.124 293.383C590.124 296.262 592.465 298.596 595.352 298.596Z" fill="url(#paint29_linear_996_4539)"/>
</g>
</g>
</g>
<g opacity="0.3">
<mask id="mask15_996_4539" style="mask-type:alpha" maskUnits="userSpaceOnUse" x="0" y="0" width="11" height="11">
<path d="M5.22838 10.425C8.11594 10.425 10.4568 8.09121 10.4568 5.21245C10.4568 2.33368 8.11594 0 5.22838 0C2.34082 0 0 2.33368 0 5.21245C0 8.09121 2.34082 10.425 5.22838 10.425Z" fill="url(#paint30_linear_996_4539)"/>
</mask>
<g mask="url(#mask15_996_4539)">
<path d="M5.22838 10.425C8.11594 10.425 10.4568 8.09121 10.4568 5.21245C10.4568 2.33368 8.11594 0 5.22838 0C2.34082 0 0 2.33368 0 5.21245C0 8.09121 2.34082 10.425 5.22838 10.425Z" fill="url(#paint31_linear_996_4539)"/>
</g>
<mask id="mask16_996_4539" style="mask-type:alpha" maskUnits="userSpaceOnUse" x="30" y="0" width="11" height="11">
<path d="M35.5096 10.425C38.3972 10.425 40.738 8.09121 40.738 5.21245C40.738 2.33368 38.3972 0 35.5096 0C32.6221 0 30.2812 2.33368 30.2812 5.21245C30.2812 8.09121 32.6221 10.425 35.5096 10.425Z" fill="url(#paint32_linear_996_4539)"/>
</mask>
<g mask="url(#mask16_996_4539)">
<path d="M35.5096 10.425C38.3972 10.425 40.738 8.09121 40.738 5.21245C40.738 2.33368 38.3972 0 35.5096 0C32.6221 0 30.2812 2.33368 30.2812 5.21245C30.2812 8.09121 32.6221 10.425 35.5096 10.425Z" fill="url(#paint33_linear_996_4539)"/>
</g>
<mask id="mask17_996_4539" style="mask-type:alpha" maskUnits="userSpaceOnUse" x="60" y="0" width="12" height="11">
<path d="M65.7909 10.425C68.6784 10.425 71.0193 8.09121 71.0193 5.21245C71.0193 2.33368 68.6784 0 65.7909 0C62.9033 0 60.5625 2.33368 60.5625 5.21245C60.5625 8.09121 62.9033 10.425 65.7909 10.425Z" fill="url(#paint34_linear_996_4539)"/>
</mask>
<g mask="url(#mask17_996_4539)">
<path d="M65.7909 10.425C68.6784 10.425 71.0193 8.09121 71.0193 5.21245C71.0193 2.33368 68.6784 0 65.7909 0C62.9033 0 60.5625 2.33368 60.5625 5.21245C60.5625 8.09121 62.9033 10.425 65.7909 10.425Z" fill="url(#paint35_linear_996_4539)"/>
</g>
<mask id="mask18_996_4539" style="mask-type:alpha" maskUnits="userSpaceOnUse" x="90" y="0" width="12" height="11">
<path d="M96.0712 10.425C98.9587 10.425 101.3 8.09121 101.3 5.21245C101.3 2.33368 98.9587 0 96.0712 0C93.1836 0 90.8428 2.33368 90.8428 5.21245C90.8428 8.09121 93.1836 10.425 96.0712 10.425Z" fill="url(#paint36_linear_996_4539)"/>
</mask>
<g mask="url(#mask18_996_4539)">
<path d="M96.0712 10.425C98.9587 10.425 101.3 8.09121 101.3 5.21245C101.3 2.33368 98.9587 0 96.0712 0C93.1836 0 90.8428 2.33368 90.8428 5.21245C90.8428 8.09121 93.1836 10.425 96.0712 10.425Z" fill="url(#paint37_linear_996_4539)"/>
</g>
<mask id="mask19_996_4539" style="mask-type:alpha" maskUnits="userSpaceOnUse" x="121" y="0" width="11" height="11">
<path d="M126.352 10.425C129.24 10.425 131.581 8.09121 131.581 5.21245C131.581 2.33368 129.24 0 126.352 0C123.465 0 121.124 2.33368 121.124 5.21245C121.124 8.09121 123.465 10.425 126.352 10.425Z" fill="url(#paint38_linear_996_4539)"/>
</mask>
<g mask="url(#mask19_996_4539)">
<path d="M126.352 10.425C129.24 10.425 131.581 8.09121 131.581 5.21245C131.581 2.33368 129.24 0 126.352 0C123.465 0 121.124 2.33368 121.124 5.21245C121.124 8.09121 123.465 10.425 126.352 10.425Z" fill="url(#paint39_linear_996_4539)"/>
</g>
<mask id="mask20_996_4539" style="mask-type:alpha" maskUnits="userSpaceOnUse" x="0" y="26" width="11" height="11">
<path d="M5.22838 36.5958C8.11594 36.5958 10.4568 34.2621 10.4568 31.3833C10.4568 28.5046 8.11594 26.1709 5.22838 26.1709C2.34082 26.1709 0 28.5046 0 31.3833C0 34.2621 2.34082 36.5958 5.22838 36.5958Z" fill="url(#paint40_linear_996_4539)"/>
</mask>
<g mask="url(#mask20_996_4539)">
<path d="M5.22838 36.5958C8.11594 36.5958 10.4568 34.2621 10.4568 31.3833C10.4568 28.5046 8.11594 26.1709 5.22838 26.1709C2.34082 26.1709 0 28.5046 0 31.3833C0 34.2621 2.34082 36.5958 5.22838 36.5958Z" fill="url(#paint41_linear_996_4539)"/>
</g>
<mask id="mask21_996_4539" style="mask-type:alpha" maskUnits="userSpaceOnUse" x="30" y="26" width="11" height="11">
<path d="M35.5096 36.5958C38.3972 36.5958 40.738 34.2621 40.738 31.3833C40.738 28.5046 38.3972 26.1709 35.5096 26.1709C32.6221 26.1709 30.2812 28.5046 30.2812 31.3833C30.2812 34.2621 32.6221 36.5958 35.5096 36.5958Z" fill="url(#paint42_linear_996_4539)"/>
</mask>
<g mask="url(#mask21_996_4539)">
<path d="M35.5096 36.5958C38.3972 36.5958 40.738 34.2621 40.738 31.3833C40.738 28.5046 38.3972 26.1709 35.5096 26.1709C32.6221 26.1709 30.2812 28.5046 30.2812 31.3833C30.2812 34.2621 32.6221 36.5958 35.5096 36.5958Z" fill="url(#paint43_linear_996_4539)"/>
</g>
<mask id="mask22_996_4539" style="mask-type:alpha" maskUnits="userSpaceOnUse" x="60" y="26" width="12" height="11">
<path d="M65.7909 36.5958C68.6784 36.5958 71.0193 34.2621 71.0193 31.3833C71.0193 28.5046 68.6784 26.1709 65.7909 26.1709C62.9033 26.1709 60.5625 28.5046 60.5625 31.3833C60.5625 34.2621 62.9033 36.5958 65.7909 36.5958Z" fill="url(#paint44_linear_996_4539)"/>
</mask>
<g mask="url(#mask22_996_4539)">
<path d="M65.7909 36.5958C68.6784 36.5958 71.0193 34.2621 71.0193 31.3833C71.0193 28.5046 68.6784 26.1709 65.7909 26.1709C62.9033 26.1709 60.5625 28.5046 60.5625 31.3833C60.5625 34.2621 62.9033 36.5958 65.7909 36.5958Z" fill="url(#paint45_linear_996_4539)"/>
</g>
<mask id="mask23_996_4539" style="mask-type:alpha" maskUnits="userSpaceOnUse" x="90" y="26" width="12" height="11">
<path d="M96.0712 36.5958C98.9587 36.5958 101.3 34.2621 101.3 31.3833C101.3 28.5046 98.9587 26.1709 96.0712 26.1709C93.1836 26.1709 90.8428 28.5046 90.8428 31.3833C90.8428 34.2621 93.1836 36.5958 96.0712 36.5958Z" fill="url(#paint46_linear_996_4539)"/>
</mask>
<g mask="url(#mask23_996_4539)">
<path d="M96.0712 36.5958C98.9587 36.5958 101.3 34.2621 101.3 31.3833C101.3 28.5046 98.9587 26.1709 96.0712 26.1709C93.1836 26.1709 90.8428 28.5046 90.8428 31.3833C90.8428 34.2621 93.1836 36.5958 96.0712 36.5958Z" fill="url(#paint47_linear_996_4539)"/>
</g>
<mask id="mask24_996_4539" style="mask-type:alpha" maskUnits="userSpaceOnUse" x="0" y="52" width="11" height="11">
<path d="M5.22838 62.7126C8.11594 62.7126 10.4568 60.3789 10.4568 57.5001C10.4568 54.6213 8.11594 52.2876 5.22838 52.2876C2.34082 52.2876 0 54.6213 0 57.5001C0 60.3789 2.34082 62.7126 5.22838 62.7126Z" fill="url(#paint48_linear_996_4539)"/>
</mask>
<g mask="url(#mask24_996_4539)">
<path d="M5.22838 62.7126C8.11594 62.7126 10.4568 60.3789 10.4568 57.5001C10.4568 54.6213 8.11594 52.2876 5.22838 52.2876C2.34082 52.2876 0 54.6213 0 57.5001C0 60.3789 2.34082 62.7126 5.22838 62.7126Z" fill="url(#paint49_linear_996_4539)"/>
</g>
<mask id="mask25_996_4539" style="mask-type:alpha" maskUnits="userSpaceOnUse" x="30" y="52" width="11" height="11">
<path d="M35.5096 62.7126C38.3972 62.7126 40.738 60.3789 40.738 57.5001C40.738 54.6213 38.3972 52.2876 35.5096 52.2876C32.6221 52.2876 30.2812 54.6213 30.2812 57.5001C30.2812 60.3789 32.6221 62.7126 35.5096 62.7126Z" fill="url(#paint50_linear_996_4539)"/>
</mask>
<g mask="url(#mask25_996_4539)">
<path d="M35.5096 62.7126C38.3972 62.7126 40.738 60.3789 40.738 57.5001C40.738 54.6213 38.3972 52.2876 35.5096 52.2876C32.6221 52.2876 30.2812 54.6213 30.2812 57.5001C30.2812 60.3789 32.6221 62.7126 35.5096 62.7126Z" fill="url(#paint51_linear_996_4539)"/>
</g>
<mask id="mask26_996_4539" style="mask-type:alpha" maskUnits="userSpaceOnUse" x="60" y="52" width="12" height="11">
<path d="M65.7909 62.7126C68.6784 62.7126 71.0193 60.3789 71.0193 57.5001C71.0193 54.6213 68.6784 52.2876 65.7909 52.2876C62.9033 52.2876 60.5625 54.6213 60.5625 57.5001C60.5625 60.3789 62.9033 62.7126 65.7909 62.7126Z" fill="url(#paint52_linear_996_4539)"/>
</mask>
<g mask="url(#mask26_996_4539)">
<path d="M65.7909 62.7126C68.6784 62.7126 71.0193 60.3789 71.0193 57.5001C71.0193 54.6213 68.6784 52.2876 65.7909 52.2876C62.9033 52.2876 60.5625 54.6213 60.5625 57.5001C60.5625 60.3789 62.9033 62.7126 65.7909 62.7126Z" fill="url(#paint53_linear_996_4539)"/>
</g>
<mask id="mask27_996_4539" style="mask-type:alpha" maskUnits="userSpaceOnUse" x="90" y="52" width="12" height="11">
<path d="M96.0712 62.7126C98.9587 62.7126 101.3 60.3789 101.3 57.5001C101.3 54.6213 98.9587 52.2876 96.0712 52.2876C93.1836 52.2876 90.8428 54.6213 90.8428 57.5001C90.8428 60.3789 93.1836 62.7126 96.0712 62.7126Z" fill="url(#paint54_linear_996_4539)"/>
</mask>
<g mask="url(#mask27_996_4539)">
<path d="M96.0712 62.7126C98.9587 62.7126 101.3 60.3789 101.3 57.5001C101.3 54.6213 98.9587 52.2876 96.0712 52.2876C93.1836 52.2876 90.8428 54.6213 90.8428 57.5001C90.8428 60.3789 93.1836 62.7126 96.0712 62.7126Z" fill="url(#paint55_linear_996_4539)"/>
</g>
<mask id="mask28_996_4539" style="mask-type:alpha" maskUnits="userSpaceOnUse" x="121" y="52" width="11" height="11">
<path d="M126.352 62.7126C129.24 62.7126 131.581 60.3789 131.581 57.5001C131.581 54.6213 129.24 52.2876 126.352 52.2876C123.465 52.2876 121.124 54.6213 121.124 57.5001C121.124 60.3789 123.465 62.7126 126.352 62.7126Z" fill="url(#paint56_linear_996_4539)"/>
</mask>
<g mask="url(#mask28_996_4539)">
<path d="M126.352 62.7126C129.24 62.7126 131.581 60.3789 131.581 57.5001C131.581 54.6213 129.24 52.2876 126.352 52.2876C123.465 52.2876 121.124 54.6213 121.124 57.5001C121.124 60.3789 123.465 62.7126 126.352 62.7126Z" fill="url(#paint57_linear_996_4539)"/>
</g>
<mask id="mask29_996_4539" style="mask-type:alpha" maskUnits="userSpaceOnUse" x="121" y="26" width="11" height="11">
<path d="M126.352 36.5958C129.24 36.5958 131.581 34.2621 131.581 31.3833C131.581 28.5046 129.24 26.1709 126.352 26.1709C123.465 26.1709 121.124 28.5046 121.124 31.3833C121.124 34.2621 123.465 36.5958 126.352 36.5958Z" fill="url(#paint58_linear_996_4539)"/>
</mask>
<g mask="url(#mask29_996_4539)">
<path d="M126.352 36.5958C129.24 36.5958 131.581 34.2621 131.581 31.3833C131.581 28.5046 129.24 26.1709 126.352 26.1709C123.465 26.1709 121.124 28.5046 121.124 31.3833C121.124 34.2621 123.465 36.5958 126.352 36.5958Z" fill="url(#paint59_linear_996_4539)"/>
</g>
<mask id="mask30_996_4539" style="mask-type:alpha" maskUnits="userSpaceOnUse" x="0" y="78" width="11" height="11">
<path d="M5.22838 88.8833C8.11594 88.8833 10.4568 86.5496 10.4568 83.6708C10.4568 80.7921 8.11594 78.4584 5.22838 78.4584C2.34082 78.4584 0 80.7921 0 83.6708C0 86.5496 2.34082 88.8833 5.22838 88.8833Z" fill="url(#paint60_linear_996_4539)"/>
</mask>
<g mask="url(#mask30_996_4539)">
<path d="M5.22838 88.8833C8.11594 88.8833 10.4568 86.5496 10.4568 83.6708C10.4568 80.7921 8.11594 78.4584 5.22838 78.4584C2.34082 78.4584 0 80.7921 0 83.6708C0 86.5496 2.34082 88.8833 5.22838 88.8833Z" fill="url(#paint61_linear_996_4539)"/>
</g>
<mask id="mask31_996_4539" style="mask-type:alpha" maskUnits="userSpaceOnUse" x="30" y="78" width="11" height="11">
<path d="M35.5096 88.8833C38.3972 88.8833 40.738 86.5496 40.738 83.6708C40.738 80.7921 38.3972 78.4584 35.5096 78.4584C32.6221 78.4584 30.2812 80.7921 30.2812 83.6708C30.2812 86.5496 32.6221 88.8833 35.5096 88.8833Z" fill="url(#paint62_linear_996_4539)"/>
</mask>
<g mask="url(#mask31_996_4539)">
<path d="M35.5096 88.8833C38.3972 88.8833 40.738 86.5496 40.738 83.6708C40.738 80.7921 38.3972 78.4584 35.5096 78.4584C32.6221 78.4584 30.2812 80.7921 30.2812 83.6708C30.2812 86.5496 32.6221 88.8833 35.5096 88.8833Z" fill="url(#paint63_linear_996_4539)"/>
</g>
<mask id="mask32_996_4539" style="mask-type:alpha" maskUnits="userSpaceOnUse" x="60" y="78" width="12" height="11">
<path d="M65.7909 88.8833C68.6784 88.8833 71.0193 86.5496 71.0193 83.6708C71.0193 80.7921 68.6784 78.4584 65.7909 78.4584C62.9033 78.4584 60.5625 80.7921 60.5625 83.6708C60.5625 86.5496 62.9033 88.8833 65.7909 88.8833Z" fill="url(#paint64_linear_996_4539)"/>
</mask>
<g mask="url(#mask32_996_4539)">
<path d="M65.7909 88.8833C68.6784 88.8833 71.0193 86.5496 71.0193 83.6708C71.0193 80.7921 68.6784 78.4584 65.7909 78.4584C62.9033 78.4584 60.5625 80.7921 60.5625 83.6708C60.5625 86.5496 62.9033 88.8833 65.7909 88.8833Z" fill="url(#paint65_linear_996_4539)"/>
</g>
<mask id="mask33_996_4539" style="mask-type:alpha" maskUnits="userSpaceOnUse" x="90" y="78" width="12" height="11">
<path d="M96.0712 88.8833C98.9587 88.8833 101.3 86.5496 101.3 83.6708C101.3 80.7921 98.9587 78.4584 96.0712 78.4584C93.1836 78.4584 90.8428 80.7921 90.8428 83.6708C90.8428 86.5496 93.1836 88.8833 96.0712 88.8833Z" fill="url(#paint66_linear_996_4539)"/>
</mask>
<g mask="url(#mask33_996_4539)">
<path d="M96.0712 88.8833C98.9587 88.8833 101.3 86.5496 101.3 83.6708C101.3 80.7921 98.9587 78.4584 96.0712 78.4584C93.1836 78.4584 90.8428 80.7921 90.8428 83.6708C90.8428 86.5496 93.1836 88.8833 96.0712 88.8833Z" fill="url(#paint67_linear_996_4539)"/>
</g>
<mask id="mask34_996_4539" style="mask-type:alpha" maskUnits="userSpaceOnUse" x="121" y="78" width="11" height="11">
<path d="M126.352 88.8833C129.24 88.8833 131.581 86.5496 131.581 83.6708C131.581 80.7921 129.24 78.4584 126.352 78.4584C123.465 78.4584 121.124 80.7921 121.124 83.6708C121.124 86.5496 123.465 88.8833 126.352 88.8833Z" fill="url(#paint68_linear_996_4539)"/>
</mask>
<g mask="url(#mask34_996_4539)">
<path d="M126.352 88.8833C129.24 88.8833 131.581 86.5496 131.581 83.6708C131.581 80.7921 129.24 78.4584 126.352 78.4584C123.465 78.4584 121.124 80.7921 121.124 83.6708C121.124 86.5496 123.465 88.8833 126.352 88.8833Z" fill="url(#paint69_linear_996_4539)"/>
</g>
<mask id="mask35_996_4539" style="mask-type:alpha" maskUnits="userSpaceOnUse" x="0" y="104" width="11" height="11">
<path d="M5.22838 115C8.11594 115 10.4568 112.666 10.4568 109.788C10.4568 106.909 8.11594 104.575 5.22838 104.575C2.34082 104.575 0 106.909 0 109.788C0 112.666 2.34082 115 5.22838 115Z" fill="url(#paint70_linear_996_4539)"/>
</mask>
<g mask="url(#mask35_996_4539)">
<path d="M5.22838 115C8.11594 115 10.4568 112.666 10.4568 109.788C10.4568 106.909 8.11594 104.575 5.22838 104.575C2.34082 104.575 0 106.909 0 109.788C0 112.666 2.34082 115 5.22838 115Z" fill="url(#paint71_linear_996_4539)"/>
</g>
<mask id="mask36_996_4539" style="mask-type:alpha" maskUnits="userSpaceOnUse" x="30" y="104" width="11" height="11">
<path d="M35.5096 115C38.3972 115 40.738 112.666 40.738 109.788C40.738 106.909 38.3972 104.575 35.5096 104.575C32.6221 104.575 30.2812 106.909 30.2812 109.788C30.2812 112.666 32.6221 115 35.5096 115Z" fill="url(#paint72_linear_996_4539)"/>
</mask>
<g mask="url(#mask36_996_4539)">
<path d="M35.5096 115C38.3972 115 40.738 112.666 40.738 109.788C40.738 106.909 38.3972 104.575 35.5096 104.575C32.6221 104.575 30.2812 106.909 30.2812 109.788C30.2812 112.666 32.6221 115 35.5096 115Z" fill="url(#paint73_linear_996_4539)"/>
</g>
<mask id="mask37_996_4539" style="mask-type:alpha" maskUnits="userSpaceOnUse" x="60" y="104" width="12" height="11">
<path d="M65.7909 115C68.6784 115 71.0193 112.666 71.0193 109.788C71.0193 106.909 68.6784 104.575 65.7909 104.575C62.9033 104.575 60.5625 106.909 60.5625 109.788C60.5625 112.666 62.9033 115 65.7909 115Z" fill="url(#paint74_linear_996_4539)"/>
</mask>
<g mask="url(#mask37_996_4539)">
<path d="M65.7909 115C68.6784 115 71.0193 112.666 71.0193 109.788C71.0193 106.909 68.6784 104.575 65.7909 104.575C62.9033 104.575 60.5625 106.909 60.5625 109.788C60.5625 112.666 62.9033 115 65.7909 115Z" fill="url(#paint75_linear_996_4539)"/>
</g>
<mask id="mask38_996_4539" style="mask-type:alpha" maskUnits="userSpaceOnUse" x="90" y="104" width="12" height="11">
<path d="M96.0712 115C98.9587 115 101.3 112.666 101.3 109.788C101.3 106.909 98.9587 104.575 96.0712 104.575C93.1836 104.575 90.8428 106.909 90.8428 109.788C90.8428 112.666 93.1836 115 96.0712 115Z" fill="url(#paint76_linear_996_4539)"/>
</mask>
<g mask="url(#mask38_996_4539)">
<path d="M96.0712 115C98.9587 115 101.3 112.666 101.3 109.788C101.3 106.909 98.9587 104.575 96.0712 104.575C93.1836 104.575 90.8428 106.909 90.8428 109.788C90.8428 112.666 93.1836 115 96.0712 115Z" fill="url(#paint77_linear_996_4539)"/>
</g>
<mask id="mask39_996_4539" style="mask-type:alpha" maskUnits="userSpaceOnUse" x="121" y="104" width="11" height="11">
<path d="M126.352 115C129.24 115 131.581 112.666 131.581 109.788C131.581 106.909 129.24 104.575 126.352 104.575C123.465 104.575 121.124 106.909 121.124 109.788C121.124 112.666 123.465 115 126.352 115Z" fill="url(#paint78_linear_996_4539)"/>
</mask>
<g mask="url(#mask39_996_4539)">
<path d="M126.352 115C129.24 115 131.581 112.666 131.581 109.788C131.581 106.909 129.24 104.575 126.352 104.575C123.465 104.575 121.124 106.909 121.124 109.788C121.124 112.666 123.465 115 126.352 115Z" fill="url(#paint79_linear_996_4539)"/>
</g>
</g>
<defs>
<linearGradient id="paint0_linear_996_4539" x1="523.996" y1="393.134" x2="452.594" y2="211.33" gradientUnits="userSpaceOnUse">
<stop/>
<stop offset="1" stop-color="white"/>
</linearGradient>
<linearGradient id="paint1_linear_996_4539" x1="523.996" y1="393.134" x2="452.594" y2="211.33" gradientUnits="userSpaceOnUse">
<stop stop-color="#97C3F9"/>
<stop offset="1" stop-color="#93C1F9"/>
</linearGradient>
<linearGradient id="paint2_linear_996_4539" x1="550.201" y1="382.843" x2="478.799" y2="201.039" gradientUnits="userSpaceOnUse">
<stop/>
<stop offset="1" stop-color="white"/>
</linearGradient>
<linearGradient id="paint3_linear_996_4539" x1="550.201" y1="382.843" x2="478.799" y2="201.039" gradientUnits="userSpaceOnUse">
<stop stop-color="#97C3F9"/>
<stop offset="1" stop-color="#93C1F9"/>
</linearGradient>
<linearGradient id="paint4_linear_996_4539" x1="576.405" y1="372.551" x2="505.004" y2="190.747" gradientUnits="userSpaceOnUse">
<stop/>
<stop offset="1" stop-color="white"/>
</linearGradient>
<linearGradient id="paint5_linear_996_4539" x1="576.405" y1="372.551" x2="505.004" y2="190.747" gradientUnits="userSpaceOnUse">
<stop stop-color="#97C3F9"/>
<stop offset="1" stop-color="#93C1F9"/>
</linearGradient>
<linearGradient id="paint6_linear_996_4539" x1="602.609" y1="362.259" x2="531.207" y2="180.456" gradientUnits="userSpaceOnUse">
<stop/>
<stop offset="1" stop-color="white"/>
</linearGradient>
<linearGradient id="paint7_linear_996_4539" x1="602.609" y1="362.259" x2="531.207" y2="180.456" gradientUnits="userSpaceOnUse">
<stop stop-color="#97C3F9"/>
<stop offset="1" stop-color="#93C1F9"/>
</linearGradient>
<linearGradient id="paint8_linear_996_4539" x1="628.813" y1="351.968" x2="557.412" y2="170.164" gradientUnits="userSpaceOnUse">
<stop/>
<stop offset="1" stop-color="white"/>
</linearGradient>
<linearGradient id="paint9_linear_996_4539" x1="628.813" y1="351.968" x2="557.412" y2="170.164" gradientUnits="userSpaceOnUse">
<stop stop-color="#97C3F9"/>
<stop offset="1" stop-color="#93C1F9"/>
</linearGradient>
<linearGradient id="paint10_linear_996_4539" x1="515.054" y1="396.645" x2="443.653" y2="214.843" gradientUnits="userSpaceOnUse">
<stop/>
<stop offset="1" stop-color="white"/>
</linearGradient>
<linearGradient id="paint11_linear_996_4539" x1="515.054" y1="396.645" x2="443.653" y2="214.843" gradientUnits="userSpaceOnUse">
<stop stop-color="#97C3F9"/>
<stop offset="1" stop-color="#93C1F9"/>
</linearGradient>
<linearGradient id="paint12_linear_996_4539" x1="541.258" y1="386.354" x2="469.858" y2="204.551" gradientUnits="userSpaceOnUse">
<stop/>
<stop offset="1" stop-color="white"/>
</linearGradient>
<linearGradient id="paint13_linear_996_4539" x1="541.258" y1="386.354" x2="469.858" y2="204.551" gradientUnits="userSpaceOnUse">
<stop stop-color="#97C3F9"/>
<stop offset="1" stop-color="#93C1F9"/>
</linearGradient>
<linearGradient id="paint14_linear_996_4539" x1="567.463" y1="376.062" x2="496.062" y2="194.26" gradientUnits="userSpaceOnUse">
<stop/>
<stop offset="1" stop-color="white"/>
</linearGradient>
<linearGradient id="paint15_linear_996_4539" x1="567.463" y1="376.062" x2="496.062" y2="194.26" gradientUnits="userSpaceOnUse">
<stop stop-color="#97C3F9"/>
<stop offset="1" stop-color="#93C1F9"/>
</linearGradient>
<linearGradient id="paint16_linear_996_4539" x1="593.666" y1="365.771" x2="522.266" y2="183.968" gradientUnits="userSpaceOnUse">
<stop/>
<stop offset="1" stop-color="white"/>
</linearGradient>
<linearGradient id="paint17_linear_996_4539" x1="593.666" y1="365.771" x2="522.266" y2="183.968" gradientUnits="userSpaceOnUse">
<stop stop-color="#97C3F9"/>
<stop offset="1" stop-color="#93C1F9"/>
</linearGradient>
<linearGradient id="paint18_linear_996_4539" x1="506.111" y1="400.158" x2="434.71" y2="218.354" gradientUnits="userSpaceOnUse">
<stop/>
<stop offset="1" stop-color="white"/>
</linearGradient>
<linearGradient id="paint19_linear_996_4539" x1="506.111" y1="400.158" x2="434.71" y2="218.354" gradientUnits="userSpaceOnUse">
<stop stop-color="#97C3F9"/>
<stop offset="1" stop-color="#93C1F9"/>
</linearGradient>
<linearGradient id="paint20_linear_996_4539" x1="532.316" y1="389.866" x2="460.914" y2="208.063" gradientUnits="userSpaceOnUse">
<stop/>
<stop offset="1" stop-color="white"/>
</linearGradient>
<linearGradient id="paint21_linear_996_4539" x1="532.316" y1="389.866" x2="460.914" y2="208.063" gradientUnits="userSpaceOnUse">
<stop stop-color="#97C3F9"/>
<stop offset="1" stop-color="#93C1F9"/>
</linearGradient>
<linearGradient id="paint22_linear_996_4539" x1="558.52" y1="379.575" x2="487.119" y2="197.771" gradientUnits="userSpaceOnUse">
<stop/>
<stop offset="1" stop-color="white"/>
</linearGradient>
<linearGradient id="paint23_linear_996_4539" x1="558.52" y1="379.575" x2="487.119" y2="197.771" gradientUnits="userSpaceOnUse">
<stop stop-color="#97C3F9"/>
<stop offset="1" stop-color="#93C1F9"/>
</linearGradient>
<linearGradient id="paint24_linear_996_4539" x1="584.724" y1="369.283" x2="513.322" y2="187.48" gradientUnits="userSpaceOnUse">
<stop/>
<stop offset="1" stop-color="white"/>
</linearGradient>
<linearGradient id="paint25_linear_996_4539" x1="584.724" y1="369.283" x2="513.322" y2="187.48" gradientUnits="userSpaceOnUse">
<stop stop-color="#97C3F9"/>
<stop offset="1" stop-color="#93C1F9"/>
</linearGradient>
<linearGradient id="paint26_linear_996_4539" x1="610.928" y1="358.992" x2="539.527" y2="177.188" gradientUnits="userSpaceOnUse">
<stop/>
<stop offset="1" stop-color="white"/>
</linearGradient>
<linearGradient id="paint27_linear_996_4539" x1="610.928" y1="358.992" x2="539.527" y2="177.188" gradientUnits="userSpaceOnUse">
<stop stop-color="#97C3F9"/>
<stop offset="1" stop-color="#93C1F9"/>
</linearGradient>
<linearGradient id="paint28_linear_996_4539" x1="619.871" y1="355.479" x2="548.47" y2="173.677" gradientUnits="userSpaceOnUse">
<stop/>
<stop offset="1" stop-color="white"/>
</linearGradient>
<linearGradient id="paint29_linear_996_4539" x1="619.871" y1="355.479" x2="548.47" y2="173.677" gradientUnits="userSpaceOnUse">
<stop stop-color="#97C3F9"/>
<stop offset="1" stop-color="#93C1F9"/>
</linearGradient>
<linearGradient id="paint30_linear_996_4539" x1="54.996" y1="131.134" x2="-16.4057" y2="-50.67" gradientUnits="userSpaceOnUse">
<stop/>
<stop offset="1" stop-color="white"/>
</linearGradient>
<linearGradient id="paint31_linear_996_4539" x1="54.996" y1="131.134" x2="-16.4057" y2="-50.67" gradientUnits="userSpaceOnUse">
<stop stop-color="#97C3F9"/>
<stop offset="1" stop-color="#93C1F9"/>
</linearGradient>
<linearGradient id="paint32_linear_996_4539" x1="81.2007" y1="120.843" x2="9.79907" y2="-60.9613" gradientUnits="userSpaceOnUse">
<stop/>
<stop offset="1" stop-color="white"/>
</linearGradient>
<linearGradient id="paint33_linear_996_4539" x1="81.2007" y1="120.843" x2="9.79907" y2="-60.9613" gradientUnits="userSpaceOnUse">
<stop stop-color="#97C3F9"/>
<stop offset="1" stop-color="#93C1F9"/>
</linearGradient>
<linearGradient id="paint34_linear_996_4539" x1="107.405" y1="110.551" x2="36.0037" y2="-71.2526" gradientUnits="userSpaceOnUse">
<stop/>
<stop offset="1" stop-color="white"/>
</linearGradient>
<linearGradient id="paint35_linear_996_4539" x1="107.405" y1="110.551" x2="36.0037" y2="-71.2526" gradientUnits="userSpaceOnUse">
<stop stop-color="#97C3F9"/>
<stop offset="1" stop-color="#93C1F9"/>
</linearGradient>
<linearGradient id="paint36_linear_996_4539" x1="133.609" y1="100.259" x2="62.2071" y2="-81.5444" gradientUnits="userSpaceOnUse">
<stop/>
<stop offset="1" stop-color="white"/>
</linearGradient>
<linearGradient id="paint37_linear_996_4539" x1="133.609" y1="100.259" x2="62.2071" y2="-81.5444" gradientUnits="userSpaceOnUse">
<stop stop-color="#97C3F9"/>
<stop offset="1" stop-color="#93C1F9"/>
</linearGradient>
<linearGradient id="paint38_linear_996_4539" x1="159.813" y1="89.9679" x2="88.4116" y2="-91.8359" gradientUnits="userSpaceOnUse">
<stop/>
<stop offset="1" stop-color="white"/>
</linearGradient>
<linearGradient id="paint39_linear_996_4539" x1="159.813" y1="89.9679" x2="88.4116" y2="-91.8359" gradientUnits="userSpaceOnUse">
<stop stop-color="#97C3F9"/>
<stop offset="1" stop-color="#93C1F9"/>
</linearGradient>
<linearGradient id="paint40_linear_996_4539" x1="46.0538" y1="134.645" x2="-25.3466" y2="-47.1572" gradientUnits="userSpaceOnUse">
<stop/>
<stop offset="1" stop-color="white"/>
</linearGradient>
<linearGradient id="paint41_linear_996_4539" x1="46.0538" y1="134.645" x2="-25.3466" y2="-47.1572" gradientUnits="userSpaceOnUse">
<stop stop-color="#97C3F9"/>
<stop offset="1" stop-color="#93C1F9"/>
</linearGradient>
<linearGradient id="paint42_linear_996_4539" x1="72.2583" y1="124.354" x2="0.857901" y2="-57.4491" gradientUnits="userSpaceOnUse">
<stop/>
<stop offset="1" stop-color="white"/>
</linearGradient>
<linearGradient id="paint43_linear_996_4539" x1="72.2583" y1="124.354" x2="0.857901" y2="-57.4491" gradientUnits="userSpaceOnUse">
<stop stop-color="#97C3F9"/>
<stop offset="1" stop-color="#93C1F9"/>
</linearGradient>
<linearGradient id="paint44_linear_996_4539" x1="98.4628" y1="114.062" x2="27.0624" y2="-67.7404" gradientUnits="userSpaceOnUse">
<stop/>
<stop offset="1" stop-color="white"/>
</linearGradient>
<linearGradient id="paint45_linear_996_4539" x1="98.4628" y1="114.062" x2="27.0624" y2="-67.7404" gradientUnits="userSpaceOnUse">
<stop stop-color="#97C3F9"/>
<stop offset="1" stop-color="#93C1F9"/>
</linearGradient>
<linearGradient id="paint46_linear_996_4539" x1="124.666" y1="103.771" x2="53.2659" y2="-78.0318" gradientUnits="userSpaceOnUse">
<stop/>
<stop offset="1" stop-color="white"/>
</linearGradient>
<linearGradient id="paint47_linear_996_4539" x1="124.666" y1="103.771" x2="53.2659" y2="-78.0318" gradientUnits="userSpaceOnUse">
<stop stop-color="#97C3F9"/>
<stop offset="1" stop-color="#93C1F9"/>
</linearGradient>
<linearGradient id="paint48_linear_996_4539" x1="37.1113" y1="138.158" x2="-34.2903" y2="-43.6457" gradientUnits="userSpaceOnUse">
<stop/>
<stop offset="1" stop-color="white"/>
</linearGradient>
<linearGradient id="paint49_linear_996_4539" x1="37.1113" y1="138.158" x2="-34.2903" y2="-43.6457" gradientUnits="userSpaceOnUse">
<stop stop-color="#97C3F9"/>
<stop offset="1" stop-color="#93C1F9"/>
</linearGradient>
<linearGradient id="paint50_linear_996_4539" x1="63.3159" y1="127.867" x2="-8.08572" y2="-53.9373" gradientUnits="userSpaceOnUse">
<stop/>
<stop offset="1" stop-color="white"/>
</linearGradient>
<linearGradient id="paint51_linear_996_4539" x1="63.3159" y1="127.867" x2="-8.08572" y2="-53.9373" gradientUnits="userSpaceOnUse">
<stop stop-color="#97C3F9"/>
<stop offset="1" stop-color="#93C1F9"/>
</linearGradient>
<linearGradient id="paint52_linear_996_4539" x1="89.5204" y1="117.575" x2="18.1189" y2="-64.2287" gradientUnits="userSpaceOnUse">
<stop/>
<stop offset="1" stop-color="white"/>
</linearGradient>
<linearGradient id="paint53_linear_996_4539" x1="89.5204" y1="117.575" x2="18.1189" y2="-64.2287" gradientUnits="userSpaceOnUse">
<stop stop-color="#97C3F9"/>
<stop offset="1" stop-color="#93C1F9"/>
</linearGradient>
<linearGradient id="paint54_linear_996_4539" x1="115.724" y1="107.283" x2="44.3223" y2="-74.5204" gradientUnits="userSpaceOnUse">
<stop/>
<stop offset="1" stop-color="white"/>
</linearGradient>
<linearGradient id="paint55_linear_996_4539" x1="115.724" y1="107.283" x2="44.3223" y2="-74.5204" gradientUnits="userSpaceOnUse">
<stop stop-color="#97C3F9"/>
<stop offset="1" stop-color="#93C1F9"/>
</linearGradient>
<linearGradient id="paint56_linear_996_4539" x1="141.928" y1="96.992" x2="70.5268" y2="-84.8119" gradientUnits="userSpaceOnUse">
<stop/>
<stop offset="1" stop-color="white"/>
</linearGradient>
<linearGradient id="paint57_linear_996_4539" x1="141.928" y1="96.992" x2="70.5268" y2="-84.8119" gradientUnits="userSpaceOnUse">
<stop stop-color="#97C3F9"/>
<stop offset="1" stop-color="#93C1F9"/>
</linearGradient>
<linearGradient id="paint58_linear_996_4539" x1="150.871" y1="93.4793" x2="79.4705" y2="-88.3232" gradientUnits="userSpaceOnUse">
<stop/>
<stop offset="1" stop-color="white"/>
</linearGradient>
<linearGradient id="paint59_linear_996_4539" x1="150.871" y1="93.4793" x2="79.4705" y2="-88.3232" gradientUnits="userSpaceOnUse">
<stop stop-color="#97C3F9"/>
<stop offset="1" stop-color="#93C1F9"/>
</linearGradient>
<linearGradient id="paint60_linear_996_4539" x1="28.169" y1="141.67" x2="-43.2327" y2="-40.1339" gradientUnits="userSpaceOnUse">
<stop/>
<stop offset="1" stop-color="white"/>
</linearGradient>
<linearGradient id="paint61_linear_996_4539" x1="28.169" y1="141.67" x2="-43.2327" y2="-40.1339" gradientUnits="userSpaceOnUse">
<stop stop-color="#97C3F9"/>
<stop offset="1" stop-color="#93C1F9"/>
</linearGradient>
<linearGradient id="paint62_linear_996_4539" x1="54.3736" y1="131.378" x2="-17.0281" y2="-50.4254" gradientUnits="userSpaceOnUse">
<stop/>
<stop offset="1" stop-color="white"/>
</linearGradient>
<linearGradient id="paint63_linear_996_4539" x1="54.3736" y1="131.378" x2="-17.0281" y2="-50.4254" gradientUnits="userSpaceOnUse">
<stop stop-color="#97C3F9"/>
<stop offset="1" stop-color="#93C1F9"/>
</linearGradient>
<linearGradient id="paint64_linear_996_4539" x1="80.578" y1="121.087" x2="9.17646" y2="-60.7168" gradientUnits="userSpaceOnUse">
<stop/>
<stop offset="1" stop-color="white"/>
</linearGradient>
<linearGradient id="paint65_linear_996_4539" x1="80.578" y1="121.087" x2="9.17646" y2="-60.7168" gradientUnits="userSpaceOnUse">
<stop stop-color="#97C3F9"/>
<stop offset="1" stop-color="#93C1F9"/>
</linearGradient>
<linearGradient id="paint66_linear_996_4539" x1="106.782" y1="110.795" x2="35.3799" y2="-71.0085" gradientUnits="userSpaceOnUse">
<stop/>
<stop offset="1" stop-color="white"/>
</linearGradient>
<linearGradient id="paint67_linear_996_4539" x1="106.782" y1="110.795" x2="35.3799" y2="-71.0085" gradientUnits="userSpaceOnUse">
<stop stop-color="#97C3F9"/>
<stop offset="1" stop-color="#93C1F9"/>
</linearGradient>
<linearGradient id="paint68_linear_996_4539" x1="132.986" y1="100.504" x2="61.5845" y2="-81.3" gradientUnits="userSpaceOnUse">
<stop/>
<stop offset="1" stop-color="white"/>
</linearGradient>
<linearGradient id="paint69_linear_996_4539" x1="132.986" y1="100.504" x2="61.5845" y2="-81.3" gradientUnits="userSpaceOnUse">
<stop stop-color="#97C3F9"/>
<stop offset="1" stop-color="#93C1F9"/>
</linearGradient>
<linearGradient id="paint70_linear_996_4539" x1="19.2266" y1="145.182" x2="-52.1751" y2="-36.6218" gradientUnits="userSpaceOnUse">
<stop/>
<stop offset="1" stop-color="white"/>
</linearGradient>
<linearGradient id="paint71_linear_996_4539" x1="19.2266" y1="145.182" x2="-52.1751" y2="-36.6218" gradientUnits="userSpaceOnUse">
<stop stop-color="#97C3F9"/>
<stop offset="1" stop-color="#93C1F9"/>
</linearGradient>
<linearGradient id="paint72_linear_996_4539" x1="45.4312" y1="134.89" x2="-25.9705" y2="-46.9133" gradientUnits="userSpaceOnUse">
<stop/>
<stop offset="1" stop-color="white"/>
</linearGradient>
<linearGradient id="paint73_linear_996_4539" x1="45.4312" y1="134.89" x2="-25.9705" y2="-46.9133" gradientUnits="userSpaceOnUse">
<stop stop-color="#97C3F9"/>
<stop offset="1" stop-color="#93C1F9"/>
</linearGradient>
<linearGradient id="paint74_linear_996_4539" x1="71.6357" y1="124.599" x2="0.234115" y2="-57.2047" gradientUnits="userSpaceOnUse">
<stop/>
<stop offset="1" stop-color="white"/>
</linearGradient>
<linearGradient id="paint75_linear_996_4539" x1="71.6357" y1="124.599" x2="0.234115" y2="-57.2047" gradientUnits="userSpaceOnUse">
<stop stop-color="#97C3F9"/>
<stop offset="1" stop-color="#93C1F9"/>
</linearGradient>
<linearGradient id="paint76_linear_996_4539" x1="97.8392" y1="114.307" x2="26.4376" y2="-67.4963" gradientUnits="userSpaceOnUse">
<stop/>
<stop offset="1" stop-color="white"/>
</linearGradient>
<linearGradient id="paint77_linear_996_4539" x1="97.8392" y1="114.307" x2="26.4376" y2="-67.4963" gradientUnits="userSpaceOnUse">
<stop stop-color="#97C3F9"/>
<stop offset="1" stop-color="#93C1F9"/>
</linearGradient>
<linearGradient id="paint78_linear_996_4539" x1="124.044" y1="104.016" x2="52.6421" y2="-77.7878" gradientUnits="userSpaceOnUse">
<stop/>
<stop offset="1" stop-color="white"/>
</linearGradient>
<linearGradient id="paint79_linear_996_4539" x1="124.044" y1="104.016" x2="52.6421" y2="-77.7878" gradientUnits="userSpaceOnUse">
<stop stop-color="#97C3F9"/>
<stop offset="1" stop-color="#93C1F9"/>
</linearGradient>
<clipPath id="clip0_996_4539">
<rect width="584" height="293" fill="white" transform="translate(30 42)"/>
</clipPath>
</defs>
</svg>
