<svg width="471" height="426" viewBox="0 0 471 426" fill="none" xmlns="http://www.w3.org/2000/svg">
<g opacity="0.3">
<mask id="mask0_996_4537" style="mask-type:alpha" maskUnits="userSpaceOnUse" x="57" y="0" width="11" height="11">
<path d="M62.2284 10.425C65.1159 10.425 67.4568 8.09121 67.4568 5.21245C67.4568 2.33368 65.1159 0 62.2284 0C59.3408 0 57 2.33368 57 5.21245C57 8.09121 59.3408 10.425 62.2284 10.425Z" fill="url(#paint0_linear_996_4537)"/>
</mask>
<g mask="url(#mask0_996_4537)">
<path d="M62.2284 10.425C65.1159 10.425 67.4568 8.09121 67.4568 5.21245C67.4568 2.33368 65.1159 0 62.2284 0C59.3408 0 57 2.33368 57 5.21245C57 8.09121 59.3408 10.425 62.2284 10.425Z" fill="url(#paint1_linear_996_4537)"/>
</g>
<mask id="mask1_996_4537" style="mask-type:alpha" maskUnits="userSpaceOnUse" x="87" y="0" width="11" height="11">
<path d="M92.5096 10.425C95.3972 10.425 97.738 8.09121 97.738 5.21245C97.738 2.33368 95.3972 0 92.5096 0C89.6221 0 87.2812 2.33368 87.2812 5.21245C87.2812 8.09121 89.6221 10.425 92.5096 10.425Z" fill="url(#paint2_linear_996_4537)"/>
</mask>
<g mask="url(#mask1_996_4537)">
<path d="M92.5096 10.425C95.3972 10.425 97.738 8.09121 97.738 5.21245C97.738 2.33368 95.3972 0 92.5096 0C89.6221 0 87.2812 2.33368 87.2812 5.21245C87.2812 8.09121 89.6221 10.425 92.5096 10.425Z" fill="url(#paint3_linear_996_4537)"/>
</g>
<mask id="mask2_996_4537" style="mask-type:alpha" maskUnits="userSpaceOnUse" x="117" y="0" width="12" height="11">
<path d="M122.791 10.425C125.678 10.425 128.019 8.09121 128.019 5.21245C128.019 2.33368 125.678 0 122.791 0C119.903 0 117.562 2.33368 117.562 5.21245C117.562 8.09121 119.903 10.425 122.791 10.425Z" fill="url(#paint4_linear_996_4537)"/>
</mask>
<g mask="url(#mask2_996_4537)">
<path d="M122.791 10.425C125.678 10.425 128.019 8.09121 128.019 5.21245C128.019 2.33368 125.678 0 122.791 0C119.903 0 117.562 2.33368 117.562 5.21245C117.562 8.09121 119.903 10.425 122.791 10.425Z" fill="url(#paint5_linear_996_4537)"/>
</g>
<mask id="mask3_996_4537" style="mask-type:alpha" maskUnits="userSpaceOnUse" x="147" y="0" width="12" height="11">
<path d="M153.072 10.425C155.96 10.425 158.301 8.09121 158.301 5.21245C158.301 2.33368 155.96 0 153.072 0C150.185 0 147.844 2.33368 147.844 5.21245C147.844 8.09121 150.185 10.425 153.072 10.425Z" fill="url(#paint6_linear_996_4537)"/>
</mask>
<g mask="url(#mask3_996_4537)">
<path d="M153.072 10.425C155.96 10.425 158.301 8.09121 158.301 5.21245C158.301 2.33368 155.96 0 153.072 0C150.185 0 147.844 2.33368 147.844 5.21245C147.844 8.09121 150.185 10.425 153.072 10.425Z" fill="url(#paint7_linear_996_4537)"/>
</g>
<mask id="mask4_996_4537" style="mask-type:alpha" maskUnits="userSpaceOnUse" x="178" y="0" width="11" height="11">
<path d="M183.353 10.425C186.241 10.425 188.582 8.09121 188.582 5.21245C188.582 2.33368 186.241 0 183.353 0C180.466 0 178.125 2.33368 178.125 5.21245C178.125 8.09121 180.466 10.425 183.353 10.425Z" fill="url(#paint8_linear_996_4537)"/>
</mask>
<g mask="url(#mask4_996_4537)">
<path d="M183.353 10.425C186.241 10.425 188.582 8.09121 188.582 5.21245C188.582 2.33368 186.241 0 183.353 0C180.466 0 178.125 2.33368 178.125 5.21245C178.125 8.09121 180.466 10.425 183.353 10.425Z" fill="url(#paint9_linear_996_4537)"/>
</g>
<mask id="mask5_996_4537" style="mask-type:alpha" maskUnits="userSpaceOnUse" x="57" y="26" width="11" height="11">
<path d="M62.2284 36.5958C65.1159 36.5958 67.4568 34.2621 67.4568 31.3833C67.4568 28.5046 65.1159 26.1709 62.2284 26.1709C59.3408 26.1709 57 28.5046 57 31.3833C57 34.2621 59.3408 36.5958 62.2284 36.5958Z" fill="url(#paint10_linear_996_4537)"/>
</mask>
<g mask="url(#mask5_996_4537)">
<path d="M62.2284 36.5958C65.1159 36.5958 67.4568 34.2621 67.4568 31.3833C67.4568 28.5046 65.1159 26.1709 62.2284 26.1709C59.3408 26.1709 57 28.5046 57 31.3833C57 34.2621 59.3408 36.5958 62.2284 36.5958Z" fill="url(#paint11_linear_996_4537)"/>
</g>
<mask id="mask6_996_4537" style="mask-type:alpha" maskUnits="userSpaceOnUse" x="87" y="26" width="11" height="11">
<path d="M92.5096 36.5958C95.3972 36.5958 97.738 34.2621 97.738 31.3833C97.738 28.5046 95.3972 26.1709 92.5096 26.1709C89.6221 26.1709 87.2812 28.5046 87.2812 31.3833C87.2812 34.2621 89.6221 36.5958 92.5096 36.5958Z" fill="url(#paint12_linear_996_4537)"/>
</mask>
<g mask="url(#mask6_996_4537)">
<path d="M92.5096 36.5958C95.3972 36.5958 97.738 34.2621 97.738 31.3833C97.738 28.5046 95.3972 26.1709 92.5096 26.1709C89.6221 26.1709 87.2812 28.5046 87.2812 31.3833C87.2812 34.2621 89.6221 36.5958 92.5096 36.5958Z" fill="url(#paint13_linear_996_4537)"/>
</g>
<mask id="mask7_996_4537" style="mask-type:alpha" maskUnits="userSpaceOnUse" x="117" y="26" width="12" height="11">
<path d="M122.791 36.5958C125.678 36.5958 128.019 34.2621 128.019 31.3833C128.019 28.5046 125.678 26.1709 122.791 26.1709C119.903 26.1709 117.562 28.5046 117.562 31.3833C117.562 34.2621 119.903 36.5958 122.791 36.5958Z" fill="url(#paint14_linear_996_4537)"/>
</mask>
<g mask="url(#mask7_996_4537)">
<path d="M122.791 36.5958C125.678 36.5958 128.019 34.2621 128.019 31.3833C128.019 28.5046 125.678 26.1709 122.791 26.1709C119.903 26.1709 117.562 28.5046 117.562 31.3833C117.562 34.2621 119.903 36.5958 122.791 36.5958Z" fill="url(#paint15_linear_996_4537)"/>
</g>
<mask id="mask8_996_4537" style="mask-type:alpha" maskUnits="userSpaceOnUse" x="147" y="26" width="12" height="11">
<path d="M153.072 36.5958C155.96 36.5958 158.301 34.2621 158.301 31.3833C158.301 28.5046 155.96 26.1709 153.072 26.1709C150.185 26.1709 147.844 28.5046 147.844 31.3833C147.844 34.2621 150.185 36.5958 153.072 36.5958Z" fill="url(#paint16_linear_996_4537)"/>
</mask>
<g mask="url(#mask8_996_4537)">
<path d="M153.072 36.5958C155.96 36.5958 158.301 34.2621 158.301 31.3833C158.301 28.5046 155.96 26.1709 153.072 26.1709C150.185 26.1709 147.844 28.5046 147.844 31.3833C147.844 34.2621 150.185 36.5958 153.072 36.5958Z" fill="url(#paint17_linear_996_4537)"/>
</g>
<mask id="mask9_996_4537" style="mask-type:alpha" maskUnits="userSpaceOnUse" x="57" y="52" width="11" height="11">
<path d="M62.2284 62.7126C65.1159 62.7126 67.4568 60.3789 67.4568 57.5001C67.4568 54.6213 65.1159 52.2876 62.2284 52.2876C59.3408 52.2876 57 54.6213 57 57.5001C57 60.3789 59.3408 62.7126 62.2284 62.7126Z" fill="url(#paint18_linear_996_4537)"/>
</mask>
<g mask="url(#mask9_996_4537)">
<path d="M62.2284 62.7126C65.1159 62.7126 67.4568 60.3789 67.4568 57.5001C67.4568 54.6213 65.1159 52.2876 62.2284 52.2876C59.3408 52.2876 57 54.6213 57 57.5001C57 60.3789 59.3408 62.7126 62.2284 62.7126Z" fill="url(#paint19_linear_996_4537)"/>
</g>
<mask id="mask10_996_4537" style="mask-type:alpha" maskUnits="userSpaceOnUse" x="87" y="52" width="11" height="11">
<path d="M92.5096 62.7126C95.3972 62.7126 97.738 60.3789 97.738 57.5001C97.738 54.6213 95.3972 52.2876 92.5096 52.2876C89.6221 52.2876 87.2812 54.6213 87.2812 57.5001C87.2812 60.3789 89.6221 62.7126 92.5096 62.7126Z" fill="url(#paint20_linear_996_4537)"/>
</mask>
<g mask="url(#mask10_996_4537)">
<path d="M92.5096 62.7126C95.3972 62.7126 97.738 60.3789 97.738 57.5001C97.738 54.6213 95.3972 52.2876 92.5096 52.2876C89.6221 52.2876 87.2812 54.6213 87.2812 57.5001C87.2812 60.3789 89.6221 62.7126 92.5096 62.7126Z" fill="url(#paint21_linear_996_4537)"/>
</g>
<mask id="mask11_996_4537" style="mask-type:alpha" maskUnits="userSpaceOnUse" x="117" y="52" width="12" height="11">
<path d="M122.791 62.7126C125.678 62.7126 128.019 60.3789 128.019 57.5001C128.019 54.6213 125.678 52.2876 122.791 52.2876C119.903 52.2876 117.562 54.6213 117.562 57.5001C117.562 60.3789 119.903 62.7126 122.791 62.7126Z" fill="url(#paint22_linear_996_4537)"/>
</mask>
<g mask="url(#mask11_996_4537)">
<path d="M122.791 62.7126C125.678 62.7126 128.019 60.3789 128.019 57.5001C128.019 54.6213 125.678 52.2876 122.791 52.2876C119.903 52.2876 117.562 54.6213 117.562 57.5001C117.562 60.3789 119.903 62.7126 122.791 62.7126Z" fill="url(#paint23_linear_996_4537)"/>
</g>
<mask id="mask12_996_4537" style="mask-type:alpha" maskUnits="userSpaceOnUse" x="147" y="52" width="12" height="11">
<path d="M153.072 62.7126C155.96 62.7126 158.301 60.3789 158.301 57.5001C158.301 54.6213 155.96 52.2876 153.072 52.2876C150.185 52.2876 147.844 54.6213 147.844 57.5001C147.844 60.3789 150.185 62.7126 153.072 62.7126Z" fill="url(#paint24_linear_996_4537)"/>
</mask>
<g mask="url(#mask12_996_4537)">
<path d="M153.072 62.7126C155.96 62.7126 158.301 60.3789 158.301 57.5001C158.301 54.6213 155.96 52.2876 153.072 52.2876C150.185 52.2876 147.844 54.6213 147.844 57.5001C147.844 60.3789 150.185 62.7126 153.072 62.7126Z" fill="url(#paint25_linear_996_4537)"/>
</g>
<mask id="mask13_996_4537" style="mask-type:alpha" maskUnits="userSpaceOnUse" x="178" y="52" width="11" height="11">
<path d="M183.353 62.7126C186.241 62.7126 188.582 60.3789 188.582 57.5001C188.582 54.6213 186.241 52.2876 183.353 52.2876C180.466 52.2876 178.125 54.6213 178.125 57.5001C178.125 60.3789 180.466 62.7126 183.353 62.7126Z" fill="url(#paint26_linear_996_4537)"/>
</mask>
<g mask="url(#mask13_996_4537)">
<path d="M183.353 62.7126C186.241 62.7126 188.582 60.3789 188.582 57.5001C188.582 54.6213 186.241 52.2876 183.353 52.2876C180.466 52.2876 178.125 54.6213 178.125 57.5001C178.125 60.3789 180.466 62.7126 183.353 62.7126Z" fill="url(#paint27_linear_996_4537)"/>
</g>
<mask id="mask14_996_4537" style="mask-type:alpha" maskUnits="userSpaceOnUse" x="178" y="26" width="11" height="11">
<path d="M183.353 36.5958C186.241 36.5958 188.582 34.2621 188.582 31.3833C188.582 28.5046 186.241 26.1709 183.353 26.1709C180.466 26.1709 178.125 28.5046 178.125 31.3833C178.125 34.2621 180.466 36.5958 183.353 36.5958Z" fill="url(#paint28_linear_996_4537)"/>
</mask>
<g mask="url(#mask14_996_4537)">
<path d="M183.353 36.5958C186.241 36.5958 188.582 34.2621 188.582 31.3833C188.582 28.5046 186.241 26.1709 183.353 26.1709C180.466 26.1709 178.125 28.5046 178.125 31.3833C178.125 34.2621 180.466 36.5958 183.353 36.5958Z" fill="url(#paint29_linear_996_4537)"/>
</g>
<mask id="mask15_996_4537" style="mask-type:alpha" maskUnits="userSpaceOnUse" x="57" y="78" width="11" height="11">
<path d="M62.2284 88.8833C65.1159 88.8833 67.4568 86.5496 67.4568 83.6708C67.4568 80.7921 65.1159 78.4584 62.2284 78.4584C59.3408 78.4584 57 80.7921 57 83.6708C57 86.5496 59.3408 88.8833 62.2284 88.8833Z" fill="url(#paint30_linear_996_4537)"/>
</mask>
<g mask="url(#mask15_996_4537)">
<path d="M62.2284 88.8833C65.1159 88.8833 67.4568 86.5496 67.4568 83.6708C67.4568 80.7921 65.1159 78.4584 62.2284 78.4584C59.3408 78.4584 57 80.7921 57 83.6708C57 86.5496 59.3408 88.8833 62.2284 88.8833Z" fill="url(#paint31_linear_996_4537)"/>
</g>
<mask id="mask16_996_4537" style="mask-type:alpha" maskUnits="userSpaceOnUse" x="87" y="78" width="11" height="11">
<path d="M92.5096 88.8833C95.3972 88.8833 97.738 86.5496 97.738 83.6708C97.738 80.7921 95.3972 78.4584 92.5096 78.4584C89.6221 78.4584 87.2812 80.7921 87.2812 83.6708C87.2812 86.5496 89.6221 88.8833 92.5096 88.8833Z" fill="url(#paint32_linear_996_4537)"/>
</mask>
<g mask="url(#mask16_996_4537)">
<path d="M92.5096 88.8833C95.3972 88.8833 97.738 86.5496 97.738 83.6708C97.738 80.7921 95.3972 78.4584 92.5096 78.4584C89.6221 78.4584 87.2812 80.7921 87.2812 83.6708C87.2812 86.5496 89.6221 88.8833 92.5096 88.8833Z" fill="url(#paint33_linear_996_4537)"/>
</g>
<mask id="mask17_996_4537" style="mask-type:alpha" maskUnits="userSpaceOnUse" x="117" y="78" width="12" height="11">
<path d="M122.791 88.8833C125.678 88.8833 128.019 86.5496 128.019 83.6708C128.019 80.7921 125.678 78.4584 122.791 78.4584C119.903 78.4584 117.562 80.7921 117.562 83.6708C117.562 86.5496 119.903 88.8833 122.791 88.8833Z" fill="url(#paint34_linear_996_4537)"/>
</mask>
<g mask="url(#mask17_996_4537)">
<path d="M122.791 88.8833C125.678 88.8833 128.019 86.5496 128.019 83.6708C128.019 80.7921 125.678 78.4584 122.791 78.4584C119.903 78.4584 117.562 80.7921 117.562 83.6708C117.562 86.5496 119.903 88.8833 122.791 88.8833Z" fill="url(#paint35_linear_996_4537)"/>
</g>
<mask id="mask18_996_4537" style="mask-type:alpha" maskUnits="userSpaceOnUse" x="147" y="78" width="12" height="11">
<path d="M153.072 88.8833C155.96 88.8833 158.301 86.5496 158.301 83.6708C158.301 80.7921 155.96 78.4584 153.072 78.4584C150.185 78.4584 147.844 80.7921 147.844 83.6708C147.844 86.5496 150.185 88.8833 153.072 88.8833Z" fill="url(#paint36_linear_996_4537)"/>
</mask>
<g mask="url(#mask18_996_4537)">
<path d="M153.072 88.8833C155.96 88.8833 158.301 86.5496 158.301 83.6708C158.301 80.7921 155.96 78.4584 153.072 78.4584C150.185 78.4584 147.844 80.7921 147.844 83.6708C147.844 86.5496 150.185 88.8833 153.072 88.8833Z" fill="url(#paint37_linear_996_4537)"/>
</g>
<mask id="mask19_996_4537" style="mask-type:alpha" maskUnits="userSpaceOnUse" x="178" y="78" width="11" height="11">
<path d="M183.353 88.8833C186.241 88.8833 188.582 86.5496 188.582 83.6708C188.582 80.7921 186.241 78.4584 183.353 78.4584C180.466 78.4584 178.125 80.7921 178.125 83.6708C178.125 86.5496 180.466 88.8833 183.353 88.8833Z" fill="url(#paint38_linear_996_4537)"/>
</mask>
<g mask="url(#mask19_996_4537)">
<path d="M183.353 88.8833C186.241 88.8833 188.582 86.5496 188.582 83.6708C188.582 80.7921 186.241 78.4584 183.353 78.4584C180.466 78.4584 178.125 80.7921 178.125 83.6708C178.125 86.5496 180.466 88.8833 183.353 88.8833Z" fill="url(#paint39_linear_996_4537)"/>
</g>
<mask id="mask20_996_4537" style="mask-type:alpha" maskUnits="userSpaceOnUse" x="57" y="104" width="11" height="11">
<path d="M62.2284 115C65.1159 115 67.4568 112.666 67.4568 109.788C67.4568 106.909 65.1159 104.575 62.2284 104.575C59.3408 104.575 57 106.909 57 109.788C57 112.666 59.3408 115 62.2284 115Z" fill="url(#paint40_linear_996_4537)"/>
</mask>
<g mask="url(#mask20_996_4537)">
<path d="M62.2284 115C65.1159 115 67.4568 112.666 67.4568 109.788C67.4568 106.909 65.1159 104.575 62.2284 104.575C59.3408 104.575 57 106.909 57 109.788C57 112.666 59.3408 115 62.2284 115Z" fill="url(#paint41_linear_996_4537)"/>
</g>
<mask id="mask21_996_4537" style="mask-type:alpha" maskUnits="userSpaceOnUse" x="87" y="104" width="11" height="11">
<path d="M92.5096 115C95.3972 115 97.738 112.666 97.738 109.788C97.738 106.909 95.3972 104.575 92.5096 104.575C89.6221 104.575 87.2812 106.909 87.2812 109.788C87.2812 112.666 89.6221 115 92.5096 115Z" fill="url(#paint42_linear_996_4537)"/>
</mask>
<g mask="url(#mask21_996_4537)">
<path d="M92.5096 115C95.3972 115 97.738 112.666 97.738 109.788C97.738 106.909 95.3972 104.575 92.5096 104.575C89.6221 104.575 87.2812 106.909 87.2812 109.788C87.2812 112.666 89.6221 115 92.5096 115Z" fill="url(#paint43_linear_996_4537)"/>
</g>
<mask id="mask22_996_4537" style="mask-type:alpha" maskUnits="userSpaceOnUse" x="117" y="104" width="12" height="11">
<path d="M122.791 115C125.678 115 128.019 112.666 128.019 109.788C128.019 106.909 125.678 104.575 122.791 104.575C119.903 104.575 117.562 106.909 117.562 109.788C117.562 112.666 119.903 115 122.791 115Z" fill="url(#paint44_linear_996_4537)"/>
</mask>
<g mask="url(#mask22_996_4537)">
<path d="M122.791 115C125.678 115 128.019 112.666 128.019 109.788C128.019 106.909 125.678 104.575 122.791 104.575C119.903 104.575 117.562 106.909 117.562 109.788C117.562 112.666 119.903 115 122.791 115Z" fill="url(#paint45_linear_996_4537)"/>
</g>
<mask id="mask23_996_4537" style="mask-type:alpha" maskUnits="userSpaceOnUse" x="147" y="104" width="12" height="11">
<path d="M153.072 115C155.96 115 158.301 112.666 158.301 109.788C158.301 106.909 155.96 104.575 153.072 104.575C150.185 104.575 147.844 106.909 147.844 109.788C147.844 112.666 150.185 115 153.072 115Z" fill="url(#paint46_linear_996_4537)"/>
</mask>
<g mask="url(#mask23_996_4537)">
<path d="M153.072 115C155.96 115 158.301 112.666 158.301 109.788C158.301 106.909 155.96 104.575 153.072 104.575C150.185 104.575 147.844 106.909 147.844 109.788C147.844 112.666 150.185 115 153.072 115Z" fill="url(#paint47_linear_996_4537)"/>
</g>
<mask id="mask24_996_4537" style="mask-type:alpha" maskUnits="userSpaceOnUse" x="178" y="104" width="11" height="11">
<path d="M183.353 115C186.241 115 188.582 112.666 188.582 109.788C188.582 106.909 186.241 104.575 183.353 104.575C180.466 104.575 178.125 106.909 178.125 109.788C178.125 112.666 180.466 115 183.353 115Z" fill="url(#paint48_linear_996_4537)"/>
</mask>
<g mask="url(#mask24_996_4537)">
<path d="M183.353 115C186.241 115 188.582 112.666 188.582 109.788C188.582 106.909 186.241 104.575 183.353 104.575C180.466 104.575 178.125 106.909 178.125 109.788C178.125 112.666 180.466 115 183.353 115Z" fill="url(#paint49_linear_996_4537)"/>
</g>
</g>
<g clip-path="url(#clip0_996_4537)">
<path d="M321.77 32.9999L0 223.577L9.67701 239.9L331.447 49.3229L321.77 32.9999Z" fill="#F2F2F2"/>
<path d="M391.706 48.9776L69.9355 239.554L79.6126 255.877L401.383 65.3006L391.706 48.9776Z" fill="#F2F2F2"/>
<path d="M453.649 66.4532L131.879 257.03L141.556 273.353L463.326 82.7762L453.649 66.4532Z" fill="#F2F2F2"/>
<path d="M209.586 256.402C265.225 256.402 310.329 211.32 310.329 155.708C310.329 100.096 265.225 55.0139 209.586 55.0139C153.948 55.0139 108.844 100.096 108.844 155.708C108.844 211.32 153.948 256.402 209.586 256.402Z" fill="white"/>
<path d="M108.094 155.708C108.094 99.7721 153.623 54.2649 209.586 54.2649C265.548 54.2649 311.077 99.7721 311.077 155.708C311.077 211.644 265.548 257.151 209.586 257.151C153.623 257.151 108.094 211.644 108.094 155.708ZM109.592 155.708C109.592 210.818 154.449 255.653 209.586 255.653C264.722 255.653 309.579 210.818 309.579 155.708C309.579 100.598 264.722 55.7628 209.586 55.7628C154.449 55.7628 109.592 100.598 109.592 155.708H109.592Z" fill="#3F3D56"/>
<path d="M191.627 156.146C191.627 152.596 192.68 149.125 194.653 146.173C196.627 143.222 199.432 140.921 202.713 139.562C205.994 138.204 209.605 137.848 213.089 138.541C216.573 139.233 219.772 140.943 222.284 143.453C224.795 145.964 226.506 149.162 227.199 152.644C227.892 156.126 227.536 159.735 226.177 163.015C224.818 166.295 222.516 169.098 219.563 171.07C216.609 173.043 213.137 174.096 209.585 174.096C204.823 174.096 200.255 172.204 196.887 168.838C193.519 165.472 191.627 160.906 191.627 156.146V156.146ZM209.585 139.072C205.056 139.077 200.714 140.877 197.512 144.078C194.309 147.279 192.508 151.619 192.503 156.146C192.503 159.523 193.505 162.824 195.382 165.632C197.259 168.44 199.927 170.628 203.048 171.92C206.17 173.213 209.604 173.551 212.918 172.892C216.232 172.233 219.276 170.607 221.665 168.219C224.054 165.831 225.68 162.789 226.34 159.477C226.999 156.165 226.66 152.732 225.368 149.612C224.075 146.492 221.885 143.825 219.076 141.949C216.267 140.073 212.964 139.072 209.585 139.072Z" fill="#3F3D56"/>
<path d="M175.422 156.146C175.422 149.392 177.426 142.79 181.18 137.174C184.934 131.558 190.27 127.181 196.512 124.597C202.755 122.012 209.625 121.336 216.252 122.653C222.879 123.971 228.967 127.223 233.745 131.999C238.523 136.775 241.777 142.86 243.095 149.484C244.413 156.108 243.737 162.974 241.151 169.214C238.565 175.454 234.186 180.787 228.568 184.539C222.949 188.291 216.344 190.294 209.587 190.294C205.1 190.294 200.657 189.411 196.512 187.695C192.367 185.979 188.601 183.463 185.428 180.292C182.256 177.121 179.739 173.357 178.022 169.214C176.306 165.071 175.422 160.63 175.422 156.146V156.146ZM209.587 122.873C203.003 122.873 196.567 124.824 191.092 128.48C185.618 132.136 181.351 137.333 178.832 143.413C176.312 149.493 175.653 156.183 176.938 162.637C178.222 169.091 181.392 175.02 186.048 179.673C190.703 184.326 196.635 187.495 203.092 188.779C209.55 190.063 216.243 189.404 222.326 186.886C228.409 184.367 233.608 180.103 237.265 174.631C240.923 169.159 242.876 162.726 242.876 156.146C242.866 147.324 239.355 138.867 233.115 132.629C226.874 126.392 218.412 122.883 209.587 122.873Z" fill="#CCCCCC"/>
<path d="M143.008 156.146C143.008 142.984 146.913 130.118 154.228 119.175C161.544 108.232 171.942 99.7023 184.107 94.6656C196.273 89.6289 209.659 88.3111 222.574 90.8788C235.489 93.4465 247.352 99.7843 256.663 109.091C265.974 118.397 272.315 130.255 274.884 143.163C277.453 156.072 276.134 169.452 271.095 181.612C266.056 193.771 257.523 204.164 246.574 211.476C235.625 218.789 222.753 222.691 209.586 222.691C191.934 222.671 175.011 215.654 162.53 203.179C150.049 190.703 143.028 173.789 143.008 156.146ZM209.586 90.4757C196.591 90.4758 183.888 94.3272 173.084 101.543C162.279 108.759 153.858 119.015 148.885 131.015C143.912 143.015 142.611 156.219 145.146 168.957C147.681 181.696 153.939 193.397 163.127 202.582C172.316 211.766 184.023 218.02 196.768 220.554C209.513 223.088 222.723 221.787 234.728 216.817C246.734 211.847 256.995 203.429 264.214 192.63C271.434 181.831 275.287 169.134 275.287 156.146C275.267 138.735 268.339 122.043 256.022 109.732C243.705 97.4206 227.005 90.4955 209.586 90.4757Z" fill="#CCCCCC"/>
<path d="M209.586 164.026C214.182 164.026 217.908 160.302 217.908 155.708C217.908 151.114 214.182 147.39 209.586 147.39C204.99 147.39 201.264 151.114 201.264 155.708C201.264 160.302 204.99 164.026 209.586 164.026Z" fill="#458FF6"/>
<path d="M188.123 188.105C192.719 188.105 196.445 184.381 196.445 179.787C196.445 175.193 192.719 171.469 188.123 171.469C183.527 171.469 179.801 175.193 179.801 179.787C179.801 184.381 183.527 188.105 188.123 188.105Z" fill="#458FF6"/>
<path d="M271.855 184.603C276.452 184.603 280.178 180.879 280.178 176.285C280.178 171.69 276.452 167.966 271.855 167.966C267.259 167.966 263.533 171.69 263.533 176.285C263.533 180.879 267.259 184.603 271.855 184.603Z" fill="#458FF6"/>
<path d="M209.587 159.648C211.764 159.648 213.529 157.884 213.529 155.708C213.529 153.532 211.764 151.768 209.587 151.768C207.409 151.768 205.645 153.532 205.645 155.708C205.645 157.884 207.409 159.648 209.587 159.648Z" fill="#2F2E41"/>
<path d="M271.856 180.225C274.033 180.225 275.798 178.461 275.798 176.285C275.798 174.108 274.033 172.344 271.856 172.344C269.679 172.344 267.914 174.108 267.914 176.285C267.914 178.461 269.679 180.225 271.856 180.225Z" fill="#2F2E41"/>
<path d="M188.124 184.165C190.301 184.165 192.066 182.401 192.066 180.225C192.066 178.049 190.301 176.285 188.124 176.285C185.947 176.285 184.182 178.049 184.182 180.225C184.182 182.401 185.947 184.165 188.124 184.165Z" fill="#2F2E41"/>
<path d="M25.6218 115.43C27.7989 115.43 29.5639 113.666 29.5639 111.49C29.5639 109.314 27.7989 107.55 25.6218 107.55C23.4446 107.55 21.6797 109.314 21.6797 111.49C21.6797 113.666 23.4446 115.43 25.6218 115.43Z" fill="#458FF6"/>
<path d="M209.366 111.709H36.3516V110.834H210.243V155.927H209.366V111.709Z" fill="#2F2E41"/>
<path d="M14.2324 111.49C14.2324 109.239 14.9003 107.038 16.1517 105.166C17.4031 103.294 19.1817 101.835 21.2626 100.974C23.3435 100.112 25.6333 99.8868 27.8425 100.326C30.0516 100.765 32.0808 101.849 33.6735 103.441C35.2661 105.033 36.3508 107.061 36.7902 109.269C37.2296 111.477 37.0041 113.766 36.1421 115.846C35.2802 117.926 33.8205 119.704 31.9477 120.955C30.0749 122.205 27.8731 122.873 25.6207 122.873C24.1252 122.873 22.6443 122.579 21.2626 122.006C19.8809 121.434 18.6255 120.596 17.568 119.539C16.5105 118.482 15.6716 117.227 15.0993 115.846C14.527 114.465 14.2324 112.985 14.2324 111.49ZM25.6207 100.983C23.5416 100.983 21.5092 101.599 19.7804 102.754C18.0517 103.908 16.7043 105.549 15.9087 107.469C15.113 109.389 14.9048 111.502 15.3104 113.54C15.716 115.578 16.7172 117.45 18.1874 118.92C19.6576 120.389 21.5307 121.39 23.5699 121.795C25.609 122.201 27.7227 121.993 29.6436 121.198C31.5644 120.402 33.2062 119.056 34.3613 117.328C35.5164 115.6 36.133 113.568 36.133 111.49C36.1298 108.704 35.0212 106.034 33.0505 104.064C31.0798 102.094 28.4078 100.986 25.6207 100.983Z" fill="#2F2E41"/>
<path d="M51.9011 228.821C54.0782 228.821 55.8432 227.057 55.8432 224.88C55.8432 222.704 54.0782 220.94 51.9011 220.94C49.7239 220.94 47.959 222.704 47.959 224.88C47.959 227.057 49.7239 228.821 51.9011 228.821Z" fill="#458FF6"/>
<path d="M40.5137 224.88C40.5137 222.629 41.1816 220.428 42.4329 218.556C43.6843 216.685 45.4629 215.226 47.5438 214.364C49.6248 213.502 51.9146 213.277 54.1237 213.716C56.3328 214.155 58.362 215.24 59.9547 216.832C61.5474 218.423 62.632 220.452 63.0714 222.66C63.5108 224.868 63.2853 227.156 62.4234 229.236C61.5614 231.316 60.1017 233.094 58.229 234.345C56.3562 235.596 54.1543 236.263 51.9019 236.263C48.8816 236.263 45.9849 235.064 43.8492 232.929C41.7135 230.795 40.5137 227.899 40.5137 224.88ZM51.9019 214.373C49.8228 214.373 47.7904 214.989 46.0617 216.144C44.3329 217.298 42.9855 218.939 42.1899 220.859C41.3942 222.779 41.186 224.892 41.5917 226.93C41.9973 228.968 42.9985 230.841 44.4686 232.31C45.9388 233.78 47.8119 234.78 49.8511 235.186C51.8903 235.591 54.0039 235.383 55.9248 234.588C57.8457 233.792 59.4875 232.446 60.6426 230.718C61.7977 228.99 62.4142 226.959 62.4142 224.88C62.411 222.095 61.3024 219.424 59.3317 217.454C57.361 215.484 54.689 214.376 51.9019 214.373Z" fill="#2F2E41"/>
<path d="M394.061 133.818C396.238 133.818 398.003 132.054 398.003 129.878C398.003 127.702 396.238 125.938 394.061 125.938C391.884 125.938 390.119 127.702 390.119 129.878C390.119 132.054 391.884 133.818 394.061 133.818Z" fill="#458FF6"/>
<path d="M382.672 129.878C382.672 127.626 383.34 125.426 384.591 123.554C385.843 121.682 387.621 120.223 389.702 119.361C391.783 118.5 394.073 118.274 396.282 118.714C398.491 119.153 400.52 120.237 402.113 121.829C403.706 123.421 404.79 125.449 405.23 127.657C405.669 129.865 405.444 132.154 404.582 134.234C403.72 136.314 402.26 138.091 400.387 139.342C398.514 140.593 396.313 141.26 394.06 141.261C392.565 141.261 391.084 140.966 389.702 140.394C388.32 139.822 387.065 138.984 386.007 137.927C384.95 136.87 384.111 135.615 383.539 134.234C382.966 132.853 382.672 131.373 382.672 129.878ZM394.06 119.371C391.273 119.374 388.601 120.482 386.63 122.452C384.66 124.421 383.551 127.092 383.548 129.878C383.548 131.956 384.164 133.987 385.32 135.715C386.475 137.443 388.116 138.79 390.037 139.585C391.958 140.38 394.072 140.588 396.111 140.183C398.15 139.778 400.023 138.777 401.493 137.307C402.964 135.838 403.965 133.966 404.37 131.928C404.776 129.889 404.568 127.777 403.772 125.857C402.977 123.937 401.629 122.296 399.9 121.141C398.172 119.987 396.139 119.37 394.06 119.37V119.371Z" fill="#2F2E41"/>
<path d="M271.418 131.198L383.104 129.44L383.118 130.315L272.294 132.06V176.285H271.418V131.198Z" fill="#2F2E41"/>
<path d="M62.8535 224.443H187.686V180.225H188.562V225.318H62.8535V224.443Z" fill="#2F2E41"/>
<path d="M49.7125 132.067H1.53125V135.131H49.7125V132.067Z" fill="#CCCCCC"/>
<path d="M49.7125 140.823H1.53125V143.887H49.7125V140.823Z" fill="#CCCCCC"/>
<path d="M49.7125 149.579H1.53125V152.643H49.7125V149.579Z" fill="#CCCCCC"/>
<path d="M75.9918 245.457H27.8105V248.522H75.9918V245.457Z" fill="#CCCCCC"/>
<path d="M75.9918 254.213H27.8105V257.278H75.9918V254.213Z" fill="#CCCCCC"/>
<path d="M75.9918 262.969H27.8105V266.034H75.9918V262.969Z" fill="#CCCCCC"/>
<path d="M418.152 150.892H369.971V153.957H418.152V150.892Z" fill="#CCCCCC"/>
<path d="M418.152 159.648H369.971V162.713H418.152V159.648Z" fill="#CCCCCC"/>
<path d="M418.152 168.404H369.971V171.469H418.152V168.404Z" fill="#CCCCCC"/>
<path d="M441.089 411.998L434.237 414.446L421.531 389.194L431.644 385.582L441.089 411.998Z" fill="#FFB8B8"/>
<path d="M423.116 425.905L423.016 425.625C422.204 423.346 422.33 420.837 423.366 418.649C424.402 416.462 426.263 414.775 428.543 413.958L442.037 409.137L445.21 418.013L423.116 425.905Z" fill="#2F2E41"/>
<path d="M396.531 418.772L389.254 418.772L385.793 390.719L396.532 390.719L396.531 418.772Z" fill="#FFB8B8"/>
<path d="M398.386 425.822L374.924 425.821V425.525C374.924 424.326 375.16 423.139 375.619 422.032C376.078 420.924 376.751 419.918 377.599 419.07C378.447 418.223 379.453 417.55 380.561 417.092C381.669 416.633 382.857 416.397 384.056 416.397H384.057L398.387 416.397L398.386 425.822Z" fill="#2F2E41"/>
<path d="M413.115 239.549L409.951 233.298C409.951 233.298 398.162 236.251 397.09 243.08L413.115 239.549Z" fill="#458FF6"/>
<path d="M426.173 311.013L417.567 359.014L440.417 399.406L426.766 404.745L403.619 365.591L400.651 354.913L398.871 410.677L386.559 410.304L380.914 358.233L389.968 309.827L426.173 311.013Z" fill="#2F2E41"/>
<path d="M385.068 319.672C384.801 318.484 384.035 282.196 384.035 282.196C384.035 282.196 396.692 240.663 396.808 240.322L396.853 240.189L406.463 236.588C406.598 236.526 409.799 235.101 412.419 236.289C413.091 236.616 413.684 237.085 414.155 237.665C414.627 238.244 414.967 238.919 415.15 239.643C416.24 240.455 424.095 249.249 424.095 261.178L424.391 289.327L430.976 319.843L430.685 319.905C430.505 319.943 422.478 322.36 409.836 322.36C402.811 322.36 385.068 319.672 385.068 319.672Z" fill="#3F3D56"/>
<path d="M400.121 231.331C407.294 231.331 413.109 225.518 413.109 218.349C413.109 211.179 407.294 205.367 400.121 205.367C392.948 205.367 387.133 211.179 387.133 218.349C387.133 225.518 392.948 231.331 400.121 231.331Z" fill="#FFB8B8"/>
<path opacity="0.2" d="M418.625 275.541L395.903 307.229L392.547 292.431L418.625 275.541Z" fill="black"/>
<path d="M378.296 307.913C379.11 307.88 379.907 307.67 380.631 307.296C381.356 306.923 381.989 306.395 382.487 305.75C382.985 305.106 383.335 304.36 383.513 303.565C383.692 302.77 383.694 301.946 383.519 301.151L400.402 290.799L391.079 286.44L376.476 296.938C375.158 297.32 374.027 298.172 373.296 299.333C372.565 300.493 372.285 301.881 372.509 303.234C372.733 304.586 373.446 305.81 374.513 306.672C375.58 307.535 376.926 307.976 378.296 307.913Z" fill="#FFB8B8"/>
<path d="M389.966 286.69L384.184 290.74L389.088 299.445L395.902 293.809L389.966 286.69Z" fill="#458FF6"/>
<path d="M386.939 286.946L400.541 271.187L395.33 249.452C394.791 247.205 395.089 244.84 396.167 242.797C397.246 240.754 399.031 239.173 401.19 238.349C403.349 237.526 405.735 237.516 407.901 238.321C410.066 239.127 411.865 240.693 412.961 242.727L413.079 242.947L417.881 275.224L393.752 299.945L386.939 286.946Z" fill="#3F3D56"/>
<path d="M411.184 229.62L400.404 230.007C399.747 230.03 397.964 222.942 397.73 221.472C397.546 220.514 397.019 219.657 396.248 219.059C395.477 218.462 394.515 218.165 393.542 218.225C392.735 218.301 390.7 216.794 388.6 215.01C384.614 211.623 384.821 205.26 389.2 202.398C389.32 202.32 389.437 202.248 389.553 202.183C392.315 200.638 395.547 200.119 398.713 200.079C401.582 200.044 404.533 200.405 407.062 201.762C411.594 204.196 414.006 209.515 414.218 214.653C414.43 219.792 412.782 224.816 410.912 229.607" fill="#2F2E41"/>
<path d="M470.407 426H339.238C339.081 426 338.93 425.937 338.818 425.826C338.707 425.715 338.645 425.564 338.645 425.407C338.645 425.249 338.707 425.098 338.818 424.987C338.93 424.876 339.081 424.813 339.238 424.813H470.407C470.565 424.813 470.716 424.876 470.827 424.987C470.938 425.098 471.001 425.249 471.001 425.407C471.001 425.564 470.938 425.715 470.827 425.826C470.716 425.937 470.565 426 470.407 426Z" fill="#3F3D56"/>
</g>
<defs>
<linearGradient id="paint0_linear_996_4537" x1="111.996" y1="131.134" x2="40.5943" y2="-50.67" gradientUnits="userSpaceOnUse">
<stop/>
<stop offset="1" stop-color="white"/>
</linearGradient>
<linearGradient id="paint1_linear_996_4537" x1="111.996" y1="131.134" x2="40.5943" y2="-50.67" gradientUnits="userSpaceOnUse">
<stop stop-color="#97C3F9"/>
<stop offset="1" stop-color="#93C1F9"/>
</linearGradient>
<linearGradient id="paint2_linear_996_4537" x1="138.201" y1="120.843" x2="66.7991" y2="-60.9613" gradientUnits="userSpaceOnUse">
<stop/>
<stop offset="1" stop-color="white"/>
</linearGradient>
<linearGradient id="paint3_linear_996_4537" x1="138.201" y1="120.843" x2="66.7991" y2="-60.9613" gradientUnits="userSpaceOnUse">
<stop stop-color="#97C3F9"/>
<stop offset="1" stop-color="#93C1F9"/>
</linearGradient>
<linearGradient id="paint4_linear_996_4537" x1="164.405" y1="110.551" x2="93.0037" y2="-71.2526" gradientUnits="userSpaceOnUse">
<stop/>
<stop offset="1" stop-color="white"/>
</linearGradient>
<linearGradient id="paint5_linear_996_4537" x1="164.405" y1="110.551" x2="93.0037" y2="-71.2526" gradientUnits="userSpaceOnUse">
<stop stop-color="#97C3F9"/>
<stop offset="1" stop-color="#93C1F9"/>
</linearGradient>
<linearGradient id="paint6_linear_996_4537" x1="190.61" y1="100.259" x2="119.208" y2="-81.5444" gradientUnits="userSpaceOnUse">
<stop/>
<stop offset="1" stop-color="white"/>
</linearGradient>
<linearGradient id="paint7_linear_996_4537" x1="190.61" y1="100.259" x2="119.208" y2="-81.5444" gradientUnits="userSpaceOnUse">
<stop stop-color="#97C3F9"/>
<stop offset="1" stop-color="#93C1F9"/>
</linearGradient>
<linearGradient id="paint8_linear_996_4537" x1="216.814" y1="89.9679" x2="145.413" y2="-91.8359" gradientUnits="userSpaceOnUse">
<stop/>
<stop offset="1" stop-color="white"/>
</linearGradient>
<linearGradient id="paint9_linear_996_4537" x1="216.814" y1="89.9679" x2="145.413" y2="-91.8359" gradientUnits="userSpaceOnUse">
<stop stop-color="#97C3F9"/>
<stop offset="1" stop-color="#93C1F9"/>
</linearGradient>
<linearGradient id="paint10_linear_996_4537" x1="103.054" y1="134.645" x2="31.6534" y2="-47.1572" gradientUnits="userSpaceOnUse">
<stop/>
<stop offset="1" stop-color="white"/>
</linearGradient>
<linearGradient id="paint11_linear_996_4537" x1="103.054" y1="134.645" x2="31.6534" y2="-47.1572" gradientUnits="userSpaceOnUse">
<stop stop-color="#97C3F9"/>
<stop offset="1" stop-color="#93C1F9"/>
</linearGradient>
<linearGradient id="paint12_linear_996_4537" x1="129.258" y1="124.354" x2="57.8579" y2="-57.4491" gradientUnits="userSpaceOnUse">
<stop/>
<stop offset="1" stop-color="white"/>
</linearGradient>
<linearGradient id="paint13_linear_996_4537" x1="129.258" y1="124.354" x2="57.8579" y2="-57.4491" gradientUnits="userSpaceOnUse">
<stop stop-color="#97C3F9"/>
<stop offset="1" stop-color="#93C1F9"/>
</linearGradient>
<linearGradient id="paint14_linear_996_4537" x1="155.463" y1="114.062" x2="84.0624" y2="-67.7404" gradientUnits="userSpaceOnUse">
<stop/>
<stop offset="1" stop-color="white"/>
</linearGradient>
<linearGradient id="paint15_linear_996_4537" x1="155.463" y1="114.062" x2="84.0624" y2="-67.7404" gradientUnits="userSpaceOnUse">
<stop stop-color="#97C3F9"/>
<stop offset="1" stop-color="#93C1F9"/>
</linearGradient>
<linearGradient id="paint16_linear_996_4537" x1="181.667" y1="103.771" x2="110.267" y2="-78.0318" gradientUnits="userSpaceOnUse">
<stop/>
<stop offset="1" stop-color="white"/>
</linearGradient>
<linearGradient id="paint17_linear_996_4537" x1="181.667" y1="103.771" x2="110.267" y2="-78.0318" gradientUnits="userSpaceOnUse">
<stop stop-color="#97C3F9"/>
<stop offset="1" stop-color="#93C1F9"/>
</linearGradient>
<linearGradient id="paint18_linear_996_4537" x1="94.1113" y1="138.158" x2="22.7097" y2="-43.6457" gradientUnits="userSpaceOnUse">
<stop/>
<stop offset="1" stop-color="white"/>
</linearGradient>
<linearGradient id="paint19_linear_996_4537" x1="94.1113" y1="138.158" x2="22.7097" y2="-43.6457" gradientUnits="userSpaceOnUse">
<stop stop-color="#97C3F9"/>
<stop offset="1" stop-color="#93C1F9"/>
</linearGradient>
<linearGradient id="paint20_linear_996_4537" x1="120.316" y1="127.867" x2="48.9143" y2="-53.9373" gradientUnits="userSpaceOnUse">
<stop/>
<stop offset="1" stop-color="white"/>
</linearGradient>
<linearGradient id="paint21_linear_996_4537" x1="120.316" y1="127.867" x2="48.9143" y2="-53.9373" gradientUnits="userSpaceOnUse">
<stop stop-color="#97C3F9"/>
<stop offset="1" stop-color="#93C1F9"/>
</linearGradient>
<linearGradient id="paint22_linear_996_4537" x1="146.52" y1="117.575" x2="75.1189" y2="-64.2287" gradientUnits="userSpaceOnUse">
<stop/>
<stop offset="1" stop-color="white"/>
</linearGradient>
<linearGradient id="paint23_linear_996_4537" x1="146.52" y1="117.575" x2="75.1189" y2="-64.2287" gradientUnits="userSpaceOnUse">
<stop stop-color="#97C3F9"/>
<stop offset="1" stop-color="#93C1F9"/>
</linearGradient>
<linearGradient id="paint24_linear_996_4537" x1="172.725" y1="107.283" x2="101.323" y2="-74.5204" gradientUnits="userSpaceOnUse">
<stop/>
<stop offset="1" stop-color="white"/>
</linearGradient>
<linearGradient id="paint25_linear_996_4537" x1="172.725" y1="107.283" x2="101.323" y2="-74.5204" gradientUnits="userSpaceOnUse">
<stop stop-color="#97C3F9"/>
<stop offset="1" stop-color="#93C1F9"/>
</linearGradient>
<linearGradient id="paint26_linear_996_4537" x1="198.929" y1="96.992" x2="127.528" y2="-84.8119" gradientUnits="userSpaceOnUse">
<stop/>
<stop offset="1" stop-color="white"/>
</linearGradient>
<linearGradient id="paint27_linear_996_4537" x1="198.929" y1="96.992" x2="127.528" y2="-84.8119" gradientUnits="userSpaceOnUse">
<stop stop-color="#97C3F9"/>
<stop offset="1" stop-color="#93C1F9"/>
</linearGradient>
<linearGradient id="paint28_linear_996_4537" x1="207.872" y1="93.4793" x2="136.471" y2="-88.3232" gradientUnits="userSpaceOnUse">
<stop/>
<stop offset="1" stop-color="white"/>
</linearGradient>
<linearGradient id="paint29_linear_996_4537" x1="207.872" y1="93.4793" x2="136.471" y2="-88.3232" gradientUnits="userSpaceOnUse">
<stop stop-color="#97C3F9"/>
<stop offset="1" stop-color="#93C1F9"/>
</linearGradient>
<linearGradient id="paint30_linear_996_4537" x1="85.169" y1="141.67" x2="13.7673" y2="-40.1339" gradientUnits="userSpaceOnUse">
<stop/>
<stop offset="1" stop-color="white"/>
</linearGradient>
<linearGradient id="paint31_linear_996_4537" x1="85.169" y1="141.67" x2="13.7673" y2="-40.1339" gradientUnits="userSpaceOnUse">
<stop stop-color="#97C3F9"/>
<stop offset="1" stop-color="#93C1F9"/>
</linearGradient>
<linearGradient id="paint32_linear_996_4537" x1="111.374" y1="131.378" x2="39.9719" y2="-50.4254" gradientUnits="userSpaceOnUse">
<stop/>
<stop offset="1" stop-color="white"/>
</linearGradient>
<linearGradient id="paint33_linear_996_4537" x1="111.374" y1="131.378" x2="39.9719" y2="-50.4254" gradientUnits="userSpaceOnUse">
<stop stop-color="#97C3F9"/>
<stop offset="1" stop-color="#93C1F9"/>
</linearGradient>
<linearGradient id="paint34_linear_996_4537" x1="137.578" y1="121.087" x2="66.1765" y2="-60.7168" gradientUnits="userSpaceOnUse">
<stop/>
<stop offset="1" stop-color="white"/>
</linearGradient>
<linearGradient id="paint35_linear_996_4537" x1="137.578" y1="121.087" x2="66.1765" y2="-60.7168" gradientUnits="userSpaceOnUse">
<stop stop-color="#97C3F9"/>
<stop offset="1" stop-color="#93C1F9"/>
</linearGradient>
<linearGradient id="paint36_linear_996_4537" x1="163.783" y1="110.795" x2="92.3809" y2="-71.0085" gradientUnits="userSpaceOnUse">
<stop/>
<stop offset="1" stop-color="white"/>
</linearGradient>
<linearGradient id="paint37_linear_996_4537" x1="163.783" y1="110.795" x2="92.3809" y2="-71.0085" gradientUnits="userSpaceOnUse">
<stop stop-color="#97C3F9"/>
<stop offset="1" stop-color="#93C1F9"/>
</linearGradient>
<linearGradient id="paint38_linear_996_4537" x1="189.987" y1="100.504" x2="118.585" y2="-81.3" gradientUnits="userSpaceOnUse">
<stop/>
<stop offset="1" stop-color="white"/>
</linearGradient>
<linearGradient id="paint39_linear_996_4537" x1="189.987" y1="100.504" x2="118.585" y2="-81.3" gradientUnits="userSpaceOnUse">
<stop stop-color="#97C3F9"/>
<stop offset="1" stop-color="#93C1F9"/>
</linearGradient>
<linearGradient id="paint40_linear_996_4537" x1="76.2266" y1="145.182" x2="4.82493" y2="-36.6218" gradientUnits="userSpaceOnUse">
<stop/>
<stop offset="1" stop-color="white"/>
</linearGradient>
<linearGradient id="paint41_linear_996_4537" x1="76.2266" y1="145.182" x2="4.82493" y2="-36.6218" gradientUnits="userSpaceOnUse">
<stop stop-color="#97C3F9"/>
<stop offset="1" stop-color="#93C1F9"/>
</linearGradient>
<linearGradient id="paint42_linear_996_4537" x1="102.431" y1="134.89" x2="31.0295" y2="-46.9133" gradientUnits="userSpaceOnUse">
<stop/>
<stop offset="1" stop-color="white"/>
</linearGradient>
<linearGradient id="paint43_linear_996_4537" x1="102.431" y1="134.89" x2="31.0295" y2="-46.9133" gradientUnits="userSpaceOnUse">
<stop stop-color="#97C3F9"/>
<stop offset="1" stop-color="#93C1F9"/>
</linearGradient>
<linearGradient id="paint44_linear_996_4537" x1="128.636" y1="124.599" x2="57.2341" y2="-57.2047" gradientUnits="userSpaceOnUse">
<stop/>
<stop offset="1" stop-color="white"/>
</linearGradient>
<linearGradient id="paint45_linear_996_4537" x1="128.636" y1="124.599" x2="57.2341" y2="-57.2047" gradientUnits="userSpaceOnUse">
<stop stop-color="#97C3F9"/>
<stop offset="1" stop-color="#93C1F9"/>
</linearGradient>
<linearGradient id="paint46_linear_996_4537" x1="154.84" y1="114.307" x2="83.4386" y2="-67.4963" gradientUnits="userSpaceOnUse">
<stop/>
<stop offset="1" stop-color="white"/>
</linearGradient>
<linearGradient id="paint47_linear_996_4537" x1="154.84" y1="114.307" x2="83.4386" y2="-67.4963" gradientUnits="userSpaceOnUse">
<stop stop-color="#97C3F9"/>
<stop offset="1" stop-color="#93C1F9"/>
</linearGradient>
<linearGradient id="paint48_linear_996_4537" x1="181.045" y1="104.016" x2="109.643" y2="-77.7878" gradientUnits="userSpaceOnUse">
<stop/>
<stop offset="1" stop-color="white"/>
</linearGradient>
<linearGradient id="paint49_linear_996_4537" x1="181.045" y1="104.016" x2="109.643" y2="-77.7878" gradientUnits="userSpaceOnUse">
<stop stop-color="#97C3F9"/>
<stop offset="1" stop-color="#93C1F9"/>
</linearGradient>
<clipPath id="clip0_996_4537">
<rect width="471" height="393" fill="white" transform="translate(0 33)"/>
</clipPath>
</defs>
</svg>
