<svg width="506" height="385" viewBox="0 0 506 385" fill="none" xmlns="http://www.w3.org/2000/svg">
<g opacity="0.3">
<mask id="mask0_725_4794" style="mask-type:alpha" maskUnits="userSpaceOnUse" x="374" y="16" width="11" height="11">
<path d="M379.228 26.425C382.116 26.425 384.457 24.0912 384.457 21.2124C384.457 18.3337 382.116 16 379.228 16C376.341 16 374 18.3337 374 21.2124C374 24.0912 376.341 26.425 379.228 26.425Z" fill="url(#paint0_linear_725_4794)"/>
</mask>
<g mask="url(#mask0_725_4794)">
<path d="M379.228 26.425C382.116 26.425 384.457 24.0912 384.457 21.2124C384.457 18.3337 382.116 16 379.228 16C376.341 16 374 18.3337 374 21.2124C374 24.0912 376.341 26.425 379.228 26.425Z" fill="url(#paint1_linear_725_4794)"/>
</g>
<mask id="mask1_725_4794" style="mask-type:alpha" maskUnits="userSpaceOnUse" x="404" y="16" width="11" height="11">
<path d="M409.509 26.425C412.397 26.425 414.738 24.0912 414.738 21.2124C414.738 18.3337 412.397 16 409.509 16C406.622 16 404.281 18.3337 404.281 21.2124C404.281 24.0912 406.622 26.425 409.509 26.425Z" fill="url(#paint2_linear_725_4794)"/>
</mask>
<g mask="url(#mask1_725_4794)">
<path d="M409.509 26.425C412.397 26.425 414.738 24.0912 414.738 21.2124C414.738 18.3337 412.397 16 409.509 16C406.622 16 404.281 18.3337 404.281 21.2124C404.281 24.0912 406.622 26.425 409.509 26.425Z" fill="url(#paint3_linear_725_4794)"/>
</g>
<mask id="mask2_725_4794" style="mask-type:alpha" maskUnits="userSpaceOnUse" x="434" y="16" width="12" height="11">
<path d="M439.79 26.425C442.678 26.425 445.019 24.0912 445.019 21.2124C445.019 18.3337 442.678 16 439.79 16C436.903 16 434.562 18.3337 434.562 21.2124C434.562 24.0912 436.903 26.425 439.79 26.425Z" fill="url(#paint4_linear_725_4794)"/>
</mask>
<g mask="url(#mask2_725_4794)">
<path d="M439.79 26.425C442.678 26.425 445.019 24.0912 445.019 21.2124C445.019 18.3337 442.678 16 439.79 16C436.903 16 434.562 18.3337 434.562 21.2124C434.562 24.0912 436.903 26.425 439.79 26.425Z" fill="url(#paint5_linear_725_4794)"/>
</g>
<mask id="mask3_725_4794" style="mask-type:alpha" maskUnits="userSpaceOnUse" x="464" y="16" width="12" height="11">
<path d="M470.072 26.425C472.959 26.425 475.3 24.0912 475.3 21.2124C475.3 18.3337 472.959 16 470.072 16C467.184 16 464.843 18.3337 464.843 21.2124C464.843 24.0912 467.184 26.425 470.072 26.425Z" fill="url(#paint6_linear_725_4794)"/>
</mask>
<g mask="url(#mask3_725_4794)">
<path d="M470.072 26.425C472.959 26.425 475.3 24.0912 475.3 21.2124C475.3 18.3337 472.959 16 470.072 16C467.184 16 464.843 18.3337 464.843 21.2124C464.843 24.0912 467.184 26.425 470.072 26.425Z" fill="url(#paint7_linear_725_4794)"/>
</g>
<mask id="mask4_725_4794" style="mask-type:alpha" maskUnits="userSpaceOnUse" x="495" y="16" width="11" height="11">
<path d="M500.353 26.425C503.24 26.425 505.581 24.0912 505.581 21.2124C505.581 18.3337 503.24 16 500.353 16C497.465 16 495.124 18.3337 495.124 21.2124C495.124 24.0912 497.465 26.425 500.353 26.425Z" fill="url(#paint8_linear_725_4794)"/>
</mask>
<g mask="url(#mask4_725_4794)">
<path d="M500.353 26.425C503.24 26.425 505.581 24.0912 505.581 21.2124C505.581 18.3337 503.24 16 500.353 16C497.465 16 495.124 18.3337 495.124 21.2124C495.124 24.0912 497.465 26.425 500.353 26.425Z" fill="url(#paint9_linear_725_4794)"/>
</g>
<mask id="mask5_725_4794" style="mask-type:alpha" maskUnits="userSpaceOnUse" x="374" y="42" width="11" height="11">
<path d="M379.228 52.5958C382.116 52.5958 384.457 50.2621 384.457 47.3834C384.457 44.5046 382.116 42.171 379.228 42.171C376.341 42.171 374 44.5046 374 47.3834C374 50.2621 376.341 52.5958 379.228 52.5958Z" fill="url(#paint10_linear_725_4794)"/>
</mask>
<g mask="url(#mask5_725_4794)">
<path d="M379.228 52.5958C382.116 52.5958 384.457 50.2621 384.457 47.3834C384.457 44.5046 382.116 42.171 379.228 42.171C376.341 42.171 374 44.5046 374 47.3834C374 50.2621 376.341 52.5958 379.228 52.5958Z" fill="url(#paint11_linear_725_4794)"/>
</g>
<mask id="mask6_725_4794" style="mask-type:alpha" maskUnits="userSpaceOnUse" x="404" y="42" width="11" height="11">
<path d="M409.509 52.5958C412.397 52.5958 414.738 50.2621 414.738 47.3834C414.738 44.5046 412.397 42.171 409.509 42.171C406.622 42.171 404.281 44.5046 404.281 47.3834C404.281 50.2621 406.622 52.5958 409.509 52.5958Z" fill="url(#paint12_linear_725_4794)"/>
</mask>
<g mask="url(#mask6_725_4794)">
<path d="M409.509 52.5958C412.397 52.5958 414.738 50.2621 414.738 47.3834C414.738 44.5046 412.397 42.171 409.509 42.171C406.622 42.171 404.281 44.5046 404.281 47.3834C404.281 50.2621 406.622 52.5958 409.509 52.5958Z" fill="url(#paint13_linear_725_4794)"/>
</g>
<mask id="mask7_725_4794" style="mask-type:alpha" maskUnits="userSpaceOnUse" x="434" y="42" width="12" height="11">
<path d="M439.79 52.5958C442.678 52.5958 445.019 50.2621 445.019 47.3834C445.019 44.5046 442.678 42.171 439.79 42.171C436.903 42.171 434.562 44.5046 434.562 47.3834C434.562 50.2621 436.903 52.5958 439.79 52.5958Z" fill="url(#paint14_linear_725_4794)"/>
</mask>
<g mask="url(#mask7_725_4794)">
<path d="M439.79 52.5958C442.678 52.5958 445.019 50.2621 445.019 47.3834C445.019 44.5046 442.678 42.171 439.79 42.171C436.903 42.171 434.562 44.5046 434.562 47.3834C434.562 50.2621 436.903 52.5958 439.79 52.5958Z" fill="url(#paint15_linear_725_4794)"/>
</g>
<mask id="mask8_725_4794" style="mask-type:alpha" maskUnits="userSpaceOnUse" x="464" y="42" width="12" height="11">
<path d="M470.072 52.5958C472.959 52.5958 475.3 50.2621 475.3 47.3834C475.3 44.5046 472.959 42.171 470.072 42.171C467.184 42.171 464.843 44.5046 464.843 47.3834C464.843 50.2621 467.184 52.5958 470.072 52.5958Z" fill="url(#paint16_linear_725_4794)"/>
</mask>
<g mask="url(#mask8_725_4794)">
<path d="M470.072 52.5958C472.959 52.5958 475.3 50.2621 475.3 47.3834C475.3 44.5046 472.959 42.171 470.072 42.171C467.184 42.171 464.843 44.5046 464.843 47.3834C464.843 50.2621 467.184 52.5958 470.072 52.5958Z" fill="url(#paint17_linear_725_4794)"/>
</g>
<mask id="mask9_725_4794" style="mask-type:alpha" maskUnits="userSpaceOnUse" x="495" y="42" width="11" height="11">
<path d="M500.353 52.5958C503.24 52.5958 505.581 50.2621 505.581 47.3834C505.581 44.5046 503.24 42.171 500.353 42.171C497.465 42.171 495.124 44.5046 495.124 47.3834C495.124 50.2621 497.465 52.5958 500.353 52.5958Z" fill="url(#paint18_linear_725_4794)"/>
</mask>
<g mask="url(#mask9_725_4794)">
<path d="M500.353 52.5958C503.24 52.5958 505.581 50.2621 505.581 47.3834C505.581 44.5046 503.24 42.171 500.353 42.171C497.465 42.171 495.124 44.5046 495.124 47.3834C495.124 50.2621 497.465 52.5958 500.353 52.5958Z" fill="url(#paint19_linear_725_4794)"/>
</g>
<mask id="mask10_725_4794" style="mask-type:alpha" maskUnits="userSpaceOnUse" x="374" y="68" width="11" height="11">
<path d="M379.228 78.7125C382.116 78.7125 384.457 76.3788 384.457 73.5C384.457 70.6212 382.116 68.2875 379.228 68.2875C376.341 68.2875 374 70.6212 374 73.5C374 76.3788 376.341 78.7125 379.228 78.7125Z" fill="url(#paint20_linear_725_4794)"/>
</mask>
<g mask="url(#mask10_725_4794)">
<path d="M379.228 78.7125C382.116 78.7125 384.457 76.3788 384.457 73.5C384.457 70.6212 382.116 68.2875 379.228 68.2875C376.341 68.2875 374 70.6212 374 73.5C374 76.3788 376.341 78.7125 379.228 78.7125Z" fill="url(#paint21_linear_725_4794)"/>
</g>
<mask id="mask11_725_4794" style="mask-type:alpha" maskUnits="userSpaceOnUse" x="404" y="68" width="11" height="11">
<path d="M409.509 78.7125C412.397 78.7125 414.738 76.3788 414.738 73.5C414.738 70.6212 412.397 68.2875 409.509 68.2875C406.622 68.2875 404.281 70.6212 404.281 73.5C404.281 76.3788 406.622 78.7125 409.509 78.7125Z" fill="url(#paint22_linear_725_4794)"/>
</mask>
<g mask="url(#mask11_725_4794)">
<path d="M409.509 78.7125C412.397 78.7125 414.738 76.3788 414.738 73.5C414.738 70.6212 412.397 68.2875 409.509 68.2875C406.622 68.2875 404.281 70.6212 404.281 73.5C404.281 76.3788 406.622 78.7125 409.509 78.7125Z" fill="url(#paint23_linear_725_4794)"/>
</g>
<mask id="mask12_725_4794" style="mask-type:alpha" maskUnits="userSpaceOnUse" x="434" y="68" width="12" height="11">
<path d="M439.79 78.7125C442.678 78.7125 445.019 76.3788 445.019 73.5C445.019 70.6212 442.678 68.2875 439.79 68.2875C436.903 68.2875 434.562 70.6212 434.562 73.5C434.562 76.3788 436.903 78.7125 439.79 78.7125Z" fill="url(#paint24_linear_725_4794)"/>
</mask>
<g mask="url(#mask12_725_4794)">
<path d="M439.79 78.7125C442.678 78.7125 445.019 76.3788 445.019 73.5C445.019 70.6212 442.678 68.2875 439.79 68.2875C436.903 68.2875 434.562 70.6212 434.562 73.5C434.562 76.3788 436.903 78.7125 439.79 78.7125Z" fill="url(#paint25_linear_725_4794)"/>
</g>
<mask id="mask13_725_4794" style="mask-type:alpha" maskUnits="userSpaceOnUse" x="464" y="68" width="12" height="11">
<path d="M470.072 78.7125C472.959 78.7125 475.3 76.3788 475.3 73.5C475.3 70.6212 472.959 68.2875 470.072 68.2875C467.184 68.2875 464.843 70.6212 464.843 73.5C464.843 76.3788 467.184 78.7125 470.072 78.7125Z" fill="url(#paint26_linear_725_4794)"/>
</mask>
<g mask="url(#mask13_725_4794)">
<path d="M470.072 78.7125C472.959 78.7125 475.3 76.3788 475.3 73.5C475.3 70.6212 472.959 68.2875 470.072 68.2875C467.184 68.2875 464.843 70.6212 464.843 73.5C464.843 76.3788 467.184 78.7125 470.072 78.7125Z" fill="url(#paint27_linear_725_4794)"/>
</g>
<mask id="mask14_725_4794" style="mask-type:alpha" maskUnits="userSpaceOnUse" x="495" y="68" width="11" height="11">
<path d="M500.353 78.7125C503.24 78.7125 505.581 76.3788 505.581 73.5C505.581 70.6212 503.24 68.2875 500.353 68.2875C497.465 68.2875 495.124 70.6212 495.124 73.5C495.124 76.3788 497.465 78.7125 500.353 78.7125Z" fill="url(#paint28_linear_725_4794)"/>
</mask>
<g mask="url(#mask14_725_4794)">
<path d="M500.353 78.7125C503.24 78.7125 505.581 76.3788 505.581 73.5C505.581 70.6212 503.24 68.2875 500.353 68.2875C497.465 68.2875 495.124 70.6212 495.124 73.5C495.124 76.3788 497.465 78.7125 500.353 78.7125Z" fill="url(#paint29_linear_725_4794)"/>
</g>
<mask id="mask15_725_4794" style="mask-type:alpha" maskUnits="userSpaceOnUse" x="374" y="94" width="11" height="11">
<path d="M379.228 104.883C382.116 104.883 384.457 102.55 384.457 99.6709C384.457 96.7921 382.116 94.4584 379.228 94.4584C376.341 94.4584 374 96.7921 374 99.6709C374 102.55 376.341 104.883 379.228 104.883Z" fill="url(#paint30_linear_725_4794)"/>
</mask>
<g mask="url(#mask15_725_4794)">
<path d="M379.228 104.883C382.116 104.883 384.457 102.55 384.457 99.6709C384.457 96.7921 382.116 94.4584 379.228 94.4584C376.341 94.4584 374 96.7921 374 99.6709C374 102.55 376.341 104.883 379.228 104.883Z" fill="url(#paint31_linear_725_4794)"/>
</g>
<mask id="mask16_725_4794" style="mask-type:alpha" maskUnits="userSpaceOnUse" x="404" y="94" width="11" height="11">
<path d="M409.509 104.883C412.397 104.883 414.738 102.55 414.738 99.6709C414.738 96.7921 412.397 94.4584 409.509 94.4584C406.622 94.4584 404.281 96.7921 404.281 99.6709C404.281 102.55 406.622 104.883 409.509 104.883Z" fill="url(#paint32_linear_725_4794)"/>
</mask>
<g mask="url(#mask16_725_4794)">
<path d="M409.509 104.883C412.397 104.883 414.738 102.55 414.738 99.6709C414.738 96.7921 412.397 94.4584 409.509 94.4584C406.622 94.4584 404.281 96.7921 404.281 99.6709C404.281 102.55 406.622 104.883 409.509 104.883Z" fill="url(#paint33_linear_725_4794)"/>
</g>
<mask id="mask17_725_4794" style="mask-type:alpha" maskUnits="userSpaceOnUse" x="434" y="94" width="12" height="11">
<path d="M439.79 104.883C442.678 104.883 445.019 102.55 445.019 99.6709C445.019 96.7921 442.678 94.4584 439.79 94.4584C436.903 94.4584 434.562 96.7921 434.562 99.6709C434.562 102.55 436.903 104.883 439.79 104.883Z" fill="url(#paint34_linear_725_4794)"/>
</mask>
<g mask="url(#mask17_725_4794)">
<path d="M439.79 104.883C442.678 104.883 445.019 102.55 445.019 99.6709C445.019 96.7921 442.678 94.4584 439.79 94.4584C436.903 94.4584 434.562 96.7921 434.562 99.6709C434.562 102.55 436.903 104.883 439.79 104.883Z" fill="url(#paint35_linear_725_4794)"/>
</g>
<mask id="mask18_725_4794" style="mask-type:alpha" maskUnits="userSpaceOnUse" x="464" y="94" width="12" height="11">
<path d="M470.072 104.883C472.959 104.883 475.3 102.55 475.3 99.6709C475.3 96.7921 472.959 94.4584 470.072 94.4584C467.184 94.4584 464.843 96.7921 464.843 99.6709C464.843 102.55 467.184 104.883 470.072 104.883Z" fill="url(#paint36_linear_725_4794)"/>
</mask>
<g mask="url(#mask18_725_4794)">
<path d="M470.072 104.883C472.959 104.883 475.3 102.55 475.3 99.6709C475.3 96.7921 472.959 94.4584 470.072 94.4584C467.184 94.4584 464.843 96.7921 464.843 99.6709C464.843 102.55 467.184 104.883 470.072 104.883Z" fill="url(#paint37_linear_725_4794)"/>
</g>
<mask id="mask19_725_4794" style="mask-type:alpha" maskUnits="userSpaceOnUse" x="495" y="94" width="11" height="11">
<path d="M500.353 104.883C503.24 104.883 505.581 102.55 505.581 99.6709C505.581 96.7921 503.24 94.4584 500.353 94.4584C497.465 94.4584 495.124 96.7921 495.124 99.6709C495.124 102.55 497.465 104.883 500.353 104.883Z" fill="url(#paint38_linear_725_4794)"/>
</mask>
<g mask="url(#mask19_725_4794)">
<path d="M500.353 104.883C503.24 104.883 505.581 102.55 505.581 99.6709C505.581 96.7921 503.24 94.4584 500.353 94.4584C497.465 94.4584 495.124 96.7921 495.124 99.6709C495.124 102.55 497.465 104.883 500.353 104.883Z" fill="url(#paint39_linear_725_4794)"/>
</g>
<mask id="mask20_725_4794" style="mask-type:alpha" maskUnits="userSpaceOnUse" x="374" y="120" width="11" height="11">
<path d="M379.228 131C382.116 131 384.457 128.666 384.457 125.788C384.457 122.909 382.116 120.575 379.228 120.575C376.341 120.575 374 122.909 374 125.788C374 128.666 376.341 131 379.228 131Z" fill="url(#paint40_linear_725_4794)"/>
</mask>
<g mask="url(#mask20_725_4794)">
<path d="M379.228 131C382.116 131 384.457 128.666 384.457 125.788C384.457 122.909 382.116 120.575 379.228 120.575C376.341 120.575 374 122.909 374 125.788C374 128.666 376.341 131 379.228 131Z" fill="url(#paint41_linear_725_4794)"/>
</g>
<mask id="mask21_725_4794" style="mask-type:alpha" maskUnits="userSpaceOnUse" x="404" y="120" width="11" height="11">
<path d="M409.509 131C412.397 131 414.738 128.666 414.738 125.788C414.738 122.909 412.397 120.575 409.509 120.575C406.622 120.575 404.281 122.909 404.281 125.788C404.281 128.666 406.622 131 409.509 131Z" fill="url(#paint42_linear_725_4794)"/>
</mask>
<g mask="url(#mask21_725_4794)">
<path d="M409.509 131C412.397 131 414.738 128.666 414.738 125.788C414.738 122.909 412.397 120.575 409.509 120.575C406.622 120.575 404.281 122.909 404.281 125.788C404.281 128.666 406.622 131 409.509 131Z" fill="url(#paint43_linear_725_4794)"/>
</g>
<mask id="mask22_725_4794" style="mask-type:alpha" maskUnits="userSpaceOnUse" x="434" y="120" width="12" height="11">
<path d="M439.79 131C442.678 131 445.019 128.666 445.019 125.788C445.019 122.909 442.678 120.575 439.79 120.575C436.903 120.575 434.562 122.909 434.562 125.788C434.562 128.666 436.903 131 439.79 131Z" fill="url(#paint44_linear_725_4794)"/>
</mask>
<g mask="url(#mask22_725_4794)">
<path d="M439.79 131C442.678 131 445.019 128.666 445.019 125.788C445.019 122.909 442.678 120.575 439.79 120.575C436.903 120.575 434.562 122.909 434.562 125.788C434.562 128.666 436.903 131 439.79 131Z" fill="url(#paint45_linear_725_4794)"/>
</g>
<mask id="mask23_725_4794" style="mask-type:alpha" maskUnits="userSpaceOnUse" x="464" y="120" width="12" height="11">
<path d="M470.072 131C472.959 131 475.3 128.666 475.3 125.788C475.3 122.909 472.959 120.575 470.072 120.575C467.184 120.575 464.843 122.909 464.843 125.788C464.843 128.666 467.184 131 470.072 131Z" fill="url(#paint46_linear_725_4794)"/>
</mask>
<g mask="url(#mask23_725_4794)">
<path d="M470.072 131C472.959 131 475.3 128.666 475.3 125.788C475.3 122.909 472.959 120.575 470.072 120.575C467.184 120.575 464.843 122.909 464.843 125.788C464.843 128.666 467.184 131 470.072 131Z" fill="url(#paint47_linear_725_4794)"/>
</g>
<mask id="mask24_725_4794" style="mask-type:alpha" maskUnits="userSpaceOnUse" x="495" y="120" width="11" height="11">
<path d="M500.353 131C503.24 131 505.581 128.666 505.581 125.788C505.581 122.909 503.24 120.575 500.353 120.575C497.465 120.575 495.124 122.909 495.124 125.788C495.124 128.666 497.465 131 500.353 131Z" fill="url(#paint48_linear_725_4794)"/>
</mask>
<g mask="url(#mask24_725_4794)">
<path d="M500.353 131C503.24 131 505.581 128.666 505.581 125.788C505.581 122.909 503.24 120.575 500.353 120.575C497.465 120.575 495.124 122.909 495.124 125.788C495.124 128.666 497.465 131 500.353 131Z" fill="url(#paint49_linear_725_4794)"/>
</g>
</g>
<g opacity="0.3">
<mask id="mask25_725_4794" style="mask-type:alpha" maskUnits="userSpaceOnUse" x="0" y="226" width="11" height="11">
<path d="M5.22838 236.425C8.11594 236.425 10.4568 234.091 10.4568 231.212C10.4568 228.334 8.11594 226 5.22838 226C2.34082 226 0 228.334 0 231.212C0 234.091 2.34082 236.425 5.22838 236.425Z" fill="url(#paint50_linear_725_4794)"/>
</mask>
<g mask="url(#mask25_725_4794)">
<path d="M5.22838 236.425C8.11594 236.425 10.4568 234.091 10.4568 231.212C10.4568 228.334 8.11594 226 5.22838 226C2.34082 226 0 228.334 0 231.212C0 234.091 2.34082 236.425 5.22838 236.425Z" fill="url(#paint51_linear_725_4794)"/>
</g>
<mask id="mask26_725_4794" style="mask-type:alpha" maskUnits="userSpaceOnUse" x="30" y="226" width="11" height="11">
<path d="M35.5094 236.425C38.397 236.425 40.7378 234.091 40.7378 231.212C40.7378 228.334 38.397 226 35.5094 226C32.6219 226 30.2811 228.334 30.2811 231.212C30.2811 234.091 32.6219 236.425 35.5094 236.425Z" fill="url(#paint52_linear_725_4794)"/>
</mask>
<g mask="url(#mask26_725_4794)">
<path d="M35.5094 236.425C38.397 236.425 40.7378 234.091 40.7378 231.212C40.7378 228.334 38.397 226 35.5094 226C32.6219 226 30.2811 228.334 30.2811 231.212C30.2811 234.091 32.6219 236.425 35.5094 236.425Z" fill="url(#paint53_linear_725_4794)"/>
</g>
<mask id="mask27_725_4794" style="mask-type:alpha" maskUnits="userSpaceOnUse" x="60" y="226" width="12" height="11">
<path d="M65.7905 236.425C68.6781 236.425 71.0189 234.091 71.0189 231.212C71.0189 228.334 68.6781 226 65.7905 226C62.9029 226 60.5621 228.334 60.5621 231.212C60.5621 234.091 62.9029 236.425 65.7905 236.425Z" fill="url(#paint54_linear_725_4794)"/>
</mask>
<g mask="url(#mask27_725_4794)">
<path d="M65.7905 236.425C68.6781 236.425 71.0189 234.091 71.0189 231.212C71.0189 228.334 68.6781 226 65.7905 226C62.9029 226 60.5621 228.334 60.5621 231.212C60.5621 234.091 62.9029 236.425 65.7905 236.425Z" fill="url(#paint55_linear_725_4794)"/>
</g>
<mask id="mask28_725_4794" style="mask-type:alpha" maskUnits="userSpaceOnUse" x="90" y="226" width="12" height="11">
<path d="M96.0716 236.425C98.9592 236.425 101.3 234.091 101.3 231.212C101.3 228.334 98.9592 226 96.0716 226C93.184 226 90.8432 228.334 90.8432 231.212C90.8432 234.091 93.184 236.425 96.0716 236.425Z" fill="url(#paint56_linear_725_4794)"/>
</mask>
<g mask="url(#mask28_725_4794)">
<path d="M96.0716 236.425C98.9592 236.425 101.3 234.091 101.3 231.212C101.3 228.334 98.9592 226 96.0716 226C93.184 226 90.8432 228.334 90.8432 231.212C90.8432 234.091 93.184 236.425 96.0716 236.425Z" fill="url(#paint57_linear_725_4794)"/>
</g>
<mask id="mask29_725_4794" style="mask-type:alpha" maskUnits="userSpaceOnUse" x="121" y="226" width="11" height="11">
<path d="M126.353 236.425C129.24 236.425 131.581 234.091 131.581 231.212C131.581 228.334 129.24 226 126.353 226C123.465 226 121.124 228.334 121.124 231.212C121.124 234.091 123.465 236.425 126.353 236.425Z" fill="url(#paint58_linear_725_4794)"/>
</mask>
<g mask="url(#mask29_725_4794)">
<path d="M126.353 236.425C129.24 236.425 131.581 234.091 131.581 231.212C131.581 228.334 129.24 226 126.353 226C123.465 226 121.124 228.334 121.124 231.212C121.124 234.091 123.465 236.425 126.353 236.425Z" fill="url(#paint59_linear_725_4794)"/>
</g>
<mask id="mask30_725_4794" style="mask-type:alpha" maskUnits="userSpaceOnUse" x="0" y="252" width="11" height="11">
<path d="M5.22838 262.596C8.11594 262.596 10.4568 260.262 10.4568 257.383C10.4568 254.505 8.11594 252.171 5.22838 252.171C2.34082 252.171 0 254.505 0 257.383C0 260.262 2.34082 262.596 5.22838 262.596Z" fill="url(#paint60_linear_725_4794)"/>
</mask>
<g mask="url(#mask30_725_4794)">
<path d="M5.22838 262.596C8.11594 262.596 10.4568 260.262 10.4568 257.383C10.4568 254.505 8.11594 252.171 5.22838 252.171C2.34082 252.171 0 254.505 0 257.383C0 260.262 2.34082 262.596 5.22838 262.596Z" fill="url(#paint61_linear_725_4794)"/>
</g>
<mask id="mask31_725_4794" style="mask-type:alpha" maskUnits="userSpaceOnUse" x="30" y="252" width="11" height="11">
<path d="M35.5094 262.596C38.397 262.596 40.7378 260.262 40.7378 257.383C40.7378 254.505 38.397 252.171 35.5094 252.171C32.6219 252.171 30.2811 254.505 30.2811 257.383C30.2811 260.262 32.6219 262.596 35.5094 262.596Z" fill="url(#paint62_linear_725_4794)"/>
</mask>
<g mask="url(#mask31_725_4794)">
<path d="M35.5094 262.596C38.397 262.596 40.7378 260.262 40.7378 257.383C40.7378 254.505 38.397 252.171 35.5094 252.171C32.6219 252.171 30.2811 254.505 30.2811 257.383C30.2811 260.262 32.6219 262.596 35.5094 262.596Z" fill="url(#paint63_linear_725_4794)"/>
</g>
<mask id="mask32_725_4794" style="mask-type:alpha" maskUnits="userSpaceOnUse" x="60" y="252" width="12" height="11">
<path d="M65.7905 262.596C68.6781 262.596 71.0189 260.262 71.0189 257.383C71.0189 254.505 68.6781 252.171 65.7905 252.171C62.9029 252.171 60.5621 254.505 60.5621 257.383C60.5621 260.262 62.9029 262.596 65.7905 262.596Z" fill="url(#paint64_linear_725_4794)"/>
</mask>
<g mask="url(#mask32_725_4794)">
<path d="M65.7905 262.596C68.6781 262.596 71.0189 260.262 71.0189 257.383C71.0189 254.505 68.6781 252.171 65.7905 252.171C62.9029 252.171 60.5621 254.505 60.5621 257.383C60.5621 260.262 62.9029 262.596 65.7905 262.596Z" fill="url(#paint65_linear_725_4794)"/>
</g>
<mask id="mask33_725_4794" style="mask-type:alpha" maskUnits="userSpaceOnUse" x="90" y="252" width="12" height="11">
<path d="M96.0716 262.596C98.9592 262.596 101.3 260.262 101.3 257.383C101.3 254.505 98.9592 252.171 96.0716 252.171C93.184 252.171 90.8432 254.505 90.8432 257.383C90.8432 260.262 93.184 262.596 96.0716 262.596Z" fill="url(#paint66_linear_725_4794)"/>
</mask>
<g mask="url(#mask33_725_4794)">
<path d="M96.0716 262.596C98.9592 262.596 101.3 260.262 101.3 257.383C101.3 254.505 98.9592 252.171 96.0716 252.171C93.184 252.171 90.8432 254.505 90.8432 257.383C90.8432 260.262 93.184 262.596 96.0716 262.596Z" fill="url(#paint67_linear_725_4794)"/>
</g>
<mask id="mask34_725_4794" style="mask-type:alpha" maskUnits="userSpaceOnUse" x="121" y="252" width="11" height="11">
<path d="M126.353 262.596C129.24 262.596 131.581 260.262 131.581 257.383C131.581 254.505 129.24 252.171 126.353 252.171C123.465 252.171 121.124 254.505 121.124 257.383C121.124 260.262 123.465 262.596 126.353 262.596Z" fill="url(#paint68_linear_725_4794)"/>
</mask>
<g mask="url(#mask34_725_4794)">
<path d="M126.353 262.596C129.24 262.596 131.581 260.262 131.581 257.383C131.581 254.505 129.24 252.171 126.353 252.171C123.465 252.171 121.124 254.505 121.124 257.383C121.124 260.262 123.465 262.596 126.353 262.596Z" fill="url(#paint69_linear_725_4794)"/>
</g>
<mask id="mask35_725_4794" style="mask-type:alpha" maskUnits="userSpaceOnUse" x="0" y="278" width="11" height="11">
<path d="M5.22838 288.712C8.11594 288.712 10.4568 286.379 10.4568 283.5C10.4568 280.621 8.11594 278.288 5.22838 278.288C2.34082 278.288 0 280.621 0 283.5C0 286.379 2.34082 288.712 5.22838 288.712Z" fill="url(#paint70_linear_725_4794)"/>
</mask>
<g mask="url(#mask35_725_4794)">
<path d="M5.22838 288.712C8.11594 288.712 10.4568 286.379 10.4568 283.5C10.4568 280.621 8.11594 278.288 5.22838 278.288C2.34082 278.288 0 280.621 0 283.5C0 286.379 2.34082 288.712 5.22838 288.712Z" fill="url(#paint71_linear_725_4794)"/>
</g>
<mask id="mask36_725_4794" style="mask-type:alpha" maskUnits="userSpaceOnUse" x="30" y="278" width="11" height="11">
<path d="M35.5094 288.712C38.397 288.712 40.7378 286.379 40.7378 283.5C40.7378 280.621 38.397 278.288 35.5094 278.288C32.6219 278.288 30.2811 280.621 30.2811 283.5C30.2811 286.379 32.6219 288.712 35.5094 288.712Z" fill="url(#paint72_linear_725_4794)"/>
</mask>
<g mask="url(#mask36_725_4794)">
<path d="M35.5094 288.712C38.397 288.712 40.7378 286.379 40.7378 283.5C40.7378 280.621 38.397 278.288 35.5094 278.288C32.6219 278.288 30.2811 280.621 30.2811 283.5C30.2811 286.379 32.6219 288.712 35.5094 288.712Z" fill="url(#paint73_linear_725_4794)"/>
</g>
<mask id="mask37_725_4794" style="mask-type:alpha" maskUnits="userSpaceOnUse" x="60" y="278" width="12" height="11">
<path d="M65.7905 288.712C68.6781 288.712 71.0189 286.379 71.0189 283.5C71.0189 280.621 68.6781 278.288 65.7905 278.288C62.9029 278.288 60.5621 280.621 60.5621 283.5C60.5621 286.379 62.9029 288.712 65.7905 288.712Z" fill="url(#paint74_linear_725_4794)"/>
</mask>
<g mask="url(#mask37_725_4794)">
<path d="M65.7905 288.712C68.6781 288.712 71.0189 286.379 71.0189 283.5C71.0189 280.621 68.6781 278.288 65.7905 278.288C62.9029 278.288 60.5621 280.621 60.5621 283.5C60.5621 286.379 62.9029 288.712 65.7905 288.712Z" fill="url(#paint75_linear_725_4794)"/>
</g>
<mask id="mask38_725_4794" style="mask-type:alpha" maskUnits="userSpaceOnUse" x="90" y="278" width="12" height="11">
<path d="M96.0716 288.712C98.9592 288.712 101.3 286.379 101.3 283.5C101.3 280.621 98.9592 278.288 96.0716 278.288C93.184 278.288 90.8432 280.621 90.8432 283.5C90.8432 286.379 93.184 288.712 96.0716 288.712Z" fill="url(#paint76_linear_725_4794)"/>
</mask>
<g mask="url(#mask38_725_4794)">
<path d="M96.0716 288.712C98.9592 288.712 101.3 286.379 101.3 283.5C101.3 280.621 98.9592 278.288 96.0716 278.288C93.184 278.288 90.8432 280.621 90.8432 283.5C90.8432 286.379 93.184 288.712 96.0716 288.712Z" fill="url(#paint77_linear_725_4794)"/>
</g>
<mask id="mask39_725_4794" style="mask-type:alpha" maskUnits="userSpaceOnUse" x="121" y="278" width="11" height="11">
<path d="M126.353 288.712C129.24 288.712 131.581 286.379 131.581 283.5C131.581 280.621 129.24 278.288 126.353 278.288C123.465 278.288 121.124 280.621 121.124 283.5C121.124 286.379 123.465 288.712 126.353 288.712Z" fill="url(#paint78_linear_725_4794)"/>
</mask>
<g mask="url(#mask39_725_4794)">
<path d="M126.353 288.712C129.24 288.712 131.581 286.379 131.581 283.5C131.581 280.621 129.24 278.288 126.353 278.288C123.465 278.288 121.124 280.621 121.124 283.5C121.124 286.379 123.465 288.712 126.353 288.712Z" fill="url(#paint79_linear_725_4794)"/>
</g>
<mask id="mask40_725_4794" style="mask-type:alpha" maskUnits="userSpaceOnUse" x="0" y="304" width="11" height="11">
<path d="M5.22838 314.883C8.11594 314.883 10.4568 312.55 10.4568 309.671C10.4568 306.792 8.11594 304.458 5.22838 304.458C2.34082 304.458 0 306.792 0 309.671C0 312.55 2.34082 314.883 5.22838 314.883Z" fill="url(#paint80_linear_725_4794)"/>
</mask>
<g mask="url(#mask40_725_4794)">
<path d="M5.22838 314.883C8.11594 314.883 10.4568 312.55 10.4568 309.671C10.4568 306.792 8.11594 304.458 5.22838 304.458C2.34082 304.458 0 306.792 0 309.671C0 312.55 2.34082 314.883 5.22838 314.883Z" fill="url(#paint81_linear_725_4794)"/>
</g>
<mask id="mask41_725_4794" style="mask-type:alpha" maskUnits="userSpaceOnUse" x="30" y="304" width="11" height="11">
<path d="M35.5094 314.883C38.397 314.883 40.7378 312.55 40.7378 309.671C40.7378 306.792 38.397 304.458 35.5094 304.458C32.6219 304.458 30.2811 306.792 30.2811 309.671C30.2811 312.55 32.6219 314.883 35.5094 314.883Z" fill="url(#paint82_linear_725_4794)"/>
</mask>
<g mask="url(#mask41_725_4794)">
<path d="M35.5094 314.883C38.397 314.883 40.7378 312.55 40.7378 309.671C40.7378 306.792 38.397 304.458 35.5094 304.458C32.6219 304.458 30.2811 306.792 30.2811 309.671C30.2811 312.55 32.6219 314.883 35.5094 314.883Z" fill="url(#paint83_linear_725_4794)"/>
</g>
<mask id="mask42_725_4794" style="mask-type:alpha" maskUnits="userSpaceOnUse" x="60" y="304" width="12" height="11">
<path d="M65.7905 314.883C68.6781 314.883 71.0189 312.55 71.0189 309.671C71.0189 306.792 68.6781 304.458 65.7905 304.458C62.9029 304.458 60.5621 306.792 60.5621 309.671C60.5621 312.55 62.9029 314.883 65.7905 314.883Z" fill="url(#paint84_linear_725_4794)"/>
</mask>
<g mask="url(#mask42_725_4794)">
<path d="M65.7905 314.883C68.6781 314.883 71.0189 312.55 71.0189 309.671C71.0189 306.792 68.6781 304.458 65.7905 304.458C62.9029 304.458 60.5621 306.792 60.5621 309.671C60.5621 312.55 62.9029 314.883 65.7905 314.883Z" fill="url(#paint85_linear_725_4794)"/>
</g>
<mask id="mask43_725_4794" style="mask-type:alpha" maskUnits="userSpaceOnUse" x="90" y="304" width="12" height="11">
<path d="M96.0716 314.883C98.9592 314.883 101.3 312.55 101.3 309.671C101.3 306.792 98.9592 304.458 96.0716 304.458C93.184 304.458 90.8432 306.792 90.8432 309.671C90.8432 312.55 93.184 314.883 96.0716 314.883Z" fill="url(#paint86_linear_725_4794)"/>
</mask>
<g mask="url(#mask43_725_4794)">
<path d="M96.0716 314.883C98.9592 314.883 101.3 312.55 101.3 309.671C101.3 306.792 98.9592 304.458 96.0716 304.458C93.184 304.458 90.8432 306.792 90.8432 309.671C90.8432 312.55 93.184 314.883 96.0716 314.883Z" fill="url(#paint87_linear_725_4794)"/>
</g>
<mask id="mask44_725_4794" style="mask-type:alpha" maskUnits="userSpaceOnUse" x="121" y="304" width="11" height="11">
<path d="M126.353 314.883C129.24 314.883 131.581 312.55 131.581 309.671C131.581 306.792 129.24 304.458 126.353 304.458C123.465 304.458 121.124 306.792 121.124 309.671C121.124 312.55 123.465 314.883 126.353 314.883Z" fill="url(#paint88_linear_725_4794)"/>
</mask>
<g mask="url(#mask44_725_4794)">
<path d="M126.353 314.883C129.24 314.883 131.581 312.55 131.581 309.671C131.581 306.792 129.24 304.458 126.353 304.458C123.465 304.458 121.124 306.792 121.124 309.671C121.124 312.55 123.465 314.883 126.353 314.883Z" fill="url(#paint89_linear_725_4794)"/>
</g>
<mask id="mask45_725_4794" style="mask-type:alpha" maskUnits="userSpaceOnUse" x="0" y="330" width="11" height="11">
<path d="M5.22838 341C8.11594 341 10.4568 338.666 10.4568 335.788C10.4568 332.909 8.11594 330.575 5.22838 330.575C2.34082 330.575 0 332.909 0 335.788C0 338.666 2.34082 341 5.22838 341Z" fill="url(#paint90_linear_725_4794)"/>
</mask>
<g mask="url(#mask45_725_4794)">
<path d="M5.22838 341C8.11594 341 10.4568 338.666 10.4568 335.788C10.4568 332.909 8.11594 330.575 5.22838 330.575C2.34082 330.575 0 332.909 0 335.788C0 338.666 2.34082 341 5.22838 341Z" fill="url(#paint91_linear_725_4794)"/>
</g>
<mask id="mask46_725_4794" style="mask-type:alpha" maskUnits="userSpaceOnUse" x="30" y="330" width="11" height="11">
<path d="M35.5094 341C38.397 341 40.7378 338.666 40.7378 335.788C40.7378 332.909 38.397 330.575 35.5094 330.575C32.6219 330.575 30.2811 332.909 30.2811 335.788C30.2811 338.666 32.6219 341 35.5094 341Z" fill="url(#paint92_linear_725_4794)"/>
</mask>
<g mask="url(#mask46_725_4794)">
<path d="M35.5094 341C38.397 341 40.7378 338.666 40.7378 335.788C40.7378 332.909 38.397 330.575 35.5094 330.575C32.6219 330.575 30.2811 332.909 30.2811 335.788C30.2811 338.666 32.6219 341 35.5094 341Z" fill="url(#paint93_linear_725_4794)"/>
</g>
<mask id="mask47_725_4794" style="mask-type:alpha" maskUnits="userSpaceOnUse" x="60" y="330" width="12" height="11">
<path d="M65.7905 341C68.6781 341 71.0189 338.666 71.0189 335.788C71.0189 332.909 68.6781 330.575 65.7905 330.575C62.9029 330.575 60.5621 332.909 60.5621 335.788C60.5621 338.666 62.9029 341 65.7905 341Z" fill="url(#paint94_linear_725_4794)"/>
</mask>
<g mask="url(#mask47_725_4794)">
<path d="M65.7905 341C68.6781 341 71.0189 338.666 71.0189 335.788C71.0189 332.909 68.6781 330.575 65.7905 330.575C62.9029 330.575 60.5621 332.909 60.5621 335.788C60.5621 338.666 62.9029 341 65.7905 341Z" fill="url(#paint95_linear_725_4794)"/>
</g>
<mask id="mask48_725_4794" style="mask-type:alpha" maskUnits="userSpaceOnUse" x="90" y="330" width="12" height="11">
<path d="M96.0716 341C98.9592 341 101.3 338.666 101.3 335.788C101.3 332.909 98.9592 330.575 96.0716 330.575C93.184 330.575 90.8432 332.909 90.8432 335.788C90.8432 338.666 93.184 341 96.0716 341Z" fill="url(#paint96_linear_725_4794)"/>
</mask>
<g mask="url(#mask48_725_4794)">
<path d="M96.0716 341C98.9592 341 101.3 338.666 101.3 335.788C101.3 332.909 98.9592 330.575 96.0716 330.575C93.184 330.575 90.8432 332.909 90.8432 335.788C90.8432 338.666 93.184 341 96.0716 341Z" fill="url(#paint97_linear_725_4794)"/>
</g>
<mask id="mask49_725_4794" style="mask-type:alpha" maskUnits="userSpaceOnUse" x="121" y="330" width="11" height="11">
<path d="M126.353 341C129.24 341 131.581 338.666 131.581 335.788C131.581 332.909 129.24 330.575 126.353 330.575C123.465 330.575 121.124 332.909 121.124 335.788C121.124 338.666 123.465 341 126.353 341Z" fill="url(#paint98_linear_725_4794)"/>
</mask>
<g mask="url(#mask49_725_4794)">
<path d="M126.353 341C129.24 341 131.581 338.666 131.581 335.788C131.581 332.909 129.24 330.575 126.353 330.575C123.465 330.575 121.124 332.909 121.124 335.788C121.124 338.666 123.465 341 126.353 341Z" fill="url(#paint99_linear_725_4794)"/>
</g>
</g>
<g clip-path="url(#clip0_725_4794)">
<path d="M364.936 218.472V324.826L382.732 353.818L384.086 356.023H454.303L455.722 218.472H364.936Z" fill="#E6E6E6"/>
<path opacity="0.1" d="M364.936 218.472V324.826L382.732 353.818L383.824 218.472H364.936Z" fill="black"/>
<path d="M195.421 215.635V321.99L177.626 350.982L176.271 353.186H106.054L104.635 215.635H195.421Z" fill="#E6E6E6"/>
<path opacity="0.1" d="M195.421 215.635V321.99L177.626 350.982L176.534 215.635H195.421Z" fill="black"/>
<path d="M477 213.509V219.89H95.4147V210.672L130.878 192.238H445.793L477 213.509Z" fill="#E6E6E6"/>
<path opacity="0.1" d="M477 213.509V219.89H95.4147V210.672L477 213.509Z" fill="black"/>
<path d="M150.029 245.415H133.006L125.913 240.452H157.83L150.029 245.415Z" fill="#3D4756"/>
<path d="M150.029 265.977H133.006L125.913 261.013H157.83L150.029 265.977Z" fill="#3D4756"/>
<path d="M150.029 295.047H133.006L125.913 290.083H157.83L150.029 295.047Z" fill="#3D4756"/>
<path d="M150.029 324.117H133.006L125.913 319.154H157.83L150.029 324.117Z" fill="#3D4756"/>
<path d="M410.329 248.251H427.352L434.444 243.288H402.527L410.329 248.251Z" fill="#3D4756"/>
<path d="M410.329 268.812H427.352L434.444 263.849H402.527L410.329 268.812Z" fill="#3D4756"/>
<path d="M410.329 297.883H427.352L434.444 292.92H402.527L410.329 297.883Z" fill="#3D4756"/>
<path d="M410.329 326.953H427.352L434.444 321.99H402.527L410.329 326.953Z" fill="#3D4756"/>
<path d="M421.921 69.2502H278.616C277.904 69.2501 277.199 69.3902 276.542 69.6624C275.884 69.9346 275.287 70.3337 274.783 70.8368C274.28 71.3399 273.881 71.9372 273.609 72.5946C273.336 73.2519 273.196 73.9565 273.196 74.668V171.169C273.196 171.881 273.336 172.585 273.609 173.243C273.881 173.9 274.28 174.497 274.783 175C275.287 175.503 275.884 175.903 276.542 176.175C277.199 176.447 277.904 176.587 278.616 176.587H333.016L330.978 189.595C330.978 189.595 319.33 195.78 327.52 195.962C335.709 196.144 374.291 195.962 374.291 195.962C374.291 195.962 381.752 195.962 369.923 189.413L368.006 176.587H421.921C422.633 176.587 423.337 176.447 423.995 176.175C424.653 175.903 425.25 175.504 425.753 175C426.257 174.497 426.656 173.9 426.928 173.243C427.2 172.585 427.341 171.881 427.341 171.169V74.668C427.341 73.9565 427.2 73.2519 426.928 72.5946C426.656 71.9372 426.257 71.3399 425.753 70.8368C425.25 70.3337 424.653 69.9346 423.995 69.6624C423.337 69.3902 422.633 69.2501 421.921 69.2502Z" fill="#3D4756"/>
<path d="M422.154 74.9809H278.383V155.393H422.154V74.9809Z" fill="#C9E2FF"/>
<path d="M350.268 73.3436C350.771 73.3436 351.178 72.9363 351.178 72.4339C351.178 71.9315 350.771 71.5243 350.268 71.5243C349.766 71.5243 349.358 71.9315 349.358 72.4339C349.358 72.9363 349.766 73.3436 350.268 73.3436Z" fill="#C9E2FF"/>
<path d="M350.268 172.676C352.178 172.676 353.726 171.128 353.726 169.219C353.726 167.31 352.178 165.762 350.268 165.762C348.359 165.762 346.811 167.31 346.811 169.219C346.811 171.128 348.359 172.676 350.268 172.676Z" fill="#C9E2FF"/>
<path d="M344.88 205.786V207.606H246.97V206.15L247.105 205.786L249.518 199.237H342.878L344.88 205.786Z" fill="#3D4756"/>
<path d="M382.559 204.005C382.381 204.768 381.707 205.572 380.186 206.332C374.726 209.061 363.625 205.604 363.625 205.604C363.625 205.604 355.071 204.149 355.071 200.329C355.312 200.164 355.562 200.015 355.821 199.883C358.117 198.669 365.727 195.673 379.222 200.01C380.216 200.322 381.104 200.903 381.787 201.69C382.09 201.987 382.317 202.352 382.452 202.755C382.586 203.157 382.623 203.586 382.559 204.005Z" fill="#3D4756"/>
<path opacity="0.1" d="M382.559 204.005C375.876 206.565 369.92 206.756 363.807 202.512C361.495 200.803 358.696 199.882 355.821 199.883C358.117 198.669 365.727 195.673 379.222 200.01C380.216 200.322 381.104 200.903 381.787 201.69C382.09 201.988 382.317 202.352 382.452 202.755C382.586 203.157 382.623 203.586 382.559 204.005Z" fill="black"/>
<path d="M374.18 202.512C375.487 202.512 376.546 202.186 376.546 201.784C376.546 201.382 375.487 201.056 374.18 201.056C372.874 201.056 371.814 201.382 371.814 201.784C371.814 202.186 372.874 202.512 374.18 202.512Z" fill="#C9E2FF"/>
<path opacity="0.1" d="M344.88 205.786V207.606H246.97V206.15L247.105 205.786H344.88Z" fill="black"/>
<path d="M122.439 7.67708e-05C121.446 -0.0814807 120.451 0.140721 119.586 0.637237C118.737 1.21835 118.202 2.23639 117.656 3.18373C115.568 6.84907 112.741 10.041 109.355 12.5573C106.889 14.3636 103.753 16.6159 104.175 19.9463C104.397 21.0461 104.804 22.1006 105.377 23.0654C107.652 27.6571 113.862 31.2055 113.251 36.4451C115.512 32.6617 112.488 30.7909 114.748 27.0076C115.825 25.2059 117.695 23.172 119.321 24.3035C119.865 24.6824 120.222 25.3619 120.789 25.6943C122.141 26.4875 123.58 24.9711 124.777 23.897C128.904 20.1931 134.774 21.1635 139.91 22.3175C142.334 22.8623 144.998 23.5771 146.431 25.8938C148.316 28.9397 144.64 32.2294 143.712 35.6731C143.636 35.9665 143.633 36.2739 143.701 36.5691C143.77 36.8642 143.91 37.1382 144.108 37.3677C144.306 37.5973 144.556 37.7754 144.838 37.887C145.12 37.9986 145.425 38.0402 145.726 38.0084C147.268 37.8564 149.093 37.7319 149.184 37.0558C151.123 37.1248 153.499 36.9053 154.33 34.887C154.584 34.0885 154.718 33.2567 154.728 32.4189C155.033 29.0286 156.472 25.9356 157.426 22.7089C158.38 19.4821 158.794 15.7006 157.185 12.8397C156.611 11.8878 155.9 11.0249 155.077 10.2782C145.945 1.44386 133.938 -0.0130367 122.439 7.67708e-05Z" fill="#2E3441"/>
<path d="M115.237 43.063C115.237 43.063 117.223 59.6076 109.941 60.9312C102.659 62.2548 116.561 84.7556 116.561 84.7556L149.662 88.7263L141.717 62.2548C141.717 62.2548 136.421 60.2694 139.731 47.0337C143.041 33.7979 115.237 43.063 115.237 43.063Z" fill="#FFB8B8"/>
<path d="M95.0455 327.3L97.6938 363.699H111.596L107.624 327.3H95.0455Z" fill="#FFB8B8"/>
<path d="M196.995 258.475L198.981 288.917L214.208 282.299L208.249 257.151L196.995 258.475Z" fill="#FFB8B8"/>
<path d="M85.1154 188.325C85.1154 188.325 85.7774 226.709 89.7495 239.283C93.7216 251.857 93.0595 252.519 92.3975 254.504C91.7355 256.489 91.0735 255.166 91.0735 258.475C91.0735 261.784 89.7495 314.065 91.0735 318.697C92.3975 323.33 87.1014 331.271 91.0735 331.933C95.0456 332.595 113.582 331.933 114.244 327.962C114.906 323.992 108.948 322.668 111.596 320.021C114.244 317.374 118.216 263.107 118.216 263.107L127.484 225.385L144.696 205.532H181.107L192.361 249.21C192.361 249.21 187.727 261.784 191.037 261.784C194.347 261.784 214.208 265.754 214.208 251.195C214.208 236.636 207.588 193.62 206.264 192.296C204.94 190.972 206.926 186.34 204.939 184.355C202.953 182.369 179.783 168.472 171.177 165.825C162.571 163.177 150.498 160.027 150.498 160.027L85.1154 188.325Z" fill="#2E3441"/>
<path d="M214.208 277.005C214.208 277.005 204.277 273.696 199.643 283.623C195.009 293.549 196.995 296.197 196.995 296.197C196.995 296.197 212.222 301.491 214.87 298.844C216.022 297.692 219.68 297.292 223.446 297.207C229.181 297.079 230.707 288.967 225.29 287.078C225.129 287.022 224.965 286.973 224.8 286.932C219.504 285.608 214.208 277.005 214.208 277.005Z" fill="#2E3441"/>
<path d="M130.132 53.9824C141.101 53.9824 149.993 45.0937 149.993 34.1288C149.993 23.164 141.101 14.2752 130.132 14.2752C119.164 14.2752 110.272 23.164 110.272 34.1288C110.272 45.0937 119.164 53.9824 130.132 53.9824Z" fill="#FFB8B8"/>
<path d="M104.314 69.2035C104.314 69.2035 136.752 75.8214 144.696 65.2328C152.641 54.6442 155.951 95.0132 155.951 95.0132L159.923 137.368L153.965 160.53C153.965 160.53 122.85 185.678 112.92 187.663C102.99 189.649 87.7634 190.972 87.7634 190.972C87.7634 190.972 92.3975 117.514 92.3975 116.19C92.3975 114.867 104.314 69.2035 104.314 69.2035Z" fill="#458FF6"/>
<path d="M114.179 56.7919C114.179 56.7919 106.962 52.6589 104.976 56.6296C102.99 60.6003 84.4534 70.5271 82.4673 70.5271C80.4813 70.5271 86.4394 125.455 83.7914 132.073C81.1433 138.691 68.5651 187.002 75.8472 190.972C83.1293 194.943 77.8333 187.002 85.1154 196.928C92.3975 206.855 128.146 206.855 130.132 202.885C132.118 198.914 114.244 169.133 117.554 141.338C120.864 113.543 126.16 75.1596 121.526 69.8653C116.892 64.571 114.179 56.7919 114.179 56.7919Z" fill="#2E3441"/>
<path d="M138.076 61.2621L138.998 58.0898C138.998 58.0898 166.543 67.2182 167.867 73.1743C169.191 79.1303 168.529 120.823 163.895 124.132C159.261 127.441 152.641 132.735 157.275 140.677C161.909 148.618 167.205 157.221 171.177 157.883C175.149 158.545 182.431 163.177 180.445 167.81C178.459 172.442 154.627 163.839 154.627 163.839C154.627 163.839 138.738 151.927 139.4 133.397C140.062 114.867 138.076 61.2621 138.076 61.2621Z" fill="#2E3441"/>
<path d="M161.247 139.353L145.358 169.133C145.358 169.133 122.188 192.958 135.428 195.605C148.669 198.252 155.951 173.766 155.951 173.766L173.163 149.28L161.247 139.353Z" fill="#FFB8B8"/>
<path d="M123.407 5.19476C122.606 5.13546 121.804 5.29093 121.084 5.6451C120.433 6.12058 119.896 6.7355 119.513 7.44494C117.747 10.1001 115.446 12.3568 112.756 14.0701C110.748 15.3468 108.195 16.9387 108.539 19.2926C108.725 20.0818 109.057 20.8294 109.517 21.4971C111.376 24.7753 112.116 28.5696 111.625 32.3056L117.146 24.2835C118.023 23.0101 119.545 21.5726 120.868 22.3723C121.311 22.6401 121.602 23.1203 122.063 23.3553C123.164 23.9159 124.335 22.8441 125.31 22.0849C128.669 19.4671 133.447 20.1529 137.628 20.9686C139.602 21.3536 141.77 21.8588 142.937 23.4963C144.876 26.2173 142.851 30.1491 143.983 33.2925C144.3 33.0708 144.569 32.7878 144.774 32.4602C144.98 32.1326 145.117 31.7672 145.178 31.3855C146.757 31.4343 148.691 31.2791 149.367 29.8526C149.573 29.2935 149.682 28.7037 149.691 28.1081C149.939 25.7119 151.111 23.5258 151.887 21.2452C152.664 18.9645 153.001 16.2917 151.691 14.2697C151.212 13.5846 150.634 12.9744 149.975 12.4592C142.541 6.2152 132.767 5.18549 123.407 5.19476Z" fill="#2E3441"/>
<path d="M161.247 70.5271L167.415 72.1638C167.415 72.1638 181.769 108.911 178.459 134.059C175.149 159.207 173.163 153.912 173.163 153.912C173.163 153.912 167.867 142 155.951 144.647L161.247 70.5271Z" fill="#2E3441"/>
<path d="M95.9627 358.888C94.3663 361.057 94.6864 364.157 93.2723 366.449C92.0465 368.435 89.7364 369.477 88.2032 371.237C87.714 371.822 87.2778 372.449 86.8999 373.111C85.4777 375.493 84.3216 378.545 85.7224 380.939C86.8492 382.865 89.2177 383.618 91.3899 384.131C94.1355 384.779 96.9881 385.298 99.7653 384.803C102.543 384.307 105.257 382.607 106.247 379.967C106.442 379.303 106.673 378.65 106.94 378.012C108.445 375.049 113.167 375.017 114.707 372.073C115.786 370.012 114.795 367.522 113.804 365.418L110.778 358.992C109.774 356.86 105.704 358.086 103.582 357.575C100.814 356.909 97.9537 356.175 95.9627 358.888Z" fill="#2E3441"/>
<path d="M73.8612 152.589L101.666 195.605C101.666 195.605 118.878 217.444 124.174 207.517C129.47 197.59 105.638 181.046 105.638 181.046L87.7634 147.956L73.8612 152.589Z" fill="#FFB8B8"/>
<path d="M87.7634 71.8507L82.4673 70.5271C82.4673 70.5271 71.8751 73.836 69.2271 87.7336C66.579 101.631 68.5651 157.221 71.8751 157.883C75.1852 158.545 88.2235 148.204 90.3105 150.396C92.3975 152.589 85.7774 141.338 87.7634 135.382C89.7494 129.426 87.7634 71.8507 87.7634 71.8507Z" fill="#2E3441"/>
<path d="M336.661 101.391H319.55V105.509H336.661V101.391Z" fill="#458FF6"/>
<path d="M395.913 101.391H389.893V105.509H395.913V101.391Z" fill="#458FF6"/>
<path d="M407.954 101.391H401.934V105.509H407.954V101.391Z" fill="#458FF6"/>
<path d="M383.556 101.391H342.681V105.509H383.556V101.391Z" fill="#458FF6"/>
<path d="M315.114 127.998H298.004V132.116H315.114V127.998Z" fill="#458FF6"/>
<path d="M374.367 127.998H368.346V132.116H374.367V127.998Z" fill="#458FF6"/>
<path d="M386.407 127.998H380.387V132.116H386.407V127.998Z" fill="#458FF6"/>
<path d="M362.009 127.998H321.134V132.116H362.009V127.998Z" fill="#458FF6"/>
<path d="M385.774 110.577H368.663V114.694H385.774V110.577Z" fill="#458FF6"/>
<path d="M408.904 110.577H391.794V114.694H408.904V110.577Z" fill="#458FF6"/>
<path d="M304.024 110.577H298.004V114.694H304.024V110.577Z" fill="#458FF6"/>
<path d="M316.065 110.577H310.044V114.694H316.065V110.577Z" fill="#458FF6"/>
<path d="M362.96 110.577H322.085V114.694H362.96V110.577Z" fill="#458FF6"/>
<path d="M350.286 119.446H333.175V123.563H350.286V119.446Z" fill="#458FF6"/>
<path d="M327.155 119.446H310.044V123.563H327.155V119.446Z" fill="#458FF6"/>
<path d="M304.024 119.446H298.004V123.563H304.024V119.446Z" fill="#458FF6"/>
<path d="M408.904 119.446H402.884V123.563H408.904V119.446Z" fill="#458FF6"/>
<path d="M396.864 119.446H355.989V123.563H396.864V119.446Z" fill="#458FF6"/>
</g>
<defs>
<linearGradient id="paint0_linear_725_4794" x1="428.996" y1="147.134" x2="357.594" y2="-34.67" gradientUnits="userSpaceOnUse">
<stop/>
<stop offset="1" stop-color="white"/>
</linearGradient>
<linearGradient id="paint1_linear_725_4794" x1="428.996" y1="147.134" x2="357.594" y2="-34.67" gradientUnits="userSpaceOnUse">
<stop stop-color="#97C3F9"/>
<stop offset="1" stop-color="#93C1F9"/>
</linearGradient>
<linearGradient id="paint2_linear_725_4794" x1="455.201" y1="136.843" x2="383.799" y2="-44.9613" gradientUnits="userSpaceOnUse">
<stop/>
<stop offset="1" stop-color="white"/>
</linearGradient>
<linearGradient id="paint3_linear_725_4794" x1="455.201" y1="136.843" x2="383.799" y2="-44.9613" gradientUnits="userSpaceOnUse">
<stop stop-color="#97C3F9"/>
<stop offset="1" stop-color="#93C1F9"/>
</linearGradient>
<linearGradient id="paint4_linear_725_4794" x1="481.405" y1="126.551" x2="410.003" y2="-55.2526" gradientUnits="userSpaceOnUse">
<stop/>
<stop offset="1" stop-color="white"/>
</linearGradient>
<linearGradient id="paint5_linear_725_4794" x1="481.405" y1="126.551" x2="410.003" y2="-55.2526" gradientUnits="userSpaceOnUse">
<stop stop-color="#97C3F9"/>
<stop offset="1" stop-color="#93C1F9"/>
</linearGradient>
<linearGradient id="paint6_linear_725_4794" x1="507.609" y1="116.259" x2="436.208" y2="-65.5444" gradientUnits="userSpaceOnUse">
<stop/>
<stop offset="1" stop-color="white"/>
</linearGradient>
<linearGradient id="paint7_linear_725_4794" x1="507.609" y1="116.259" x2="436.208" y2="-65.5444" gradientUnits="userSpaceOnUse">
<stop stop-color="#97C3F9"/>
<stop offset="1" stop-color="#93C1F9"/>
</linearGradient>
<linearGradient id="paint8_linear_725_4794" x1="533.813" y1="105.968" x2="462.412" y2="-75.8359" gradientUnits="userSpaceOnUse">
<stop/>
<stop offset="1" stop-color="white"/>
</linearGradient>
<linearGradient id="paint9_linear_725_4794" x1="533.813" y1="105.968" x2="462.412" y2="-75.8359" gradientUnits="userSpaceOnUse">
<stop stop-color="#97C3F9"/>
<stop offset="1" stop-color="#93C1F9"/>
</linearGradient>
<linearGradient id="paint10_linear_725_4794" x1="420.054" y1="150.645" x2="348.653" y2="-31.1571" gradientUnits="userSpaceOnUse">
<stop/>
<stop offset="1" stop-color="white"/>
</linearGradient>
<linearGradient id="paint11_linear_725_4794" x1="420.054" y1="150.645" x2="348.653" y2="-31.1571" gradientUnits="userSpaceOnUse">
<stop stop-color="#97C3F9"/>
<stop offset="1" stop-color="#93C1F9"/>
</linearGradient>
<linearGradient id="paint12_linear_725_4794" x1="446.258" y1="140.354" x2="374.858" y2="-41.449" gradientUnits="userSpaceOnUse">
<stop/>
<stop offset="1" stop-color="white"/>
</linearGradient>
<linearGradient id="paint13_linear_725_4794" x1="446.258" y1="140.354" x2="374.858" y2="-41.449" gradientUnits="userSpaceOnUse">
<stop stop-color="#97C3F9"/>
<stop offset="1" stop-color="#93C1F9"/>
</linearGradient>
<linearGradient id="paint14_linear_725_4794" x1="472.462" y1="130.062" x2="401.062" y2="-51.7403" gradientUnits="userSpaceOnUse">
<stop/>
<stop offset="1" stop-color="white"/>
</linearGradient>
<linearGradient id="paint15_linear_725_4794" x1="472.462" y1="130.062" x2="401.062" y2="-51.7403" gradientUnits="userSpaceOnUse">
<stop stop-color="#97C3F9"/>
<stop offset="1" stop-color="#93C1F9"/>
</linearGradient>
<linearGradient id="paint16_linear_725_4794" x1="498.667" y1="119.771" x2="427.266" y2="-62.0318" gradientUnits="userSpaceOnUse">
<stop/>
<stop offset="1" stop-color="white"/>
</linearGradient>
<linearGradient id="paint17_linear_725_4794" x1="498.667" y1="119.771" x2="427.266" y2="-62.0318" gradientUnits="userSpaceOnUse">
<stop stop-color="#97C3F9"/>
<stop offset="1" stop-color="#93C1F9"/>
</linearGradient>
<linearGradient id="paint18_linear_725_4794" x1="524.871" y1="109.479" x2="453.471" y2="-72.3231" gradientUnits="userSpaceOnUse">
<stop/>
<stop offset="1" stop-color="white"/>
</linearGradient>
<linearGradient id="paint19_linear_725_4794" x1="524.871" y1="109.479" x2="453.471" y2="-72.3231" gradientUnits="userSpaceOnUse">
<stop stop-color="#97C3F9"/>
<stop offset="1" stop-color="#93C1F9"/>
</linearGradient>
<linearGradient id="paint20_linear_725_4794" x1="411.111" y1="154.158" x2="339.71" y2="-27.6458" gradientUnits="userSpaceOnUse">
<stop/>
<stop offset="1" stop-color="white"/>
</linearGradient>
<linearGradient id="paint21_linear_725_4794" x1="411.111" y1="154.158" x2="339.71" y2="-27.6458" gradientUnits="userSpaceOnUse">
<stop stop-color="#97C3F9"/>
<stop offset="1" stop-color="#93C1F9"/>
</linearGradient>
<linearGradient id="paint22_linear_725_4794" x1="437.316" y1="143.866" x2="365.914" y2="-37.9374" gradientUnits="userSpaceOnUse">
<stop/>
<stop offset="1" stop-color="white"/>
</linearGradient>
<linearGradient id="paint23_linear_725_4794" x1="437.316" y1="143.866" x2="365.914" y2="-37.9374" gradientUnits="userSpaceOnUse">
<stop stop-color="#97C3F9"/>
<stop offset="1" stop-color="#93C1F9"/>
</linearGradient>
<linearGradient id="paint24_linear_725_4794" x1="463.52" y1="133.575" x2="392.118" y2="-48.2288" gradientUnits="userSpaceOnUse">
<stop/>
<stop offset="1" stop-color="white"/>
</linearGradient>
<linearGradient id="paint25_linear_725_4794" x1="463.52" y1="133.575" x2="392.118" y2="-48.2288" gradientUnits="userSpaceOnUse">
<stop stop-color="#97C3F9"/>
<stop offset="1" stop-color="#93C1F9"/>
</linearGradient>
<linearGradient id="paint26_linear_725_4794" x1="489.724" y1="123.283" x2="418.323" y2="-58.5204" gradientUnits="userSpaceOnUse">
<stop/>
<stop offset="1" stop-color="white"/>
</linearGradient>
<linearGradient id="paint27_linear_725_4794" x1="489.724" y1="123.283" x2="418.323" y2="-58.5204" gradientUnits="userSpaceOnUse">
<stop stop-color="#97C3F9"/>
<stop offset="1" stop-color="#93C1F9"/>
</linearGradient>
<linearGradient id="paint28_linear_725_4794" x1="515.929" y1="112.992" x2="444.527" y2="-68.8119" gradientUnits="userSpaceOnUse">
<stop/>
<stop offset="1" stop-color="white"/>
</linearGradient>
<linearGradient id="paint29_linear_725_4794" x1="515.929" y1="112.992" x2="444.527" y2="-68.8119" gradientUnits="userSpaceOnUse">
<stop stop-color="#97C3F9"/>
<stop offset="1" stop-color="#93C1F9"/>
</linearGradient>
<linearGradient id="paint30_linear_725_4794" x1="402.169" y1="157.67" x2="330.767" y2="-24.1338" gradientUnits="userSpaceOnUse">
<stop/>
<stop offset="1" stop-color="white"/>
</linearGradient>
<linearGradient id="paint31_linear_725_4794" x1="402.169" y1="157.67" x2="330.767" y2="-24.1338" gradientUnits="userSpaceOnUse">
<stop stop-color="#97C3F9"/>
<stop offset="1" stop-color="#93C1F9"/>
</linearGradient>
<linearGradient id="paint32_linear_725_4794" x1="428.373" y1="147.379" x2="356.972" y2="-34.4253" gradientUnits="userSpaceOnUse">
<stop/>
<stop offset="1" stop-color="white"/>
</linearGradient>
<linearGradient id="paint33_linear_725_4794" x1="428.373" y1="147.379" x2="356.972" y2="-34.4253" gradientUnits="userSpaceOnUse">
<stop stop-color="#97C3F9"/>
<stop offset="1" stop-color="#93C1F9"/>
</linearGradient>
<linearGradient id="paint34_linear_725_4794" x1="454.578" y1="137.087" x2="383.176" y2="-44.7168" gradientUnits="userSpaceOnUse">
<stop/>
<stop offset="1" stop-color="white"/>
</linearGradient>
<linearGradient id="paint35_linear_725_4794" x1="454.578" y1="137.087" x2="383.176" y2="-44.7168" gradientUnits="userSpaceOnUse">
<stop stop-color="#97C3F9"/>
<stop offset="1" stop-color="#93C1F9"/>
</linearGradient>
<linearGradient id="paint36_linear_725_4794" x1="480.782" y1="126.795" x2="409.38" y2="-55.0084" gradientUnits="userSpaceOnUse">
<stop/>
<stop offset="1" stop-color="white"/>
</linearGradient>
<linearGradient id="paint37_linear_725_4794" x1="480.782" y1="126.795" x2="409.38" y2="-55.0084" gradientUnits="userSpaceOnUse">
<stop stop-color="#97C3F9"/>
<stop offset="1" stop-color="#93C1F9"/>
</linearGradient>
<linearGradient id="paint38_linear_725_4794" x1="506.986" y1="116.504" x2="435.585" y2="-65.3" gradientUnits="userSpaceOnUse">
<stop/>
<stop offset="1" stop-color="white"/>
</linearGradient>
<linearGradient id="paint39_linear_725_4794" x1="506.986" y1="116.504" x2="435.585" y2="-65.3" gradientUnits="userSpaceOnUse">
<stop stop-color="#97C3F9"/>
<stop offset="1" stop-color="#93C1F9"/>
</linearGradient>
<linearGradient id="paint40_linear_725_4794" x1="393.227" y1="161.182" x2="321.825" y2="-20.6219" gradientUnits="userSpaceOnUse">
<stop/>
<stop offset="1" stop-color="white"/>
</linearGradient>
<linearGradient id="paint41_linear_725_4794" x1="393.227" y1="161.182" x2="321.825" y2="-20.6219" gradientUnits="userSpaceOnUse">
<stop stop-color="#97C3F9"/>
<stop offset="1" stop-color="#93C1F9"/>
</linearGradient>
<linearGradient id="paint42_linear_725_4794" x1="419.431" y1="150.89" x2="348.029" y2="-30.9134" gradientUnits="userSpaceOnUse">
<stop/>
<stop offset="1" stop-color="white"/>
</linearGradient>
<linearGradient id="paint43_linear_725_4794" x1="419.431" y1="150.89" x2="348.029" y2="-30.9134" gradientUnits="userSpaceOnUse">
<stop stop-color="#97C3F9"/>
<stop offset="1" stop-color="#93C1F9"/>
</linearGradient>
<linearGradient id="paint44_linear_725_4794" x1="445.635" y1="140.599" x2="374.234" y2="-41.2047" gradientUnits="userSpaceOnUse">
<stop/>
<stop offset="1" stop-color="white"/>
</linearGradient>
<linearGradient id="paint45_linear_725_4794" x1="445.635" y1="140.599" x2="374.234" y2="-41.2047" gradientUnits="userSpaceOnUse">
<stop stop-color="#97C3F9"/>
<stop offset="1" stop-color="#93C1F9"/>
</linearGradient>
<linearGradient id="paint46_linear_725_4794" x1="471.84" y1="130.307" x2="400.438" y2="-51.4964" gradientUnits="userSpaceOnUse">
<stop/>
<stop offset="1" stop-color="white"/>
</linearGradient>
<linearGradient id="paint47_linear_725_4794" x1="471.84" y1="130.307" x2="400.438" y2="-51.4964" gradientUnits="userSpaceOnUse">
<stop stop-color="#97C3F9"/>
<stop offset="1" stop-color="#93C1F9"/>
</linearGradient>
<linearGradient id="paint48_linear_725_4794" x1="498.044" y1="120.016" x2="426.642" y2="-61.7879" gradientUnits="userSpaceOnUse">
<stop/>
<stop offset="1" stop-color="white"/>
</linearGradient>
<linearGradient id="paint49_linear_725_4794" x1="498.044" y1="120.016" x2="426.642" y2="-61.7879" gradientUnits="userSpaceOnUse">
<stop stop-color="#97C3F9"/>
<stop offset="1" stop-color="#93C1F9"/>
</linearGradient>
<linearGradient id="paint50_linear_725_4794" x1="54.996" y1="357.134" x2="-16.4057" y2="175.33" gradientUnits="userSpaceOnUse">
<stop/>
<stop offset="1" stop-color="white"/>
</linearGradient>
<linearGradient id="paint51_linear_725_4794" x1="54.996" y1="357.134" x2="-16.4057" y2="175.33" gradientUnits="userSpaceOnUse">
<stop stop-color="#97C3F9"/>
<stop offset="1" stop-color="#93C1F9"/>
</linearGradient>
<linearGradient id="paint52_linear_725_4794" x1="81.2005" y1="346.843" x2="9.79887" y2="165.039" gradientUnits="userSpaceOnUse">
<stop/>
<stop offset="1" stop-color="white"/>
</linearGradient>
<linearGradient id="paint53_linear_725_4794" x1="81.2005" y1="346.843" x2="9.79887" y2="165.039" gradientUnits="userSpaceOnUse">
<stop stop-color="#97C3F9"/>
<stop offset="1" stop-color="#93C1F9"/>
</linearGradient>
<linearGradient id="paint54_linear_725_4794" x1="107.405" y1="336.551" x2="36.0033" y2="154.747" gradientUnits="userSpaceOnUse">
<stop/>
<stop offset="1" stop-color="white"/>
</linearGradient>
<linearGradient id="paint55_linear_725_4794" x1="107.405" y1="336.551" x2="36.0033" y2="154.747" gradientUnits="userSpaceOnUse">
<stop stop-color="#97C3F9"/>
<stop offset="1" stop-color="#93C1F9"/>
</linearGradient>
<linearGradient id="paint56_linear_725_4794" x1="133.609" y1="326.259" x2="62.2075" y2="144.456" gradientUnits="userSpaceOnUse">
<stop/>
<stop offset="1" stop-color="white"/>
</linearGradient>
<linearGradient id="paint57_linear_725_4794" x1="133.609" y1="326.259" x2="62.2075" y2="144.456" gradientUnits="userSpaceOnUse">
<stop stop-color="#97C3F9"/>
<stop offset="1" stop-color="#93C1F9"/>
</linearGradient>
<linearGradient id="paint58_linear_725_4794" x1="159.813" y1="315.968" x2="88.4119" y2="134.164" gradientUnits="userSpaceOnUse">
<stop/>
<stop offset="1" stop-color="white"/>
</linearGradient>
<linearGradient id="paint59_linear_725_4794" x1="159.813" y1="315.968" x2="88.4119" y2="134.164" gradientUnits="userSpaceOnUse">
<stop stop-color="#97C3F9"/>
<stop offset="1" stop-color="#93C1F9"/>
</linearGradient>
<linearGradient id="paint60_linear_725_4794" x1="46.0538" y1="360.645" x2="-25.3466" y2="178.843" gradientUnits="userSpaceOnUse">
<stop/>
<stop offset="1" stop-color="white"/>
</linearGradient>
<linearGradient id="paint61_linear_725_4794" x1="46.0538" y1="360.645" x2="-25.3466" y2="178.843" gradientUnits="userSpaceOnUse">
<stop stop-color="#97C3F9"/>
<stop offset="1" stop-color="#93C1F9"/>
</linearGradient>
<linearGradient id="paint62_linear_725_4794" x1="72.2581" y1="350.354" x2="0.857702" y2="168.551" gradientUnits="userSpaceOnUse">
<stop/>
<stop offset="1" stop-color="white"/>
</linearGradient>
<linearGradient id="paint63_linear_725_4794" x1="72.2581" y1="350.354" x2="0.857702" y2="168.551" gradientUnits="userSpaceOnUse">
<stop stop-color="#97C3F9"/>
<stop offset="1" stop-color="#93C1F9"/>
</linearGradient>
<linearGradient id="paint64_linear_725_4794" x1="98.4624" y1="340.062" x2="27.062" y2="158.26" gradientUnits="userSpaceOnUse">
<stop/>
<stop offset="1" stop-color="white"/>
</linearGradient>
<linearGradient id="paint65_linear_725_4794" x1="98.4624" y1="340.062" x2="27.062" y2="158.26" gradientUnits="userSpaceOnUse">
<stop stop-color="#97C3F9"/>
<stop offset="1" stop-color="#93C1F9"/>
</linearGradient>
<linearGradient id="paint66_linear_725_4794" x1="124.667" y1="329.771" x2="53.2663" y2="147.968" gradientUnits="userSpaceOnUse">
<stop/>
<stop offset="1" stop-color="white"/>
</linearGradient>
<linearGradient id="paint67_linear_725_4794" x1="124.667" y1="329.771" x2="53.2663" y2="147.968" gradientUnits="userSpaceOnUse">
<stop stop-color="#97C3F9"/>
<stop offset="1" stop-color="#93C1F9"/>
</linearGradient>
<linearGradient id="paint68_linear_725_4794" x1="150.871" y1="319.479" x2="79.4707" y2="137.677" gradientUnits="userSpaceOnUse">
<stop/>
<stop offset="1" stop-color="white"/>
</linearGradient>
<linearGradient id="paint69_linear_725_4794" x1="150.871" y1="319.479" x2="79.4707" y2="137.677" gradientUnits="userSpaceOnUse">
<stop stop-color="#97C3F9"/>
<stop offset="1" stop-color="#93C1F9"/>
</linearGradient>
<linearGradient id="paint70_linear_725_4794" x1="37.1113" y1="364.158" x2="-34.2903" y2="182.354" gradientUnits="userSpaceOnUse">
<stop/>
<stop offset="1" stop-color="white"/>
</linearGradient>
<linearGradient id="paint71_linear_725_4794" x1="37.1113" y1="364.158" x2="-34.2903" y2="182.354" gradientUnits="userSpaceOnUse">
<stop stop-color="#97C3F9"/>
<stop offset="1" stop-color="#93C1F9"/>
</linearGradient>
<linearGradient id="paint72_linear_725_4794" x1="63.3157" y1="353.866" x2="-8.08592" y2="172.063" gradientUnits="userSpaceOnUse">
<stop/>
<stop offset="1" stop-color="white"/>
</linearGradient>
<linearGradient id="paint73_linear_725_4794" x1="63.3157" y1="353.866" x2="-8.08592" y2="172.063" gradientUnits="userSpaceOnUse">
<stop stop-color="#97C3F9"/>
<stop offset="1" stop-color="#93C1F9"/>
</linearGradient>
<linearGradient id="paint74_linear_725_4794" x1="89.52" y1="343.575" x2="18.1185" y2="161.771" gradientUnits="userSpaceOnUse">
<stop/>
<stop offset="1" stop-color="white"/>
</linearGradient>
<linearGradient id="paint75_linear_725_4794" x1="89.52" y1="343.575" x2="18.1185" y2="161.771" gradientUnits="userSpaceOnUse">
<stop stop-color="#97C3F9"/>
<stop offset="1" stop-color="#93C1F9"/>
</linearGradient>
<linearGradient id="paint76_linear_725_4794" x1="115.724" y1="333.283" x2="44.3227" y2="151.48" gradientUnits="userSpaceOnUse">
<stop/>
<stop offset="1" stop-color="white"/>
</linearGradient>
<linearGradient id="paint77_linear_725_4794" x1="115.724" y1="333.283" x2="44.3227" y2="151.48" gradientUnits="userSpaceOnUse">
<stop stop-color="#97C3F9"/>
<stop offset="1" stop-color="#93C1F9"/>
</linearGradient>
<linearGradient id="paint78_linear_725_4794" x1="141.929" y1="322.992" x2="70.5271" y2="141.188" gradientUnits="userSpaceOnUse">
<stop/>
<stop offset="1" stop-color="white"/>
</linearGradient>
<linearGradient id="paint79_linear_725_4794" x1="141.929" y1="322.992" x2="70.5271" y2="141.188" gradientUnits="userSpaceOnUse">
<stop stop-color="#97C3F9"/>
<stop offset="1" stop-color="#93C1F9"/>
</linearGradient>
<linearGradient id="paint80_linear_725_4794" x1="28.169" y1="367.67" x2="-43.2327" y2="185.866" gradientUnits="userSpaceOnUse">
<stop/>
<stop offset="1" stop-color="white"/>
</linearGradient>
<linearGradient id="paint81_linear_725_4794" x1="28.169" y1="367.67" x2="-43.2327" y2="185.866" gradientUnits="userSpaceOnUse">
<stop stop-color="#97C3F9"/>
<stop offset="1" stop-color="#93C1F9"/>
</linearGradient>
<linearGradient id="paint82_linear_725_4794" x1="54.3734" y1="357.379" x2="-17.0283" y2="175.575" gradientUnits="userSpaceOnUse">
<stop/>
<stop offset="1" stop-color="white"/>
</linearGradient>
<linearGradient id="paint83_linear_725_4794" x1="54.3734" y1="357.379" x2="-17.0283" y2="175.575" gradientUnits="userSpaceOnUse">
<stop stop-color="#97C3F9"/>
<stop offset="1" stop-color="#93C1F9"/>
</linearGradient>
<linearGradient id="paint84_linear_725_4794" x1="80.5776" y1="347.087" x2="9.17606" y2="165.283" gradientUnits="userSpaceOnUse">
<stop/>
<stop offset="1" stop-color="white"/>
</linearGradient>
<linearGradient id="paint85_linear_725_4794" x1="80.5776" y1="347.087" x2="9.17606" y2="165.283" gradientUnits="userSpaceOnUse">
<stop stop-color="#97C3F9"/>
<stop offset="1" stop-color="#93C1F9"/>
</linearGradient>
<linearGradient id="paint86_linear_725_4794" x1="106.782" y1="336.795" x2="35.3804" y2="154.992" gradientUnits="userSpaceOnUse">
<stop/>
<stop offset="1" stop-color="white"/>
</linearGradient>
<linearGradient id="paint87_linear_725_4794" x1="106.782" y1="336.795" x2="35.3804" y2="154.992" gradientUnits="userSpaceOnUse">
<stop stop-color="#97C3F9"/>
<stop offset="1" stop-color="#93C1F9"/>
</linearGradient>
<linearGradient id="paint88_linear_725_4794" x1="132.986" y1="326.504" x2="61.5847" y2="144.7" gradientUnits="userSpaceOnUse">
<stop/>
<stop offset="1" stop-color="white"/>
</linearGradient>
<linearGradient id="paint89_linear_725_4794" x1="132.986" y1="326.504" x2="61.5847" y2="144.7" gradientUnits="userSpaceOnUse">
<stop stop-color="#97C3F9"/>
<stop offset="1" stop-color="#93C1F9"/>
</linearGradient>
<linearGradient id="paint90_linear_725_4794" x1="19.2266" y1="371.182" x2="-52.1751" y2="189.378" gradientUnits="userSpaceOnUse">
<stop/>
<stop offset="1" stop-color="white"/>
</linearGradient>
<linearGradient id="paint91_linear_725_4794" x1="19.2266" y1="371.182" x2="-52.1751" y2="189.378" gradientUnits="userSpaceOnUse">
<stop stop-color="#97C3F9"/>
<stop offset="1" stop-color="#93C1F9"/>
</linearGradient>
<linearGradient id="paint92_linear_725_4794" x1="45.431" y1="360.89" x2="-25.9707" y2="179.087" gradientUnits="userSpaceOnUse">
<stop/>
<stop offset="1" stop-color="white"/>
</linearGradient>
<linearGradient id="paint93_linear_725_4794" x1="45.431" y1="360.89" x2="-25.9707" y2="179.087" gradientUnits="userSpaceOnUse">
<stop stop-color="#97C3F9"/>
<stop offset="1" stop-color="#93C1F9"/>
</linearGradient>
<linearGradient id="paint94_linear_725_4794" x1="71.6353" y1="350.599" x2="0.233718" y2="168.795" gradientUnits="userSpaceOnUse">
<stop/>
<stop offset="1" stop-color="white"/>
</linearGradient>
<linearGradient id="paint95_linear_725_4794" x1="71.6353" y1="350.599" x2="0.233718" y2="168.795" gradientUnits="userSpaceOnUse">
<stop stop-color="#97C3F9"/>
<stop offset="1" stop-color="#93C1F9"/>
</linearGradient>
<linearGradient id="paint96_linear_725_4794" x1="97.8397" y1="340.307" x2="26.438" y2="158.504" gradientUnits="userSpaceOnUse">
<stop/>
<stop offset="1" stop-color="white"/>
</linearGradient>
<linearGradient id="paint97_linear_725_4794" x1="97.8397" y1="340.307" x2="26.438" y2="158.504" gradientUnits="userSpaceOnUse">
<stop stop-color="#97C3F9"/>
<stop offset="1" stop-color="#93C1F9"/>
</linearGradient>
<linearGradient id="paint98_linear_725_4794" x1="124.044" y1="330.016" x2="52.6424" y2="148.212" gradientUnits="userSpaceOnUse">
<stop/>
<stop offset="1" stop-color="white"/>
</linearGradient>
<linearGradient id="paint99_linear_725_4794" x1="124.044" y1="330.016" x2="52.6424" y2="148.212" gradientUnits="userSpaceOnUse">
<stop stop-color="#97C3F9"/>
<stop offset="1" stop-color="#93C1F9"/>
</linearGradient>
<clipPath id="clip0_725_4794">
<rect width="409" height="385" fill="white" transform="translate(68)"/>
</clipPath>
</defs>
</svg>
