<svg width="444" height="345" viewBox="0 0 444 345" fill="none" xmlns="http://www.w3.org/2000/svg">
<g opacity="0.3">
<mask id="mask0_996_4538" style="mask-type:alpha" maskUnits="userSpaceOnUse" x="230" y="0" width="11" height="11">
<path d="M235.228 10.425C238.116 10.425 240.457 8.09121 240.457 5.21245C240.457 2.33368 238.116 0 235.228 0C232.341 0 230 2.33368 230 5.21245C230 8.09121 232.341 10.425 235.228 10.425Z" fill="url(#paint0_linear_996_4538)"/>
</mask>
<g mask="url(#mask0_996_4538)">
<path d="M235.228 10.425C238.116 10.425 240.457 8.09121 240.457 5.21245C240.457 2.33368 238.116 0 235.228 0C232.341 0 230 2.33368 230 5.21245C230 8.09121 232.341 10.425 235.228 10.425Z" fill="url(#paint1_linear_996_4538)"/>
</g>
<mask id="mask1_996_4538" style="mask-type:alpha" maskUnits="userSpaceOnUse" x="260" y="0" width="11" height="11">
<path d="M265.51 10.425C268.397 10.425 270.738 8.09121 270.738 5.21245C270.738 2.33368 268.397 0 265.51 0C262.622 0 260.281 2.33368 260.281 5.21245C260.281 8.09121 262.622 10.425 265.51 10.425Z" fill="url(#paint2_linear_996_4538)"/>
</mask>
<g mask="url(#mask1_996_4538)">
<path d="M265.51 10.425C268.397 10.425 270.738 8.09121 270.738 5.21245C270.738 2.33368 268.397 0 265.51 0C262.622 0 260.281 2.33368 260.281 5.21245C260.281 8.09121 262.622 10.425 265.51 10.425Z" fill="url(#paint3_linear_996_4538)"/>
</g>
<mask id="mask2_996_4538" style="mask-type:alpha" maskUnits="userSpaceOnUse" x="290" y="0" width="12" height="11">
<path d="M295.791 10.425C298.678 10.425 301.019 8.09121 301.019 5.21245C301.019 2.33368 298.678 0 295.791 0C292.903 0 290.562 2.33368 290.562 5.21245C290.562 8.09121 292.903 10.425 295.791 10.425Z" fill="url(#paint4_linear_996_4538)"/>
</mask>
<g mask="url(#mask2_996_4538)">
<path d="M295.791 10.425C298.678 10.425 301.019 8.09121 301.019 5.21245C301.019 2.33368 298.678 0 295.791 0C292.903 0 290.562 2.33368 290.562 5.21245C290.562 8.09121 292.903 10.425 295.791 10.425Z" fill="url(#paint5_linear_996_4538)"/>
</g>
<mask id="mask3_996_4538" style="mask-type:alpha" maskUnits="userSpaceOnUse" x="320" y="0" width="12" height="11">
<path d="M326.072 10.425C328.96 10.425 331.301 8.09121 331.301 5.21245C331.301 2.33368 328.96 0 326.072 0C323.185 0 320.844 2.33368 320.844 5.21245C320.844 8.09121 323.185 10.425 326.072 10.425Z" fill="url(#paint6_linear_996_4538)"/>
</mask>
<g mask="url(#mask3_996_4538)">
<path d="M326.072 10.425C328.96 10.425 331.301 8.09121 331.301 5.21245C331.301 2.33368 328.96 0 326.072 0C323.185 0 320.844 2.33368 320.844 5.21245C320.844 8.09121 323.185 10.425 326.072 10.425Z" fill="url(#paint7_linear_996_4538)"/>
</g>
<mask id="mask4_996_4538" style="mask-type:alpha" maskUnits="userSpaceOnUse" x="351" y="0" width="11" height="11">
<path d="M356.353 10.425C359.241 10.425 361.582 8.09121 361.582 5.21245C361.582 2.33368 359.241 0 356.353 0C353.466 0 351.125 2.33368 351.125 5.21245C351.125 8.09121 353.466 10.425 356.353 10.425Z" fill="url(#paint8_linear_996_4538)"/>
</mask>
<g mask="url(#mask4_996_4538)">
<path d="M356.353 10.425C359.241 10.425 361.582 8.09121 361.582 5.21245C361.582 2.33368 359.241 0 356.353 0C353.466 0 351.125 2.33368 351.125 5.21245C351.125 8.09121 353.466 10.425 356.353 10.425Z" fill="url(#paint9_linear_996_4538)"/>
</g>
<mask id="mask5_996_4538" style="mask-type:alpha" maskUnits="userSpaceOnUse" x="230" y="26" width="11" height="11">
<path d="M235.228 36.5958C238.116 36.5958 240.457 34.2621 240.457 31.3833C240.457 28.5046 238.116 26.1709 235.228 26.1709C232.341 26.1709 230 28.5046 230 31.3833C230 34.2621 232.341 36.5958 235.228 36.5958Z" fill="url(#paint10_linear_996_4538)"/>
</mask>
<g mask="url(#mask5_996_4538)">
<path d="M235.228 36.5958C238.116 36.5958 240.457 34.2621 240.457 31.3833C240.457 28.5046 238.116 26.1709 235.228 26.1709C232.341 26.1709 230 28.5046 230 31.3833C230 34.2621 232.341 36.5958 235.228 36.5958Z" fill="url(#paint11_linear_996_4538)"/>
</g>
<mask id="mask6_996_4538" style="mask-type:alpha" maskUnits="userSpaceOnUse" x="260" y="26" width="11" height="11">
<path d="M265.51 36.5958C268.397 36.5958 270.738 34.2621 270.738 31.3833C270.738 28.5046 268.397 26.1709 265.51 26.1709C262.622 26.1709 260.281 28.5046 260.281 31.3833C260.281 34.2621 262.622 36.5958 265.51 36.5958Z" fill="url(#paint12_linear_996_4538)"/>
</mask>
<g mask="url(#mask6_996_4538)">
<path d="M265.51 36.5958C268.397 36.5958 270.738 34.2621 270.738 31.3833C270.738 28.5046 268.397 26.1709 265.51 26.1709C262.622 26.1709 260.281 28.5046 260.281 31.3833C260.281 34.2621 262.622 36.5958 265.51 36.5958Z" fill="url(#paint13_linear_996_4538)"/>
</g>
<mask id="mask7_996_4538" style="mask-type:alpha" maskUnits="userSpaceOnUse" x="290" y="26" width="12" height="11">
<path d="M295.791 36.5958C298.678 36.5958 301.019 34.2621 301.019 31.3833C301.019 28.5046 298.678 26.1709 295.791 26.1709C292.903 26.1709 290.562 28.5046 290.562 31.3833C290.562 34.2621 292.903 36.5958 295.791 36.5958Z" fill="url(#paint14_linear_996_4538)"/>
</mask>
<g mask="url(#mask7_996_4538)">
<path d="M295.791 36.5958C298.678 36.5958 301.019 34.2621 301.019 31.3833C301.019 28.5046 298.678 26.1709 295.791 26.1709C292.903 26.1709 290.562 28.5046 290.562 31.3833C290.562 34.2621 292.903 36.5958 295.791 36.5958Z" fill="url(#paint15_linear_996_4538)"/>
</g>
<mask id="mask8_996_4538" style="mask-type:alpha" maskUnits="userSpaceOnUse" x="320" y="26" width="12" height="11">
<path d="M326.072 36.5958C328.96 36.5958 331.301 34.2621 331.301 31.3833C331.301 28.5046 328.96 26.1709 326.072 26.1709C323.185 26.1709 320.844 28.5046 320.844 31.3833C320.844 34.2621 323.185 36.5958 326.072 36.5958Z" fill="url(#paint16_linear_996_4538)"/>
</mask>
<g mask="url(#mask8_996_4538)">
<path d="M326.072 36.5958C328.96 36.5958 331.301 34.2621 331.301 31.3833C331.301 28.5046 328.96 26.1709 326.072 26.1709C323.185 26.1709 320.844 28.5046 320.844 31.3833C320.844 34.2621 323.185 36.5958 326.072 36.5958Z" fill="url(#paint17_linear_996_4538)"/>
</g>
<mask id="mask9_996_4538" style="mask-type:alpha" maskUnits="userSpaceOnUse" x="230" y="52" width="11" height="11">
<path d="M235.228 62.7124C238.116 62.7124 240.457 60.3787 240.457 57.5C240.457 54.6212 238.116 52.2875 235.228 52.2875C232.341 52.2875 230 54.6212 230 57.5C230 60.3787 232.341 62.7124 235.228 62.7124Z" fill="url(#paint18_linear_996_4538)"/>
</mask>
<g mask="url(#mask9_996_4538)">
<path d="M235.228 62.7124C238.116 62.7124 240.457 60.3787 240.457 57.5C240.457 54.6212 238.116 52.2875 235.228 52.2875C232.341 52.2875 230 54.6212 230 57.5C230 60.3787 232.341 62.7124 235.228 62.7124Z" fill="url(#paint19_linear_996_4538)"/>
</g>
<mask id="mask10_996_4538" style="mask-type:alpha" maskUnits="userSpaceOnUse" x="260" y="52" width="11" height="11">
<path d="M265.51 62.7124C268.397 62.7124 270.738 60.3787 270.738 57.5C270.738 54.6212 268.397 52.2875 265.51 52.2875C262.622 52.2875 260.281 54.6212 260.281 57.5C260.281 60.3787 262.622 62.7124 265.51 62.7124Z" fill="url(#paint20_linear_996_4538)"/>
</mask>
<g mask="url(#mask10_996_4538)">
<path d="M265.51 62.7124C268.397 62.7124 270.738 60.3787 270.738 57.5C270.738 54.6212 268.397 52.2875 265.51 52.2875C262.622 52.2875 260.281 54.6212 260.281 57.5C260.281 60.3787 262.622 62.7124 265.51 62.7124Z" fill="url(#paint21_linear_996_4538)"/>
</g>
<mask id="mask11_996_4538" style="mask-type:alpha" maskUnits="userSpaceOnUse" x="290" y="52" width="12" height="11">
<path d="M295.791 62.7124C298.678 62.7124 301.019 60.3787 301.019 57.5C301.019 54.6212 298.678 52.2875 295.791 52.2875C292.903 52.2875 290.562 54.6212 290.562 57.5C290.562 60.3787 292.903 62.7124 295.791 62.7124Z" fill="url(#paint22_linear_996_4538)"/>
</mask>
<g mask="url(#mask11_996_4538)">
<path d="M295.791 62.7124C298.678 62.7124 301.019 60.3787 301.019 57.5C301.019 54.6212 298.678 52.2875 295.791 52.2875C292.903 52.2875 290.562 54.6212 290.562 57.5C290.562 60.3787 292.903 62.7124 295.791 62.7124Z" fill="url(#paint23_linear_996_4538)"/>
</g>
<mask id="mask12_996_4538" style="mask-type:alpha" maskUnits="userSpaceOnUse" x="320" y="52" width="12" height="11">
<path d="M326.072 62.7124C328.96 62.7124 331.301 60.3787 331.301 57.5C331.301 54.6212 328.96 52.2875 326.072 52.2875C323.185 52.2875 320.844 54.6212 320.844 57.5C320.844 60.3787 323.185 62.7124 326.072 62.7124Z" fill="url(#paint24_linear_996_4538)"/>
</mask>
<g mask="url(#mask12_996_4538)">
<path d="M326.072 62.7124C328.96 62.7124 331.301 60.3787 331.301 57.5C331.301 54.6212 328.96 52.2875 326.072 52.2875C323.185 52.2875 320.844 54.6212 320.844 57.5C320.844 60.3787 323.185 62.7124 326.072 62.7124Z" fill="url(#paint25_linear_996_4538)"/>
</g>
<mask id="mask13_996_4538" style="mask-type:alpha" maskUnits="userSpaceOnUse" x="351" y="52" width="11" height="11">
<path d="M356.353 62.7124C359.241 62.7124 361.582 60.3787 361.582 57.5C361.582 54.6212 359.241 52.2875 356.353 52.2875C353.466 52.2875 351.125 54.6212 351.125 57.5C351.125 60.3787 353.466 62.7124 356.353 62.7124Z" fill="url(#paint26_linear_996_4538)"/>
</mask>
<g mask="url(#mask13_996_4538)">
<path d="M356.353 62.7124C359.241 62.7124 361.582 60.3787 361.582 57.5C361.582 54.6212 359.241 52.2875 356.353 52.2875C353.466 52.2875 351.125 54.6212 351.125 57.5C351.125 60.3787 353.466 62.7124 356.353 62.7124Z" fill="url(#paint27_linear_996_4538)"/>
</g>
<mask id="mask14_996_4538" style="mask-type:alpha" maskUnits="userSpaceOnUse" x="351" y="26" width="11" height="11">
<path d="M356.353 36.5958C359.241 36.5958 361.582 34.2621 361.582 31.3833C361.582 28.5046 359.241 26.1709 356.353 26.1709C353.466 26.1709 351.125 28.5046 351.125 31.3833C351.125 34.2621 353.466 36.5958 356.353 36.5958Z" fill="url(#paint28_linear_996_4538)"/>
</mask>
<g mask="url(#mask14_996_4538)">
<path d="M356.353 36.5958C359.241 36.5958 361.582 34.2621 361.582 31.3833C361.582 28.5046 359.241 26.1709 356.353 26.1709C353.466 26.1709 351.125 28.5046 351.125 31.3833C351.125 34.2621 353.466 36.5958 356.353 36.5958Z" fill="url(#paint29_linear_996_4538)"/>
</g>
<mask id="mask15_996_4538" style="mask-type:alpha" maskUnits="userSpaceOnUse" x="230" y="78" width="11" height="11">
<path d="M235.228 88.8833C238.116 88.8833 240.457 86.5496 240.457 83.6708C240.457 80.7921 238.116 78.4584 235.228 78.4584C232.341 78.4584 230 80.7921 230 83.6708C230 86.5496 232.341 88.8833 235.228 88.8833Z" fill="url(#paint30_linear_996_4538)"/>
</mask>
<g mask="url(#mask15_996_4538)">
<path d="M235.228 88.8833C238.116 88.8833 240.457 86.5496 240.457 83.6708C240.457 80.7921 238.116 78.4584 235.228 78.4584C232.341 78.4584 230 80.7921 230 83.6708C230 86.5496 232.341 88.8833 235.228 88.8833Z" fill="url(#paint31_linear_996_4538)"/>
</g>
<mask id="mask16_996_4538" style="mask-type:alpha" maskUnits="userSpaceOnUse" x="260" y="78" width="11" height="11">
<path d="M265.51 88.8833C268.397 88.8833 270.738 86.5496 270.738 83.6708C270.738 80.7921 268.397 78.4584 265.51 78.4584C262.622 78.4584 260.281 80.7921 260.281 83.6708C260.281 86.5496 262.622 88.8833 265.51 88.8833Z" fill="url(#paint32_linear_996_4538)"/>
</mask>
<g mask="url(#mask16_996_4538)">
<path d="M265.51 88.8833C268.397 88.8833 270.738 86.5496 270.738 83.6708C270.738 80.7921 268.397 78.4584 265.51 78.4584C262.622 78.4584 260.281 80.7921 260.281 83.6708C260.281 86.5496 262.622 88.8833 265.51 88.8833Z" fill="url(#paint33_linear_996_4538)"/>
</g>
<mask id="mask17_996_4538" style="mask-type:alpha" maskUnits="userSpaceOnUse" x="290" y="78" width="12" height="11">
<path d="M295.791 88.8833C298.678 88.8833 301.019 86.5496 301.019 83.6708C301.019 80.7921 298.678 78.4584 295.791 78.4584C292.903 78.4584 290.562 80.7921 290.562 83.6708C290.562 86.5496 292.903 88.8833 295.791 88.8833Z" fill="url(#paint34_linear_996_4538)"/>
</mask>
<g mask="url(#mask17_996_4538)">
<path d="M295.791 88.8833C298.678 88.8833 301.019 86.5496 301.019 83.6708C301.019 80.7921 298.678 78.4584 295.791 78.4584C292.903 78.4584 290.562 80.7921 290.562 83.6708C290.562 86.5496 292.903 88.8833 295.791 88.8833Z" fill="url(#paint35_linear_996_4538)"/>
</g>
<mask id="mask18_996_4538" style="mask-type:alpha" maskUnits="userSpaceOnUse" x="320" y="78" width="12" height="11">
<path d="M326.072 88.8833C328.96 88.8833 331.301 86.5496 331.301 83.6708C331.301 80.7921 328.96 78.4584 326.072 78.4584C323.185 78.4584 320.844 80.7921 320.844 83.6708C320.844 86.5496 323.185 88.8833 326.072 88.8833Z" fill="url(#paint36_linear_996_4538)"/>
</mask>
<g mask="url(#mask18_996_4538)">
<path d="M326.072 88.8833C328.96 88.8833 331.301 86.5496 331.301 83.6708C331.301 80.7921 328.96 78.4584 326.072 78.4584C323.185 78.4584 320.844 80.7921 320.844 83.6708C320.844 86.5496 323.185 88.8833 326.072 88.8833Z" fill="url(#paint37_linear_996_4538)"/>
</g>
<mask id="mask19_996_4538" style="mask-type:alpha" maskUnits="userSpaceOnUse" x="351" y="78" width="11" height="11">
<path d="M356.353 88.8833C359.241 88.8833 361.582 86.5496 361.582 83.6708C361.582 80.7921 359.241 78.4584 356.353 78.4584C353.466 78.4584 351.125 80.7921 351.125 83.6708C351.125 86.5496 353.466 88.8833 356.353 88.8833Z" fill="url(#paint38_linear_996_4538)"/>
</mask>
<g mask="url(#mask19_996_4538)">
<path d="M356.353 88.8833C359.241 88.8833 361.582 86.5496 361.582 83.6708C361.582 80.7921 359.241 78.4584 356.353 78.4584C353.466 78.4584 351.125 80.7921 351.125 83.6708C351.125 86.5496 353.466 88.8833 356.353 88.8833Z" fill="url(#paint39_linear_996_4538)"/>
</g>
<mask id="mask20_996_4538" style="mask-type:alpha" maskUnits="userSpaceOnUse" x="230" y="104" width="11" height="11">
<path d="M235.228 115C238.116 115 240.457 112.666 240.457 109.788C240.457 106.909 238.116 104.575 235.228 104.575C232.341 104.575 230 106.909 230 109.788C230 112.666 232.341 115 235.228 115Z" fill="url(#paint40_linear_996_4538)"/>
</mask>
<g mask="url(#mask20_996_4538)">
<path d="M235.228 115C238.116 115 240.457 112.666 240.457 109.788C240.457 106.909 238.116 104.575 235.228 104.575C232.341 104.575 230 106.909 230 109.788C230 112.666 232.341 115 235.228 115Z" fill="url(#paint41_linear_996_4538)"/>
</g>
<mask id="mask21_996_4538" style="mask-type:alpha" maskUnits="userSpaceOnUse" x="260" y="104" width="11" height="11">
<path d="M265.51 115C268.397 115 270.738 112.666 270.738 109.788C270.738 106.909 268.397 104.575 265.51 104.575C262.622 104.575 260.281 106.909 260.281 109.788C260.281 112.666 262.622 115 265.51 115Z" fill="url(#paint42_linear_996_4538)"/>
</mask>
<g mask="url(#mask21_996_4538)">
<path d="M265.51 115C268.397 115 270.738 112.666 270.738 109.788C270.738 106.909 268.397 104.575 265.51 104.575C262.622 104.575 260.281 106.909 260.281 109.788C260.281 112.666 262.622 115 265.51 115Z" fill="url(#paint43_linear_996_4538)"/>
</g>
<mask id="mask22_996_4538" style="mask-type:alpha" maskUnits="userSpaceOnUse" x="290" y="104" width="12" height="11">
<path d="M295.791 115C298.678 115 301.019 112.666 301.019 109.788C301.019 106.909 298.678 104.575 295.791 104.575C292.903 104.575 290.562 106.909 290.562 109.788C290.562 112.666 292.903 115 295.791 115Z" fill="url(#paint44_linear_996_4538)"/>
</mask>
<g mask="url(#mask22_996_4538)">
<path d="M295.791 115C298.678 115 301.019 112.666 301.019 109.788C301.019 106.909 298.678 104.575 295.791 104.575C292.903 104.575 290.562 106.909 290.562 109.788C290.562 112.666 292.903 115 295.791 115Z" fill="url(#paint45_linear_996_4538)"/>
</g>
<mask id="mask23_996_4538" style="mask-type:alpha" maskUnits="userSpaceOnUse" x="320" y="104" width="12" height="11">
<path d="M326.072 115C328.96 115 331.301 112.666 331.301 109.788C331.301 106.909 328.96 104.575 326.072 104.575C323.185 104.575 320.844 106.909 320.844 109.788C320.844 112.666 323.185 115 326.072 115Z" fill="url(#paint46_linear_996_4538)"/>
</mask>
<g mask="url(#mask23_996_4538)">
<path d="M326.072 115C328.96 115 331.301 112.666 331.301 109.788C331.301 106.909 328.96 104.575 326.072 104.575C323.185 104.575 320.844 106.909 320.844 109.788C320.844 112.666 323.185 115 326.072 115Z" fill="url(#paint47_linear_996_4538)"/>
</g>
<mask id="mask24_996_4538" style="mask-type:alpha" maskUnits="userSpaceOnUse" x="351" y="104" width="11" height="11">
<path d="M356.353 115C359.241 115 361.582 112.666 361.582 109.788C361.582 106.909 359.241 104.575 356.353 104.575C353.466 104.575 351.125 106.909 351.125 109.788C351.125 112.666 353.466 115 356.353 115Z" fill="url(#paint48_linear_996_4538)"/>
</mask>
<g mask="url(#mask24_996_4538)">
<path d="M356.353 115C359.241 115 361.582 112.666 361.582 109.788C361.582 106.909 359.241 104.575 356.353 104.575C353.466 104.575 351.125 106.909 351.125 109.788C351.125 112.666 353.466 115 356.353 115Z" fill="url(#paint49_linear_996_4538)"/>
</g>
</g>
<g clip-path="url(#clip0_996_4538)">
<path d="M29.8801 271.066C27.7718 271.066 25.6591 271.153 23.596 271.329L23.2957 271.354C9.61059 272.563 -0.399435 279.575 0.0122494 287.666L0.0918374 289.129C0.144322 290.053 0.200242 291.048 0.24627 292.151C0.2712 292.695 1.01416 293.112 1.93863 293.112H338.559C362.292 292.968 385.94 292.787 408.84 292.574C413.135 292.583 417.428 292.36 421.699 291.908C428.063 291.155 432.48 289.664 435.204 287.348H435.205C438.592 284.475 438.699 280.859 438.494 276.772C438.077 268.521 437.663 259.853 437.25 251.211C436.885 243.594 436.522 235.998 436.159 228.726C435.934 224.41 435.435 220.601 431.589 217.69C427.419 214.541 419.815 212.945 408.987 212.945C408.857 212.945 408.727 212.945 408.594 212.945C374.661 213.066 341.039 224.724 324.93 241.954C323.075 243.938 321.346 246.062 319.675 248.117C317.204 251.152 314.651 254.289 311.603 257.096C309.953 258.636 308.169 260.025 306.272 261.248C306.141 261.338 305.991 261.435 305.833 261.527C305.471 261.763 305.092 261.99 304.723 262.193C302.562 263.44 300.285 264.474 297.924 265.281L297.685 265.361C297.506 265.425 297.311 265.489 297.117 265.548C295.753 265.985 294.337 266.364 292.917 266.669C286.777 268.022 279.795 268.346 272.165 267.632C265.159 266.959 258.243 265.551 251.531 263.431C244.466 261.2 237.854 258.419 231.458 255.729C228.649 254.547 225.744 253.325 222.842 252.168C222.297 251.95 221.76 251.737 221.216 251.524C217.672 250.144 214.459 249.004 211.393 248.04C203.798 245.641 195.937 244.186 187.986 243.708C179.546 243.246 172.109 244.117 165.886 246.29C164.171 246.887 162.5 247.606 160.887 248.442C153.517 252.266 148.973 257.91 144.579 263.369C139.113 270.158 133.461 277.179 122.3 280.819C109.421 285.022 90.6229 283.276 77.3233 280.239C73.1419 279.284 68.9656 278.185 64.9266 277.123C63.2953 276.693 61.6629 276.267 60.0293 275.843C56.8193 275.015 54.1921 274.381 51.7616 273.845L50.9928 273.675C50.5652 273.582 50.1372 273.489 49.7014 273.401C46.8144 272.795 44.1262 272.318 41.4788 271.944L40.8525 271.852C39.5967 271.687 38.4228 271.549 37.2707 271.434L36.8109 271.388C34.5545 271.174 32.2195 271.066 29.8801 271.066Z" fill="#F2F2F2"/>
<path d="M377.966 280.096C387.438 271.569 401.526 267.281 413.344 272.062C401.222 278.787 391.87 289.579 386.945 302.528C385.064 307.529 383.492 313.288 378.865 315.965C375.986 317.631 372.403 317.712 369.175 316.908C365.947 316.104 362.987 314.492 360.069 312.895L359.238 312.877C362.966 300.694 368.494 288.624 377.966 280.096Z" fill="#E6E6E6"/>
<path d="M413.278 272.321C402.811 273.673 393.037 278.285 385.344 285.502C383.66 287.027 382.227 288.807 381.098 290.777C380.06 292.732 379.565 294.928 379.664 297.139C379.715 299.202 380.007 301.306 379.555 303.346C379.308 304.386 378.844 305.363 378.193 306.211C377.542 307.06 376.719 307.762 375.778 308.27C373.465 309.599 370.812 310.017 368.204 310.337C365.308 310.691 362.295 311.014 359.788 312.637C359.484 312.833 359.197 312.351 359.5 312.155C363.861 309.331 369.38 310.359 374.07 308.474C376.258 307.595 378.194 306.051 378.88 303.718C379.479 301.677 379.18 299.507 379.11 297.419C378.982 295.264 379.383 293.11 380.28 291.146C381.305 289.125 382.667 287.292 384.307 285.728C387.944 282.146 392.121 279.158 396.687 276.873C401.883 274.236 407.493 272.507 413.273 271.76C413.631 271.714 413.633 272.276 413.278 272.321H413.278Z" fill="white"/>
<path d="M387.683 283.033C386.646 281.579 386.16 279.804 386.313 278.025C386.465 276.246 387.245 274.579 388.513 273.322C388.771 273.068 389.177 273.456 388.919 273.71C387.736 274.879 387.009 276.432 386.871 278.088C386.733 279.745 387.192 281.397 388.165 282.745C388.377 283.038 387.893 283.324 387.683 283.033V283.033Z" fill="white"/>
<path d="M379.5 296.096C383.096 296.733 386.801 295.992 389.875 294.021C390.18 293.825 390.467 294.308 390.163 294.503C386.961 296.548 383.104 297.312 379.362 296.641C379.006 296.577 379.145 296.033 379.5 296.096Z" fill="white"/>
<path d="M401.929 274.979C402.213 275.625 402.653 276.191 403.21 276.625C403.766 277.059 404.422 277.349 405.118 277.467C405.476 277.527 405.336 278.071 404.981 278.011C404.212 277.877 403.488 277.557 402.872 277.078C402.256 276.6 401.767 275.978 401.447 275.267C401.411 275.202 401.401 275.127 401.419 275.055C401.437 274.984 401.482 274.922 401.544 274.882C401.608 274.844 401.684 274.833 401.756 274.851C401.829 274.87 401.891 274.915 401.929 274.979Z" fill="white"/>
<path d="M426.356 313.188C426.132 313.157 425.908 313.126 425.681 313.098C422.666 312.699 419.623 312.544 416.583 312.637C416.348 312.64 416.11 312.647 415.875 312.657C408.553 312.958 401.351 314.614 394.634 317.542C391.962 318.71 389.383 320.079 386.92 321.637C383.517 323.789 379.999 326.394 376.196 327.272C375.8 327.368 375.399 327.439 374.994 327.485L359.279 313.89C359.259 313.841 359.235 313.796 359.215 313.747L358.562 313.233C358.684 313.144 358.812 313.054 358.933 312.965C359.004 312.912 359.077 312.863 359.147 312.811C359.195 312.778 359.244 312.744 359.285 312.711C359.301 312.699 359.317 312.688 359.33 312.681C359.371 312.647 359.413 312.621 359.451 312.591C360.165 312.087 360.883 311.586 361.606 311.089C361.609 311.086 361.609 311.086 361.616 311.085C367.089 307.25 372.998 304.076 379.219 301.631C379.406 301.56 379.596 301.486 379.789 301.422C382.591 300.381 385.474 299.571 388.408 298.999C390.015 298.691 391.637 298.465 393.268 298.321C397.481 297.957 401.726 298.257 405.846 299.211C414.059 301.114 421.572 305.62 426.022 312.647C426.135 312.827 426.246 313.004 426.356 313.188Z" fill="#E6E6E6"/>
<path d="M426.149 313.356C416.978 308.139 406.395 305.942 395.902 307.077C393.639 307.281 391.423 307.841 389.334 308.734C387.327 309.671 385.608 311.127 384.356 312.952C383.153 314.63 382.118 316.485 380.528 317.842C379.704 318.524 378.745 319.025 377.714 319.311C376.683 319.597 375.603 319.662 374.545 319.502C371.898 319.171 369.527 317.91 367.252 316.596C364.726 315.137 362.126 313.582 359.147 313.37C358.786 313.344 358.847 312.786 359.207 312.812C364.391 313.181 368.178 317.321 373.058 318.637C375.335 319.251 377.811 319.184 379.765 317.733C381.473 316.464 382.542 314.551 383.745 312.842C384.941 311.044 386.559 309.566 388.459 308.537C390.495 307.54 392.686 306.896 394.939 306.633C400.001 305.961 405.137 306.089 410.16 307.01C415.898 308.031 421.418 310.024 426.484 312.905C426.797 313.083 426.461 313.534 426.149 313.356V313.356Z" fill="white"/>
<path d="M399.258 306.513C399.306 304.728 399.988 303.019 401.181 301.69C402.375 300.361 404.002 299.5 405.773 299.259C406.131 299.212 406.222 299.766 405.863 299.813C404.214 300.034 402.698 300.837 401.589 302.077C400.481 303.316 399.852 304.911 399.817 306.573C399.808 306.935 399.25 306.872 399.258 306.513V306.513Z" fill="white"/>
<path d="M384.852 312.021C387.34 314.693 390.745 316.33 394.387 316.605C394.748 316.632 394.687 317.19 394.327 317.163C390.537 316.87 386.997 315.159 384.414 312.373C384.168 312.107 384.607 311.757 384.852 312.021H384.852Z" fill="white"/>
<path d="M415.486 308.652C415.323 309.338 415.334 310.054 415.517 310.736C415.699 311.418 416.049 312.043 416.533 312.557C416.783 312.819 416.343 313.169 416.095 312.908C415.563 312.339 415.178 311.648 414.974 310.895C414.771 310.142 414.754 309.351 414.927 308.591C414.938 308.518 414.975 308.452 415.033 308.406C415.09 308.359 415.163 308.337 415.237 308.342C415.311 308.351 415.379 308.388 415.425 308.446C415.472 308.504 415.494 308.578 415.486 308.652Z" fill="white"/>
<path d="M130.012 288.578C137.768 276.824 151.642 268.322 165.613 270.152C154.52 280.713 147.523 294.854 145.861 310.074C145.242 315.945 145.164 322.541 140.961 326.69C138.345 329.273 134.536 330.355 130.86 330.393C127.183 330.43 123.569 329.528 120.003 328.632L119.109 328.843C119.705 314.777 122.256 300.331 130.012 288.578Z" fill="#E6E6E6"/>
<path d="M165.613 270.447C154.795 274.802 145.626 282.451 139.407 292.309C138.03 294.407 136.993 296.71 136.334 299.131C135.769 301.51 135.851 303.997 136.573 306.333C137.202 308.525 138.099 310.695 138.184 313.002C138.21 314.183 137.986 315.357 137.526 316.445C137.066 317.534 136.381 318.513 135.516 319.319C133.412 321.382 130.691 322.568 127.991 323.634C124.992 324.818 121.859 326.001 119.63 328.433C119.36 328.728 118.918 328.292 119.188 327.998C123.066 323.766 129.255 323.331 133.745 320.012C135.841 318.463 137.482 316.274 137.565 313.588C137.638 311.239 136.714 309.001 136.058 306.786C135.321 304.517 135.151 302.102 135.563 299.752C136.096 297.306 137.042 294.968 138.361 292.838C141.253 287.997 144.889 283.639 149.136 279.926C153.96 275.662 159.478 272.253 165.451 269.848C165.821 269.699 165.981 270.299 165.613 270.447L165.613 270.447Z" fill="white"/>
<path d="M141.223 289.017C139.709 287.75 138.696 285.987 138.363 284.042C138.03 282.097 138.401 280.097 139.407 278.4C139.612 278.057 140.155 278.359 139.95 278.703C139.009 280.281 138.665 282.144 138.978 283.954C139.292 285.765 140.242 287.404 141.659 288.575C141.967 288.83 141.529 289.27 141.223 289.017Z" fill="white"/>
<path d="M136.109 305.264C140.133 304.945 143.889 303.122 146.628 300.16C146.899 299.866 147.341 300.302 147.07 300.595C144.214 303.673 140.302 305.562 136.113 305.884C135.714 305.915 135.712 305.294 136.109 305.264H136.109Z" fill="white"/>
<path d="M154.216 276.444C154.699 277.056 155.327 277.539 156.044 277.848C156.76 278.158 157.542 278.285 158.32 278.218C158.718 278.183 158.72 278.804 158.324 278.839C157.465 278.909 156.601 278.767 155.809 278.427C155.017 278.086 154.32 277.557 153.78 276.886C153.724 276.827 153.692 276.749 153.691 276.667C153.691 276.586 153.721 276.507 153.777 276.447C153.835 276.389 153.913 276.356 153.996 276.355C154.078 276.355 154.157 276.387 154.216 276.444H154.216Z" fill="white"/>
<path d="M190.981 310.519C190.733 310.549 190.485 310.578 190.234 310.612C186.898 311.022 183.601 311.703 180.375 312.647C180.124 312.716 179.872 312.789 179.624 312.865C171.876 315.222 164.634 318.996 158.266 323.994C155.733 325.985 153.356 328.166 151.155 330.518C148.115 333.766 145.078 337.529 141.255 339.525C140.858 339.737 140.449 339.925 140.029 340.088L119.435 329.915C119.4 329.869 119.363 329.827 119.327 329.78L118.486 329.411C118.591 329.282 118.703 329.15 118.808 329.021C118.869 328.946 118.934 328.873 118.995 328.798C119.036 328.748 119.079 328.699 119.114 328.652C119.127 328.636 119.142 328.619 119.153 328.607C119.188 328.56 119.225 328.52 119.258 328.478C119.881 327.74 120.509 327.005 121.144 326.273C121.147 326.268 121.147 326.268 121.154 326.266C126.007 320.701 131.367 315.492 137.349 311.261C137.529 311.134 137.711 311.002 137.901 310.879C140.607 308.987 143.464 307.319 146.443 305.892C148.077 305.116 149.749 304.423 151.452 303.816C155.858 302.255 160.481 301.397 165.153 301.272C174.467 301.024 183.757 303.755 190.473 310.035C190.645 310.195 190.812 310.354 190.981 310.519Z" fill="#E6E6E6"/>
<path d="M190.806 310.758C179.545 307.727 167.614 308.319 156.708 312.449C154.344 313.296 152.129 314.511 150.144 316.047C148.259 317.607 146.826 319.642 145.994 321.942C145.175 324.07 144.585 326.343 143.262 328.235C142.571 329.194 141.685 329.996 140.662 330.589C139.638 331.182 138.501 331.551 137.325 331.674C134.402 332.056 131.515 331.366 128.716 330.593C125.609 329.735 122.394 328.794 119.149 329.396C118.755 329.468 118.665 328.855 119.058 328.782C124.705 327.736 129.908 331.111 135.494 331.162C138.1 331.186 140.73 330.426 142.415 328.331C143.889 326.499 144.5 324.156 145.31 321.994C146.089 319.739 147.408 317.708 149.153 316.079C151.054 314.447 153.218 313.149 155.554 312.242C160.781 310.116 166.31 308.825 171.938 308.415C178.359 307.911 184.819 308.509 191.038 310.182C191.423 310.285 191.189 310.861 190.806 310.758Z" fill="white"/>
<path d="M160.142 310.912C159.697 308.99 159.95 306.973 160.856 305.22C161.763 303.467 163.263 302.093 165.09 301.343C165.46 301.193 165.712 301.76 165.341 301.911C163.639 302.606 162.241 303.886 161.4 305.52C160.56 307.154 160.331 309.034 160.756 310.822C160.848 311.21 160.233 311.299 160.142 310.912H160.142Z" fill="white"/>
<path d="M146.267 320.808C149.672 322.974 153.769 323.778 157.741 323.06C158.135 322.989 158.225 323.603 157.832 323.674C153.697 324.413 149.435 323.568 145.896 321.306C145.559 321.09 145.931 320.593 146.267 320.808V320.808Z" fill="white"/>
<path d="M178.093 308.69C178.11 309.469 178.321 310.232 178.706 310.91C179.091 311.589 179.639 312.161 180.3 312.575C180.64 312.786 180.268 313.283 179.93 313.073C179.202 312.612 178.597 311.979 178.17 311.231C177.743 310.483 177.505 309.641 177.479 308.78C177.469 308.699 177.491 308.618 177.54 308.552C177.588 308.487 177.66 308.442 177.74 308.428C177.822 308.416 177.905 308.437 177.971 308.486C178.037 308.535 178.081 308.608 178.093 308.69V308.69Z" fill="white"/>
<path d="M185.211 200.458C185.725 199.947 186.121 199.329 186.371 198.647C186.621 197.966 186.718 197.239 186.656 196.516C186.594 195.794 186.374 195.093 186.011 194.465C185.649 193.836 185.153 193.295 184.559 192.879L192.664 153.684L183.919 156.44L177.398 194.358C176.764 195.402 176.535 196.642 176.756 197.843C176.976 199.045 177.629 200.123 178.592 200.875C179.555 201.627 180.761 202 181.981 201.923C183.201 201.846 184.35 201.325 185.211 200.458Z" fill="#FFB6B6"/>
<path d="M203.946 95.6891L198.529 91.6036C198.529 91.6036 193.75 91.2655 192.904 99.8759C192.057 108.486 186.758 141.533 186.758 141.533L178.469 179.892L189.943 182.408L198.822 141.012L207.71 112.453L203.946 95.6891Z" fill="#E6E6E6"/>
<path d="M199.82 166.667L173.834 146.48C173.43 146.165 173.167 145.702 173.103 145.194C173.039 144.685 173.18 144.172 173.495 143.767L191.175 121.048C191.49 120.644 191.953 120.381 192.462 120.317C192.972 120.254 193.485 120.395 193.891 120.709L219.876 140.896C220.281 141.211 220.544 141.674 220.608 142.182C220.671 142.691 220.53 143.204 220.216 143.61L202.536 166.328C202.22 166.732 201.757 166.995 201.248 167.059C200.739 167.122 200.225 166.982 199.82 166.667Z" fill="#3F3D56"/>
<path d="M199.676 164.578L175.895 146.104C175.536 145.824 175.302 145.413 175.246 144.961C175.189 144.51 175.314 144.054 175.594 143.694L191.621 123.099C191.901 122.74 192.313 122.507 192.765 122.45C193.217 122.394 193.673 122.519 194.033 122.798L217.814 141.272C218.173 141.552 218.407 141.963 218.463 142.415C218.52 142.866 218.395 143.322 218.116 143.682L202.088 164.277C201.808 164.636 201.397 164.869 200.944 164.926C200.492 164.982 200.036 164.857 199.676 164.578Z" fill="white"/>
<path d="M179.013 145.58C178.923 145.51 178.865 145.407 178.851 145.294C178.837 145.181 178.868 145.068 178.938 144.978L187.024 134.588C187.093 134.498 187.196 134.44 187.309 134.426C187.365 134.419 187.422 134.423 187.476 134.438C187.531 134.453 187.582 134.478 187.626 134.513C187.671 134.547 187.708 134.59 187.736 134.639C187.764 134.688 187.782 134.742 187.789 134.798C187.796 134.854 187.792 134.911 187.777 134.965C187.762 135.02 187.736 135.07 187.702 135.115L179.616 145.505C179.546 145.594 179.443 145.653 179.33 145.667C179.217 145.681 179.103 145.65 179.013 145.58Z" fill="#E4E4E4"/>
<path d="M180.353 146.621C180.263 146.551 180.205 146.448 180.191 146.335C180.177 146.222 180.208 146.109 180.278 146.019L188.363 135.629C188.433 135.539 188.536 135.481 188.649 135.467C188.762 135.452 188.876 135.484 188.966 135.554C189.056 135.624 189.115 135.726 189.129 135.839C189.143 135.952 189.112 136.066 189.042 136.156L180.956 146.546C180.886 146.635 180.783 146.694 180.67 146.708C180.557 146.722 180.443 146.691 180.353 146.621Z" fill="#E4E4E4"/>
<path d="M186.275 141.776C186.185 141.706 186.127 141.603 186.113 141.491C186.099 141.378 186.13 141.264 186.2 141.174L189.705 136.67C189.739 136.626 189.782 136.588 189.831 136.56C189.88 136.532 189.934 136.514 189.99 136.507C190.046 136.5 190.103 136.504 190.158 136.519C190.212 136.534 190.263 136.56 190.308 136.594C190.352 136.629 190.39 136.672 190.418 136.721C190.446 136.77 190.464 136.824 190.47 136.88C190.477 136.936 190.473 136.993 190.458 137.047C190.443 137.102 190.418 137.153 190.383 137.197L186.878 141.701C186.808 141.79 186.705 141.849 186.592 141.863C186.479 141.877 186.365 141.846 186.275 141.776Z" fill="#E4E4E4"/>
<path d="M188.082 150.614C187.992 150.544 187.933 150.441 187.919 150.328C187.905 150.215 187.936 150.102 188.006 150.012L200.771 133.61C200.806 133.565 200.849 133.528 200.898 133.5C200.947 133.472 201.001 133.454 201.057 133.447C201.113 133.44 201.17 133.444 201.224 133.459C201.278 133.474 201.329 133.5 201.374 133.534C201.418 133.569 201.456 133.612 201.483 133.661C201.511 133.71 201.529 133.764 201.536 133.82C201.543 133.876 201.539 133.933 201.524 133.987C201.509 134.041 201.484 134.092 201.449 134.137L188.685 150.539C188.615 150.628 188.512 150.687 188.399 150.701C188.286 150.715 188.172 150.684 188.082 150.614Z" fill="#E4E4E4"/>
<path d="M189.422 151.655C189.332 151.585 189.273 151.482 189.259 151.369C189.245 151.257 189.276 151.143 189.346 151.053L202.111 134.651C202.145 134.606 202.188 134.569 202.237 134.541C202.287 134.513 202.341 134.495 202.397 134.488C202.453 134.481 202.509 134.485 202.564 134.5C202.618 134.515 202.669 134.541 202.714 134.575C202.758 134.61 202.795 134.653 202.823 134.702C202.851 134.751 202.869 134.805 202.876 134.861C202.883 134.917 202.879 134.974 202.864 135.028C202.849 135.082 202.824 135.133 202.789 135.178L190.024 151.58C189.954 151.669 189.852 151.728 189.739 151.742C189.626 151.756 189.512 151.725 189.422 151.655Z" fill="#E4E4E4"/>
<path d="M192.463 154.018C192.373 153.948 192.314 153.846 192.3 153.733C192.286 153.62 192.317 153.506 192.387 153.416L205.152 137.014C205.186 136.97 205.229 136.932 205.279 136.904C205.328 136.877 205.382 136.859 205.438 136.852C205.494 136.845 205.55 136.849 205.605 136.864C205.659 136.879 205.71 136.904 205.755 136.939C205.799 136.973 205.836 137.016 205.864 137.065C205.892 137.114 205.91 137.168 205.917 137.224C205.924 137.28 205.92 137.337 205.905 137.391C205.89 137.446 205.865 137.496 205.83 137.541L193.065 153.943C192.995 154.033 192.893 154.091 192.78 154.105C192.667 154.119 192.553 154.088 192.463 154.018Z" fill="#E4E4E4"/>
<path d="M193.802 155.059C193.713 154.989 193.654 154.887 193.64 154.774C193.626 154.661 193.657 154.547 193.727 154.457L206.492 138.055C206.526 138.011 206.569 137.973 206.618 137.945C206.667 137.918 206.721 137.9 206.777 137.893C206.833 137.886 206.89 137.89 206.945 137.905C206.999 137.92 207.05 137.945 207.094 137.98C207.139 138.014 207.176 138.057 207.204 138.106C207.232 138.155 207.25 138.209 207.257 138.265C207.264 138.321 207.26 138.378 207.245 138.432C207.23 138.487 207.205 138.538 207.17 138.582L194.405 154.984C194.335 155.074 194.232 155.132 194.119 155.146C194.006 155.16 193.892 155.129 193.802 155.059Z" fill="#E4E4E4"/>
<path d="M196.845 157.423C196.756 157.353 196.697 157.25 196.683 157.137C196.669 157.024 196.7 156.91 196.77 156.82L209.535 140.418C209.569 140.374 209.612 140.337 209.661 140.309C209.71 140.281 209.764 140.263 209.82 140.256C209.876 140.249 209.933 140.253 209.988 140.268C210.042 140.283 210.093 140.308 210.137 140.343C210.182 140.378 210.219 140.421 210.247 140.47C210.275 140.519 210.293 140.573 210.3 140.628C210.307 140.684 210.303 140.741 210.288 140.796C210.273 140.85 210.248 140.901 210.213 140.945L197.448 157.347C197.378 157.437 197.275 157.495 197.162 157.509C197.049 157.524 196.935 157.492 196.845 157.423Z" fill="#E4E4E4"/>
<path d="M198.185 158.464C198.095 158.394 198.037 158.291 198.023 158.178C198.009 158.065 198.04 157.951 198.11 157.861L210.874 141.459C210.945 141.37 211.047 141.312 211.16 141.298C211.273 141.284 211.387 141.315 211.476 141.385C211.566 141.455 211.625 141.557 211.639 141.67C211.653 141.783 211.622 141.896 211.553 141.986L198.788 158.388C198.718 158.478 198.615 158.536 198.502 158.55C198.389 158.565 198.275 158.533 198.185 158.464Z" fill="#E4E4E4"/>
<path d="M176.853 177.512C176.95 177.512 177.029 177.433 177.029 177.336C177.029 177.238 176.95 177.16 176.853 177.16C176.755 177.16 176.676 177.238 176.676 177.336C176.676 177.433 176.755 177.512 176.853 177.512Z" fill="white"/>
<path d="M202.553 56.0795C201.933 59.4098 200.916 62.654 199.523 65.7427C191.549 82.5968 214.258 77.1032 222.373 77.1032C231.246 77.1032 239.735 81.7649 238.439 61.0516C237.885 52.2038 231.246 45 222.373 45C214.794 45 204.138 48.3657 202.553 56.0795Z" fill="#2F2E41"/>
<path d="M230.644 303.269H223.084L219.486 274.136H230.644V303.269Z" fill="#FFB6B6"/>
<path d="M234.635 316.356H229.214L228.246 311.242L225.767 316.356H211.389C210.699 316.356 210.028 316.136 209.473 315.727C208.918 315.319 208.508 314.745 208.303 314.087C208.098 313.43 208.108 312.724 208.333 312.073C208.558 311.422 208.985 310.86 209.552 310.469L221.034 302.546V297.376L233.112 298.096L234.635 316.356Z" fill="#2F2E41"/>
<path d="M275.558 293.737L269.491 298.244L249.205 277.011L258.158 270.359L275.558 293.737Z" fill="#FFB6B6"/>
<path d="M286.575 301.86L282.224 305.092L278.394 301.565L279.459 307.146L267.921 315.719C267.368 316.13 266.698 316.353 266.009 316.357C265.319 316.36 264.647 316.144 264.09 315.738C263.533 315.333 263.12 314.76 262.911 314.104C262.703 313.448 262.71 312.742 262.931 312.09L267.413 298.886L264.326 294.737L274.447 288.115L286.575 301.86Z" fill="#2F2E41"/>
<path d="M205.885 169.189L241.771 163.604L234.634 142.154H205.885V169.189Z" fill="#FFB6B6"/>
<path d="M239.446 152.958C239.446 152.958 253.79 165.339 247.172 200.634L239.092 235.218L261.105 273.401L249.912 279.501L222.785 241.832L210.373 212.741L203.807 161.756L239.446 152.958Z" fill="#2F2E41"/>
<path d="M217.214 221.031L216.352 234.38L218.877 273.909L231.415 278.223L233.79 237.721L217.214 221.031Z" fill="#2F2E41"/>
<path d="M213.359 81.5459L227.23 82.0866L232.759 91.2554L245.372 93.7156L237.842 131.775L239.227 153.438L226.668 153.361C217.616 153.306 208.863 156.592 202.087 162.588L202.463 134.467L197.061 113.476L198.275 91.4652L208.421 90.198L213.359 81.5459Z" fill="#E6E6E6"/>
<path d="M221.044 77.0992C228.254 77.0992 234.099 71.2593 234.099 64.0555C234.099 56.8516 228.254 51.0117 221.044 51.0117C213.833 51.0117 207.988 56.8516 207.988 64.0555C207.988 71.2593 213.833 77.0992 221.044 77.0992Z" fill="#FFB6B6"/>
<path d="M212.179 50.7592C214.467 49.3658 217.087 48.612 219.766 48.5767C222.445 48.5415 225.084 49.2259 227.408 50.5586C229.732 51.8913 231.654 53.8233 232.975 56.1524C234.295 58.4816 234.965 61.1225 234.915 63.799C228.262 65.4677 221.274 66.7447 214.18 64.1981L212.504 60.1014L211.516 64.2011C209.356 65.0834 207.19 65.8299 205.024 64.1926C204.936 61.5237 205.55 58.8784 206.805 56.521C208.061 54.1636 209.914 52.1768 212.179 50.7592Z" fill="#2F2E41"/>
<path d="M242.957 179.736L244.717 195.693C244.84 196.091 245.087 196.439 245.422 196.687C245.758 196.934 246.164 197.068 246.58 197.068H254.693C255.11 197.068 255.516 196.935 255.851 196.687C256.187 196.44 256.434 196.091 256.556 195.693L258.014 183.462C258.435 183.668 258.898 183.772 259.367 183.764C259.835 183.756 260.295 183.637 260.709 183.417C261.123 183.197 261.478 182.882 261.746 182.498C262.014 182.114 262.187 181.672 262.251 181.208C262.314 180.744 262.267 180.272 262.112 179.83C261.957 179.388 261.7 178.989 261.361 178.666C261.022 178.343 260.611 178.105 260.162 177.971C259.713 177.838 259.238 177.813 258.777 177.898C258.596 177.683 258.369 177.511 258.113 177.393C257.858 177.275 257.58 177.214 257.298 177.215H244.821C244.516 177.215 244.215 177.286 243.942 177.424C243.67 177.561 243.434 177.76 243.252 178.005C243.071 178.251 242.95 178.535 242.899 178.835C242.848 179.136 242.868 179.444 242.957 179.736ZM258.269 182.635L259.162 179.736C259.265 179.401 259.275 179.044 259.191 178.705C259.229 178.702 259.265 178.693 259.304 178.693C259.864 178.693 260.402 178.916 260.799 179.312C261.195 179.708 261.418 180.245 261.418 180.805C261.418 181.365 261.195 181.903 260.799 182.299C260.402 182.695 259.864 182.917 259.304 182.917C258.94 182.915 258.583 182.818 258.269 182.635Z" fill="#458FF6"/>
<path d="M255.19 197.079C254.678 196.565 254.285 195.945 254.039 195.262C253.793 194.58 253.699 193.852 253.765 193.13C253.831 192.407 254.055 191.708 254.42 191.082C254.786 190.455 255.284 189.916 255.881 189.503L247.975 150.267L256.706 153.068L263.034 191.019C263.663 192.066 263.885 193.307 263.659 194.507C263.432 195.707 262.773 196.783 261.806 197.53C260.84 198.277 259.632 198.643 258.413 198.56C257.193 198.477 256.047 197.95 255.19 197.079Z" fill="#FFB6B6"/>
<path d="M239.955 97.8012L245.372 93.7157C245.372 93.7157 250.151 93.3775 250.997 101.988C251.844 110.598 257.143 143.645 257.143 143.645L265.432 182.004L253.957 184.52L245.079 143.124L236.191 114.565L239.955 97.8012Z" fill="#E6E6E6"/>
<path d="M193.201 133.517C194.895 133.517 196.268 132.146 196.268 130.453C196.268 128.761 194.895 127.39 193.201 127.39C191.508 127.39 190.135 128.761 190.135 130.453C190.135 132.146 191.508 133.517 193.201 133.517Z" fill="#458FF6"/>
<path d="M95.417 338.811L101.808 338.81L104.848 314.183L95.416 314.183L95.417 338.811Z" fill="#FFB6B6"/>
<path d="M93.7871 336.726L95.5859 336.726L102.609 333.873L106.372 336.726H106.373C108.5 336.726 110.54 337.57 112.044 339.073C113.548 340.576 114.393 342.614 114.393 344.739V344.999L93.7875 345L93.7871 336.726Z" fill="#2F2E41"/>
<path d="M120.182 334.787L126.416 336.194L134.811 312.84L125.61 310.765L120.182 334.787Z" fill="#FFB6B6"/>
<path d="M119.05 332.395L120.805 332.791L128.284 331.553L131.327 335.164L131.327 335.165C133.402 335.633 135.206 336.905 136.342 338.702C137.477 340.499 137.852 342.673 137.384 344.746L137.326 345L117.227 340.466L119.05 332.395Z" fill="#2F2E41"/>
<path d="M83.7168 212.13L89.4956 276.819C89.4956 276.819 87.3304 315.654 94.3173 329.321H104.45L109.467 273.272L110.097 235.652L131.821 267.39L117.985 328.404L130.456 329.518L152.909 263.304L128.241 201.144L83.7168 212.13Z" fill="#2F2E41"/>
<path d="M89.7705 109.115C98.0013 109.115 104.674 102.448 104.674 94.2249C104.674 86.0013 98.0013 79.3347 89.7705 79.3347C81.5396 79.3347 74.8672 86.0013 74.8672 94.2249C74.8672 102.448 81.5396 109.115 89.7705 109.115Z" fill="#FFB8B8"/>
<path d="M115.968 123.304L103.741 118.063L97.7895 111.756L82.9207 114.151L78.9757 120.91L66.2051 132.774L81.1674 200.367L80.7144 215.13C80.7144 215.13 90.2907 219.437 131.821 209.52C132.319 209.401 131.277 208.88 131.277 208.88L115.968 123.304Z" fill="#3F3D56"/>
<path d="M74.2736 102.674C74.1695 102.532 74.0664 102.389 73.9644 102.245C73.9233 102.332 73.8907 102.421 73.8438 102.506L74.2736 102.674Z" fill="#2F2E41"/>
<path d="M104.595 83.3332C103.599 81.165 101.823 79.4506 99.6194 78.5306C97.4356 77.6506 94.995 77.6527 92.8127 78.5366C90.8425 77.2929 88.6533 76.3069 86.3479 76.1848C84.0424 76.0627 81.6048 76.9172 80.1841 78.7983C79.8668 79.2949 79.5065 79.7626 79.1072 80.1961C77.9652 81.2528 76.2296 81.1004 74.7116 80.8843C75.3925 81.4673 76.0735 82.0503 76.7547 82.6333C75.9305 82.8484 75.1063 83.0635 74.282 83.2787C75.2438 83.8615 76.2056 84.4443 77.1672 85.0271C74.3751 86.7015 73.1061 90.3561 73.4413 93.6753C73.7584 96.8177 75.2769 99.6913 77.0922 102.245C77.8163 100.719 77.6603 98.8918 77.6483 97.1723C77.6358 95.3554 77.9575 93.2923 79.4147 92.2769C80.3976 91.592 81.6616 91.5614 82.8469 91.5679C88.8259 91.6006 94.7981 91.9732 100.735 92.6836C101.54 92.7184 102.326 92.946 103.025 93.3473C104.338 94.2421 104.594 96.0888 104.725 97.7089C105.419 95.0339 105.758 92.2795 105.735 89.5162C105.793 87.3982 105.405 85.2915 104.595 83.3332Z" fill="#2F2E41"/>
<path d="M109.234 257.477C122.189 257.477 132.691 246.984 132.691 234.041C132.691 221.098 122.189 210.605 109.234 210.605C96.2793 210.605 85.7773 221.098 85.7773 234.041C85.7773 246.984 96.2793 257.477 109.234 257.477Z" fill="white"/>
<path d="M109.234 210.084C108.028 210.084 106.824 210.175 105.632 210.355C105.022 210.443 104.428 210.558 103.839 210.699C99.5114 211.695 95.5463 213.873 92.3858 216.99C89.2253 220.107 86.9938 224.04 85.9402 228.351C84.8865 232.661 85.0523 237.179 86.4189 241.4C87.7855 245.622 90.2992 249.381 93.6795 252.259C94.0809 252.597 94.4874 252.925 94.9096 253.238C97.9528 255.505 101.491 257.017 105.234 257.651C108.976 258.284 112.816 258.021 116.437 256.882C120.058 255.744 123.356 253.762 126.06 251.101C128.765 248.44 130.798 245.175 131.993 241.575C133.188 237.976 133.51 234.144 132.933 230.395C132.356 226.647 130.897 223.089 128.675 220.014C126.452 216.939 123.531 214.436 120.151 212.709C116.772 210.983 113.03 210.083 109.234 210.084V210.084ZM109.234 256.956C104.357 256.961 99.607 255.404 95.6811 252.514C95.2537 252.201 94.8419 251.878 94.4406 251.535C91.1471 248.759 88.7034 245.112 87.3898 241.012C86.0761 236.912 85.9456 232.525 87.0133 228.355C88.0809 224.184 90.3035 220.398 93.4261 217.432C96.5487 214.466 100.445 212.439 104.668 211.584C105.251 211.464 105.835 211.37 106.43 211.297C107.36 211.182 108.296 211.125 109.234 211.126C115.317 211.126 121.151 213.54 125.452 217.837C129.753 222.135 132.169 227.963 132.169 234.041C132.169 240.118 129.753 245.947 125.452 250.244C121.151 254.542 115.317 256.956 109.234 256.956Z" fill="#3F3D56"/>
<path d="M97.7288 229.354H120.739C121.582 229.354 122.266 228.671 122.266 227.829V227.754C122.266 226.912 121.582 226.229 120.739 226.229H97.7288C96.8859 226.229 96.2025 226.912 96.2025 227.754V227.829C96.2025 228.671 96.8859 229.354 97.7288 229.354Z" fill="#458FF6"/>
<path d="M97.7288 235.603H120.739C121.582 235.603 122.266 234.921 122.266 234.078V234.003C122.266 233.161 121.582 232.478 120.739 232.478H97.7288C96.8859 232.478 96.2025 233.161 96.2025 234.003V234.078C96.2025 234.921 96.8859 235.603 97.7288 235.603Z" fill="#458FF6"/>
<path d="M97.7288 241.853H120.739C121.582 241.853 122.266 241.17 122.266 240.328V240.253C122.266 239.411 121.582 238.728 120.739 238.728H97.7288C96.8859 238.728 96.2025 239.411 96.2025 240.253V240.328C96.2025 241.17 96.8859 241.853 97.7288 241.853Z" fill="#458FF6"/>
<path d="M371.664 338.016L364.963 338.015L361.775 312.192L371.665 312.192L371.664 338.016Z" fill="#9E616A"/>
<path d="M339.963 338.016L333.262 338.015L330.074 312.192L339.964 312.192L339.963 338.016Z" fill="#9E616A"/>
<path d="M340.2 345L319.594 344.999V344.739C319.594 342.614 320.439 340.576 321.943 339.073C323.447 337.57 325.487 336.726 327.614 336.726H327.615L331.379 333.873L338.401 336.726L340.2 336.726L340.2 345Z" fill="#2F2E41"/>
<path d="M372.76 345L352.154 344.999V344.739C352.154 342.614 353 340.576 354.504 339.073C356.008 337.57 358.048 336.726 360.175 336.726H360.175L363.939 333.873L370.962 336.726L372.761 336.726L372.76 345Z" fill="#2F2E41"/>
<path d="M333.389 185.183L323.205 247.139L325.977 256.372L322.34 262.911L327.681 320.335L325.513 325.104L331.57 328.836H343.895L344.549 276.849L347.594 269.216V265.01L353.792 233.309L354.933 277.704L356.736 285.349L355.221 290.792L357.2 294.605L362.456 329.969H376.277L375.208 321.742C376.412 321.133 377.379 320.141 377.958 318.923C378.536 317.705 378.693 316.33 378.404 315.013L377.611 311.407L379.415 300.744L382.699 241.259L381.773 193.262L365.605 180.909L333.389 185.183Z" fill="#2F2E41"/>
<path d="M356.737 105.624C363.829 105.624 369.578 99.8806 369.578 92.7952C369.578 85.7097 363.829 79.9658 356.737 79.9658C349.645 79.9658 343.896 85.7097 343.896 92.7952C343.896 99.8806 349.645 105.624 356.737 105.624Z" fill="#9E616A"/>
<path d="M328.682 209.769C329.241 209.192 329.666 208.5 329.928 207.741C330.19 206.982 330.283 206.175 330.199 205.377C330.115 204.578 329.857 203.808 329.442 203.12C329.028 202.432 328.468 201.843 327.802 201.395L332.795 182.529L323.175 185.762L319.908 203.182C319.228 204.35 319.002 205.728 319.27 207.052C319.539 208.377 320.285 209.557 321.366 210.369C322.448 211.181 323.79 211.569 325.138 211.458C326.486 211.347 327.747 210.747 328.682 209.769H328.682Z" fill="#9E616A"/>
<path d="M333.935 119.19L331.87 118.761L330.109 119.736C330.109 119.736 325.19 126.289 325.19 132.296C325.19 138.303 319.178 196.189 319.178 196.189L330.109 201.104L338.854 155.778L333.935 119.19Z" fill="#E6E6E6"/>
<path d="M367.982 83.389C367.982 83.389 371.341 76.9743 363.952 76.3912C363.952 76.3912 357.653 70.6823 351.233 75.3475C351.233 75.3475 347.731 75.3475 345.816 79.3069C345.816 79.3069 343.062 78.2633 342.456 81.0564C342.456 81.0564 340.441 86.8879 342.456 92.1363C344.472 97.3847 345.141 97.9678 345.141 97.9678C345.141 97.9678 341.829 86.9643 349.89 86.3812C357.951 85.798 366.972 80.7648 367.644 87.1795C368.316 93.5942 369.327 95.1747 369.327 95.1747C369.327 95.1747 375.707 86.0132 367.982 83.389Z" fill="#2F2E41"/>
<path d="M414.888 262.911C413.918 262.912 412.983 262.555 412.261 261.909L373.401 227.348C372.618 226.65 372.144 225.67 372.083 224.623C372.022 223.577 372.379 222.549 373.076 221.765L397.97 193.823C398.669 193.041 399.65 192.567 400.697 192.506C401.745 192.446 402.774 192.802 403.559 193.499L442.419 228.061C443.203 228.758 443.678 229.738 443.739 230.785C443.8 231.832 443.442 232.86 442.744 233.644L417.85 261.585C417.505 261.974 417.086 262.291 416.618 262.517C416.15 262.744 415.642 262.875 415.122 262.904C415.044 262.909 414.966 262.911 414.888 262.911Z" fill="white"/>
<path d="M414.887 263.165C413.856 263.166 412.86 262.787 412.092 262.099L373.232 227.538C372.399 226.795 371.894 225.752 371.829 224.638C371.765 223.524 372.145 222.43 372.886 221.595L397.78 193.654C398.524 192.822 399.568 192.318 400.683 192.253C401.798 192.188 402.893 192.568 403.728 193.309L442.589 227.87C443.423 228.613 443.928 229.656 443.993 230.77C444.058 231.884 443.677 232.979 442.934 233.813L418.04 261.754C417.673 262.168 417.228 262.505 416.729 262.746C416.231 262.987 415.69 263.127 415.138 263.158C415.054 263.162 414.971 263.165 414.887 263.165ZM400.929 193.262C400.478 193.261 400.032 193.356 399.62 193.54C399.208 193.724 398.84 193.993 398.541 194.33L373.647 222.271C373.084 222.904 372.796 223.734 372.845 224.579C372.894 225.424 373.276 226.215 373.909 226.779L412.769 261.34C413.082 261.619 413.447 261.833 413.844 261.971C414.24 262.109 414.66 262.167 415.079 262.143C415.497 262.118 415.908 262.012 416.285 261.829C416.663 261.646 417.001 261.391 417.28 261.078L442.174 233.137C442.737 232.504 443.026 231.674 442.977 230.829C442.928 229.984 442.545 229.193 441.912 228.63L403.052 194.068C402.467 193.548 401.712 193.261 400.929 193.262H400.929Z" fill="#3F3D56"/>
<path d="M428.98 236.449C428.56 236.449 428.155 236.295 427.842 236.016L397.338 208.887C397.169 208.738 397.031 208.557 396.933 208.354C396.834 208.152 396.776 207.932 396.763 207.707C396.749 207.482 396.78 207.257 396.854 207.044C396.928 206.831 397.043 206.635 397.193 206.467C397.343 206.299 397.525 206.162 397.728 206.064C397.931 205.966 398.151 205.909 398.376 205.896C398.601 205.884 398.826 205.915 399.039 205.99C399.252 206.064 399.448 206.18 399.616 206.33L430.12 233.46C430.379 233.691 430.562 233.995 430.645 234.332C430.727 234.669 430.705 235.023 430.581 235.347C430.458 235.671 430.238 235.95 429.952 236.147C429.666 236.344 429.327 236.449 428.98 236.449Z" fill="#458FF6"/>
<path d="M423.161 242.979C422.741 242.98 422.336 242.826 422.023 242.547L391.519 215.417C391.351 215.268 391.214 215.087 391.116 214.884C391.018 214.682 390.961 214.462 390.948 214.238C390.935 214.014 390.966 213.789 391.04 213.577C391.114 213.365 391.229 213.169 391.379 213.001C391.528 212.833 391.71 212.697 391.912 212.599C392.115 212.501 392.334 212.444 392.559 212.431C392.783 212.418 393.008 212.449 393.221 212.523C393.433 212.597 393.629 212.712 393.797 212.861L424.301 239.991C424.56 240.221 424.743 240.525 424.826 240.862C424.908 241.199 424.886 241.553 424.763 241.878C424.639 242.202 424.419 242.481 424.133 242.678C423.847 242.874 423.508 242.979 423.161 242.979H423.161Z" fill="#458FF6"/>
<path d="M417.342 249.51C416.923 249.511 416.517 249.357 416.204 249.077L385.7 221.948C385.532 221.799 385.395 221.618 385.297 221.415C385.198 221.213 385.141 220.993 385.128 220.769C385.115 220.544 385.146 220.319 385.22 220.107C385.294 219.894 385.409 219.699 385.559 219.531C385.708 219.363 385.89 219.226 386.092 219.128C386.295 219.03 386.515 218.973 386.74 218.96C386.964 218.947 387.189 218.979 387.402 219.053C387.615 219.127 387.81 219.242 387.978 219.392L418.482 246.521C418.741 246.752 418.925 247.056 419.007 247.393C419.09 247.73 419.068 248.084 418.944 248.408C418.82 248.733 418.601 249.012 418.315 249.208C418.029 249.405 417.69 249.51 417.342 249.51H417.342Z" fill="#458FF6"/>
<path d="M382.46 210.883C382.069 210.182 381.836 209.403 381.778 208.603C381.72 207.802 381.839 206.998 382.125 206.248C382.412 205.498 382.86 204.82 383.437 204.262C384.015 203.704 384.707 203.278 385.467 203.017L385.5 183.502L393.964 189.099L392.635 206.772C392.991 208.076 392.855 209.465 392.254 210.676C391.653 211.887 390.629 212.836 389.375 213.343C388.121 213.849 386.724 213.879 385.449 213.425C384.175 212.972 383.111 212.067 382.46 210.883H382.46Z" fill="#9E616A"/>
<path d="M383.242 124.537L387.023 120.896L389.801 122.899C389.801 122.899 392.534 126.176 394.72 136.005C396.906 145.835 394.72 199.898 394.72 199.898L382.695 198.26L384.335 169.863L379.416 145.835L383.242 124.537Z" fill="#E6E6E6"/>
<path d="M388.825 121.784L376.086 115.704L367.437 107.689L351.665 107.571L346.578 114.179L333.146 118.738L335.385 165.011L333.859 168.569C333.859 168.569 334.922 169.529 335.408 170.066C335.894 170.603 334.736 175.096 334.736 175.096L334.084 179.985L335.894 181.277L333.541 184.054L332.957 188.43C332.957 188.43 374.022 178.232 381.781 195.126C382.191 196.019 381.182 187.295 381.182 187.295L380.172 180.909L381.174 175.178L382.7 173.653L380.14 171.095L381.781 158.959L388.825 121.784Z" fill="#3F3D56"/>
<path d="M99.9258 224.368C100.242 223.566 100.378 222.705 100.325 221.844C100.272 220.984 100.031 220.146 99.6181 219.389C99.2057 218.632 98.632 217.974 97.9377 217.462C97.2434 216.951 96.4452 216.597 95.5994 216.427L92.7695 195.666L84.5645 202.832L88.5097 221.449C88.3178 222.887 88.6608 224.346 89.4736 225.549C90.2865 226.752 91.5126 227.615 92.9198 227.975C94.327 228.335 95.8174 228.166 97.1087 227.502C98.3999 226.837 99.4022 225.722 99.9258 224.368V224.368Z" fill="#FFB8B8"/>
<path d="M67.7812 132.394L65.5571 132.82L64.2128 134.511C64.2128 134.511 62.0381 143.034 64.5155 148.99C66.9929 154.946 84.9049 214.815 84.9049 214.815L97.7706 215.188L87.7483 166.647L67.7812 132.394Z" fill="#3F3D56"/>
<path d="M118.501 221.323C117.908 220.696 117.46 219.948 117.188 219.13C116.917 218.311 116.828 217.444 116.928 216.588C117.028 215.731 117.315 214.908 117.768 214.174C118.222 213.441 118.83 212.816 119.552 212.343L114.43 192.024L124.717 195.617L128.004 214.361C128.719 215.624 128.945 217.106 128.64 218.525C128.335 219.943 127.519 221.201 126.347 222.059C125.176 222.917 123.73 223.316 122.284 223.181C120.838 223.045 119.492 222.384 118.501 221.323Z" fill="#FFB8B8"/>
<path d="M114.005 124.006L116.227 123.572L118.105 124.64C118.105 124.64 123.304 131.738 123.228 138.188C123.152 144.637 128.874 206.862 128.874 206.862L117.075 212.001L108.26 163.226L114.005 124.006Z" fill="#3F3D56"/>
</g>
<defs>
<linearGradient id="paint0_linear_996_4538" x1="284.996" y1="131.134" x2="213.594" y2="-50.67" gradientUnits="userSpaceOnUse">
<stop/>
<stop offset="1" stop-color="white"/>
</linearGradient>
<linearGradient id="paint1_linear_996_4538" x1="284.996" y1="131.134" x2="213.594" y2="-50.67" gradientUnits="userSpaceOnUse">
<stop stop-color="#97C3F9"/>
<stop offset="1" stop-color="#93C1F9"/>
</linearGradient>
<linearGradient id="paint2_linear_996_4538" x1="311.201" y1="120.843" x2="239.799" y2="-60.9613" gradientUnits="userSpaceOnUse">
<stop/>
<stop offset="1" stop-color="white"/>
</linearGradient>
<linearGradient id="paint3_linear_996_4538" x1="311.201" y1="120.843" x2="239.799" y2="-60.9613" gradientUnits="userSpaceOnUse">
<stop stop-color="#97C3F9"/>
<stop offset="1" stop-color="#93C1F9"/>
</linearGradient>
<linearGradient id="paint4_linear_996_4538" x1="337.405" y1="110.551" x2="266.004" y2="-71.2526" gradientUnits="userSpaceOnUse">
<stop/>
<stop offset="1" stop-color="white"/>
</linearGradient>
<linearGradient id="paint5_linear_996_4538" x1="337.405" y1="110.551" x2="266.004" y2="-71.2526" gradientUnits="userSpaceOnUse">
<stop stop-color="#97C3F9"/>
<stop offset="1" stop-color="#93C1F9"/>
</linearGradient>
<linearGradient id="paint6_linear_996_4538" x1="363.61" y1="100.259" x2="292.208" y2="-81.5444" gradientUnits="userSpaceOnUse">
<stop/>
<stop offset="1" stop-color="white"/>
</linearGradient>
<linearGradient id="paint7_linear_996_4538" x1="363.61" y1="100.259" x2="292.208" y2="-81.5444" gradientUnits="userSpaceOnUse">
<stop stop-color="#97C3F9"/>
<stop offset="1" stop-color="#93C1F9"/>
</linearGradient>
<linearGradient id="paint8_linear_996_4538" x1="389.814" y1="89.9679" x2="318.413" y2="-91.8359" gradientUnits="userSpaceOnUse">
<stop/>
<stop offset="1" stop-color="white"/>
</linearGradient>
<linearGradient id="paint9_linear_996_4538" x1="389.814" y1="89.9679" x2="318.413" y2="-91.8359" gradientUnits="userSpaceOnUse">
<stop stop-color="#97C3F9"/>
<stop offset="1" stop-color="#93C1F9"/>
</linearGradient>
<linearGradient id="paint10_linear_996_4538" x1="276.054" y1="134.645" x2="204.653" y2="-47.1572" gradientUnits="userSpaceOnUse">
<stop/>
<stop offset="1" stop-color="white"/>
</linearGradient>
<linearGradient id="paint11_linear_996_4538" x1="276.054" y1="134.645" x2="204.653" y2="-47.1572" gradientUnits="userSpaceOnUse">
<stop stop-color="#97C3F9"/>
<stop offset="1" stop-color="#93C1F9"/>
</linearGradient>
<linearGradient id="paint12_linear_996_4538" x1="302.258" y1="124.354" x2="230.858" y2="-57.4491" gradientUnits="userSpaceOnUse">
<stop/>
<stop offset="1" stop-color="white"/>
</linearGradient>
<linearGradient id="paint13_linear_996_4538" x1="302.258" y1="124.354" x2="230.858" y2="-57.4491" gradientUnits="userSpaceOnUse">
<stop stop-color="#97C3F9"/>
<stop offset="1" stop-color="#93C1F9"/>
</linearGradient>
<linearGradient id="paint14_linear_996_4538" x1="328.463" y1="114.062" x2="257.062" y2="-67.7404" gradientUnits="userSpaceOnUse">
<stop/>
<stop offset="1" stop-color="white"/>
</linearGradient>
<linearGradient id="paint15_linear_996_4538" x1="328.463" y1="114.062" x2="257.062" y2="-67.7404" gradientUnits="userSpaceOnUse">
<stop stop-color="#97C3F9"/>
<stop offset="1" stop-color="#93C1F9"/>
</linearGradient>
<linearGradient id="paint16_linear_996_4538" x1="354.667" y1="103.771" x2="283.267" y2="-78.0318" gradientUnits="userSpaceOnUse">
<stop/>
<stop offset="1" stop-color="white"/>
</linearGradient>
<linearGradient id="paint17_linear_996_4538" x1="354.667" y1="103.771" x2="283.267" y2="-78.0318" gradientUnits="userSpaceOnUse">
<stop stop-color="#97C3F9"/>
<stop offset="1" stop-color="#93C1F9"/>
</linearGradient>
<linearGradient id="paint18_linear_996_4538" x1="267.111" y1="138.158" x2="195.71" y2="-43.6458" gradientUnits="userSpaceOnUse">
<stop/>
<stop offset="1" stop-color="white"/>
</linearGradient>
<linearGradient id="paint19_linear_996_4538" x1="267.111" y1="138.158" x2="195.71" y2="-43.6458" gradientUnits="userSpaceOnUse">
<stop stop-color="#97C3F9"/>
<stop offset="1" stop-color="#93C1F9"/>
</linearGradient>
<linearGradient id="paint20_linear_996_4538" x1="293.316" y1="127.866" x2="221.914" y2="-53.9374" gradientUnits="userSpaceOnUse">
<stop/>
<stop offset="1" stop-color="white"/>
</linearGradient>
<linearGradient id="paint21_linear_996_4538" x1="293.316" y1="127.866" x2="221.914" y2="-53.9374" gradientUnits="userSpaceOnUse">
<stop stop-color="#97C3F9"/>
<stop offset="1" stop-color="#93C1F9"/>
</linearGradient>
<linearGradient id="paint22_linear_996_4538" x1="319.52" y1="117.575" x2="248.119" y2="-64.2288" gradientUnits="userSpaceOnUse">
<stop/>
<stop offset="1" stop-color="white"/>
</linearGradient>
<linearGradient id="paint23_linear_996_4538" x1="319.52" y1="117.575" x2="248.119" y2="-64.2288" gradientUnits="userSpaceOnUse">
<stop stop-color="#97C3F9"/>
<stop offset="1" stop-color="#93C1F9"/>
</linearGradient>
<linearGradient id="paint24_linear_996_4538" x1="345.725" y1="107.283" x2="274.323" y2="-74.5205" gradientUnits="userSpaceOnUse">
<stop/>
<stop offset="1" stop-color="white"/>
</linearGradient>
<linearGradient id="paint25_linear_996_4538" x1="345.725" y1="107.283" x2="274.323" y2="-74.5205" gradientUnits="userSpaceOnUse">
<stop stop-color="#97C3F9"/>
<stop offset="1" stop-color="#93C1F9"/>
</linearGradient>
<linearGradient id="paint26_linear_996_4538" x1="371.929" y1="96.9919" x2="300.528" y2="-84.812" gradientUnits="userSpaceOnUse">
<stop/>
<stop offset="1" stop-color="white"/>
</linearGradient>
<linearGradient id="paint27_linear_996_4538" x1="371.929" y1="96.9919" x2="300.528" y2="-84.812" gradientUnits="userSpaceOnUse">
<stop stop-color="#97C3F9"/>
<stop offset="1" stop-color="#93C1F9"/>
</linearGradient>
<linearGradient id="paint28_linear_996_4538" x1="380.872" y1="93.4793" x2="309.471" y2="-88.3232" gradientUnits="userSpaceOnUse">
<stop/>
<stop offset="1" stop-color="white"/>
</linearGradient>
<linearGradient id="paint29_linear_996_4538" x1="380.872" y1="93.4793" x2="309.471" y2="-88.3232" gradientUnits="userSpaceOnUse">
<stop stop-color="#97C3F9"/>
<stop offset="1" stop-color="#93C1F9"/>
</linearGradient>
<linearGradient id="paint30_linear_996_4538" x1="258.169" y1="141.67" x2="186.767" y2="-40.1339" gradientUnits="userSpaceOnUse">
<stop/>
<stop offset="1" stop-color="white"/>
</linearGradient>
<linearGradient id="paint31_linear_996_4538" x1="258.169" y1="141.67" x2="186.767" y2="-40.1339" gradientUnits="userSpaceOnUse">
<stop stop-color="#97C3F9"/>
<stop offset="1" stop-color="#93C1F9"/>
</linearGradient>
<linearGradient id="paint32_linear_996_4538" x1="284.374" y1="131.378" x2="212.972" y2="-50.4254" gradientUnits="userSpaceOnUse">
<stop/>
<stop offset="1" stop-color="white"/>
</linearGradient>
<linearGradient id="paint33_linear_996_4538" x1="284.374" y1="131.378" x2="212.972" y2="-50.4254" gradientUnits="userSpaceOnUse">
<stop stop-color="#97C3F9"/>
<stop offset="1" stop-color="#93C1F9"/>
</linearGradient>
<linearGradient id="paint34_linear_996_4538" x1="310.578" y1="121.087" x2="239.176" y2="-60.7168" gradientUnits="userSpaceOnUse">
<stop/>
<stop offset="1" stop-color="white"/>
</linearGradient>
<linearGradient id="paint35_linear_996_4538" x1="310.578" y1="121.087" x2="239.176" y2="-60.7168" gradientUnits="userSpaceOnUse">
<stop stop-color="#97C3F9"/>
<stop offset="1" stop-color="#93C1F9"/>
</linearGradient>
<linearGradient id="paint36_linear_996_4538" x1="336.783" y1="110.795" x2="265.381" y2="-71.0085" gradientUnits="userSpaceOnUse">
<stop/>
<stop offset="1" stop-color="white"/>
</linearGradient>
<linearGradient id="paint37_linear_996_4538" x1="336.783" y1="110.795" x2="265.381" y2="-71.0085" gradientUnits="userSpaceOnUse">
<stop stop-color="#97C3F9"/>
<stop offset="1" stop-color="#93C1F9"/>
</linearGradient>
<linearGradient id="paint38_linear_996_4538" x1="362.987" y1="100.504" x2="291.585" y2="-81.3" gradientUnits="userSpaceOnUse">
<stop/>
<stop offset="1" stop-color="white"/>
</linearGradient>
<linearGradient id="paint39_linear_996_4538" x1="362.987" y1="100.504" x2="291.585" y2="-81.3" gradientUnits="userSpaceOnUse">
<stop stop-color="#97C3F9"/>
<stop offset="1" stop-color="#93C1F9"/>
</linearGradient>
<linearGradient id="paint40_linear_996_4538" x1="249.227" y1="145.182" x2="177.825" y2="-36.6218" gradientUnits="userSpaceOnUse">
<stop/>
<stop offset="1" stop-color="white"/>
</linearGradient>
<linearGradient id="paint41_linear_996_4538" x1="249.227" y1="145.182" x2="177.825" y2="-36.6218" gradientUnits="userSpaceOnUse">
<stop stop-color="#97C3F9"/>
<stop offset="1" stop-color="#93C1F9"/>
</linearGradient>
<linearGradient id="paint42_linear_996_4538" x1="275.431" y1="134.89" x2="204.03" y2="-46.9133" gradientUnits="userSpaceOnUse">
<stop/>
<stop offset="1" stop-color="white"/>
</linearGradient>
<linearGradient id="paint43_linear_996_4538" x1="275.431" y1="134.89" x2="204.03" y2="-46.9133" gradientUnits="userSpaceOnUse">
<stop stop-color="#97C3F9"/>
<stop offset="1" stop-color="#93C1F9"/>
</linearGradient>
<linearGradient id="paint44_linear_996_4538" x1="301.636" y1="124.599" x2="230.234" y2="-57.2047" gradientUnits="userSpaceOnUse">
<stop/>
<stop offset="1" stop-color="white"/>
</linearGradient>
<linearGradient id="paint45_linear_996_4538" x1="301.636" y1="124.599" x2="230.234" y2="-57.2047" gradientUnits="userSpaceOnUse">
<stop stop-color="#97C3F9"/>
<stop offset="1" stop-color="#93C1F9"/>
</linearGradient>
<linearGradient id="paint46_linear_996_4538" x1="327.84" y1="114.307" x2="256.439" y2="-67.4963" gradientUnits="userSpaceOnUse">
<stop/>
<stop offset="1" stop-color="white"/>
</linearGradient>
<linearGradient id="paint47_linear_996_4538" x1="327.84" y1="114.307" x2="256.439" y2="-67.4963" gradientUnits="userSpaceOnUse">
<stop stop-color="#97C3F9"/>
<stop offset="1" stop-color="#93C1F9"/>
</linearGradient>
<linearGradient id="paint48_linear_996_4538" x1="354.045" y1="104.016" x2="282.643" y2="-77.7878" gradientUnits="userSpaceOnUse">
<stop/>
<stop offset="1" stop-color="white"/>
</linearGradient>
<linearGradient id="paint49_linear_996_4538" x1="354.045" y1="104.016" x2="282.643" y2="-77.7878" gradientUnits="userSpaceOnUse">
<stop stop-color="#97C3F9"/>
<stop offset="1" stop-color="#93C1F9"/>
</linearGradient>
<clipPath id="clip0_996_4538">
<rect width="444" height="300" fill="white" transform="translate(0 45)"/>
</clipPath>
</defs>
</svg>
